<?xml version="1.0" encoding="UTF-8"?>
<!-- Generator: Adobe Illustrator 19.0.0, SVG Export Plug-In  -->
<svg xmlns="http://www.w3.org/2000/svg" xmlns:xlink="http://www.w3.org/1999/xlink" xmlns:a="http://ns.adobe.com/AdobeSVGViewerExtensions/3.0/" x="0px" y="0px" width="52.8px" height="90px" viewBox="0 0 52.8 90" style="enable-background:new 0 0 52.8 90;" xml:space="preserve">
<defs>
</defs>
<path d="M43.7,13c2.5-1,4.3-3.4,4.3-6.3C48,3,45,0,41.3,0H26.8c-1.1,0-2,0.9-2,2s0.9,2,2,2h14.5C42.8,4,44,5.2,44,6.8  s-1.2,2.8-2.8,2.8H11.5c-1.5,0-2.8-1.2-2.8-2.8S10,4,11.5,4h0.9c1.1,0,2-0.9,2-2s-0.9-2-2-2h-0.9C7.8,0,4.8,3,4.8,6.8  c0,2.9,1.8,5.3,4.3,6.3C9,19.3,7,23.9,4.9,28.7C2.5,34.2,0,39.9,0,48.4v32.8C0,86.1,3.9,90,8.8,90H44c4.8,0,8.8-3.9,8.8-8.8V48.4  c0-8.6-2.5-14.2-4.9-19.7C45.8,23.9,43.8,19.3,43.7,13z M48.8,81.2c0,2.6-2.1,4.8-4.8,4.8H8.8C6.1,86,4,83.9,4,81.2V48.4  c0-7.7,2.2-12.8,4.6-18.1c2.1-4.9,4.3-9.9,4.5-16.8h26.7c0.2,6.9,2.4,11.9,4.5,16.8c0.1,0.3,0.3,0.6,0.4,0.9  c-4,4.7-8.8,3.3-14.4,1.7c-5.7-1.7-12.1-3.5-17.4,2.3c-0.7,0.8-0.7,2.1,0.1,2.8c0.4,0.3,0.9,0.5,1.3,0.5c0.5,0,1.1-0.2,1.5-0.7  c3.4-3.8,7.3-2.9,13.3-1.1c5.3,1.5,11.7,3.4,17.1-1.5c1.4,3.8,2.5,7.8,2.5,13.2V81.2z"></path>
<path d="M20.8,4H21c1.1,0,2-0.9,2-2s-0.9-2-2-2h-0.3c-1.1,0-2,0.9-2,2S19.7,4,20.8,4z"></path>
</svg>
