<?xml version="1.0" encoding="UTF-8"?>
<!-- Generator: Adobe Illustrator 19.0.0, SVG Export Plug-In  -->
<svg xmlns="http://www.w3.org/2000/svg" xmlns:xlink="http://www.w3.org/1999/xlink" xmlns:a="http://ns.adobe.com/AdobeSVGViewerExtensions/3.0/" x="0px" y="0px" width="282.2px" height="227.8px" viewBox="0 0 282.2 227.8" style="enable-background:new 0 0 282.2 227.8;" xml:space="preserve">
<defs>
</defs>
<g>
	<path d="M171.6,75.5c-1.2-1.6-3.2-2.7-5.4-2.7c-1.7,0-3.3,0.7-4.5,1.7c-1.3-2.9-4.2-5-7.6-5c-1.5,0-2.9,0.4-4.1,1.1   c-1.7-5.1-6.6-8.8-12.3-8.8c-5.6,0-10.4,3.6-12.2,8.6c-1.1-0.5-2.3-0.8-3.7-0.8c-3.8,0-7,2.5-8,6C113.8,75.5,171.6,75.5,171.6,75.5   z"></path>
	<path d="M103.2,102.7c0-1.9-13.3-2.8-25.6-2.7v9.1c0.9,0,1.8,0,2.7,0C92.9,109.2,103.2,106.3,103.2,102.7z"></path>
	<path d="M75.3,26.9c2.3-2.1,5.1-4.3,8.3-6.6C82.5,8.9,72.9,0,61.2,0C48.8,0,38.7,10.1,38.7,22.5c0,6.7,2.9,12.7,7.6,16.9h18   C66.5,36.2,70.1,31.7,75.3,26.9z"></path>
	<path d="M100.7,68.2L171.2,53c-5.5-14.6-22.9-23-41-19.1C112.1,37.8,99.7,52.7,100.7,68.2z"></path>
	<path d="M126.1,25.2c-1.2,0.2-2.4,0.4-3.6,0.6c0,0.1,0,0.3,0.1,0.4c0.7,3.1,3.8,5.1,6.9,4.5c3.1-0.7,5.2-3.8,4.5-6.9   c-0.2-0.9-0.6-1.7-1.2-2.4C131.2,23.4,128.9,24.8,126.1,25.2z"></path>
	<path d="M21.5,215.5c0,6.8,5.5,12.4,12.4,12.4c6.8,0,12.4-5.5,12.4-12.4v-90.3h4.6v90.3c0,6.8,5.5,12.4,12.4,12.4   c6.8,0,12.4-5.5,12.4-12.4V54.9c0.5-0.6,1-1.2,1.4-1.9v0c0.3-0.6,3.7-6.8,11.2-13.4c7.8-6.8,19.7-14,37.7-16.4   c4.4-0.6,7.5-4.6,6.9-9c-0.6-4.4-4.6-7.5-9-6.9c-22.1,2.9-37.5,12.3-47.1,21.1c-5.5,5-9.1,9.7-11.4,12.9H29.2c-0.4,0-0.7,0-1.1,0.1   c-1.6-0.2-3.2,0.1-4.7,0.9c-0.8,0.4-1.5,0.8-2.2,1.2c-6.5,3.7-11.4,7.5-15,11.7C2.2,59.9,0,65.4,0,70.8c0,6.8,3.2,12.3,6.9,16.6   c3.7,4.3,8.2,7.7,12.6,10.5c0.7,0.4,1.3,0.8,2,1.2V215.5z M19.5,77.5c-0.3-0.3-0.6-0.7-0.9-1c-2-2.4-2.6-4.3-2.6-5.7   c0-1.2,0.3-2.6,2.4-5.2c0.3-0.4,0.7-0.8,1.1-1.2c0.6-0.6,1.2-1.2,2-1.8v16.9C20.8,78.8,20.1,78.2,19.5,77.5z"></path>
	<rect x="93.5" y="118.9" width="188.7" height="8.3"></rect>
	<path d="M239,46.5c-18.5,0-33.7,11.9-36,27.3h72C272.8,58.4,257.5,46.5,239,46.5z"></path>
	<path d="M196.7,77.5v5.6h6.5c0.9,4.4,2.8,8.5,5.5,12v19.6h6.5v-13.3c6.4,4.8,14.7,7.6,23.8,7.6c9.1,0,17.4-2.9,23.7-7.6v13.3h6.5   V95.1c2.8-3.6,4.7-7.6,5.5-12h6.5v-5.6H196.7z"></path>
	<circle cx="239" cy="37.3" r="5.8"></circle>
	<path d="M167.2,114.8h6.5V95.1c2.8-3.6,4.7-7.6,5.5-12h6.5v-5.6h-84.7v5.6h6.5c0.9,4.4,2.8,8.5,5.5,12v19.6h6.5v-13.3   c6.4,4.8,14.7,7.6,23.8,7.6c9.1,0,17.4-2.9,23.8-7.6V114.8z"></path>
</g>
</svg>
