<?xml version="1.0" encoding="UTF-8"?>
<!-- Generator: Adobe Illustrator 19.0.0, SVG Export Plug-In  -->
<svg xmlns="http://www.w3.org/2000/svg" xmlns:xlink="http://www.w3.org/1999/xlink" xmlns:a="http://ns.adobe.com/AdobeSVGViewerExtensions/3.0/" x="0px" y="0px" width="86px" height="86px" viewBox="0 0 86 86" style="enable-background:new 0 0 86 86;" xml:space="preserve">
<defs>
</defs>
<path d="M17.7,40.2C17.7,53,28.2,63.4,41,63.4S64.3,53,64.3,40.2S53.8,17.1,41,17.1S17.7,27.5,17.7,40.2z M41,21.1  c10.6,0,19.3,8.6,19.3,19.1S51.6,59.4,41,59.4s-19.3-8.6-19.3-19.1S30.4,21.1,41,21.1z"></path>
<path d="M33.1,10.7c0.2,0,0.5,0,0.7-0.1l0.5-0.2c1-0.4,1.6-1.5,1.2-2.6s-1.5-1.6-2.6-1.2l-0.4,0.2c-1,0.4-1.6,1.5-1.2,2.6  C31.5,10.2,32.3,10.7,33.1,10.7z"></path>
<path d="M79.8,28.6C73.5,24.3,65.6,15,62.5,8.4c-1.8-3.9-5-6.7-8.9-7.8c-3.9-1.1-8.1-0.5-11.8,1.9c-0.9,0.6-1.2,1.8-0.6,2.8  s1.8,1.2,2.8,0.6c2.7-1.7,5.7-2.2,8.5-1.4c2.8,0.8,5.1,2.8,6.4,5.7c3.4,7.3,11.8,17.1,18.7,21.8c2.6,1.8,4.2,4.4,4.4,7.2  c0.2,3-1,5.9-3.5,8.3c-6.3,6-12.1,18.1-12.9,27.1c-0.3,2.9-1.5,5.2-3.7,6.4c-3,1.7-7.3,1.4-11.7-0.8c-9.5-4.7-25.3-7.3-35.1-7.2  c-3.9,0-7.1-1.4-9.2-4.1c-1.9-2.6-2.4-6-1.4-9.3c2.7-8.7,3.2-22.7,1.2-31.2c-0.8-3.4-0.2-6.7,1.7-9.3c1.9-2.5,4.8-4.1,8.3-4.3  c3.7-0.3,8.4-1.2,13.1-2.5c1.1-0.3,1.7-1.4,1.4-2.5S28.8,8,27.7,8.3c-4.4,1.3-8.8,2.1-12.3,2.4c-4.7,0.3-8.7,2.4-11.3,5.9  c-2.6,3.5-3.5,8-2.4,12.6c1.8,7.9,1.3,21.2-1.1,29.1c-1.4,4.6-0.7,9.3,2,12.9C5.5,75,10,77,15.1,76.9c9.3-0.2,24.2,2.3,33.2,6.8  c3.1,1.5,6.2,2.3,9,2.3c2.4,0,4.5-0.5,6.4-1.6c3.3-1.9,5.4-5.3,5.8-9.5c0.7-8,6-19.3,11.6-24.6c3.4-3.2,5.1-7.3,4.8-11.5  C85.6,34.8,83.5,31.2,79.8,28.6z"></path>
</svg>
