<?xml version="1.0" encoding="UTF-8"?>
<!-- Generator: Adobe Illustrator 19.0.0, SVG Export Plug-In  -->
<svg xmlns="http://www.w3.org/2000/svg" xmlns:xlink="http://www.w3.org/1999/xlink" xmlns:a="http://ns.adobe.com/AdobeSVGViewerExtensions/3.0/" x="0px" y="0px" width="213.1px" height="214.1px" viewBox="0 0 213.1 214.1" style="enable-background:new 0 0 213.1 214.1;" xml:space="preserve">
<defs>
</defs>
<path d="M213.1,65c-0.5-9.1-6.1-17-14-20.9c0.7-2.4,1-5,0.9-7.7c-0.3-6-2.9-11.7-7.3-16.1c-4.7-4.7-11-7.3-17.3-7.3  c-2.2,0-4.4,0.3-6.5,0.9c-3.9-7.9-11.8-13.5-20.9-14c-6.5-0.3-12.5,2-16.8,6.5c-1.4,1.5-2.6,3.2-3.5,5.1c-2.7-1-5.4-1.5-8.3-1.5  c-5.8,0-11.2,2.2-15.2,6.2c-6.2,6.2-7.7,15.3-4.7,23.4c-2.2,1.1-4.1,2.5-5.8,4.3c-4,4.2-6.1,9.9-5.8,16c0.3,5.7,2.6,10.9,6.2,15  L11,150.9c-0.1,0.1-0.2,0.2-0.3,0.2c-14.4,14.4-14.4,37.8,0,52.2c7.2,7.2,16.6,10.8,26.1,10.8c9.5,0,18.9-3.6,26.1-10.8  c0.1-0.1,0.2-0.2,0.2-0.3l75.9-83.4c3.9,3.1,8.7,5,13.9,5.3c0.4,0,0.8,0,1.2,0c6,0,11.5-2.3,15.5-6.6c1.4-1.5,2.6-3.2,3.5-5.1  c2.6,1,5.4,1.5,8.3,1.5h0c5.8,0,11.2-2.2,15.2-6.2c6.2-6.2,7.7-15.3,4.7-23.4c2.2-1.1,4.1-2.5,5.8-4.3  C211.3,76.8,213.4,71.1,213.1,65L213.1,65z M52,194.2c-8.8,8.7-23.1,8.7-31.9-0.1c-8.8-8.8-8.8-23-0.1-31.9L102.5,87  c0.3,3.7,1.4,7.3,3.2,10.5l-71,71c-3,3-3,7.9,0,10.9c1.5,1.5,3.5,2.3,5.5,2.3c2,0,4-0.8,5.5-2.3l71.4-71.4c3.4,1.7,7.1,2.5,10.8,2.5  c0.1,0,0.2,0,0.2,0L52,194.2L52,194.2z M199.7,71.3c-1.2,1.3-3,2-4.9,2c-0.2,0-0.3,0-0.5,0c-0.5,0-1.1-0.1-1.7-0.3  c-3.7-0.9-7.5,1-9.1,4.4c-1.6,3.5-0.5,7.6,2.7,9.8c0.5,0.4,1,0.8,1.5,1.2c3.6,3.6,4.2,9,1.2,11.9c-1.6,1.6-3.5,1.9-4.8,1.9  c0,0,0,0,0,0c-2.5,0-5.1-1.1-7.1-3.1c-0.4-0.4-0.9-0.9-1.2-1.5c-2.2-3.1-6.3-4.2-9.8-2.7c-3.5,1.6-5.3,5.4-4.4,9.1  c0.1,0.6,0.2,1.1,0.3,1.7c0.1,2-0.5,3.9-1.8,5.2c-1.3,1.4-3.2,2.1-5.4,2c-3.5-0.2-6.7-2.4-8.4-5.5c0-0.1-0.1-0.2-0.1-0.2  c-0.7-1.2-1.1-2.6-1.1-4c0-0.5,0-1.1,0.1-1.6c0.5-3.7-1.6-7.3-5.1-8.6c-0.9-0.3-1.8-0.5-2.8-0.5c-2.6,0-5.2,1.3-6.7,3.6  c-0.2,0.4-0.5,0.7-0.8,1c-1.6,1.6-3.5,1.9-4.8,1.9c-2.5,0-5.1-1.1-7.1-3.1c-1.9-1.9-3-4.2-3.1-6.6c-0.1-1.2,0.1-3.5,1.9-5.3  c0.3-0.3,0.6-0.6,1-0.8c3.1-2,4.4-6,3.1-9.4c-1.3-3.5-4.9-5.6-8.5-5.1c-0.5,0.1-1.1,0.1-1.6,0.1c-5-0.3-9.4-4.7-9.7-9.7  c-0.1-2,0.5-3.9,1.8-5.2c1.3-1.4,3.2-2.1,5.4-2c0.5,0,1.1,0.1,1.7,0.3c3.7,0.9,7.5-1,9.1-4.4c1.6-3.5,0.5-7.6-2.7-9.8  c-0.5-0.4-1-0.8-1.5-1.2c-3.6-3.6-4.2-9-1.2-11.9c1.6-1.6,3.5-1.9,4.8-1.9c2.5,0,5.1,1.1,7.1,3.1c0.4,0.4,0.9,0.9,1.2,1.5  c2.2,3.1,6.3,4.3,9.8,2.7c3.5-1.6,5.3-5.4,4.4-9.1c-0.1-0.6-0.2-1.2-0.3-1.7c-0.1-2,0.5-3.9,1.8-5.2c1.3-1.4,3.3-2.1,5.4-2  c5,0.3,9.4,4.7,9.7,9.7c0,0.5,0,1-0.1,1.6c-0.5,3.7,1.6,7.3,5.1,8.6c3.5,1.3,7.4,0,9.5-3.1c0.2-0.4,0.5-0.7,0.8-1  c1.6-1.6,3.5-1.9,4.8-1.9c2.5,0,5.1,1.1,7.1,3.1c1.9,1.9,3,4.2,3.1,6.6c0.1,1.2-0.1,3.5-1.9,5.3c-0.3,0.3-0.6,0.6-1,0.8  c-3.1,2-4.4,6-3.1,9.5c1.3,3.5,4.9,5.6,8.6,5.1c0.5-0.1,1-0.1,1.6-0.1c5,0.3,9.4,4.7,9.7,9.7C201.6,68.1,201,69.9,199.7,71.3  L199.7,71.3z"></path>
</svg>
