<?xml version="1.0" encoding="UTF-8"?>
<!-- Generator: Adobe Illustrator 19.0.0, SVG Export Plug-In  -->
<svg xmlns="http://www.w3.org/2000/svg" xmlns:xlink="http://www.w3.org/1999/xlink" xmlns:a="http://ns.adobe.com/AdobeSVGViewerExtensions/3.0/" x="0px" y="0px" width="79px" height="89.1px" viewBox="0 0 79 89.1" style="enable-background:new 0 0 79 89.1;" xml:space="preserve">
<defs>
</defs>
<g transform="translate(0,-952.36216)">
	<path d="M39.6,952.4L39.6,952.4c-0.6,0-1.2,0.2-1.7,0.6c-1.4,1-2.5,2.4-3.2,3.9c-0.7,1.6-1,3.3-0.8,5c0.3,3.3,2,5.7,3.4,7.8   c1.3,2,2.3,3.7,2.5,5.2c0.1,0.8-0.1,1.6-0.4,2.2c-0.3,0.7-0.8,1.3-1.4,1.8c-1.2,0.9-1.5,2.6-0.7,3.8c0.9,1.2,2.6,1.5,3.8,0.7   c0,0,0.1,0,0.1-0.1c1.4-1,2.5-2.4,3.2-3.9c0.7-1.6,1-3.3,0.8-5c-0.3-3.3-2-5.7-3.4-7.8c-1.3-2-2.3-3.7-2.5-5.2   c-0.1-0.8,0.1-1.6,0.4-2.2c0.3-0.7,0.8-1.3,1.4-1.8c1.2-0.9,1.5-2.6,0.7-3.8C41.3,952.8,40.5,952.4,39.6,952.4L39.6,952.4z    M22.6,958.7c-0.4,0-0.9,0.1-1.2,0.3c-1.4,0.8-2.6,1.8-3.4,3.1c-0.8,1.3-1.2,2.9-1,4.5c0.4,3,2.3,4.9,3.7,6.4   c1.3,1.5,2.2,2.8,2.3,3.4c0,0.3,0,0.6-0.2,1c-0.2,0.4-0.7,0.8-1.3,1.2c-1.3,0.7-1.9,2.4-1.2,3.7c0.7,1.3,2.4,1.9,3.7,1.2   c0,0,0.1,0,0.1,0c1.4-0.8,2.6-1.8,3.4-3.1c0.8-1.3,1.2-2.9,1-4.5c-0.4-3-2.3-4.9-3.7-6.4c-1.3-1.5-2.2-2.8-2.3-3.4   c0-0.3,0-0.6,0.2-1c0.2-0.4,0.7-0.8,1.3-1.2c1.3-0.7,1.9-2.4,1.2-3.7C24.7,959.3,23.7,958.7,22.6,958.7L22.6,958.7L22.6,958.7z    M56.2,958.7c-0.4,0-0.9,0.1-1.2,0.3c-1.4,0.8-2.6,1.8-3.4,3.1c-0.8,1.3-1.2,2.9-1,4.5c0.4,3,2.3,4.9,3.7,6.4   c1.3,1.5,2.2,2.8,2.3,3.4c0,0.3,0,0.6-0.2,1c-0.2,0.4-0.7,0.8-1.3,1.2c-1.3,0.7-1.9,2.4-1.2,3.7c0.7,1.3,2.4,1.9,3.7,1.2   c0,0,0,0,0.1,0c1.4-0.8,2.6-1.8,3.4-3.1c0.8-1.3,1.2-2.9,1-4.5c-0.4-3-2.3-4.9-3.7-6.4c-1.3-1.5-2.2-2.8-2.3-3.4c0-0.3,0-0.6,0.2-1   c0.2-0.4,0.7-0.8,1.3-1.2c1.3-0.7,1.9-2.4,1.2-3.7C58.3,959.3,57.3,958.7,56.2,958.7L56.2,958.7L56.2,958.7z M39.5,986   c-10.7,0-20.3,1.9-27.5,5.1c-3.6,1.6-6.5,3.5-8.6,5.7c-2.1,2.2-3.4,4.8-3.4,7.6c0,0,0,0,0,0c0,0,0,0,0,0c0,0.3,0,0.7,0.1,1   c0.2,2.6,1.1,10,5.2,17.4c5.1,9.2,15.2,18.6,34.3,18.6c19.1,0,29.2-9.3,34.3-18.6c4.1-7.4,5-14.8,5.2-17.4c0-0.3,0.1-0.6,0.1-1   c0,0,0,0,0,0c0,0,0,0,0,0c0-2.8-1.3-5.4-3.4-7.6c-2.1-2.2-5.1-4.1-8.6-5.7C59.8,987.9,50.2,986,39.5,986L39.5,986L39.5,986z    M39.5,989.1L39.5,989.1L39.5,989.1c9.4,0,17.9,1.7,24.1,4.4c3.1,1.4,5.6,3,7.4,4.9c1.8,1.8,2.8,4,2.8,6.2c0,0,0,0,0,0   c0,0.3,0,0.2,0,0.3c0,0.1,0,0.3,0,0.5c0,0,0,0.1,0,0.1c-0.2,1.9-1.2,3.7-2.7,5.3c-1.8,1.9-4.3,3.5-7.4,4.9   c-6.2,2.8-14.7,4.4-24.1,4.4s-17.9-1.7-24.1-4.4c-3.1-1.4-5.6-3-7.4-4.9c-1.5-1.6-2.5-3.4-2.7-5.3c0,0,0-0.1,0-0.1   c0-0.5,0-0.7,0-0.8c0,0,0,0,0-0.1c0-2.2,1-4.3,2.8-6.2c1.8-1.9,4.3-3.5,7.4-4.9C21.6,990.7,30.1,989.1,39.5,989.1L39.5,989.1z    M39.5,992.8c-8.9,0-17,1.7-22.6,4.1c-2.8,1.2-4.9,2.7-6.2,4.1c-1.3,1.4-1.8,2.5-1.8,3.6c0,0,0,0.2,0,0.5c0.1,1,0.6,2,1.7,3.2   c0.5,0.6,1.2,1.1,2,1.7c0-1.8,0.9-3.6,2.2-5.1c1.4-1.6,3.4-2.9,5.8-4.1c4.9-2.3,11.4-3.7,18.7-3.7c7.3,0,13.9,1.4,18.7,3.7   c2.4,1.1,4.4,2.5,5.8,4.1c1.4,1.5,2.2,3.3,2.2,5.1c0.8-0.6,1.5-1.2,2-1.7c1.1-1.2,1.6-2.2,1.7-3.2c0-0.2,0-0.3,0-0.4   c0,0,0-0.1,0-0.1c0-1.1-0.5-2.2-1.8-3.6c-1.3-1.4-3.4-2.8-6.2-4.1C56.5,994.4,48.4,992.8,39.5,992.8L39.5,992.8L39.5,992.8z    M39.5,1000.8c-6.8,0-13,1.3-17.1,3.3c-2.1,1-3.7,2.1-4.6,3.2c-1,1.1-1.3,1.9-1.3,2.7c0,0,0,0.1,0,0.4c0.1,0.6,0.4,1.3,1,2.1   c5.5,2.3,13.4,3.9,22,3.9c8.7,0,16.5-1.5,22-3.9c0.7-0.8,0.9-1.5,1-2.1c0-0.1,0-0.2,0-0.3c0,0,0-0.1,0-0.1c0-0.8-0.3-1.7-1.3-2.7   c-1-1.1-2.6-2.2-4.6-3.2C52.5,1002.1,46.3,1000.8,39.5,1000.8L39.5,1000.8z"></path>
</g>
</svg>
