<?xml version="1.0" encoding="UTF-8"?>
<svg xmlns="http://www.w3.org/2000/svg" xmlns:xlink="http://www.w3.org/1999/xlink" width="200" height="200" fill="#000000" x="0px" y="0px" viewBox="0 0 100 100" style="enable-background:new 0 0 100 100;" xml:space="preserve">
  <path d="M38.6,44.3l4.6,1c0.1,0,0.2,0,0.3,0c0.7,0,1.3-0.5,1.5-1.2c0.2-0.8-0.3-1.6-1.2-1.8l-4.6-1c-0.8-0.2-1.6,0.3-1.8,1.2  C37.3,43.3,37.8,44.1,38.6,44.3z"></path>
  <path d="M52.5,41.1l2,1.1c0.2,0.1,0.5,0.2,0.7,0.2c0.5,0,1-0.3,1.3-0.8c0.4-0.7,0.1-1.6-0.6-2l-2-1.1c-0.7-0.4-1.6-0.1-2,0.6  C51.6,39.8,51.8,40.7,52.5,41.1z"></path>
  <path d="M59.8,40.1c-0.6,0.6-0.6,1.5-0.1,2.1l1.6,1.7c0.3,0.3,0.7,0.5,1.1,0.5c0.4,0,0.7-0.1,1-0.4c0.6-0.6,0.6-1.5,0.1-2.1  l-1.6-1.7C61.3,39.5,60.4,39.5,59.8,40.1z"></path>
  <path d="M59.7,38.1c0.3,0,0.6-0.1,0.8-0.2l1.9-1.2c0.7-0.5,0.9-1.4,0.4-2.1c-0.5-0.7-1.4-0.9-2.1-0.4l-1.9,1.2  c-0.7,0.5-0.9,1.4-0.4,2.1C58.7,37.9,59.2,38.1,59.7,38.1z"></path>
  <path d="M63.9,29.7L63,28.6c-1.2-1.4-4.7-1.8-9.2-1.5c-0.5-1-1-1.6-1.8-2c-1.4-0.7-2.8-0.2-4.1,0.3c-0.1,0-0.2,0.1-0.3,0.1  c-1.5-4.7-4.9-8.6-9.3-10.8c-0.7-0.4-1.6-0.1-2,0.7c-0.4,0.7-0.1,1.6,0.7,2c3.7,1.8,6.4,5,7.7,8.8c0,0-0.1,0-0.1,0  c-1.4,0.2-2.9,0.4-3.8,1.7c-0.2,0.4-0.4,0.8-0.5,1.2c-3.8,0.8-7.4,1.8-10.1,2.8c-6.6,2.3-9.6,4.7-9.6,7.3V46c0,0.1,0,0.1,0,0.2v25.8  c0,0.7,0.5,1.3,1.2,1.5L78,85.2c0.1,0,0.2,0,0.3,0c0.3,0,0.7-0.1,0.9-0.3c0.4-0.3,0.6-0.7,0.6-1.2V51.1  C79.8,50.2,79.8,49.3,63.9,29.7z M43.1,29.7c0.6-0.6,1.6-0.6,2.1,0c0.3,0.3,0.4,0.7,0.4,1.1s-0.2,0.8-0.4,1.1  c-0.3,0.3-0.7,0.4-1.1,0.4c-0.4,0-0.8-0.2-1.1-0.4c-0.3-0.3-0.4-0.7-0.4-1.1S42.8,30,43.1,29.7z M76.8,81.9L23.6,70.7v-5.4l0.5,0.6  c0.3,0.3,0.7,0.5,1.1,0.5c0.4,0,0.8-0.1,1-0.4c0,0,0-0.1,0.1-0.1l0.6,0.6c0.3,0.3,0.7,0.5,1.1,0.5c0.4,0,0.8-0.1,1-0.4  c0,0,0-0.1,0.1-0.1l0.6,0.6c0.3,0.3,0.7,0.5,1.1,0.5c0.4,0,0.8-0.1,1-0.4c0,0,0-0.1,0.1-0.1l0.6,0.6c0.3,0.3,0.7,0.5,1.1,0.5  c0.4,0,0.8-0.1,1-0.4c0,0,0-0.1,0.1-0.1l0.6,0.6c0.3,0.3,0.7,0.5,1.1,0.5c0.4,0,0.8-0.1,1-0.4c0,0,0-0.1,0.1-0.1l0.6,0.6  c0.3,0.3,0.7,0.5,1.1,0.5c0.4,0,0.8-0.1,1-0.4c0,0,0-0.1,0.1-0.1l0.6,0.6c0.3,0.3,0.7,0.5,1.1,0.5c0.4,0,0.8-0.1,1-0.4  c0,0,0-0.1,0.1-0.1l0.6,0.6c0.3,0.3,0.7,0.5,1.1,0.5c0.4,0,0.8-0.1,1-0.4c0,0,0-0.1,0.1-0.1l0.6,0.6c0.3,0.3,0.7,0.5,1.1,0.5  c0.4,0,0.8-0.1,1-0.4c0,0,0-0.1,0.1-0.1l0.6,0.6c0.3,0.3,0.7,0.5,1.1,0.5c0.4,0,0.8-0.1,1-0.4c0,0,0-0.1,0.1-0.1l0.6,0.6  c0.3,0.3,0.7,0.5,1.1,0.5c0.4,0,0.8-0.1,1-0.4c0,0,0-0.1,0.1-0.1l0.6,0.6c0.3,0.3,0.7,0.5,1.1,0.5c0.4,0,0.8-0.1,1-0.4  c0,0,0-0.1,0.1-0.1l0.6,0.6c0.3,0.3,0.7,0.5,1.1,0.5c0.4,0,0.8-0.1,1-0.4c0,0,0-0.1,0.1-0.1l0.6,0.6c0.3,0.3,0.7,0.5,1.1,0.5  c0.4,0,0.8-0.1,1-0.4c0,0,0-0.1,0.1-0.1l0.6,0.6c0.3,0.3,0.7,0.5,1.1,0.5c0.4,0,0.8-0.1,1-0.4c0,0,0-0.1,0.1-0.1l0.6,0.6  c0.3,0.3,0.7,0.5,1.1,0.5c0.4,0,0.8-0.1,1-0.4c0,0,0-0.1,0.1-0.1l0.6,0.6c0.3,0.3,0.7,0.5,1.1,0.5c0.4,0,0.8-0.1,1-0.4  c0,0,0-0.1,0.1-0.1l0.6,0.6c0.3,0.3,0.7,0.5,1.1,0.5c0.4,0,0.8-0.1,1-0.4c0,0,0-0.1,0.1-0.1l0.6,0.6c0.3,0.3,0.7,0.5,1.1,0.5  c0.4,0,0.8-0.1,1-0.4c0,0,0-0.1,0.1-0.1l0.2,0.2V81.9z M76.8,72.4l-0.5-0.6c-0.6-0.6-1.5-0.6-2.1,0c0,0,0,0.1-0.1,0.1l-0.6-0.6  c-0.6-0.6-1.5-0.6-2.1,0c0,0,0,0.1-0.1,0.1l-0.6-0.6c-0.6-0.6-1.5-0.6-2.1,0c0,0,0,0.1-0.1,0.1L67.9,70c-0.6-0.6-1.5-0.6-2.1,0  c0,0,0,0.1-0.1,0.1l-0.6-0.6c-0.6-0.6-1.5-0.6-2.1,0c0,0,0,0.1-0.1,0.1l-0.6-0.6c-0.6-0.6-1.5-0.6-2.1,0c0,0,0,0.1-0.1,0.1l-0.6-0.6  c-0.6-0.6-1.5-0.6-2.1,0c0,0,0,0.1-0.1,0.1l-0.6-0.6c-0.6-0.6-1.5-0.6-2.1,0c0,0,0,0.1-0.1,0.1l-0.6-0.6c-0.6-0.6-1.5-0.6-2.1,0  c0,0,0,0.1-0.1,0.1l-0.6-0.6c-0.6-0.6-1.5-0.6-2.1,0c0,0,0,0.1-0.1,0.1l-0.6-0.6c-0.6-0.6-1.5-0.6-2.1,0c0,0,0,0.1-0.1,0.1l-0.6-0.6  c-0.6-0.6-1.5-0.6-2.1,0c0,0,0,0.1-0.1,0.1l-0.6-0.6c-0.6-0.6-1.5-0.6-2.1,0c0,0,0,0.1-0.1,0.1l-0.6-0.6c-0.6-0.6-1.5-0.6-2.1,0  c0,0,0,0.1-0.1,0.1l-0.6-0.6c-0.6-0.6-1.5-0.6-2.1,0c0,0,0,0.1-0.1,0.1l-0.6-0.6c-0.6-0.6-1.5-0.6-2.1,0c0,0,0,0.1-0.1,0.1l-0.6-0.6  c-0.6-0.6-1.5-0.6-2.1,0c0,0,0,0.1-0.1,0.1l-0.6-0.6c-0.6-0.6-1.5-0.6-2.1,0c0,0,0,0.1-0.1,0.1l-0.6-0.6c-0.6-0.6-1.5-0.6-2.1,0  c0,0,0,0.1-0.1,0.1L23.6,61v-4l0.5,0.6c0.3,0.3,0.7,0.5,1.1,0.5c0.4,0,0.8-0.1,1-0.4c0,0,0-0.1,0.1-0.1l0.6,0.6  c0.3,0.3,0.7,0.5,1.1,0.5c0.4,0,0.8-0.1,1-0.4c0,0,0-0.1,0.1-0.1l0.6,0.6c0.3,0.3,0.7,0.5,1.1,0.5c0.4,0,0.8-0.1,1-0.4  c0,0,0-0.1,0.1-0.1l0.6,0.6c0.3,0.3,0.7,0.5,1.1,0.5c0.4,0,0.8-0.1,1-0.4c0,0,0-0.1,0.1-0.1l0.6,0.6c0.3,0.3,0.7,0.5,1.1,0.5  c0.4,0,0.8-0.1,1-0.4c0,0,0-0.1,0.1-0.1l0.6,0.6c0.3,0.3,0.7,0.5,1.1,0.5c0.4,0,0.8-0.1,1-0.4c0,0,0-0.1,0.1-0.1l0.6,0.6  c0.3,0.3,0.7,0.5,1.1,0.5c0.4,0,0.8-0.1,1-0.4c0,0,0-0.1,0.1-0.1l0.6,0.6c0.3,0.3,0.7,0.5,1.1,0.5c0.4,0,0.8-0.1,1-0.4  c0,0,0-0.1,0.1-0.1l0.6,0.6c0.3,0.3,0.7,0.5,1.1,0.5c0.4,0,0.8-0.1,1-0.4c0,0,0-0.1,0.1-0.1l0.6,0.6c0.3,0.3,0.7,0.5,1.1,0.5  c0.4,0,0.8-0.1,1-0.4c0,0,0-0.1,0.1-0.1l0.6,0.6c0.3,0.3,0.7,0.5,1.1,0.5c0.4,0,0.8-0.1,1-0.4c0,0,0-0.1,0.1-0.1l0.6,0.6  c0.3,0.3,0.7,0.5,1.1,0.5c0.4,0,0.8-0.1,1-0.4c0,0,0-0.1,0.1-0.1l0.6,0.6c0.3,0.3,0.7,0.5,1.1,0.5c0.4,0,0.8-0.1,1-0.4  c0,0,0-0.1,0.1-0.1l0.6,0.6c0.3,0.3,0.7,0.5,1.1,0.5c0.4,0,0.8-0.1,1-0.4c0,0,0-0.1,0.1-0.1l0.6,0.6c0.3,0.3,0.7,0.5,1.1,0.5  c0.4,0,0.8-0.1,1-0.4c0,0,0-0.1,0.1-0.1l0.6,0.6c0.3,0.3,0.7,0.5,1.1,0.5c0.4,0,0.8-0.1,1-0.4c0,0,0-0.1,0.1-0.1l0.6,0.6  c0.3,0.3,0.7,0.5,1.1,0.5c0.4,0,0.8-0.1,1-0.4c0,0,0-0.1,0.1-0.1l0.6,0.6c0.3,0.3,0.7,0.5,1.1,0.5c0.4,0,0.8-0.1,1-0.4  c0,0,0-0.1,0.1-0.1l0.6,0.6c0.3,0.3,0.7,0.5,1.1,0.5c0.4,0,0.8-0.1,1-0.4c0,0,0-0.1,0.1-0.1l0.2,0.2V72.4z M76.8,64.1l-0.5-0.6  c-0.6-0.6-1.5-0.6-2.1,0c0,0,0,0.1-0.1,0.1l-0.6-0.6c-0.6-0.6-1.5-0.6-2.1,0c0,0,0,0.1-0.1,0.1l-0.6-0.6c-0.6-0.6-1.5-0.6-2.1,0  c0,0,0,0.1-0.1,0.1l-0.6-0.6c-0.6-0.6-1.5-0.6-2.1,0c0,0,0,0.1-0.1,0.1l-0.6-0.6c-0.6-0.6-1.5-0.6-2.1,0c0,0,0,0.1-0.1,0.1l-0.6-0.6  c-0.6-0.6-1.5-0.6-2.1,0c0,0,0,0.1-0.1,0.1L59.5,60c-0.6-0.6-1.5-0.6-2.1,0c0,0,0,0.1-0.1,0.1l-0.6-0.6c-0.6-0.6-1.5-0.6-2.1,0  c0,0,0,0.1-0.1,0.1l-0.6-0.6c-0.6-0.6-1.5-0.6-2.1,0c0,0,0,0.1-0.1,0.1l-0.6-0.6c-0.6-0.6-1.5-0.6-2.1,0c0,0,0,0.1-0.1,0.1l-0.6-0.6  c-0.6-0.6-1.5-0.6-2.1,0c0,0,0,0.1-0.1,0.1L45.5,57c-0.6-0.6-1.5-0.6-2.1,0c0,0,0,0.1-0.1,0.1l-0.6-0.6c-0.6-0.6-1.5-0.6-2.1,0  c0,0,0,0.1-0.1,0.1l-0.6-0.6c-0.6-0.6-1.5-0.6-2.1,0c0,0,0,0.1-0.1,0.1l-0.6-0.6c-0.6-0.6-1.5-0.6-2.1,0c0,0,0,0.1-0.1,0.1l-0.6-0.6  c-0.6-0.6-1.5-0.6-2.1,0c0,0,0,0.1-0.1,0.1L31.5,54c-0.6-0.6-1.5-0.6-2.1,0c0,0,0,0.1-0.1,0.1l-0.6-0.6c-0.6-0.6-1.5-0.6-2.1,0  c0,0,0,0.1-0.1,0.1l-0.6-0.6c-0.6-0.6-1.5-0.6-2.1,0c0,0,0,0.1-0.1,0.1l-0.2-0.2v-3.7c3.1,1.6,7.1,2,10.1,0.9c2.9-1.1,7.3-0.2,9.6,2  c3.1,3,8.7,4.2,12.7,2.7c2.9-1.1,7.3-0.2,9.6,2c2.2,2.1,5.6,3.3,8.8,3.3c0.9,0,1.7-0.1,2.5-0.3V64.1z M76.8,56.5  c-2.9,0.9-7.1,0-9.2-2.1c-3.1-3-8.7-4.2-12.7-2.7c-2.9,1.1-7.3,0.2-9.6-2c-3.1-3-8.7-4.2-12.7-2.7c-2.8,1-6.7,0.3-9.1-1.6v-4.3  l10.1,2.1c0.8,0.2,1.6-0.3,1.8-1.2c0.2-0.8-0.3-1.6-1.2-1.8l-10-2.1c0.6-0.5,1.6-1.2,3.5-2.1c0.8-0.4,1.7-0.7,2.7-1.1  c0,0.4,0.1,0.8,0.4,1.1l1.6,1.7c0.3,0.3,0.7,0.5,1.1,0.5c0.4,0,0.7-0.1,1-0.4c0.6-0.6,0.6-1.5,0.1-2.1l-1.5-1.6  c2.3-0.7,4.8-1.4,7.3-2c0,0.2,0.1,0.4,0.1,0.6c0.3,1,0.7,1.9,1.4,2.7l-1.6,0.6c-0.8,0.3-1.2,1.1-0.9,1.9c0.2,0.6,0.8,1,1.4,1  c0.2,0,0.3,0,0.5-0.1l2.1-0.8c0.4-0.1,0.6-0.4,0.8-0.7c1,0.5,2.1,0.8,3.3,0.8c0.6,0,1.2-0.1,1.7-0.2c1.6-0.4,3.1-1.4,4.1-2.7  l1.2,0.1c0.1,0,0.1,0,0.2,0c0.7,0,1.4-0.6,1.5-1.3c0.1-0.8-0.5-1.6-1.3-1.7l-0.3,0c0.2-0.8,0.2-1.6,0.1-2.4c3.1-0.2,5.3,0,6,0.5  l0.9,1.1c2,2.4,3.7,4.5,5.2,6.4c-0.1,0.1-0.1,0.2-0.1,0.4l-0.4,2.2c-0.2,0.8,0.4,1.6,1.2,1.8c0.1,0,0.2,0,0.3,0  c0.7,0,1.3-0.5,1.5-1.2l0-0.2c3,3.8,4.9,6.2,6,7.8l-19.6-4.1c-0.8-0.2-1.6,0.3-1.8,1.2c-0.2,0.8,0.3,1.6,1.2,1.8l21.8,4.6V56.5z"></path>
</svg>
