<!-- Generator: Adobe Illustrator 19.0.0, SVG Export Plug-In  -->
<svg version="1.1"
	 xmlns="http://www.w3.org/2000/svg" xmlns:xlink="http://www.w3.org/1999/xlink" xmlns:a="http://ns.adobe.com/AdobeSVGViewerExtensions/3.0/"
	 x="0px" y="0px" width="72.9px" height="59.2px" viewBox="0 0 72.9 59.2" style="enable-background:new 0 0 72.9 59.2;"
	 xml:space="preserve">
<defs>
</defs>
<g>
	<path d="M72.7,36.2L72.7,36.2c0-0.2,0-0.2-0.1-0.3v-0.1c0-0.1-0.1-0.2-0.1-0.3l0,0L61.2,20c-0.5-1.1-3.2-6.2-10.6-7.7
		c0.6-2.1,0.2-4.6-1.4-6.6c-0.9-1.1-2-1.9-3.2-2.5V1.5C46,0.7,45.3,0,44.5,0l0,0C43.7,0,43,0.7,43,1.5v1.1c-1.2,0.1-2.2,0.4-3.1,1.1
		c-2.5,1.9-2.8,5.6-1,8.6C25,14.2,5.4,19.6,4.4,19.8c0,0-0.1,0-0.1,0.1H4.2C4.1,19.9,4,20,4,20l0,0l0,0c-0.1,0.1-0.2,0.1-0.2,0.2
		c0,0,0,0-0.1,0.1c0,0.1-0.1,0.1-0.1,0.2v0.1c0,0.1,0,0.1-0.1,0.2v0.1c0,0.1,0,0.1,0,0.2c0,0,0,0,0,0.1v7.2
		c-1.7,0.9-3.6,2.2-3.5,3.8c0,0.5,0.3,1.5,1.7,2c0.1,0,0.2,0.1,0.3,0.1c0.2,0.2,0.5,0.4,0.8,0.4v6.8c0,0.7,0.5,1.3,1.1,1.5
		l65.4,16.2c0.1,0,0.2,0,0.4,0c0.3,0,0.6-0.1,0.8-0.3c0.4-0.2,0.6-0.6,0.6-1l1.1-8.7l0,0l0,0v-0.1c0-0.1,0-0.1,0-0.2s0-0.1,0-0.2
		v-0.1l-0.7-2.7c0.2-0.2,0.3-0.5,0.3-0.7l1.1-8.9v-0.1v-0.1C72.7,36.3,72.7,36.2,72.7,36.2z M49.6,46.8c-0.3,0.2-0.5,0.5-0.7,0.7
		c-0.2,0.3-0.4,0.4-0.5,0.5c-0.1-0.2-0.2-0.4-0.3-0.6S48,47,47.8,46.8l0,0c0,0-0.1-0.2-0.3-0.4c-0.4-0.5-1.3-1.6-2.2-2.6
		c-0.6-0.7-1.2-1.3-1.7-1.9c-0.5-0.5-1.3-1.5-2.5-1.2c-0.8,0.2-1.1,0.8-1.3,1.2c-0.1,0.1-0.1,0.3-0.1,0.4l0,0
		c-0.6,0.3-1.2,0.5-2.3,0.2c-0.2-0.2-0.3-0.6-0.4-1.3c-0.1-0.6-0.1-1.4,0-2.1l5.8,1.1l4.1,1l-0.2,1.5c0,0.2,0,0.5,0.1,0.7
		c0.2,0.5,0.6,0.9,1.2,1c0.1,0,0.2,0,0.2,0c0.5,0,0.9-0.2,1.2-0.6c0.1-0.2,0.2-0.4,0.3-0.6l0.2-1.2l6.9,1.7
		c-1.1,0.1-2.2,0.4-3.2,0.9C52,45,50.7,45.8,49.6,46.8L49.6,46.8z M27,41.3c-0.3,0.2-0.6,0.3-0.8,0.3c-0.1,0-0.2,0-0.3,0
		s-0.1-0.1-0.2-0.1c-0.3-0.1-0.7-0.4-1-0.8c-0.2-0.2-0.4-0.5-0.5-0.8c-0.4-0.9-1.2-1.7-2-2.4c-1.3-1.1-2.9-1.8-4-1.8
		c-0.4,0-0.9,0.1-1.4,0.4c-0.3,0.2-0.6,0.6-0.7,1.2c0,0.2-0.1,0.3-0.7,0.6C15.2,38,15.1,38,15.1,38c-0.3-0.2-0.7-1.3-0.9-1.8
		L14.1,36c-0.1-0.3-0.2-0.5-0.4-0.7c-0.9-1.5-2.4-2.6-4.7-3.1c-1.1-0.2-2.3-0.4-3.7-0.4c-0.7,0-1.3,0-1.8,0c0.3-0.2,0.7-0.4,1-0.6
		c0.2-0.1,0.4-0.3,0.5-0.4l17.9,4.4l4.1,1l-0.6,0l5.4,1.5c-0.6,0.4-1.3,1-2.1,1.6c-0.7,0.5-1.4,1.1-2.1,1.5
		C27.4,41,27.2,41.1,27,41.3z M65.1,46.2c-0.7-0.3-1.1-0.6-1.6-0.9c-0.1-0.1-0.3-0.1-0.4-0.2l4,1c0,0.2,0,0.4-0.1,0.6
		c0,0.2-0.1,0.5-0.1,0.6l-0.1-0.1c-0.3-0.2-0.7-0.5-1.2-0.8C65.4,46.4,65.2,46.3,65.1,46.2z M68.9,42.9l-0.1,0.6l-1.4-0.4l-4.8-1.2
		l-0.7-0.1l-14-3.4L6.2,28v-4.7L41,32.2h0.1l13.5,2.2l3.3,0.5c0.8,0.1,1.5-0.4,1.7-1.1v-0.1l0,0c0.1-0.8-0.4-1.6-1.2-1.7l-7.7-1.3
		l-9-1.5l-30.9-7.9c7.6-1.9,21.2-5.2,30.8-6.2c0.5,0.3,1,0.6,1.5,0.7v4.7c0,0.8,0.7,1.5,1.5,1.5l0,0c0.8,0,1.5-0.7,1.5-1.5v-4.4
		c1-0.1,1.9-0.5,2.7-1.1c0,0,0.1,0,0.1-0.1c7.5,1.1,9.6,6,9.7,6.3c0,0.1,0.1,0.2,0.2,0.3l4.4,6.1l2.5,3.4l0.6,0.9l1.5,2.1l-1.1-0.2
		l-1.6-0.3l-1.4-0.3C63,33,62.3,33.5,62,34.1c0,0.1,0,0.1,0,0.2c0,0,0,0,0,0.1c-0.2,0.8,0.4,1.6,1.2,1.8l2.7,0.5l1.6,0.3l1.6,0.3
		l0.5,0.1l-0.1,1.2L68.9,42.9z M41.7,11.4c-1.4-1.8-1.4-4.2-0.1-5.2c0.4-0.3,0.8-0.4,1.3-0.5l0,0v0.4c0,0.8,0.7,1.5,1.5,1.5l0,0
		c0.6,0,1.2-0.4,1.4-0.9c0,0,0,0,0.1,0c0.3,0.2,0.6,0.5,0.8,0.8c1.1,1.4,1.3,3.2,0.7,4.4c-0.2,0.3-0.4,0.6-0.7,0.8
		c-0.2,0.2-0.5,0.3-0.8,0.4c-0.2,0.1-0.5,0.1-0.8,0.1c-0.7,0-1.5-0.3-2.2-0.7c-0.2-0.1-0.4-0.3-0.6-0.5
		C42.1,11.8,41.9,11.6,41.7,11.4z M68.1,56.2L5.5,40.7v-4.5l3.8,1c0.6,1.1,1.8,2.1,3.8,2.8c0.3,0.3,0.7,0.6,1.1,0.8
		c0.5,0.2,1.1,0.3,1.9,0c0.5,0.1,1.1,0.2,1.7,0.2c1.5,0.2,2.8,0.2,3.8,0.2c0.8,1.6,2.1,2.8,3.5,3.2c0.4,0.1,0.7,0.2,1.1,0.2
		c0.8,0,1.6-0.2,2.4-0.7c0.5-0.3,1-0.7,1.6-1.1c3,1.8,7.3,3.4,13.5,4c0.7,0.8,1.2,1.5,1.5,1.8c0.3,0.7,0.9,2.2,2.4,2.5
		c0.2,0,0.4,0.1,0.6,0.1c1,0,1.9-0.5,2.8-1.6c0.7-0.8,1.7-1.5,2.7-2l10.7,1.8c0.2,0.1,0.3,0.2,0.5,0.3c0.7,0.5,1.9,1.4,3.5,0.3
		c0.2-0.1,0.3-0.3,0.4-0.4L68.1,56.2z"/>
</g>
</svg>
