<?xml version="1.0" encoding="utf-8"?>
<!-- Generator: Adobe Illustrator 22.1.0, SVG Export Plug-In . SVG Version: 6.00 Build 0)  -->
<svg version="1.1" id="eng" xmlns="http://www.w3.org/2000/svg" xmlns:xlink="http://www.w3.org/1999/xlink" x="0px" y="0px"
	 viewBox="0 0 334.4 335.4" style="enable-background:new 0 0 334.4 335.4;" xml:space="preserve">
<style type="text/css">
	.eng-st0{clip-path:url(#SVGID_2_);fill:#41479B;}
	.eng-st1{clip-path:url(#SVGID_2_);fill:#F5F5F5;}
	.eng-st2{clip-path:url(#SVGID_2_);}
	.eng-st3{fill:#FF4B55;}
</style>
<g>
	<defs>
		<circle id="SVGID_1_" cx="167.2" cy="168.1" r="167.2"/>
	</defs>
	<clipPath id="SVGID_2_">
		<use xlink:href="#SVGID_1_"  style="overflow:visible;"/>
	</clipPath>
	<path class="eng-st0" d="M417.3,335.4H-77.1c-4.9,0-8.8-4-8.8-8.8V8.8c0-4.8,4-8.8,8.8-8.8h494.3c4.9,0,8.8,4,8.8,8.8v317.8
		C426.1,331.5,422.1,335.4,417.3,335.4z"/>
	<path class="eng-st1" d="M426.1,8.8c0-4.9-4-8.8-8.8-8.8h-39.5L214.2,107.1V0h-88.3v107.1L-37.6,0h-39.5c-4.8,0-8.8,4-8.8,8.8v22.8
		l140.3,91.9H-85.9v88.3H54.4l-140.3,92v22.8c0,4.9,4,8.8,8.8,8.8h39.5l163.5-107.1v107.1h88.3V228.3l163.5,107.1h39.5
		c4.9,0,8.8-4,8.8-8.8v-22.8l-140.3-91.9h140.4v-88.3H285.8l140.3-91.9V8.8z"/>
	<g class="eng-st2">
		<polygon class="eng-st3" points="426.1,141.2 196.6,141.2 196.6,0 143.6,0 143.6,141.2 -85.9,141.2 -85.9,194.2 143.6,194.2
			143.6,335.4 196.6,335.4 196.6,194.2 426.1,194.2 		"/>
		<path class="eng-st3" d="M93,211.9l-178.6,116c0.6,4.3,4.1,7.6,8.6,7.6h12.1l190.4-123.6H93L93,211.9z"/>
		<path class="eng-st3" d="M260.5,211.9h-32.4l190.1,123.4c4.4-0.5,7.9-4.1,7.9-8.6v-7.3L260.5,211.9z"/>
		<path class="eng-st3" d="M-85.9,18.6l161.8,105h32.4L-80.8,0.9c-3,1.4-5.1,4.4-5.1,7.9V18.6z"/>
		<path class="eng-st3" d="M246.7,123.6L425.8,7.3c-0.7-4.1-4.2-7.3-8.5-7.3h-12.6L214.2,123.6H246.7z"/>
	</g>
</g>
</svg>
