<?xml version="1.0" encoding="utf-8"?>
<!-- Generator: Adobe Illustrator 22.1.0, SVG Export Plug-In . SVG Version: 6.00 Build 0)  -->
<svg version="1.1" id="Layer_1" xmlns="http://www.w3.org/2000/svg" xmlns:xlink="http://www.w3.org/1999/xlink" x="0px" y="0px"
	 viewBox="0 0 110 60.5" style="enable-background:new 0 0 110 60.5;" xml:space="preserve">
<style type="text/css">
	.st0{fill:#FFFFFF;}
</style>
<g>
	<path class="st0" d="M10.8,55c0,3-2.5,5.5-5.4,5.5C2.4,60.5,0,58,0,55s2.4-5.4,5.4-5.4S10.8,52.1,10.8,55L10.8,55z"/>
	<path class="st0" d="M21.9,60.5c-3,0-5.4-2.5-5.4-5.5s2.5-5.4,5.4-5.4c3,0,5.5,2.5,5.5,5.4C27.4,58,24.9,60.5,21.9,60.5L21.9,60.5z
		"/>
	<path class="st0" d="M21.9,44c-3,0-5.4-2.5-5.4-5.5s2.5-5.4,5.4-5.4c3,0,5.5,2.5,5.5,5.4C27.4,41.5,24.9,44,21.9,44L21.9,44z"/>
	<path class="st0" d="M38.4,44c-3,0-5.5-2.5-5.5-5.5s2.5-5.4,5.5-5.4s5.4,2.5,5.4,5.4C44,41.5,41.5,44,38.4,44L38.4,44z"/>
	<path class="st0" d="M71.5,44c-3,0-5.4-2.5-5.4-5.5s2.5-5.4,5.4-5.4c3,0,5.5,2.5,5.5,5.4C77,41.5,74.5,44,71.5,44L71.5,44z"/>
	<path class="st0" d="M44,22c0,3-2.5,5.4-5.4,5.4c-3,0-5.5-2.5-5.5-5.4c0-3,2.5-5.5,5.5-5.5C41.5,16.6,44,18.9,44,22L44,22z"/>
	<path class="st0" d="M60.4,22c0,3-2.5,5.4-5.4,5.4c-2.9,0-5.5-2.5-5.5-5.4c0-3,2.5-5.5,5.5-5.5S60.4,18.9,60.4,22L60.4,22z"/>
	<path class="st0" d="M60.4,5.4c0,3-2.5,5.4-5.4,5.4c-3,0-5.5-2.5-5.5-5.4S52,0,55,0S60.4,2.5,60.4,5.4L60.4,5.4z"/>
	<path class="st0" d="M77,22c0,3-2.5,5.4-5.5,5.4c-3,0-5.4-2.5-5.4-5.4c0-3,2.5-5.5,5.4-5.5C74.5,16.6,77,18.9,77,22L77,22z"/>
	<path class="st0" d="M88,60.5c-3,0-5.5-2.5-5.5-5.5s2.5-5.4,5.5-5.4c3,0,5.4,2.5,5.4,5.4C93.4,58,91.1,60.5,88,60.5L88,60.5z"/>
	<path class="st0" d="M88,44c-3,0-5.5-2.5-5.5-5.5S85,33,88,33c3,0,5.4,2.5,5.4,5.4C93.4,41.5,91.1,44,88,44L88,44z"/>
	<path class="st0" d="M104.6,60.5c-3,0-5.5-2.5-5.5-5.5s2.5-5.4,5.5-5.4c2.9,0,5.4,2.5,5.4,5.4C110,58,107.5,60.5,104.6,60.5
		L104.6,60.5z"/>
</g>
</svg>
