<!-- Generator: Adobe Illustrator 19.0.0, SVG Export Plug-In  -->
<svg version="1.1"
	 xmlns="http://www.w3.org/2000/svg" xmlns:xlink="http://www.w3.org/1999/xlink" xmlns:a="http://ns.adobe.com/AdobeSVGViewerExtensions/3.0/"
	 x="0px" y="0px" width="81.8px" height="90px" viewBox="0 0 81.8 90" style="enable-background:new 0 0 81.8 90;"
	 xml:space="preserve">
<defs>
</defs>
<path d="M73.1,8.8c-0.2-0.7-0.8-1.2-1.4-1.4c-0.7-0.2-1.4,0-1.9,0.6c-2.8,3-6.2,5.1-9.4,7.2c-2.7,1.7-5.2,3.4-7.3,5.4
	c-0.5-3.9-2.3-7.6-6-10.3c-3.7-2.7-7.1-6.1-9.5-9.5c-0.4-0.6-1.1-0.9-1.8-0.8c-0.7,0.1-1.3,0.5-1.6,1.2c-1.5,3.3-3.7,6.1-5.7,8.7
	c-1.8,2.4-3.6,4.6-4.7,7c-2.4,5-2.4,10.7-0.1,15.3c-0.1,2.1-0.7,4.1-1.8,5.9c-1.2,1.4-2.2,2.9-3,4.5c-0.8,1.6-1.4,3.4-1.7,5.1
	c-0.7,1.9-1.9,3.7-3.5,5c-5,1-9.4,4.6-11.8,9.6C1,63.9,0.5,65.9,0,68.3c-0.2,1.1,0.5,2.1,1.6,2.3c0.1,0,0.2,0,0.3,0
	c1,0,1.8-0.7,2-1.7c0.4-2.1,0.8-3.7,1.4-4.8c1.9-4.1,5.5-6.9,9.4-7.5c0.3-0.1,0.7-0.2,0.9-0.4c2.4-1.9,4.1-4.4,5.2-7.3
	c0-0.1,0.1-0.2,0.1-0.3c0.3-1.5,0.7-2.9,1.4-4.3c0.7-1.4,1.5-2.6,2.5-3.8c0.1-0.1,0.1-0.2,0.2-0.3c1.6-2.6,2.4-5.5,2.4-8.6
	c0-0.3-0.1-0.7-0.3-1c-2-3.5-2-8,0-12.1c1-2.1,2.6-4.1,4.3-6.3c1.6-2,3.3-4.2,4.8-6.7c2.4,2.8,5.3,5.5,8.4,7.8
	c4.6,3.4,5.1,8.7,4,13.1c-0.5,1.1-0.9,2.2-1.2,3.4c0,0.1,0,0.1,0,0.2c-0.6,2.2-0.7,4.5-0.4,6.7c-0.9,2.2-2.3,4.2-4.2,5.8
	c-1.7,1-3.4,2.3-4.8,3.7c-1.4,1.4-2.7,3.1-3.7,4.8c-1.5,1.9-3.5,3.3-5.8,4.2c-0.8-0.1-1.5-0.2-2.3-0.2c-5,0-10,2.2-13.7,5.9
	c-2.8,2.8-5,7.4-6.9,11.4c-1.3,2.7-2.7,5.7-3.7,6.5c-0.5,0.4-0.8,1.1-0.7,1.8c0.1,0.7,0.6,1.3,1.2,1.6c2.7,1.1,7.8,3.8,10.5,5.2
	c0.9,0.5,1.6,0.8,1.9,1c2.1,1,4.4,1.6,6.9,1.6c5,0,10-2.2,13.7-5.9c0.5-0.5,1.1-1.1,1.6-1.8c1.7-2,3.8-3.4,6.3-4.3
	c1.6,0.4,3.3,0.7,5,0.7c5.6,0,11.1-2.4,15.4-6.6c5.6-5.6,7.9-13.5,5.9-20.3c0.8-2.4,2.3-4.6,4.2-6.2c0.7-0.6,1.3-1.1,1.9-1.6
	c6.2-6.2,7.9-15.2,4-21.3C76.4,17.4,74.3,12.9,73.1,8.8z M72.8,41.1c-0.4,0.4-0.9,0.8-1.6,1.4c-2.7,2.3-4.7,5.3-5.7,8.7
	c-0.1,0.4-0.1,0.8,0,1.2c1.8,5.6-0.1,12.2-4.8,16.9c-3.5,3.5-8,5.4-12.5,5.4c-1.5,0-3-0.2-4.4-0.7c-0.4-0.1-0.8-0.1-1.2,0
	c-3.4,1-6.4,3-8.8,5.7c-0.5,0.6-0.9,1.1-1.3,1.5c-3,3-7,4.7-10.9,4.7c-1.9,0-3.6-0.4-5.2-1.2c-0.3-0.1-1-0.5-1.9-0.9
	C12.5,82.8,9,81,6.3,79.7c0.9-1.5,1.8-3.4,2.9-5.5c1.8-3.7,3.8-8,6.1-10.3c3-3,7-4.7,10.9-4.7c0.7,0,1.5,0.1,2.2,0.2
	c0.3,0.1,0.7,0,1-0.1c3.2-1.1,6-3.1,8.1-5.7c0.1-0.1,0.1-0.2,0.2-0.3c0.9-1.5,1.9-2.9,3.1-4.1c1.2-1.2,2.6-2.3,4.1-3.1
	c0.1-0.1,0.2-0.1,0.3-0.2c2.6-2.1,4.6-4.9,5.7-8.1c0.1-0.3,0.1-0.7,0.1-1c-0.3-1.8-0.2-3.7,0.2-5.6c0.5-1,0.8-2,1.2-3.1
	c0.8-1.6,1.8-3.1,3.2-4.4c1.8-1.8,4.3-3.4,7-5.1c2.5-1.6,5.2-3.4,7.8-5.6c1.4,3.6,3.4,7.4,6.1,11.7C79.1,29.2,77.7,36.2,72.8,41.1z"
	/>
<path d="M66.4,22.2c-3.1,0-6.2,1.4-8.6,3.8c-2.2,2.2-3.6,5.1-3.8,7.9c-0.1,1.5,0,4.3,2.2,6.5c1.8,1.8,4.1,2.2,5.7,2.2
	c3.1,0,6.2-1.4,8.6-3.8c2-2,3.3-4.6,3.7-7.2c0.4-2.8-0.4-5.4-2.1-7.1C70.3,22.6,68,22.2,66.4,22.2z M70.3,31
	c-0.2,1.7-1.2,3.5-2.6,4.9c-1.7,1.7-3.8,2.6-5.8,2.6c-0.8,0-2-0.2-2.9-1.1c-1-1-1.1-2.5-1-3.3c0.1-1.9,1.1-3.8,2.6-5.3
	c1.7-1.7,3.8-2.6,5.8-2.6c0.8,0,2,0.2,2.9,1.1C70.1,28.1,70.5,29.4,70.3,31z"/>
<path d="M53.3,47c-3.6,0-7.4,1.6-10.2,4.5c-2.6,2.6-4.2,6-4.5,9.4c-0.2,3.1,0.7,5.9,2.7,7.9c2.3,2.3,5,2.7,7,2.7
	c3.6,0,7.4-1.6,10.2-4.5c2.6-2.6,4.2-6,4.5-9.4c0.2-3.1-0.7-5.9-2.7-7.9C58,47.4,55.3,47,53.3,47z M59,57.3
	c-0.2,2.4-1.4,4.9-3.3,6.8c-2.1,2.1-4.8,3.3-7.4,3.3c-1.2,0-2.9-0.3-4.2-1.6c-1.1-1.1-1.7-2.8-1.5-4.8c0.2-2.4,1.4-4.9,3.3-6.8
	c2.1-2.1,4.8-3.3,7.4-3.3c1.2,0,2.9,0.3,4.2,1.6C58.6,53.7,59.1,55.3,59,57.3z"/>
<path d="M26.2,62.4c-3.1,0-6.2,1.4-8.6,3.8c-2,2-3.3,4.6-3.7,7.2c-0.4,2.8,0.4,5.4,2.1,7.1c1.8,1.8,4.1,2.2,5.7,2.2
	c3.1,0,6.2-1.4,8.6-3.8c2-2,3.3-4.6,3.7-7.2c0.4-2.8-0.4-5.4-2.1-7.1C30.1,62.8,27.8,62.4,26.2,62.4z M30.1,71.2
	c-0.2,1.7-1.2,3.5-2.6,4.9c-1.7,1.7-3.8,2.6-5.8,2.6c-0.8,0-2-0.2-2.9-1.1c-0.9-0.9-1.2-2.2-1-3.8c0.2-1.7,1.2-3.5,2.6-4.9
	c1.7-1.7,3.8-2.6,5.8-2.6c0.8,0,2,0.2,2.9,1.1C29.9,68.3,30.3,69.6,30.1,71.2z"/>
</svg>
