<svg fill="#000000" xmlns="http://www.w3.org/2000/svg" xmlns:xlink="http://www.w3.org/1999/xlink" version="1.1" x="0px" y="0px" viewBox="0 0 100.0 100"><path d="M-22,0 l1244,0 c105,0,157,50,178,150 l-1600,0 c21,-100,73,-150,178,-150 Z M1198,250 c10,115,-70,197,-181,208 c-17,93,-99,165,-197,165 c-18,0,-35,-2,-51,-7 c-35,57,-98,94,-169,94 c-71,0,-134,-37,-169,-94 c-16,5,-33,7,-51,7 c-98,0,-181,-72,-197,-165 c-111,-12,-190,-94,-180,-208 Z M601,800 c-33,0,-58,27,-58,64 c0,30,21,79,29,139 c-46,-37,-78,-79,-102,-93 c-33,-21,-70,-11,-86,15 c-17,28,-5,64,29,84 c24,14,76,21,130,42 c-54,22,-107,27,-132,42 c-32,20,-43,54,-27,82 c15,28,52,35,83,18 c26,-14,58,-58,105,-95 c-9,58,-29,106,-29,135 c0,38,25,67,58,67 c31,0,57,-29,57,-67 c0,-29,-20,-76,-29,-133 c46,36,77,79,104,93 c31,16,66,11,83,-18 c16,-26,4,-62,-27,-81 c-26,-16,-79,-21,-133,-43 c53,-21,107,-28,131,-43 c34,-20,46,-55,29,-83 c-17,-28,-53,-34,-87,-15 c-25,14,-55,55,-101,91 c9,-58,30,-108,30,-137 c0,-37,-26,-64,-57,-64 Z M601,800 " fill="#000000" stroke="none" stroke-dasharray="none" stroke-linecap="inherit" stroke-linejoin="inherit" stroke-width="1" transform="matrix(0.05,0.0,0.0,-0.05,20.0,80.0)"/></svg>
