<!-- Generator: Adobe Illustrator 19.0.0, SVG Export Plug-In  -->
<svg version="1.1"
	 xmlns="http://www.w3.org/2000/svg" xmlns:xlink="http://www.w3.org/1999/xlink" xmlns:a="http://ns.adobe.com/AdobeSVGViewerExtensions/3.0/"
	 x="0px" y="0px" width="89.8px" height="82.3px" viewBox="0 0 89.8 82.3" style="enable-background:new 0 0 89.8 82.3;"
	 xml:space="preserve">
<defs>
</defs>
<path d="M53,44.2c-1-0.4-2-0.7-2.8-1.1c0,0-0.1,0-0.1,0c-4.1-1.5-9.4-7-10.6-11.1c0,0,0-0.1,0-0.1c-0.3-0.9-0.6-1.9-0.9-2.9
	c-1-3.1-2.1-6.7-4.3-9.6c-1.7-2.2-3.5-4.3-5.5-6.1c-0.8-0.8-2.1-0.7-2.8,0.1s-0.7,2.1,0.1,2.8c1.8,1.7,3.5,3.5,5,5.6
	c1.8,2.4,2.8,5.5,3.7,8.4c0.3,1,0.6,2,1,3c1.6,5.4,7.7,11.8,13.1,13.7c1,0.4,1.9,0.7,3,1.1c2.9,1.1,5.9,2.1,8.2,4.1
	c0.4,0.3,0.8,0.5,1.3,0.5c0.6,0,1.1-0.3,1.5-0.7c0.7-0.9,0.6-2.1-0.3-2.8C59.5,46.6,56.1,45.3,53,44.2z"/>
<path d="M24.2,9.6c-0.2-0.2-0.5-0.3-0.7-0.5c-0.9-0.6-2.2-0.3-2.8,0.6c-0.6,0.9-0.3,2.2,0.6,2.8c0.2,0.1,0.4,0.3,0.6,0.4
	c0.3,0.2,0.7,0.4,1.1,0.4c0.6,0,1.3-0.3,1.6-0.9C25.3,11.4,25.1,10.2,24.2,9.6z"/>
<path d="M88.9,37.5c-0.9-0.6-2.2-0.3-2.8,0.6c-2.6,4.1-7.7,6.9-13.6,7.5c-1.2-1.5-2.6-2.8-4.1-4c-3.3-2.6-7.6-3.4-11.4-4.2
	c-0.5-0.1-1.1-0.2-1.6-0.3c-0.8-0.2-1.6-0.5-2.4-0.8c-1.9-3.4-2.2-7-0.7-10.8c1.6-4,4.4-6.6,8.5-7.7c3.7-1,8.1-0.6,12.3,1.1
	c0.3,0.1,0.6,0.3,1,0.4c0,0,0,0,0,0c4.9,2.2,9,6.6,10.9,11.7c0.4,1,1.5,1.6,2.6,1.2s1.6-1.5,1.2-2.6c-2.1-5.5-6.4-10.4-11.6-13.2
	c0.5-3,0.3-5.9-0.6-8.5c-0.1-0.2-0.2-0.5-0.4-0.7c-6.2-7.5-19-9.3-28.5-4.2c-3.9,2.2-7.1,5.1-9.3,8.4C33.2,6,26,3.1,18.3,3.1
	c-3.3,0-6.6,0.6-9.8,1.7C8.3,4.8,8,5,7.8,5.2C-2,14.3-2.7,30.4,6.4,41.8c3.6,4.6,9.3,6.7,13.5,8.3c3.8,1.7,10.7,7.5,12.4,12.4
	c1.5,4.2,3.6,9.9,8.3,13.5c5.2,4.1,11.6,6.3,18,6.3c7.3,0,14.1-2.8,18.7-7.8c0.2-0.2,0.3-0.4,0.4-0.7c3-8.3,1.9-17.3-2.4-24.6
	c6.1-1.1,11.4-4.4,14.3-9C90.1,39.3,89.8,38.1,88.9,37.5z M49.7,6.5c7.6-4.2,18.2-2.8,23.2,2.9c0.5,1.7,0.6,3.5,0.4,5.3
	c-4.7-1.6-9.4-1.9-13.6-0.8c-5.3,1.4-9.2,4.9-11.2,10.1c-1,2.5-1.3,5-1.2,7.4c-1.1-1.5-1.8-3.1-2.1-4.5c-0.1-0.5-0.2-1-0.3-1.6
	c-0.7-3.6-1.5-7.6-3.7-10.8C42.9,11.4,45.9,8.5,49.7,6.5z M73.9,72.1c-3.8,4-9.4,6.2-15.5,6.2c-5.5,0-11-1.9-15.5-5.5
	c-3.8-2.9-5.6-8-7-11.7c-2.1-6.1-9.9-12.7-14.6-14.7c0,0-0.1,0-0.1,0c-3.7-1.4-8.8-3.3-11.8-7c-7.6-9.7-7.3-23.2,0.8-31
	c2.6-0.9,5.3-1.3,8-1.3c7.6,0,14.7,3.4,19.4,9.3c2,2.5,2.7,6.2,3.4,9.7c0.1,0.5,0.2,1.1,0.3,1.6c0.9,4.2,4.3,9.1,9.2,11.7
	c0,0,0.1,0,0.1,0.1c1.2,0.6,2.5,1.1,3.9,1.4c0.5,0.1,1.1,0.2,1.6,0.3c3.5,0.7,7.2,1.4,9.7,3.4c1.5,1.2,2.9,2.6,4.1,4.1
	c0,0,0,0,0,0.1C75.1,55.3,76.7,64,73.9,72.1z"/>
</svg>
