<?xml version="1.0" encoding="utf-8"?>
<!-- Generator: Adobe Illustrator 22.1.0, SVG Export Plug-In . SVG Version: 6.00 Build 0)  -->
<svg version="1.1" id="nor" xmlns="http://www.w3.org/2000/svg" xmlns:xlink="http://www.w3.org/1999/xlink" x="0px" y="0px"
	 viewBox="0 0 334.4 335.4" style="enable-background:new 0 0 334.4 335.4;" xml:space="preserve">
<style type="text/css">
	.nor-st0{clip-path:url(#nor-SVGID_2_);fill:#FF4B55;}
	.nor-st1{clip-path:url(#nor-SVGID_2_);fill:#F5F5F5;}
	.nor-st2{clip-path:url(#nor-SVGID_2_);fill:#41479B;}
</style>
<g>
	<defs>
		<circle id="nor-SVGID_1_" cx="167.2" cy="167.7" r="167.2"/>
	</defs>
	<clipPath id="nor-SVGID_2_">
		<use xlink:href="#nor-SVGID_1_"  style="overflow:visible;"/>
	</clipPath>
	<path class="nor-st0" d="M484.3,335.4H-10.1c-4.9,0-8.8-4-8.8-8.8V8.8c0-4.8,4-8.8,8.8-8.8h494.3c4.9,0,8.8,4,8.8,8.8v317.8
		C493.1,331.5,489.1,335.4,484.3,335.4z"/>
	<polygon class="nor-st1" points="493.1,123.6 210.6,123.6 210.6,0 122.3,0 122.3,123.6 -18.9,123.6 -18.9,211.9 122.3,211.9
		122.3,335.4 210.6,335.4 210.6,211.9 493.1,211.9 	"/>
	<polygon class="nor-st2" points="493.1,141.2 193,141.2 193,0 140,0 140,141.2 -18.9,141.2 -18.9,194.2 140,194.2 140,335.4 193,335.4
		193,194.2 493.1,194.2 	"/>
</g>
</svg>
