<!-- Generator: Adobe Illustrator 19.0.0, SVG Export Plug-In  -->
<svg version="1.1"
	 xmlns="http://www.w3.org/2000/svg" xmlns:xlink="http://www.w3.org/1999/xlink" xmlns:a="http://ns.adobe.com/AdobeSVGViewerExtensions/3.0/"
	 x="0px" y="0px" width="90px" height="90px" viewBox="0 0 90 90" style="enable-background:new 0 0 90 90;" xml:space="preserve">
<defs>
</defs>
<path d="M60.7,53.4L51,50c-1-0.4-2.2,0.2-2.5,1.2c-0.4,1,0.2,2.2,1.2,2.5l6.5,2.3l-3.4,3c-1,0.9-3.6,1.4-5.6,0.7L36.8,56l5-5
	c0.8-0.8,0.8-2,0-2.8s-2-0.8-2.8,0l-5,5l-3.8-10.4c-0.7-1.8-0.3-4.4,0.7-5.6l3-3.4l2.2,6.4c0.4,1,1.5,1.6,2.5,1.2
	c1-0.4,1.6-1.5,1.2-2.5l-3.3-9.6c-0.2-0.7-0.8-1.2-1.5-1.3c-0.7-0.1-1.4,0.1-1.9,0.6l-5.3,6c-2,2.3-2.6,6.4-1.5,9.6l4.9,13.3
	c0,0,0,0,0,0.1c0,0.1,0.1,0.2,0.2,0.3c0,0,0,0.1,0,0.1c0.1,0.1,0.2,0.2,0.3,0.3c0,0,0.1,0,0.1,0.1c0.1,0.1,0.2,0.1,0.3,0.2
	c0,0,0.1,0,0.1,0.1c0,0,0.1,0,0.1,0.1l13.3,4.9c1.1,0.4,2.3,0.6,3.5,0.6c2.3,0,4.6-0.7,6.1-2.1l6-5.3c0.5-0.5,0.8-1.2,0.6-1.9
	C61.9,54.2,61.4,53.6,60.7,53.4z"/>
<path d="M43.9,67l-5.2,4.6c-0.8,0.7-3.1,1.1-4.8,0.4l-9.4-3.7l4.8-4.8c0.8-0.8,0.8-2,0-2.8c-0.8-0.8-2-0.8-2.8,0l-4.8,4.8L18,56.1
	c-0.7-1.7-0.3-3.9,0.4-4.8l4.6-5.2c0.7-0.8,0.7-2.1-0.2-2.8c-0.8-0.7-2.1-0.7-2.8,0.2l-4.6,5.2c-1.8,2.1-2.3,5.9-1.1,8.9l4.8,12.2
	c0,0,0,0,0,0c0.1,0.1,0.1,0.3,0.2,0.4c0,0,0,0,0.1,0.1c0.1,0.1,0.2,0.2,0.2,0.3c0,0,0.1,0.1,0.1,0.1c0.1,0.1,0.2,0.1,0.3,0.2
	c0,0,0.1,0.1,0.1,0.1c0,0,0.1,0,0.1,0l12.2,4.8c1.1,0.4,2.3,0.6,3.5,0.6c2.1,0,4.1-0.6,5.4-1.8l5.2-4.6c0.8-0.7,0.9-2,0.2-2.8
	C45.9,66.4,44.7,66.3,43.9,67z"/>
<path d="M30.8,78.6l-4.6,4.1c-0.7,0.6-2.6,0.8-4.1,0.2l-8.5-3.6l4.1-4.1c0.8-0.8,0.8-2,0-2.8c-0.8-0.8-2-0.8-2.8,0l-4.1,4.1
	l-3.6-8.5c-0.6-1.5-0.4-3.4,0.2-4.1l4.1-4.6c0.7-0.8,0.7-2.1-0.2-2.8c-0.8-0.7-2.1-0.7-2.8,0.2l-4.1,4.6c-1.7,1.9-2.1,5.5-0.9,8.3
	l4.2,10.1l-7.2,7.1c-0.8,0.8-0.8,2,0,2.8C1,89.8,1.5,90,2,90s1-0.2,1.4-0.6l7.1-7.1l10.1,4.2c1.1,0.5,2.3,0.7,3.5,0.7
	c1.8,0,3.6-0.5,4.8-1.6l4.6-4.1c0.8-0.7,0.9-2,0.2-2.8C32.9,77.9,31.7,77.8,30.8,78.6z"/>
<path d="M52.7,28.5c-4.8,0.2-8.8,4.4-8.9,9.2l-0.1,6.7c0,0.5,0.2,1.1,0.6,1.5c0.4,0.4,0.9,0.6,1.4,0.6c0,0,0,0,0,0l6.7-0.1
	c4.8-0.1,9-4.1,9.2-8.9l0.4-7.1c0-0.6-0.2-1.1-0.6-1.5s-1-0.6-1.5-0.6L52.7,28.5z M57.5,37.1c-0.1,2.8-2.5,5.1-5.3,5.1l-4.6,0.1
	l0.1-4.6c0-2.8,2.4-5.1,5.1-5.3l4.9-0.3L57.5,37.1z"/>
<path d="M39.9,26.1c0.6,0,1.1-0.2,1.5-0.7L61,3.3c0.7-0.8,0.7-2.1-0.2-2.8C60-0.2,58.7-0.2,58,0.7L38.4,22.8
	c-0.7,0.8-0.7,2.1,0.2,2.8C38.9,25.9,39.4,26.1,39.9,26.1z"/>
<path d="M52.7,23.9c0.4,0.4,0.9,0.5,1.4,0.5c0.5,0,1.1-0.2,1.5-0.6l12.2-13c0.8-0.8,0.7-2.1-0.1-2.8s-2.1-0.7-2.8,0.1l-12.2,13
	C51.9,21.9,51.9,23.1,52.7,23.9z"/>
<path d="M65.8,24.2c0.4,0.4,0.9,0.6,1.4,0.6c0.5,0,1-0.2,1.4-0.6l6.5-6.5c0.8-0.8,0.8-2,0-2.8c-0.8-0.8-2-0.8-2.8,0l-6.5,6.5
	C65.1,22.1,65.1,23.4,65.8,24.2z"/>
<path d="M66.1,37.3c0.4,0.4,0.9,0.6,1.5,0.6c0.5,0,1-0.2,1.4-0.5l13-12.2c0.8-0.8,0.8-2,0.1-2.8c-0.8-0.8-2-0.8-2.8-0.1l-13,12.2
	C65.4,35.2,65.4,36.5,66.1,37.3z"/>
<path d="M89.5,29.2c-0.7-0.8-2-0.9-2.8-0.2L64.6,48.6c-0.8,0.7-0.9,2-0.2,2.8c0.4,0.4,0.9,0.7,1.5,0.7c0.5,0,0.9-0.2,1.3-0.5
	L89.3,32C90.2,31.3,90.2,30,89.5,29.2z"/>
</svg>
