<!-- Generator: Adobe Illustrator 19.0.0, SVG Export Plug-In  -->
<svg version="1.1"
	 xmlns="http://www.w3.org/2000/svg" xmlns:xlink="http://www.w3.org/1999/xlink" xmlns:a="http://ns.adobe.com/AdobeSVGViewerExtensions/3.0/"
	 x="0px" y="0px" width="53.7px" height="97.7px" viewBox="0 0 53.7 97.7" style="enable-background:new 0 0 53.7 97.7;"
	 xml:space="preserve">
<style type="text/css">
	.st0{fill:#FFFFFF;}
</style>
<defs>
</defs>
<g>
	<path class="st0" d="M48.8,88c2.7,0,4.9,2.2,4.9,4.8c0,2.7-2.2,4.8-4.9,4.8S44,95.5,44,92.8C44,90.1,46.2,88,48.8,88L48.8,88z"/>
	<path class="st0" d="M53.7,78.2c0,2.7-2.2,4.8-4.9,4.8S44,80.8,44,78.2c0-2.7,2.2-4.9,4.8-4.9C51.5,73.3,53.7,75.5,53.7,78.2
		L53.7,78.2z"/>
	<path class="st0" d="M39,78.2c0,2.7-2.2,4.8-4.9,4.8c-2.7,0-4.8-2.2-4.8-4.8c0-2.7,2.2-4.9,4.8-4.9C36.8,73.3,39,75.5,39,78.2
		L39,78.2z"/>
	<path class="st0" d="M39,63.5c0,2.7-2.2,4.9-4.9,4.9c-2.7,0-4.8-2.2-4.8-4.9c0-2.7,2.2-4.8,4.8-4.8C36.8,58.6,39,60.8,39,63.5
		L39,63.5z"/>
	<path class="st0" d="M39,34.2c0,2.7-2.2,4.8-4.9,4.8c-2.7,0-4.8-2.2-4.8-4.8c0-2.7,2.2-4.9,4.8-4.9C36.8,29.3,39,31.5,39,34.2
		L39,34.2z"/>
	<path class="st0" d="M19.5,58.6c2.7,0,4.8,2.2,4.8,4.8c0,2.7-2.2,4.9-4.8,4.9c-2.7,0-4.9-2.2-4.9-4.9
		C14.7,60.8,16.8,58.6,19.5,58.6L19.5,58.6z"/>
	<path class="st0" d="M19.5,44c2.7,0,4.8,2.2,4.8,4.8s-2.2,4.9-4.8,4.9c-2.7,0-4.9-2.2-4.9-4.9S16.8,44,19.5,44L19.5,44z"/>
	<path class="st0" d="M4.8,44c2.7,0,4.8,2.2,4.8,4.8c0,2.7-2.2,4.9-4.8,4.9S0,51.5,0,48.8C0,46.1,2.2,44,4.8,44L4.8,44z"/>
	<path class="st0" d="M19.5,29.3c2.7,0,4.8,2.2,4.8,4.9c0,2.7-2.2,4.8-4.8,4.8c-2.7,0-4.9-2.2-4.9-4.8
		C14.7,31.5,16.8,29.3,19.5,29.3L19.5,29.3z"/>
	<path class="st0" d="M53.7,19.5c0,2.7-2.2,4.9-4.9,4.9c-2.7,0-4.8-2.2-4.8-4.9c0-2.7,2.2-4.8,4.8-4.8
		C51.5,14.7,53.7,16.8,53.7,19.5L53.7,19.5z"/>
	<path class="st0" d="M39,19.5c0,2.7-2.2,4.9-4.9,4.9c-2.7,0-4.8-2.2-4.8-4.9c0-2.7,2.2-4.8,4.8-4.8C36.8,14.7,39,16.8,39,19.5
		L39,19.5z"/>
	<path class="st0" d="M53.7,4.8c0,2.7-2.2,4.9-4.9,4.9c-2.7,0-4.8-2.2-4.8-4.9C44,2.2,46.2,0,48.8,0C51.5,0,53.7,2.2,53.7,4.8
		L53.7,4.8z"/>
</g>
</svg>
