<!-- Generator: Adobe Illustrator 19.0.0, SVG Export Plug-In  -->
<svg version="1.1"
	 xmlns="http://www.w3.org/2000/svg" xmlns:xlink="http://www.w3.org/1999/xlink" xmlns:a="http://ns.adobe.com/AdobeSVGViewerExtensions/3.0/"
	 x="0px" y="0px" width="197px" height="143.3px" viewBox="0 0 197 143.3" style="enable-background:new 0 0 197 143.3;"
	 xml:space="preserve">
<defs>
</defs>
<g>
	<path d="M182,15.2C182,15.2,181.9,15.2,182,15.2c-0.2-0.2-0.2-0.3-0.3-0.4C173.8,4.8,161-0.5,145.8,0C118.3,1,90,21,78.8,46.3
		c-6.1-3.3-13.3-4.9-21.6-4.8c-2.1-0.1-4.1,0-5.9,0.4c-1,0.1-1.9,0.2-2.9,0.3c-0.7-3-1.6-11.3,8-17.4c1.4-0.9,1.8-2.7,0.9-4.1
		c-0.9-1.4-2.8-1.8-4.1-0.9c-3.7,2.4-6.3,5.1-8,7.9c-5.5-7.9-11.7-12.5-18.5-13.9c-9-1.8-15.6,3.1-15.9,3.3
		c-1.2,0.9-1.5,2.5-0.9,3.8c5.1,9.8,11.5,15.7,19,17.6c1.8,0.5,3.6,0.6,5.2,0.6c3.1,0,5.8-0.7,7.9-1.4c-0.1,1.4,0,2.7,0.2,3.9
		c-15.1-0.8-24.6,4.2-30.1,8.9C4.4,57.1,0,67.3,0,78.5c0,16.5,7.7,28.8,21.7,34.5c2,21.4,29.9,26.7,34.1,27.3c4.7,2.2,9.4,3,13.8,3
		c10.8,0,19.6-5,22.6-7c2.8,0.3,9.2,0.2,16.6-5.6c7.3-5.6,7.9-11.7,7.6-14.9c5.8,1.7,11.7,2.6,17.5,2.6c13.7,0,27.1-4.6,38.6-13.6
		c13.9-10.8,22.2-25.2,24.1-41.5C198.6,46.7,193.2,29.2,182,15.2z M30.4,32.6c-5.2-1.3-9.8-5.3-13.7-12c2-0.8,5.1-1.7,8.8-1
		c5.4,1.1,10.6,5.1,15.3,12.1C38.4,32.7,34.6,33.7,30.4,32.6z M146,6c13.3-0.5,24.3,4,31,12.6c6.6,8.4,8.3,19.9,4.8,32.3
		c-7.3,26.2-35.2,48.3-62.7,50c-0.1-1.8-0.3-3.6-0.7-5.2c0.9-0.4,1.8-0.9,2.6-1.5c1.3,1.3,3.1,2,5.1,2c0.5,0,1.1-0.1,1.7-0.2
		c7.1-1.3,14.4-4.1,21.1-8.1c2.5-1.5,4.4-4,5-6.6c2.7,0,5.5-1.2,7.6-3.3c5.5-5.5,10-11.8,12.9-18.4c1.1-2.4,1-5-0.2-7
		c2.2-1.7,3.7-4.2,4-6.7c0.8-6.7-0.3-13.2-2.9-18.6c-0.9-1.8-2.5-3.1-4.6-3.6c-0.3-0.1-0.5-0.1-0.8-0.1c0-0.2,0.1-0.5,0.1-0.7
		c0-2.1-0.8-4-2.4-5.3c-4.7-3.9-10.8-6.3-17.6-7.2c-2.6-0.3-5.4,0.6-7.6,2.3c-1.7-1.6-4.1-2.3-6.8-1.8c-7.1,1.3-14.4,4.1-21.1,8.1
		c-2.5,1.5-4.4,4-5,6.6c-2.7,0-5.5,1.2-7.6,3.3c-5.5,5.5-10,11.8-12.9,18.4c-1.1,2.4-1,5,0.2,7c-2.2,1.7-3.7,4.2-4,6.7
		c-0.4,3.9-0.3,7.7,0.5,11.3c-2.1-0.2-4-0.2-5.6-0.2c-0.5-5.1,0-10.4,1.6-16C89.1,29.5,117.9,7,146,6z M31.1,96.7
		c0.8-3,3.3-5.8,6.9-7.9c7-4,14.9-4.6,16.6-3c0.4,0.3,0.5,1.7,0.5,2.9c0.2,3.3,0.6,8.9,7.8,11.7c1.9,0.7,3.7,1.3,5.4,1.9
		c6.8,2.3,9.4,3.4,9.7,6.4c0.1,1.2-0.2,1.8-0.6,2.1c-2.8,3-14.3,3.4-22.7,3.4c-17,0-21.9-8.9-22.2-9.3c0,0,0-0.1-0.1-0.1
		C30.9,101.9,30.4,99.2,31.1,96.7z M70.3,96.5c-1.6-0.6-3.4-1.1-5.2-1.8c-3.4-1.3-3.8-3.2-4-5.9c1.4,1.1,3.1,1.9,4.8,2.3
		c8.1,2.1,11.4,5.4,13.4,9.3C76.9,98.7,73.7,97.7,70.3,96.5z M76.1,78.3c0,0,0.1,0,0.1,0c0.1,0,1.4-0.1,3.5-0.1
		c6.3,0,19.7,0.8,26.3,7.3c4.3,4.2,4.5,8.5,3.8,11.3c-1,4.2-4.4,7.9-8.4,9.2c-8.1,2.6-13.4-0.5-15-4.6c-2.4-6-6-12.8-18.9-16
		c-2.5-0.6-4.4-2.6-4.3-3.5C63.3,81,65.8,78.6,76.1,78.3z M115.3,27.3c0.2-0.9,0.9-2.2,2.4-3.1c6-3.7,12.6-6.2,19-7.3
		c0.7-0.1,1.4,0,1.6,0.3c0.2,0.3,0.3,0.7,0.1,1.3c0,0,0,0,0,0l-7.6,27.1c0,0,0,0,0,0c-0.1,0.4-0.6,0.7-0.9,0.8l-14.5-18.1
		C115.2,28,115.2,27.6,115.3,27.3z M116.5,90.1c-1.8-4-4-6.4-4.5-7c-0.5-0.7-1.1-1.3-1.8-1.9c-1.4-1.3-3-2.5-4.7-3.5l20.8-16.2
		L119.2,87C118.8,88.2,117.7,89.4,116.5,90.1z M132.4,54.7c-0.8,0.2-1.5,0.4-2.1,0.8c-0.2-0.1-0.5-0.3-0.7-0.4
		c0-0.3-0.1-0.5-0.2-0.8c0.5-0.6,1-1.2,1.3-1.9c0,0,0-0.1,0-0.1c0.1,0,0.1,0,0.2,0c0.8-0.2,1.5-0.4,2.1-0.8c0.2,0.1,0.5,0.3,0.8,0.4
		c0,0.3,0.1,0.5,0.2,0.8c-0.5,0.6-1,1.2-1.3,1.9c0,0,0,0.1,0,0.1C132.6,54.7,132.5,54.7,132.4,54.7z M124.9,88.6
		C124.9,88.6,124.9,88.6,124.9,88.6l7.6-27.2c0.1-0.4,0.6-0.7,0.9-0.8l14.4,18.1c0,0,0,0,0,0c0.2,0.3,0.2,0.7,0.1,1
		c-0.2,0.9-0.9,2.2-2.4,3.1c-6,3.7-12.6,6.2-19,7.3c-0.7,0.1-1.4,0-1.6-0.3C124.8,89.7,124.8,89.2,124.9,88.6z M153.6,75.4
		c-0.3,0-0.8-0.1-1-0.4l-14.4-18.1c0.2-0.3,0.6-0.6,1-0.6c0,0,0,0,0,0l28.5-1c0.6,0,1.1,0.1,1.3,0.4c0.2,0.3,0.2,0.9-0.1,1.5
		c-2.6,5.9-6.7,11.6-11.7,16.6C156.2,74.9,154.8,75.5,153.6,75.4z M172.3,45.3c-0.2,1.9-2.7,3.9-4.8,4h0c0,0,0,0,0,0c0,0,0,0,0,0
		l-26.7,0.9l24.9-19.4c1.1-0.8,2.2-1.2,3.1-1.2c0.2,0,0.4,0,0.6,0.1c0.5,0.1,0.5,0.3,0.6,0.4C172.1,34.5,172.9,39.8,172.3,45.3z
		 M162.1,26.1C162.1,26.1,162.1,26.1,162.1,26.1l-25,19.5l7.2-25.5c0.6-2,3.2-3.9,5.1-3.6c5.6,0.7,10.7,2.7,14.5,5.9
		c0.1,0.1,0.2,0.2,0.2,0.6C164,23.8,163.4,25.1,162.1,26.1z M109.7,31.7c0.3,0,0.8,0.1,1,0.4c0,0,0,0,0,0l14.4,18.1
		c-0.2,0.3-0.6,0.6-1,0.6c0,0,0,0,0,0l-28.5,1c0,0,0,0,0,0c-0.6,0-1.1-0.1-1.3-0.4c-0.2-0.3-0.2-0.9,0.1-1.5
		c2.6-5.9,6.7-11.6,11.7-16.6C107.1,32.2,108.6,31.6,109.7,31.7z M91,61.8c0.2-1.9,2.7-3.9,4.8-4l26.7-0.9L99.3,75
		c-2.4-0.8-4.9-1.4-7.4-1.8C90.9,69.7,90.6,65.8,91,61.8z M86.4,115.4c2.6,3.6,5.1,8.1,4.9,11.7c-0.1,1.6-0.6,2.8-1.8,3.8
		c-0.9,0.6-8.2,5.5-17.5,6.3c3.8-1.8,7-4.2,9.3-7.4C84.9,125.2,86.1,119.9,86.4,115.4z M103.2,111.7c3.9-1.3,7.4-4,9.7-7.4
		c-0.2,2.4-0.8,4.9-2,7.6c-3.7,0.7-6.8,0.7-9.5,0.3C102,112.1,102.6,111.9,103.2,111.7z M6,78.5C6,68.9,9.6,60.6,16.1,55
		c6-5.2,14.3-7.7,24.2-7.5c-0.2,0.8,0,1.7,0.5,2.4c0.6,0.8,1.5,1.3,2.4,1.3c0.6,0,1.2-0.2,1.7-0.6c0,0,3.1-2.1,7.7-2.9
		c9.6-0.9,17.7,0.5,24,4.2c-0.3,0.9-0.6,1.8-0.8,2.7C74,60.7,73.4,66.7,74,72.4c-12.2,0.7-15.9,4.5-16.6,8c-5.2-3-15-1-22.3,3.2
		c-3.4,1.9-6.1,4.4-7.8,7.3c0,0-0.1,0.1-0.1,0.1c-0.2,0.3-4.4,6.7-5.4,15.5C8.8,100,6,87.8,6,78.5z M27.7,112
		c-0.1-1.3-0.1-2.6,0-3.8c1.6,2.6,8.7,11.9,27.1,11.9c14.1,0,21.5-1.1,25.5-3.9c-0.4,3.2-1.4,6.8-3.7,10c-3.8,5.1-10.5,7.8-19.8,8.2
		C53.9,133.9,28.9,129.3,27.7,112z M105,126c-3.2,2.5-6,3.6-8.2,4.1c0.3-0.9,0.4-1.8,0.5-2.8c0.1-3.7-1.3-7.5-3.2-10.9
		c2.9,1.2,6.5,2.1,10.9,2.1c1.7,0,3.4-0.1,5.3-0.4C110.1,120.1,108.9,123,105,126z M190.7,62.7c-1.7,14.7-9.3,27.6-21.9,37.4
		c-15.1,11.8-33.1,15.3-50.9,10c0.3-1,0.5-2.1,0.7-3.1c30.1-1.6,60.9-25.8,68.9-54.4c0.9-3.2,1.5-6.4,1.8-9.5
		C190.9,49.6,191.4,56.2,190.7,62.7z"/>
	<path d="M30.7,59c0.8,0,1.5-0.3,2.1-0.9c0.6-0.6,0.9-1.3,0.9-2.1c0-0.8-0.3-1.6-0.9-2.1c-1.1-1.1-3.1-1.1-4.2,0
		c-0.6,0.6-0.9,1.3-0.9,2.1c0,0.8,0.3,1.5,0.9,2.1C29.2,58.7,29.9,59,30.7,59z"/>
	<path d="M19.5,66.6c0.3-0.3,0.5-0.6,0.6-1c0.2-0.4,0.2-0.8,0.2-1.1c0-0.2,0-0.4-0.1-0.6c0-0.2-0.1-0.4-0.2-0.6
		c-0.1-0.2-0.2-0.4-0.3-0.5c-0.1-0.2-0.2-0.3-0.4-0.5c-0.1-0.1-0.3-0.3-0.5-0.4c-0.2-0.1-0.3-0.2-0.5-0.3s-0.4-0.1-0.6-0.2
		c-1-0.2-2,0.1-2.7,0.8c-0.1,0.1-0.3,0.3-0.4,0.5c-0.1,0.2-0.2,0.3-0.3,0.5c-0.1,0.2-0.1,0.4-0.2,0.6c0,0.2-0.1,0.4-0.1,0.6
		c0,0.4,0.1,0.8,0.2,1.1c0.2,0.4,0.4,0.7,0.7,1c0.6,0.6,1.3,0.9,2.1,0.9c0.4,0,0.8-0.1,1.1-0.2C18.9,67.1,19.2,66.9,19.5,66.6z"/>
	<path d="M27.2,69c0.4,0.1,0.7,0.2,1.1,0.2c0.4,0,0.8-0.1,1.2-0.2c0.4-0.2,0.7-0.4,1-0.7c0.3-0.3,0.5-0.6,0.7-1
		c0.2-0.4,0.2-0.7,0.2-1.1c0-0.8-0.3-1.6-0.9-2.1c-0.7-0.7-1.7-1-2.7-0.8c-0.2,0-0.4,0.1-0.6,0.2c-0.2,0.1-0.4,0.2-0.5,0.3
		c-0.2,0.1-0.3,0.2-0.5,0.4c-0.6,0.6-0.9,1.3-0.9,2.1s0.3,1.6,0.9,2.1C26.5,68.6,26.8,68.8,27.2,69z"/>
	<path d="M40.2,66.1c0.4,0,0.8-0.1,1.1-0.2c0.4-0.2,0.7-0.4,1-0.7c0.6-0.6,0.9-1.3,0.9-2.1c0-0.2,0-0.4-0.1-0.6
		c0-0.2-0.1-0.4-0.2-0.6c-0.1-0.2-0.2-0.4-0.3-0.5c-0.1-0.2-0.2-0.3-0.4-0.5c-1.1-1.1-3.1-1.1-4.2,0c-0.1,0.1-0.3,0.3-0.4,0.5
		c-0.1,0.2-0.2,0.3-0.3,0.5c-0.1,0.2-0.1,0.4-0.2,0.6c0,0.2-0.1,0.4-0.1,0.6c0,0.8,0.3,1.6,0.9,2.1C38.6,65.8,39.4,66.1,40.2,66.1z"
		/>
	<path d="M22.2,79.2c0.4-0.1,0.7-0.4,1-0.7c0.3-0.3,0.5-0.6,0.7-1c0.1-0.4,0.2-0.8,0.2-1.1c0-0.2,0-0.4-0.1-0.6
		c0-0.2-0.1-0.4-0.2-0.6c-0.1-0.2-0.2-0.4-0.3-0.5c-0.1-0.2-0.2-0.3-0.4-0.5c-0.7-0.7-1.7-1-2.7-0.8c-0.2,0-0.4,0.1-0.6,0.2
		s-0.4,0.2-0.5,0.3c-0.2,0.1-0.3,0.2-0.5,0.4c-0.1,0.1-0.3,0.3-0.4,0.5c-0.1,0.2-0.2,0.3-0.3,0.5c-0.1,0.2-0.1,0.4-0.2,0.6
		c0,0.2-0.1,0.4-0.1,0.6c0,0.4,0.1,0.8,0.2,1.1c0.2,0.4,0.4,0.7,0.7,1c0.6,0.6,1.3,0.9,2.1,0.9C21.4,79.5,21.8,79.4,22.2,79.2z"/>
</g>
</svg>
