<svg width='200' height='200' fill="#FFFFFF" xmlns="http://www.w3.org/2000/svg" xmlns:xlink="http://www.w3.org/1999/xlink" version="1.1" x="0px" y="0px" viewBox="0 0 168.292 195" enable-background="new 0 0 168.292 195" xml:space="preserve"><path d="M5.96,106.693c2.82-0.479,6.78-0.84,12.359-0.84c5.64,0,9.66,1.08,12.359,3.239c2.58,2.04,4.32,5.399,4.32,9.358  c0,3.961-1.32,7.32-3.72,9.601c-3.12,2.94-7.74,4.261-13.14,4.261c-1.2,0-2.28-0.061-3.12-0.181v14.459H5.96V106.693z   M15.02,125.052c0.78,0.181,1.74,0.239,3.06,0.239c4.86,0,7.86-2.459,7.86-6.6c0-3.719-2.58-5.938-7.14-5.938  c-1.86,0-3.12,0.181-3.78,0.358V125.052z"/><path d="M40.82,106.693c3.36-0.541,7.74-0.84,12.359-0.84c7.68,0,12.66,1.379,16.561,4.319c4.2,3.118,6.839,8.101,6.839,15.239  c0,7.738-2.82,13.078-6.72,16.379c-4.26,3.539-10.739,5.22-18.659,5.22c-4.74,0-8.1-0.3-10.379-0.601V106.693z M50,139.691  c0.78,0.18,2.04,0.18,3.18,0.18c8.28,0.062,13.68-4.5,13.68-14.158c0.06-8.398-4.86-12.84-12.72-12.84  c-2.04,0-3.36,0.182-4.14,0.359V139.691z"/><path d="M82.58,106.152h24.718v7.5H91.759v9.24h14.519v7.439H91.759v16.259h-9.18L82.58,106.152L82.58,106.152z"/><path d="M113.36,44.452h29.142c-8.744-12.276-25.854-31.729-35.533-40.235v32.901C106.968,41.162,109.835,44.452,113.36,44.452z"/><path d="M147.98,79.933V54.878h-34.62c-8.532,0-15.478-7.967-15.478-17.76V0H13.115C7.075,0,2.18,5.617,2.18,12.549v38.624h0.023  v36.759h159.378v75.286H2.204v18.887c0.24,6.686,5.025,12.025,10.912,12.025h123.932c6.039,0,10.934-5.619,10.934-12.549v-10.363  h21.602V79.933H147.98z"/></svg>
