<!-- Generator: Adobe Illustrator 19.0.0, SVG Export Plug-In  -->
<svg version="1.1"
	 xmlns="http://www.w3.org/2000/svg" xmlns:xlink="http://www.w3.org/1999/xlink" xmlns:a="http://ns.adobe.com/AdobeSVGViewerExtensions/3.0/"
	 x="0px" y="0px" width="175.1px" height="95.1px" viewBox="0 0 175.1 95.1" style="enable-background:new 0 0 175.1 95.1;"
	 xml:space="preserve">
<style type="text/css">
	.st7{fill:#FFFFFF;stroke:#FFFFFF;stroke-width:3;stroke-miterlimit:10;}
</style>
<defs>
</defs>
<g transform="translate(0,-952.36218)">
	<path class="st7" d="M6.9,953.9c-3.3,0.4-5.7,3.3-5.3,6.6c0.1,1.4,0.8,2.7,1.8,3.6l58.1,58.2c2.3,2.3,6.2,2.3,8.5,0
		c2.3-2.3,2.3-6.2,0-8.5l-58.1-58.1C10.5,954.4,8.7,953.7,6.9,953.9z M166.9,953.9c-1.4,0.2-2.6,0.8-3.6,1.8l-75.8,75.8l-3.6-3.6
		c-2.3-2.3-6.2-2.3-8.5,0c-2.3,2.3-2.3,6.2,0,8.5l7.8,7.8c2.3,2.3,6.1,2.4,8.5,0c0,0,0,0,0,0l80-80c2.4-2.3,2.4-6.1,0.1-8.5
		C170.6,954.3,168.7,953.7,166.9,953.9z"/>
</g>
</svg>
