<?xml version="1.0" encoding="utf-8"?>
<!-- Generator: Adobe Illustrator 19.0.0, SVG Export Plug-In . SVG Version: 6.00 Build 0)  -->
<svg version="1.1" id="Layer_1" xmlns="http://www.w3.org/2000/svg" xmlns:xlink="http://www.w3.org/1999/xlink" x="0px" y="0px"
	 viewBox="-8.4 -3.6 60 60" style="enable-background:new -8.4 -3.6 60 60;" xml:space="preserve">
<style type="text/css">
	.st0{fill:#FFFFFF;}
</style>
<g>
	<path class="st0" d="M34.6,30.9h-0.7v-3.6c0-0.4-0.3-0.7-0.7-0.7s-0.7,0.3-0.7,0.7v3.6H31V20.1c0-0.4-0.3-0.7-0.7-0.7h-0.7v-3.6
		c0-0.4-0.3-0.7-0.7-0.7c-0.4,0-0.7,0.3-0.7,0.7v3.6h-1.4v-7.9c0-0.4-0.3-0.7-0.7-0.7h-3.6V7.2c0-0.4-0.3-0.7-0.7-0.7
		s-0.7,0.3-0.7,0.7v3.6h-3.6c-0.4,0-0.7,0.3-0.7,0.7v7.9h-1.4v-3.6c0-0.4-0.3-0.7-0.7-0.7s-0.7,0.3-0.7,0.7v3.6H13
		c-0.4,0-0.7,0.3-0.7,0.7v10.8h-1.4v-3.6c0-0.4-0.3-0.7-0.7-0.7c-0.4,0-0.7,0.3-0.7,0.7v3.6H8.7c-0.4,0-0.7,0.3-0.7,0.7v12.9
		c0,0.4,0.3,0.7,0.7,0.7h25.9c0.4,0,0.7-0.3,0.7-0.7V31.6C35.3,31.2,35,30.9,34.6,30.9z M25.2,12.2v1.4c-0.2-0.1-0.5-0.2-1-0.2
		c-0.6,0-1,0.2-1.2,0.4c-0.2,0.1-0.3,0.2-0.5,0.2c-0.2,0-0.3,0-0.5-0.2c-0.3-0.2-0.6-0.4-1.2-0.4c-0.6,0-1,0.2-1.2,0.4
		c-0.2,0.1-0.3,0.2-0.5,0.2c-0.2,0-0.3,0-0.5-0.2c-0.1-0.1-0.3-0.2-0.5-0.2v-1.3H25.2z M18.1,15.1c0.2,0.1,0.5,0.2,1,0.2
		c0.6,0,1-0.2,1.2-0.4c0.2-0.1,0.3-0.2,0.5-0.2c0.2,0,0.3,0,0.5,0.2c0.3,0.2,0.6,0.4,1.2,0.4c0.6,0,1-0.2,1.2-0.4
		c0.2-0.1,0.3-0.2,0.5-0.2s0.3,0,0.5,0.2c0.1,0.1,0.3,0.2,0.5,0.2v4.2h-7.2V15.1z M29.6,20.8v3.1c-0.1,0-0.1-0.1-0.2-0.1
		c-0.3-0.2-0.8-0.4-1.6-0.4c-0.8,0-1.2,0.2-1.6,0.4C26,23.9,25.8,24,25.3,24c-0.4,0-0.6-0.1-0.9-0.3c-0.3-0.2-0.8-0.4-1.6-0.4
		s-1.2,0.2-1.6,0.4C21,23.9,20.8,24,20.4,24c-0.4,0-0.6-0.1-0.9-0.3c-0.3-0.2-0.8-0.4-1.6-0.4c-0.8,0-1.2,0.2-1.6,0.4
		c-0.3,0.2-0.5,0.3-0.9,0.3c-0.4,0-0.6-0.1-0.9-0.3c-0.2-0.1-0.5-0.3-0.9-0.4v-2.6H29.6z M13.7,25c0.1,0,0.1,0.1,0.2,0.1
		c0.3,0.2,0.8,0.4,1.6,0.4c0.8,0,1.2-0.2,1.6-0.4c0.3-0.2,0.5-0.3,0.9-0.3c0.4,0,0.6,0.1,0.9,0.3c0.3,0.2,0.8,0.4,1.6,0.4
		s1.2-0.2,1.6-0.4c0.3-0.2,0.5-0.3,0.9-0.3s0.6,0.1,0.9,0.3c0.3,0.2,0.8,0.4,1.6,0.4c0.8,0,1.2-0.2,1.6-0.4c0.3-0.2,0.5-0.3,0.9-0.3
		s0.6,0.1,0.9,0.3c0.2,0.1,0.5,0.3,0.9,0.4v5.5H13.7V25z M33.9,32.3v3.1c-0.2,0-0.3-0.1-0.5-0.1c-0.4-0.1-0.8-0.3-1.7-0.3
		s-1.3,0.2-1.7,0.3c-0.3,0.1-0.6,0.2-1.2,0.2c-0.6,0-0.9-0.1-1.2-0.2c-0.4-0.1-0.8-0.3-1.7-0.3c-0.8,0-1.3,0.2-1.7,0.3
		c-0.3,0.1-0.6,0.2-1.2,0.2s-0.9-0.1-1.2-0.2c-0.4-0.1-0.8-0.3-1.7-0.3s-1.3,0.2-1.7,0.3c-0.3,0.1-0.6,0.2-1.2,0.2
		c-0.6,0-0.9-0.1-1.2-0.2c-0.4-0.1-0.8-0.3-1.7-0.3s-1.3,0.2-1.7,0.3c-0.3,0.1-0.6,0.2-1.2,0.2c-0.6,0-0.9-0.1-1.2-0.2
		c-0.3-0.1-0.6-0.2-1-0.3v-2.7H33.9z M9.4,43.8v-7.4c0.2,0,0.3,0.1,0.5,0.1c0.4,0.1,0.8,0.3,1.7,0.3s1.3-0.2,1.7-0.3
		c0.3-0.1,0.6-0.2,1.2-0.2c0.6,0,0.9,0.1,1.2,0.2c0.4,0.1,0.8,0.3,1.7,0.3c0.8,0,1.3-0.2,1.7-0.3c0.3-0.1,0.6-0.2,1.2-0.2
		s0.9,0.1,1.2,0.2c0.4,0.1,0.8,0.3,1.7,0.3c0.8,0,1.3-0.2,1.7-0.3c0.3-0.1,0.6-0.2,1.2-0.2c0.6,0,0.9,0.1,1.2,0.2
		c0.4,0.1,0.8,0.3,1.7,0.3c0.8,0,1.3-0.2,1.7-0.3c0.3-0.1,0.6-0.2,1.2-0.2c0.6,0,0.9,0.1,1.2,0.2c0.3,0.1,0.6,0.2,1,0.3v7H9.4z"/>
</g>
</svg>
