<?xml version="1.0" encoding="UTF-8"?>
<!-- Generator: Adobe Illustrator 19.0.0, SVG Export Plug-In  -->
<svg xmlns="http://www.w3.org/2000/svg" xmlns:xlink="http://www.w3.org/1999/xlink" xmlns:a="http://ns.adobe.com/AdobeSVGViewerExtensions/3.0/" x="0px" y="0px" width="45.3px" height="45.3px" viewBox="0 0 45.3 45.3" style="enable-background:new 0 0 45.3 45.3;" xml:space="preserve">
<style type="text/css">
	.st0{fill:#FFFFFF;stroke:#FFFFFF;stroke-miterlimit:10;}
	.st1{fill:#010101;}
</style>
<defs>
</defs>
<circle id="XMLID_50_" class="st0" cx="22.6" cy="22.6" r="22.1"></circle>
<g id="XMLID_33_">
	<path id="XMLID_43_" class="st1" d="M33.8,25.8l-6.6-4.5v-3.7h0.2v-0.8h-0.7v-1.2H27v-0.4h-0.9l-0.6-3.1h-0.1v-1.4h1.1v-0.3h-1.1   v-1h-0.3v1H24v0.3h1.1v1.4H25l-0.6,3.1h-0.9v0.4h0.3v1.2h-0.7v0.8h0.2v3.7l-2.5,1.7c0,0.5,0.1,1.1,0.1,1.7c0,0.6,0,1.1-0.1,1.8   c0,0.7-0.6,1.2-1.3,1.2c0,0,0,0-0.1,0c-0.1,0-0.2,0-0.3-0.1c0,1.1,0,2.2,0.1,3.2h14.5v-0.4h-1.4v-4.7L33.8,25.8L33.8,25.8z    M25.2,22.9c0.4,0,0.8,0.4,0.8,0.8c0,0.4-0.4,0.8-0.8,0.8c-0.4,0-0.8-0.4-0.8-0.8C24.4,23.3,24.8,22.9,25.2,22.9z M24,20.8v-2.5   h2.5v2.5H24z M21.9,29.5v-3.2h1.4v3.2H21.9z M24.6,29.5v-3.2h1.4v3.2H24.6z M28.6,29.5h-1.4v-3.2h1.4V29.5z"></path>
	<path id="XMLID_42_" class="st1" d="M19.5,27.2C19.5,27.2,19.5,27.2,19.5,27.2c0.4,0,0.7-0.3,0.8-0.7c0-0.1,0-0.2,0-0.3   c-0.4,0.1-1.2,0.1-1.5,0.1c0,0,0,0.1,0,0.1C18.8,26.9,19.1,27.2,19.5,27.2z"></path>
	<path id="XMLID_39_" class="st1" d="M12.5,26.1c0-0.5,0-0.9,0-1.3c0-1.8,0.2-3,0.5-3.7c-0.1,2.8-0.4,9.8-0.3,13.3   c0.2,0,0.6,0.1,1,0.1c0.6,0.1,1.4,0.2,2,0.2c0.6,0,1.4-0.1,2-0.2c0.4,0,0.8-0.1,1-0.1c0.1-3.5-0.1-10.4-0.3-13.3c0,0,0,0,0,0   c0.3,0.7,0.5,1.9,0.5,3.7c0,0.4,0,0.9,0,1.3c0.1,0,0.3,0,0.6,0c0.3,0,0.7,0,0.9-0.1c0-0.4,0-0.9,0-1.3c0-2.7-0.4-4.3-1-5.2   c-0.3-0.5-0.6-0.7-1-0.9c-0.2-0.1-0.4-0.2-0.5-0.2c-0.2,0.4-0.9,2-1.5,2.8l-0.1-0.1c0.3-0.5,0.7-1.2,1-1.8c0.2-0.4,0.4-0.8,0.5-0.9   c0,0,0,0,0,0c-0.1,0-0.1,0-0.1,0h-1h-2.5c0,0-0.1,0-0.1,0c0,0,0,0,0,0c0.1,0.2,0.3,0.5,0.5,0.9c0.3,0.6,0.7,1.3,1,1.8l-0.1,0.1   c-0.6-0.9-1.4-2.5-1.5-2.8c-0.2,0-0.3,0.1-0.5,0.2c-0.5,0.2-1,0.8-1.4,1.7c-0.4,0.9-0.6,2.3-0.6,4.4c0,0.4,0,0.8,0,1.3   c0.2,0,0.6,0.1,0.9,0.1C12.2,26.1,12.4,26.1,12.5,26.1z M14.9,21.6h0.6v-0.5h0.3v0.5h0.6v0.3h-0.6v1.5h-0.3v-1.5h-0.6V21.6z"></path>
	<path id="XMLID_38_" class="st1" d="M12.5,26.5c0,0,0-0.1,0-0.1c-0.3,0-1,0-1.5-0.1c0,0.1,0,0.2,0,0.3c0,0.4,0.3,0.7,0.7,0.7   c0,0,0,0,0,0c0.1,0,0.3-0.1,0.4-0.1C12.4,27,12.6,26.7,12.5,26.5z"></path>
	<path id="XMLID_37_" class="st1" d="M15.4,34.8c-0.7,0-1.5-0.1-2.1-0.2c0.1,0.2,0.2,0.4,0.4,0.6c0.2,0.2,0.4,0.3,0.7,0.3   c0.2,0,0.4,0,0.5-0.1C15.1,35.2,15.3,35,15.4,34.8z"></path>
	<path id="XMLID_36_" class="st1" d="M18.1,34.6c-0.6,0.1-1.4,0.2-2.1,0.2c0.1,0.2,0.3,0.4,0.5,0.5c0.2,0.1,0.3,0.1,0.5,0.1   c0.3,0,0.5-0.1,0.7-0.3C17.9,35.1,18,34.9,18.1,34.6z"></path>
	<circle id="XMLID_35_" class="st1" cx="15.7" cy="16" r="2"></circle>
	<path id="XMLID_34_" class="st1" d="M15.6,34.8c0,0,0.1,0,0.1,0c0,0,0.1,0,0.1,0c0,0-0.1,0-0.1,0C15.6,34.8,15.6,34.8,15.6,34.8z"></path>
</g>
</svg>
