<?xml version="1.0" encoding="UTF-8"?>
<!-- Generator: Adobe Illustrator 19.0.0, SVG Export Plug-In  -->
<svg xmlns="http://www.w3.org/2000/svg" xmlns:xlink="http://www.w3.org/1999/xlink" xmlns:a="http://ns.adobe.com/AdobeSVGViewerExtensions/3.0/" x="0px" y="0px" width="180.1px" height="158.1px" viewBox="0 0 180.1 158.1" style="enable-background:new 0 0 180.1 158.1;" xml:space="preserve">
<style type="text/css">
	.st0{fill:none;}
</style>
<defs>
</defs>
<g>
	<path class="st0" d="M97.6,92.9c0.3,5.9,0,12.9-1.9,20.7c-0.2,0.8-0.4,1.5-0.7,2.3c4.2,8.6,13.5,14.1,19.4,17.5   c1.5,0.9,2.8,1.6,3.7,2.3c1.8,1.2,5,3.7,8.1,6.2c-0.3-4.1-0.7-8.2-0.8-10.4c0-0.7-0.1-1.6-0.1-2.8c-0.1-6-0.3-17.3-5.5-25.8   c-1.2-0.2-2.4-0.5-3.6-0.9C108.7,99.6,102.5,96.2,97.6,92.9z"></path>
	<path class="st0" d="M97.9,65.3c1.3-0.9,2.7-1.7,4.2-2.6c4.6-2.6,9.5-4.6,14.5-6.1c1.2-0.3,2.3-0.6,3.5-0.8   c5.1-7.9,5.2-18.4,5.2-25.1c0-1.7,0-3.2,0.1-4.4c0.1-2.2,0.7-6.2,1.3-10.1c-3.4,2.3-6.7,4.7-8.6,5.9c-0.6,0.4-1.4,0.9-2.4,1.5   c-5.3,3.2-15.6,9.4-20.1,18.7c0.3,0.9,0.5,1.7,0.7,2.6C98.1,52.6,98.4,59.5,97.9,65.3z"></path>
	<path class="st0" d="M70.1,81c1.2-0.7,2.5-1.3,3.7-1.9c-5.2-2.6-11-6.4-16.7-11.8c-0.9-0.8-1.6-1.7-2.4-2.6   c-7.7-0.2-15.2,3.3-21.9,7l-3.4,1.9c-0.9,0.5-1.6,0.9-2.3,1.2c-2,1-5.7,2.5-9.4,3.9c3.7,1.7,7.4,3.5,9.4,4.5   c0.6,0.3,1.5,0.8,2.5,1.3c5.2,2.9,15.1,8.4,25.1,8.1c0.7-0.7,1.4-1.4,2.1-2.1C60.8,86.9,65.3,83.7,70.1,81z"></path>
</g>
<path d="M167.6,70.7c-5.5-2.6-10.8-5.3-16.2-8.1c-6.3-3.2-13-5.9-20-6.9c2.2-5.3,3.2-11,3.6-16.7c0.3-4.6,0-9.2,0.5-13.8  c0.5-4.4,1.3-8.8,2-13.2c0.6-3.3,2.3-8.1-1-10.5c-3.1-2.3-6-0.1-8.5,1.6c-4.8,3.3-9.5,6.6-14.3,9.8c-3.6,2.4-7.4,4.5-10.9,7  c-4.7,3.4-9.1,7.3-12.6,12c-6-7.9-14.3-12.4-22.5-17.6C64.4,12.3,54.7,4.1,53,2.7c-1.5-1.3-3.5-3-5.6-2.7c-4.6,0.7-4.5,5.1-4.2,8.7  c0.4,5.6,0.9,11.2,1.3,16.7c0.8,10.2,0.5,20,4.5,29.7c-9.1,1.3-16.9,5.6-21,7.9L24.5,65c-6.5,3.6-13.9,5.7-20.9,8.4  c-3.6,1.4-5.2,6.4-1.7,8.7c2.8,1.9,6,3.2,9.1,4.6c4.2,2,8.5,3.8,12.5,6c7.9,4.3,16,8.4,25.1,9.6c-2.2,5.3-3.2,11-3.6,16.7  c-0.3,4.6,0,9.2-0.5,13.8c-0.5,4.4-1.3,8.8-2,13.2c-0.5,3.3-2.3,8.1,1,10.5c3.1,2.3,6,0.1,8.5-1.6c4.8-3.3,9.5-6.6,14.3-9.8  c3.6-2.4,7.4-4.5,10.9-7c4.7-3.4,9.1-7.3,12.6-12c6,7.9,14.3,12.4,22.5,17.6c3.5,2.2,6.7,5,9.9,7.6c1.7,1.4,3.4,2.8,5.1,4.2  c1.5,1.2,3.4,3,5.6,2.7c4.6-0.6,4.5-5.1,4.3-8.7c-0.4-5.6-0.9-11.2-1.3-16.7c-0.8-10.1-0.5-20-4.5-29.7c9.1-1.3,16.9-5.6,21-7.9  l3.4-1.9c4.2-2.4,8.9-3.9,13.4-5.6c2.3-0.9,9.7-3.8,10.5-5.3c0.9-1.7,1-4.3-0.6-5.7C175.8,73.9,171.3,72.4,167.6,70.7  C163.7,68.9,180,76.6,167.6,70.7z M115.8,23.6c3.8-2.3,7.4-4.9,11-7.4c-0.6,3.5-1.2,7.1-1.4,10.6c-0.2,3.2-0.1,6.4-0.2,9.5  c-0.3,6.7-1.4,13.7-5.1,19.5c-5.7,1-11.3,3.4-16.4,6c0.2-1.3,0.5-3.4-0.6-4.4c-1.4-1.4-3.9,0.5-5.1,1.4c-0.1-5.5-0.7-11.3-2.4-16.6  C100.3,33,110.5,26.8,115.8,23.6C116.8,23,110.5,26.8,115.8,23.6z M96.8,75c3.8,0,3.8,5.9,0,5.9C92.9,80.9,92.9,75,96.8,75z   M61.9,22.5C68.5,27,75.6,30.3,81,36.5c6.5,7.4,7.6,17.7,7,27.2c-1.2-1.4-8.6-10.1-10.3-5.5C76.3,62,78.7,67.5,80,71  c-5-2.3-9.6-5.3-13.8-8.9c-4.7-4.1-7.8-8.9-9.5-14.9c-1.4-4.9-1.9-10-2-15.1c-0.2-5.3-0.5-10.5-1-15.7C56.9,18.8,60,21.3,61.9,22.5  C62.8,23.2,60,21.3,61.9,22.5z M86.3,77.9c0,3.8-5.9,3.8-5.9,0C80.3,74.1,86.3,74.1,86.3,77.9z M29.5,84.6  c-3.9-2.1-7.9-3.9-11.9-5.8c4-1.5,8-3,11.7-5.1l3.4-1.9c6.7-3.7,14.2-7.2,21.9-7c3.7,4.4,8.5,8,13.3,11.1c-1.2,0.5-3.1,1.5-3.1,3  c0,1.7,2.1,2.7,3.4,3.2c-4.9,2.9-9.8,6.4-13.6,10.7C44.7,93,34.8,87.5,29.5,84.6C28.5,84.1,34.8,87.5,29.5,84.6z M86.1,111.2  c-1.9,7.9-8.1,14-14.5,18.6c-5.9,4.3-12.3,7.9-18.3,12.1c0.8-5.3,1.4-10.5,1.5-15.9c0.1-4.8,0.3-9.7,1.4-14.4  c1.3-5.4,3.7-10.3,7.9-14.1c4.6-4.1,9.8-7.5,15.4-10.1c-0.8,2.1-1.4,4.2-1.9,6.3c-0.4,1.7-1,4.3,0,6c2.1,3.6,8.9-4.2,10.2-5.6  C87.9,99,87.6,104.8,86.1,111.2C85.7,112.8,87.6,104.8,86.1,111.2z M85.8,89.1c-3.8,0-3.8-5.9,0-5.9S89.6,89.1,85.8,89.1z M87.1,72  c0-3.8,5.9-3.8,5.9,0S87.1,75.8,87.1,72z M94.3,89.1c-3.8,0-3.8-5.9,0-5.9S98.1,89.1,94.3,89.1z M118.2,135.6  c-8.5-5.7-18.4-10.1-23.1-19.8c1.8-5.4,2.5-11.3,2.6-17c1.1,0.9,3.2,2.6,4.7,1.7c1.3-0.7,1.2-2.8,1.1-4.1c5.1,2.8,10.7,5.3,16.4,6.4  c3.6,5.9,4.9,13,5.3,19.8c0.4,6.4,0.6,12.8,1.1,19.2C123.2,139.3,120.1,136.8,118.2,135.6C117.2,135,120.1,136.8,118.2,135.6z   M153,83.2c-0.7,0.3-1.4,0.7-2.3,1.2l-3.4,1.9c-7.1,4-15.1,7.7-23.4,6.9c-7.3-0.7-14.9-4.7-20.8-8.9c2.6-0.4,5.2-1,7.7-1.8  c1.7-0.6,4.6-1.4,5.2-3.3c1.3-4-9.4-5.7-11.7-6.2c4.7-3,9.8-5.3,15.1-6.8c5.5-1.6,11.5-0.9,16.9,0.8c4.6,1.4,8.9,3.5,13.1,5.8  c4.3,2.3,8.6,4.4,13,6.5C158.7,80.8,155,82.2,153,83.2C152.3,83.5,155,82.2,153,83.2z"></path>
</svg>
