<?xml version="1.0" encoding="UTF-8"?>
<!-- Generator: Adobe Illustrator 19.0.0, SVG Export Plug-In  -->
<svg xmlns="http://www.w3.org/2000/svg" xmlns:xlink="http://www.w3.org/1999/xlink" xmlns:a="http://ns.adobe.com/AdobeSVGViewerExtensions/3.0/" x="0px" y="0px" width="59.3px" height="59.3px" viewBox="0 0 59.3 59.3" style="enable-background:new 0 0 59.3 59.3;" xml:space="preserve">
<style type="text/css">
	.st0{fill:#FFFFFF;}
</style>
<defs>
</defs>
<g>
	<path class="st0" d="M54.8,14.1c-0.1-0.2-0.2-0.3-0.3-0.5c-0.4-0.5-1-0.8-1.6-0.8c-1.2,0-2.1,0.9-2.1,2.1c0,0,0,0.1,0,0.1   c0,0.3,0.1,0.6,0.2,0.9c0,0.1,0.1,0.1,0.1,0.2c0,0,0,0,0,0c0-0.1-0.1-0.1-0.1-0.2c0,0,0,0,0,0c0,0,0.1,0.1,0.1,0.1c0,0,0,0,0,0   c0,0,0,0,0,0c0.1,0.2,0.3,0.4,0.4,0.6c0,0.1,0.1,0.1,0.1,0.2c0.2,0.4,0.5,0.8,0.7,1.3c0,0,0,0.1,0.1,0.1c0.1,0.2,0.2,0.4,0.3,0.6   c0.1,0.1,0.1,0.2,0.2,0.4c0.1,0.2,0.2,0.4,0.2,0.6c0.1,0.2,0.2,0.4,0.2,0.6c0.1,0.2,0.2,0.5,0.3,0.7c0.1,0.2,0.1,0.4,0.2,0.6   c0.1,0.2,0.1,0.3,0.2,0.5c0.1,0.2,0.1,0.5,0.2,0.7c0,0.1,0.1,0.3,0.1,0.4c0.1,0.3,0.2,0.6,0.2,1c0,0.1,0.1,0.3,0.1,0.4   c0,0.3,0.1,0.5,0.1,0.8c0,0.1,0,0.2,0.1,0.3c0.1,0.4,0.1,0.7,0.1,1.1c0,0.1,0,0.2,0,0.3c0,0.3,0.1,0.6,0.1,0.9c0,0.1,0,0.2,0,0.3   c0,0.4,0,0.8,0,1.2C55,43.6,43.6,55,29.6,55c-14,0-25.4-11.4-25.4-25.4c0-6.8,2.6-13.2,7.4-18c4.8-4.8,11.2-7.4,18-7.4   c0.4,0,0.8,0,1.2,0c0.1,0,0.2,0,0.4,0c0.3,0,0.5,0,0.8,0.1c0.1,0,0.3,0,0.4,0c0.3,0,0.5,0.1,0.8,0.1c0.1,0,0.3,0,0.4,0.1   c0.3,0,0.6,0.1,0.9,0.2c0.1,0,0.2,0,0.2,0c0.4,0.1,0.8,0.2,1.1,0.3c0.1,0,0.2,0.1,0.3,0.1c0.3,0.1,0.5,0.1,0.8,0.2   c0.1,0,0.3,0.1,0.4,0.1c0.2,0.1,0.5,0.2,0.7,0.2c0.1,0,0.3,0.1,0.4,0.1C38.8,5.9,39,6,39.2,6.1c0.1,0,0.2,0.1,0.3,0.1   c0.3,0.1,0.7,0.3,1,0.5c0.1,0,0.2,0.1,0.2,0.1c0.3,0.1,0.5,0.3,0.8,0.4c0.1,0.1,0.2,0.1,0.4,0.2c0.2,0.1,0.4,0.2,0.6,0.4   C42.7,7.9,42.8,7.9,43,8c0.2,0.1,0.4,0.3,0.6,0.4c0.1,0.1,0.2,0.2,0.4,0.2c0.2,0.2,0.5,0.3,0.7,0.5c0.1,0,0.1,0.1,0.2,0.1   c0,0,0,0,0,0c0.1,0,0.1,0.1,0.2,0.2c0,0,0,0,0.1,0c-0.1,0-0.2-0.1-0.3-0.2c0,0,0,0,0,0c0.1,0.1,0.2,0.1,0.3,0.2   c0.1,0,0.1,0.1,0.2,0.1c0,0,0,0,0,0c0.1,0,0.1,0,0.2,0.1c0,0,0,0,0.1,0c0.1,0,0.1,0,0.2,0c0,0,0,0,0.1,0c0.1,0,0.2,0,0.2,0   c1.2,0,2.1-0.9,2.1-2.1c0-0.6-0.2-1.1-0.6-1.5c-0.2-0.1-0.3-0.2-0.5-0.3C42.2,2.1,36.2,0,29.6,0C13.3,0,0,13.3,0,29.6   C0,46,13.3,59.3,29.6,59.3C46,59.3,59.3,46,59.3,29.6C59.3,23.9,57.6,18.6,54.8,14.1z"></path>
	<path class="st0" d="M33.5,41.5L33.5,41.5L33.5,41.5C33.4,41.6,33.4,41.6,33.5,41.5z"></path>
	<path class="st0" d="M46.1,27.5l-14.7,0l0,0c0,0,0-0.1,0-0.1c0-0.1,0-8.6,0-8.6c0-2.5-3.8-2.5-3.8,0c0,0,0,10.2,0,10.7l0,0.1   c0,0.6,0.2,1,0.5,1.3c0.3,0.3,0.8,0.5,1.3,0.5l16.7,0C48.6,31.4,48.6,27.5,46.1,27.5z"></path>
</g>
</svg>
