<!-- Generator: Adobe Illustrator 19.0.0, SVG Export Plug-In  -->
<svg version="1.1"
	 xmlns="http://www.w3.org/2000/svg" xmlns:xlink="http://www.w3.org/1999/xlink" xmlns:a="http://ns.adobe.com/AdobeSVGViewerExtensions/3.0/"
	 x="0px" y="0px" width="98.8px" height="180px" viewBox="0 0 98.8 180" style="enable-background:new 0 0 98.8 180;"
	 xml:space="preserve">
<defs>
</defs>
<path d="M87.2,177c0,1.7-1.3,3-3,3H14.6c-1.7,0-3-1.3-3-3s1.3-3,3-3h31.8v-54.4C0.5,117.7,0,70.8,0,70.3l0-0.4L9.3,2.6
	C9.5,0.9,11-0.2,12.7,0c1.6,0.2,2.8,1.7,2.6,3.4L6,70.5c0.1,3.5,1.6,43.2,43.4,43.2c41.9,0,43.4-39.6,43.4-43.2L83.5,3.4
	c-0.2-1.7,0.9-3.2,2.6-3.4c1.6-0.2,3.2,0.9,3.4,2.6l9.3,67.7c0,0.5-0.5,47.4-46.4,49.3V174h31.8C85.9,174,87.2,175.3,87.2,177z"/>
<path d="M65.5,106.7L65.5,106.7L65.5,106.7C65.4,106.7,65.4,106.7,65.5,106.7z"/>
<path d="M86.9,59h-75l0,0.2l-0.3,2.5L10.8,67l-0.3,2.5l-0.2,1.2v0.2c0,1.1,0.1,2.8,0.5,5c0.1,1.1,0.3,2.2,0.6,3.5
	c2.5,11.7,10.8,30.1,38,30.1c6.3,0,11.6-1,16-2.7c0,0,0,0,0.1,0c2.1-0.8,4.1-1.8,5.9-2.9c0.6-0.4,1.1-0.7,1.7-1.1
	c1.2-0.8,2.3-1.8,3.3-2.7c0.5-0.5,1-0.9,1.4-1.4c1-1.1,1.9-2.2,2.7-3.3c0.4-0.5,0.8-1.1,1.2-1.7c0.8-1.3,1.6-2.6,2.2-3.9
	c0.3-0.6,0.6-1.3,0.9-1.9c0.7-1.5,1.2-3,1.6-4.4c0.2-0.8,0.4-1.5,0.6-2.2c0.5-1.8,0.8-3.5,1-5c0.2-0.9,0.3-1.8,0.3-2.5
	c0.1-1.2,0.2-2.1,0.2-2.6v-0.2L86.9,59z M17.4,85.3L35.1,103C25.3,99.4,20.1,92.1,17.4,85.3z M39.2,104.3L15.9,81
	c-0.8-2.9-1.2-5.5-1.4-7.4l31.7,31.7C43.7,105.1,41.3,104.8,39.2,104.3z M49.4,105.4h-0.5l0.1-0.1L14.3,70.6l0.7-5.3l39.8,39.8
	C53.2,105.3,51.3,105.4,49.4,105.4z M57.4,104.7L15.6,63h6.1l40.5,40.5C60.7,104,59.1,104.4,57.4,104.7z M64.4,102.8L24.6,63h6
	l37.8,37.8C67.2,101.6,65.8,102.2,64.4,102.8z M70.2,99.7L33.4,63h6l34.1,34.1C72.5,98,71.4,98.9,70.2,99.7z M74.9,95.7L42.2,63h6
	l29.4,29.4C76.8,93.5,75.9,94.6,74.9,95.7z M78.8,90.7L51.1,63h6.1l23.6,23.6C80.3,88,79.6,89.3,78.8,90.7z M81.7,84.6L60.1,63h6
	l17,17C82.8,81.5,82.3,83,81.7,84.6z M84.4,72.4c-0.1,1.4-0.3,3.2-0.8,5.3L69,63h14.5l0.9,6.5l0.2,1.4
	C84.5,71.3,84.5,71.9,84.4,72.4z"/>
<path d="M84.5,70.9c0,0.4,0,0.9-0.1,1.5L75,63h2.8l6.5,6.5L84.5,70.9z"/>
</svg>
