<!-- Generator: Adobe Illustrator 19.0.0, SVG Export Plug-In  -->
<svg version="1.1"
	 xmlns="http://www.w3.org/2000/svg" xmlns:xlink="http://www.w3.org/1999/xlink" xmlns:a="http://ns.adobe.com/AdobeSVGViewerExtensions/3.0/"
	 x="0px" y="0px" width="140px" height="105px" viewBox="0 0 140 105" style="enable-background:new 0 0 140 105;"
	 xml:space="preserve">
<defs>
</defs>
<g>
	<g transform="translate(-237.000000, -189.000000)">
		<g transform="translate(237.000000, 192.000000)">
			<path d="M137.1,84.5H2.9c-1.6,0-2.9,1.4-2.9,2.9c0,1.6,1.3,2.9,2.9,2.9h134.2c1.6,0,2.9-1.4,2.9-2.9
				C140,85.8,138.7,84.5,137.1,84.5z"/>
			<path d="M49.6,81.6C49.6,73.5,43.1,67,35,67s-14.6,6.5-14.6,14.6c0,2.7,0.7,5.2,2.1,7.5l5-3c-0.8-1.3-1.2-2.9-1.2-4.5
				c0-4.8,3.9-8.8,8.8-8.8s8.8,3.9,8.8,8.8c0,1.6-0.4,3-1.2,4.4l5.1,2.9C48.9,86.7,49.6,84.2,49.6,81.6z"/>
			<path d="M72.9,81.6c0-8.1-6.5-14.6-14.6-14.6s-14.6,6.5-14.6,14.6c0,2.7,0.7,5.2,2.1,7.5l5-3c-0.8-1.3-1.2-2.9-1.2-4.5
				c0-4.8,3.9-8.8,8.8-8.8s8.8,3.9,8.8,8.8c0,1.6-0.4,3-1.2,4.4l5.1,2.9C72.2,86.7,72.9,84.2,72.9,81.6z"/>
			<path d="M96.3,81.6c0-8.1-6.5-14.6-14.6-14.6s-14.6,6.5-14.6,14.6c0,2.7,0.7,5.2,2.1,7.5l5-3c-0.8-1.3-1.2-2.9-1.2-4.5
				c0-4.8,3.9-8.8,8.8-8.8c4.8,0,8.8,3.9,8.8,8.8c0,1.6-0.4,3-1.2,4.4l5.1,2.9C95.6,86.7,96.3,84.2,96.3,81.6z"/>
			<path d="M119.6,81.6c0-8.1-6.5-14.6-14.6-14.6s-14.6,6.5-14.6,14.6c0,2.7,0.7,5.2,2.1,7.5l5-3c-0.8-1.3-1.2-2.9-1.2-4.5
				c0-4.8,3.9-8.8,8.8-8.8s8.8,3.9,8.8,8.8c0,1.6-0.4,3-1.2,4.4l5.1,2.9C118.9,86.7,119.6,84.2,119.6,81.6z"/>
			<path d="M107.9,64.1c0-8.1-6.5-14.6-14.6-14.6S78.8,56,78.8,64.1c0,2.7,0.7,5.2,2.1,7.5l5-3c-0.8-1.3-1.2-2.9-1.2-4.5
				c0-4.8,3.9-8.8,8.8-8.8c4.8,0,8.8,3.9,8.8,8.8c0,1.6-0.4,3-1.2,4.4l5.1,2.9C107.2,69.2,107.9,66.7,107.9,64.1z"/>
			<path d="M84.6,64.1c0-8.1-6.5-14.6-14.6-14.6S55.4,56,55.4,64.1c0,2.7,0.7,5.2,2.1,7.5l5-3c-0.8-1.3-1.2-2.9-1.2-4.5
				c0-4.8,3.9-8.8,8.8-8.8s8.8,3.9,8.8,8.8c0,1.6-0.4,3-1.2,4.4l5.1,2.9C83.9,69.2,84.6,66.7,84.6,64.1z"/>
			<path d="M61.3,64.1c0-8.1-6.5-14.6-14.6-14.6S32.1,56,32.1,64.1c0,2.7,0.7,5.2,2.1,7.5l5-3c-0.8-1.3-1.2-2.9-1.2-4.5
				c0-4.8,3.9-8.8,8.8-8.8s8.8,3.9,8.8,8.8c0,1.6-0.4,3-1.2,4.4l5.1,2.9C60.6,69.2,61.3,66.7,61.3,64.1z"/>
			<path d="M21.7,95.7c7,4.7,10.6,6.3,16.2,6.3h64.2c5.6,0,9.2-1.6,16.2-6.3c6.1-4.1,8.9-5.3,13-5.3h2.9v-5.8h-2.9
				c-5.6,0-9.2,1.6-16.2,6.3c-6.1,4.1-8.9,5.3-13,5.3H37.9c-4.1,0-6.9-1.3-13-5.3c-7-4.7-10.6-6.3-16.2-6.3H5.8v5.8h2.9
				C12.8,90.3,15.6,91.6,21.7,95.7z"/>
			<path d="M70.1,3.5c1.8,2.4,1.8,5.2-1.6,9.1c-5.3,6-5.3,11.9-1.9,16.5c0.9,1.1,1.7,1.9,2.4,2.4c1.3,0.9,3.1,0.6,4.1-0.7
				c0.9-1.3,0.6-3.1-0.7-4.1c-0.2-0.2-0.7-0.6-1.1-1.2c-1.8-2.4-1.8-5.2,1.6-9.1c5.3-6,5.3-11.9,1.9-16.5C73.9-1.2,73-2,72.3-2.5
				c-1.3-0.9-3.1-0.6-4.1,0.7c-0.9,1.3-0.6,3.1,0.7,4.1C69.1,2.4,69.6,2.9,70.1,3.5z"/>
			<path d="M52.6,15.1c1.8,2.4,1.8,5.2-1.6,9.1c-5.3,6-5.3,11.9-1.9,16.5c0.9,1.1,1.7,1.9,2.4,2.4c1.3,0.9,3.1,0.6,4.1-0.7
				c0.9-1.3,0.6-3.1-0.7-4.1c-0.2-0.2-0.7-0.6-1.1-1.2c-1.8-2.4-1.8-5.2,1.6-9.1c5.3-6,5.3-11.9,1.9-16.5c-0.9-1.1-1.7-1.9-2.4-2.4
				c-1.3-0.9-3.1-0.6-4.1,0.7c-0.9,1.3-0.6,3.1,0.7,4.1C51.6,14.1,52.1,14.5,52.6,15.1z"/>
			<path d="M87.6,15.1c1.8,2.4,1.8,5.2-1.6,9.1c-5.3,6-5.3,11.9-1.9,16.5c0.9,1.1,1.7,1.9,2.4,2.4c1.3,0.9,3.1,0.6,4.1-0.7
				c0.9-1.3,0.6-3.1-0.7-4.1c-0.2-0.2-0.7-0.6-1.1-1.2c-1.8-2.4-1.8-5.2,1.6-9.1c5.3-6,5.3-11.9,1.9-16.5c-0.9-1.1-1.7-1.9-2.4-2.4
				c-1.3-0.9-3.1-0.6-4.1,0.7c-0.9,1.3-0.6,3.1,0.7,4.1C86.6,14.1,87.1,14.5,87.6,15.1z"/>
		</g>
	</g>
</g>
</svg>
