<?xml version="1.0" encoding="UTF-8"?>
<svg xmlns="http://www.w3.org/2000/svg" xmlns:xlink="http://www.w3.org/1999/xlink" width="200" height="200" fill="#000000" x="0px" y="0px" viewBox="0 0 100 100" xml:space="preserve">
  <g>
    <path fill="none" d="M53.801,56.904c0.173,2.939-0.004,6.472-0.934,10.327c-0.093,0.388-0.212,0.761-0.332,1.133   c2.094,4.289,6.729,7.026,9.681,8.761c0.741,0.436,1.382,0.815,1.873,1.143c0.917,0.613,2.485,1.847,4.039,3.105   c-0.167-2.035-0.334-4.085-0.404-5.199c-0.022-0.349-0.032-0.823-0.043-1.397c-0.054-2.984-0.166-8.649-2.767-12.905   c-0.592-0.112-1.186-0.246-1.783-0.435C59.344,60.245,56.231,58.571,53.801,56.904z"></path>
    <path fill="none" d="M53.946,43.139c0.666-0.436,1.357-0.867,2.094-1.278c2.302-1.284,4.739-2.311,7.245-3.05   c0.585-0.173,1.17-0.298,1.755-0.399c2.541-3.939,2.594-9.202,2.621-12.571c0.007-0.86,0.014-1.604,0.053-2.195   c0.073-1.1,0.358-3.075,0.67-5.05c-1.679,1.163-3.371,2.333-4.301,2.95c-0.291,0.193-0.696,0.439-1.189,0.735   c-2.654,1.597-7.779,4.689-10.054,9.348c0.134,0.426,0.257,0.861,0.356,1.31C54.042,36.75,54.159,40.23,53.946,43.139z"></path>
    <path fill="none" d="M40.034,50.96c0.623-0.348,1.23-0.655,1.827-0.944c-2.598-1.317-5.514-3.212-8.338-5.897   c-0.429-0.408-0.82-0.838-1.191-1.279c-3.828-0.098-7.621,1.655-10.948,3.512l-1.716,0.968c-0.426,0.237-0.809,0.444-1.147,0.611   c-0.989,0.488-2.842,1.228-4.708,1.945c1.846,0.873,3.706,1.754,4.706,2.25c0.313,0.155,0.728,0.384,1.23,0.662   c2.61,1.444,7.566,4.177,12.549,4.057c0.328-0.364,0.677-0.718,1.05-1.06C35.369,53.931,37.619,52.308,40.034,50.96z"></path>
  </g>
  <path d="M88.805,45.834c-2.739-1.294-5.413-2.663-8.1-4.054c-3.136-1.624-6.484-2.944-10-3.431c1.109-2.649,1.62-5.508,1.824-8.361  c0.164-2.292-0.006-4.613,0.26-6.895c0.257-2.211,0.639-4.41,1.006-6.606c0.275-1.651,1.163-4.058-0.5-5.228  c-1.527-1.156-2.999-0.052-4.271,0.819c-2.385,1.632-4.745,3.3-7.138,4.92c-1.784,1.208-3.676,2.239-5.429,3.498  c-2.363,1.697-4.565,3.667-6.304,6.011c-2.992-3.937-7.163-6.189-11.237-8.786c-1.741-1.11-6.605-5.208-7.454-5.897  c-0.769-0.625-1.725-1.497-2.802-1.34c-2.311,0.338-2.249,2.53-2.11,4.335c0.214,2.792,0.467,5.58,0.673,8.373  c0.375,5.077,0.245,10.025,2.234,14.843c-4.569,0.649-8.452,2.803-10.508,3.95l-1.716,0.967c-3.261,1.82-6.959,2.868-10.426,4.221  c-1.801,0.703-2.596,3.188-0.86,4.352c1.398,0.938,3.022,1.588,4.537,2.305c2.09,0.989,4.239,1.906,6.271,3.013  c3.966,2.16,8.01,4.182,12.542,4.809c-1.108,2.649-1.62,5.508-1.824,8.36c-0.164,2.292,0.006,4.613-0.26,6.894  c-0.257,2.211-0.639,4.41-1.006,6.606c-0.275,1.651-1.163,4.058,0.5,5.228c1.528,1.157,2.999,0.052,4.271-0.818  c2.385-1.632,4.745-3.3,7.138-4.92c1.784-1.208,3.676-2.239,5.43-3.498c2.363-1.697,4.565-3.667,6.304-6.011  c2.992,3.937,7.164,6.188,11.237,8.786c1.744,1.112,3.33,2.514,4.928,3.821c0.846,0.692,1.685,1.393,2.533,2.082  c0.763,0.62,1.709,1.481,2.776,1.334c2.313-0.318,2.267-2.541,2.128-4.344c-0.213-2.79-0.466-5.578-0.672-8.368  c-0.375-5.075-0.246-10.022-2.234-14.838c4.569-0.649,8.452-2.803,10.507-3.95l1.716-0.968c2.114-1.18,4.449-1.97,6.708-2.823  c1.14-0.431,4.828-1.884,5.235-2.633c0.451-0.83,0.496-2.161-0.275-2.829C92.896,47.428,90.617,46.69,88.805,45.834  C86.841,44.906,94.96,48.742,88.805,45.834z M62.895,22.281c1.889-1.135,3.679-2.431,5.49-3.685  c-0.277,1.756-0.598,3.534-0.684,5.312c-0.077,1.587-0.027,3.177-0.102,4.764c-0.158,3.354-0.704,6.867-2.557,9.74  c-2.85,0.496-5.627,1.682-8.177,3.02c0.093-0.659,0.238-1.695-0.301-2.218c-0.714-0.694-1.965,0.269-2.534,0.708  c-0.053-2.766-0.354-5.644-1.188-8.291C55.115,26.97,60.241,23.878,62.895,22.281C63.387,21.985,60.241,23.878,62.895,22.281z   M53.369,47.941c1.917,0,1.917,2.972,0,2.972C51.452,50.913,51.452,47.941,53.369,47.941z M35.911,21.732  c3.319,2.219,6.893,3.904,9.573,6.971c3.244,3.711,3.776,8.86,3.503,13.616c-0.615-0.714-4.323-5.048-5.164-2.737  c-0.683,1.879,0.526,4.633,1.168,6.39c-2.494-1.158-4.821-2.67-6.905-4.464c-2.353-2.026-3.884-4.46-4.727-7.45  c-0.693-2.46-0.936-5.022-1.012-7.569c-0.079-2.631-0.259-5.238-0.475-7.863C33.427,19.885,34.995,21.119,35.911,21.732  C36.403,22.061,34.995,21.119,35.911,21.732z M48.117,49.427c0,1.917-2.972,1.917-2.972,0  C45.145,47.511,48.117,47.511,48.117,49.427z M19.749,52.786c-1.927-1.068-3.945-1.97-5.936-2.912  c1.988-0.764,3.991-1.515,5.855-2.556l1.716-0.968c3.327-1.856,7.12-3.609,10.948-3.512c1.85,2.199,4.247,4.016,6.666,5.545  c-0.596,0.271-1.563,0.741-1.571,1.519c-0.008,0.825,1.061,1.326,1.685,1.606c-2.448,1.464-4.896,3.204-6.813,5.333  C27.315,56.963,22.358,54.231,19.749,52.786C19.247,52.508,22.358,54.231,19.749,52.786z M48.006,66.06  c-0.954,3.958-4.064,7.007-7.262,9.309c-2.956,2.128-6.131,3.962-9.129,6.038c0.422-2.67,0.698-5.258,0.73-7.959  c0.028-2.41,0.155-4.835,0.711-7.189c0.633-2.682,1.857-5.17,3.932-7.026c2.297-2.056,4.911-3.762,7.719-5.033  c-0.381,1.036-0.724,2.091-0.966,3.169c-0.196,0.87-0.519,2.158-0.024,2.989c1.061,1.779,4.453-2.108,5.104-2.822  C48.935,59.944,48.779,62.856,48.006,66.06C47.811,66.871,48.779,62.856,48.006,66.06z M47.875,55.031c-1.917,0-1.917-2.972,0-2.972  C49.792,52.059,49.792,55.031,47.875,55.031z M48.514,46.455c0-1.917,2.972-1.917,2.972,0  C51.486,48.372,48.514,48.372,48.514,46.455z M52.125,55.031c-1.917,0-1.917-2.972,0-2.972  C54.042,52.059,54.042,55.031,52.125,55.031z M64.089,78.27c-4.258-2.847-9.179-5.04-11.554-9.905  c0.878-2.721,1.232-5.66,1.307-8.511c0.542,0.441,1.584,1.304,2.344,0.873c0.649-0.368,0.58-1.412,0.525-2.033  c2.544,1.399,5.338,2.639,8.203,3.18c1.805,2.954,2.434,6.493,2.657,9.9c0.21,3.202,0.293,6.398,0.556,9.601  C66.573,80.117,65.006,78.883,64.089,78.27C63.597,77.941,65.006,78.883,64.089,78.27z M81.479,52.072  c-0.338,0.166-0.722,0.373-1.147,0.611l-1.716,0.968c-3.545,1.978-7.54,3.838-11.706,3.468c-3.664-0.326-7.428-2.358-10.408-4.427  c1.301-0.216,2.603-0.485,3.857-0.897c0.843-0.277,2.285-0.713,2.602-1.673c0.658-1.987-4.707-2.868-5.832-3.092  c2.354-1.478,4.905-2.637,7.572-3.424c2.756-0.813,5.729-0.442,8.433,0.391c2.287,0.704,4.445,1.752,6.538,2.9  c2.13,1.167,4.321,2.194,6.517,3.231C84.321,50.844,82.468,51.584,81.479,52.072C81.141,52.238,82.468,51.584,81.479,52.072z"></path>
</svg>
