<?xml version="1.0" encoding="UTF-8"?>
<!-- Generator: Adobe Illustrator 19.0.0, SVG Export Plug-In  -->
<svg xmlns="http://www.w3.org/2000/svg" xmlns:xlink="http://www.w3.org/1999/xlink" xmlns:a="http://ns.adobe.com/AdobeSVGViewerExtensions/3.0/" x="0px" y="0px" width="282.7px" height="283.6px" viewBox="0 0 282.7 283.6" style="enable-background:new 0 0 282.7 283.6;" xml:space="preserve">
<defs>
</defs>
<path d="M153.7,152.8c-15.9,0-22.1-11.1-17.2-28.8c21.5,0,22.9,15.1,22.9,28.8H153.7z M147,113.4h-12.7c-12.6,0-21.7,10.2-21.7,22.6  v14.9c0,13,9.1,23.2,21.7,23.2h13.5c11.9,0,21.2-9.7,21.2-22.8V136C168.9,123.6,159.4,113.4,147,113.4z M153.7,79.5  c-15.9,0-22.1-11.1-17.2-28.8c21.5,0,22.9,15.1,22.9,28.8H153.7z M147,40.1h-12.7c-12.6,0-21.7,10.2-21.7,22.6v14.9  c0,13,9.1,23.2,21.7,23.2h13.5c11.9,0,21.2-9.7,21.2-22.8V62.7C168.9,50.2,159.4,40.1,147,40.1z M153.7,226  c-15.9,0-22.1-11.1-17.2-28.8c21.5,0,22.9,15.1,22.9,28.8H153.7z M147,186.6h-12.7c-12.6,0-21.7,10.2-21.7,22.6v14.9  c0,13,9.1,23.2,21.7,23.2h13.5c11.9,0,21.2-9.7,21.2-22.8v-15.3C168.9,196.8,159.4,186.6,147,186.6z M31.5,0h220.2  c20.8,0,31,11.1,31,32.4v220.4c0,20.8-10.2,30.8-30.7,30.8H30.3C10.2,283.6,0,272.9,0,252.8V32.4C0,10.7,11.4,0,31.5,0z"></path>
</svg>
