<?xml version="1.0" encoding="UTF-8"?>
<!-- Generator: Adobe Illustrator 19.0.0, SVG Export Plug-In  -->
<svg xmlns="http://www.w3.org/2000/svg" xmlns:xlink="http://www.w3.org/1999/xlink" xmlns:a="http://ns.adobe.com/AdobeSVGViewerExtensions/3.0/" x="0px" y="0px" width="63px" height="63px" viewBox="0 0 63 63" style="enable-background:new 0 0 63 63;" xml:space="preserve">
<defs>
</defs>
<g>
	<path d="M43,37l-1.6,1.6l-2.5-2.5C42.1,32.3,44,27.3,44,22C44,9.9,34.1,0,22,0S0,9.9,0,22s9.9,22,22,22c5.3,0,10.3-1.9,14.1-5.1   l2.5,2.5l-1.8,1.8L57,63l6-6L43,37z M22,40c-9.9,0-18-8.1-18-18S12.1,4,22,4s18,8.1,18,18S31.9,40,22,40z"></path>
</g>
</svg>
