<?xml version="1.0" encoding="UTF-8"?>
<!-- Generator: Adobe Illustrator 19.0.0, SVG Export Plug-In  -->
<svg xmlns="http://www.w3.org/2000/svg" xmlns:xlink="http://www.w3.org/1999/xlink" xmlns:a="http://ns.adobe.com/AdobeSVGViewerExtensions/3.0/" x="0px" y="0px" width="40px" height="65.7px" viewBox="0 0 40 65.7" style="enable-background:new 0 0 40 65.7;" xml:space="preserve">
<defs>
</defs>
<g>
	<path d="M34.5,0h-29C3.9,0,2.6,1.3,2.6,2.9v2.4c0,1.6,1.3,2.9,2.9,2.9h29c1.6,0,2.9-1.3,2.9-2.9V2.9C37.5,1.3,36.1,0,34.5,0z"></path>
	<path d="M33.3,14.4v-4.2H6.7v4.2c-3.7,0-6.7,3-6.7,6.7V59c0,3.7,3,6.7,6.7,6.7h26.6c3.7,0,6.7-3,6.7-6.7V21.1   C40,17.4,37,14.4,33.3,14.4z M36,59c0,1.5-1.2,2.7-2.7,2.7H6.7C5.2,61.7,4,60.5,4,59l0-22h32V59z"></path>
</g>
</svg>
