<?xml version="1.0" encoding="UTF-8"?>
<!-- Generator: Adobe Illustrator 19.0.0, SVG Export Plug-In  -->
<svg xmlns="http://www.w3.org/2000/svg" xmlns:xlink="http://www.w3.org/1999/xlink" xmlns:a="http://ns.adobe.com/AdobeSVGViewerExtensions/3.0/" x="0px" y="0px" width="90px" height="74.7px" viewBox="0 0 90 74.7" style="enable-background:new 0 0 90 74.7;" xml:space="preserve">
<defs>
</defs>
<path d="M49.8,70.7h-19l3.2-5.5c0.4-0.6,0.4-1.4,0-2c-0.2-0.4-0.5-0.6-0.9-0.8L4.2,33.5c0.9-4.2,2.6-8.2,5.1-11.8  c0.6-0.9,0.4-2.2-0.5-2.8c-0.9-0.6-2.2-0.4-2.8,0.5C3,23.9,1,28.7,0,33.8c-0.1,0.6,0.1,1.3,0.6,1.8l29.1,29.1l-4.1,7  c-0.4,0.6-0.4,1.4,0,2c0.4,0.6,1,1,1.7,1h22.5c1.1,0,2-0.9,2-2C51.8,71.6,50.9,70.7,49.8,70.7z"></path>
<path d="M19.8,11.2c0.4,0,0.7-0.1,1.1-0.3l0.3-0.2c0.9-0.6,1.2-1.8,0.7-2.8C21.2,7,20,6.7,19.1,7.3l-0.3,0.2  c-0.9,0.6-1.2,1.8-0.6,2.8C18.5,10.8,19.1,11.2,19.8,11.2z"></path>
<path d="M73.4,8.9C65.2,3.2,55.2,0,45,0c-6.9,0-13.9,1.5-20.3,4.3c-1,0.4-1.5,1.6-1,2.6c0.4,1,1.6,1.5,2.6,1C32.2,5.4,38.6,4,45,4  c22.6,0,37.5,14.7,40.8,29.6L56.9,62.5c-0.4,0.2-0.7,0.4-0.9,0.8c-0.4,0.6-0.4,1.4,0,2l4.9,8.5c0.4,0.6,1,1,1.7,1  c0.3,0,0.7-0.1,1-0.3c1-0.6,1.3-1.8,0.7-2.7l-4.1-7l29.1-29.1c0.5-0.5,0.7-1.1,0.6-1.8C88.1,23.8,82.3,15.1,73.4,8.9z"></path>
<path d="M36.5,59c0.7,0,1.4-0.4,1.7-1l5.7-9.9l1.3,2.3c0.5,1,1.8,1.3,2.7,0.8c1-0.5,1.3-1.8,0.8-2.7l-3-5.4c-0.4-0.6-1-1-1.7-1  c-0.7,0-1.4,0.4-1.7,1L34.8,56c-0.5,1-0.2,2.2,0.7,2.7C35.9,58.9,36.2,59,36.5,59z"></path>
</svg>
