<?xml version="1.0" encoding="UTF-8"?>
<!-- Generator: Adobe Illustrator 19.0.0, SVG Export Plug-In  -->
<svg xmlns="http://www.w3.org/2000/svg" xmlns:xlink="http://www.w3.org/1999/xlink" xmlns:a="http://ns.adobe.com/AdobeSVGViewerExtensions/3.0/" x="0px" y="0px" width="90px" height="67.7px" viewBox="0 0 90 67.7" style="enable-background:new 0 0 90 67.7;" xml:space="preserve">
<defs>
</defs>
<path d="M56.6,39c1.1,0,2-0.9,2-2V18.9c0-1.1-0.9-2-2-2H32.8c-1.1,0-2,0.9-2,2s0.9,2,2,2h21.8V35H44.1c-4.3,0-8.6-3.1-12.7-6  c-4.1-3-8.1-5.8-12.2-5.8l-2.9,2l2.9,2c2.9,0,6.3,2.5,9.9,5c4.2,3,8.9,6.4,14,6.8L33.1,49c-0.8,0.8-0.8,2,0,2.8  c0.4,0.4,0.9,0.6,1.4,0.6s1-0.2,1.4-0.6L48.8,39C48.8,39,56.6,39,56.6,39z"></path>
<path d="M25.2,16.9c-1.1,0-2,0.9-2,2s0.9,2,2,2h0.2c1.1,0,2-0.9,2-2s-0.9-2-2-2H25.2z"></path>
<path d="M14.2,16.9c-1.1,0-2,0.9-2,2s0.9,2,2,2h3.7c1.1,0,2-0.9,2-2s-0.9-2-2-2H14.2z"></path>
<path d="M64.6,16.9c-1.1,0-2,0.9-2,2s0.9,2,2,2c11.8,0,21.4,9.6,21.4,21.4c0,11.8-9.6,21.4-21.4,21.4H39c-1.1,0-2,0.9-2,2s0.9,2,2,2  h25.6c14,0,25.4-11.4,25.4-25.4C90,28.3,78.6,16.9,64.6,16.9z"></path>
<path d="M13.4,27.1L13.4,27.1l0.2,0c0.9,0,1.7-0.6,1.9-1.5l0,0c0.1-0.2,0.1-0.4,0.1-0.6s0-0.4-0.1-0.6l0,0c-0.2-0.8-1-1.5-1.9-1.5h0  c-5.3,0-9.6-4.3-9.6-9.6S8.3,4,13.6,4H85c1.1,0,2-0.9,2-2s-0.9-2-2-2H13.6C6.1,0,0,6.1,0,13.6C0,21,6,27,13.4,27.1z"></path>
<path d="M28.6,36.5L16.7,48.4H5.6c-1.1,0-2,0.9-2,2s0.9,2,2,2h11.9c0.5,0,1-0.2,1.4-0.6l12.5-12.5c0.8-0.8,0.8-2,0-2.8  S29.4,35.7,28.6,36.5z"></path>
<path d="M64.6,57.5H48.1c-1.1,0-2,0.9-2,2s0.9,2,2,2h16.5c7.3,0,13.3-5.9,13.3-13.3C77.9,41,71.9,35,64.6,35c-0.2,0-0.4,0-0.6,0.1  c-0.3,0.1-0.6,0.3-0.8,0.5L49.8,49c-0.8,0.8-0.8,2,0,2.8s2,0.8,2.8,0l12.8-12.8c4.7,0.4,8.5,4.4,8.5,9.2  C73.9,53.4,69.7,57.5,64.6,57.5z"></path>
</svg>
