<!-- Generator: Adobe Illustrator 19.0.0, SVG Export Plug-In  -->
<svg version="1.1"
	 xmlns="http://www.w3.org/2000/svg" xmlns:xlink="http://www.w3.org/1999/xlink" xmlns:a="http://ns.adobe.com/AdobeSVGViewerExtensions/3.0/"
	 x="0px" y="0px" width="90px" height="81.6px" viewBox="0 0 90 81.6" style="enable-background:new 0 0 90 81.6;"
	 xml:space="preserve">
<defs>
</defs>
<path d="M65.9,36.9c1.6-5.4,2.5-11,2.6-16.7C68.6,15,66.7,10,63.1,6.2c-3.6-3.8-8.5-6-13.7-6.1c-5.2-0.1-10.2,1.8-14.1,5.4
	c-3.8,3.6-6,8.5-6.1,13.7c-0.3,9.5-5.5,18.3-13.7,23c-1,0.6-1.3,1.8-0.7,2.7s1.8,1.3,2.7,0.7c9.4-5.4,15.4-15.5,15.7-26.4
	c0.1-4.2,1.9-8.1,4.9-10.9c3-2.9,7-4.4,11.2-4.3c4.2,0.1,8.1,1.9,10.9,4.9c2.9,3,4.4,7,4.3,11.2C63.8,44.9,48.5,67,25.6,76.4
	c-8,3.3-17.2-0.5-20.5-8.5c-0.8-2-1.2-4.2-1.2-6.4c0.1-4.9,2.6-9.5,6.6-12.4c0.9-0.6,1.1-1.9,0.5-2.8c-0.6-0.9-1.9-1.1-2.8-0.5
	c-5,3.5-8.1,9.4-8.3,15.5c-0.1,2.8,0.4,5.5,1.5,8C4.6,77,12,81.6,19.7,81.6c2.5,0,5-0.5,7.5-1.5c7-2.9,13.3-6.9,18.8-11.8
	c4.3,5,13,11.2,24.4,11.2c4.1,0,8.5-0.8,13.2-2.8c1-0.4,1.5-1.6,1.1-2.6c-0.4-1-1.6-1.5-2.6-1.1c-15.7,6.6-28.1-1.5-33.2-7.4
	c1.4-1.4,2.7-2.8,3.9-4.3c4.1,3.8,13.1,8.5,21,8.8c0,0,0,0,0.1,0c1.1,0,2-0.8,2-1.9c0-1.1-0.8-2-1.9-2.1c-7.3-0.3-15.6-4.9-18.6-7.9
	c3.9-5.3,7.1-11.2,9.3-17.5C85.7,46.4,86,65.1,86,65.9c0,1.1,0.9,2,2,2c1.1,0,2-0.9,2-2C90,65.7,89.7,43.5,65.9,36.9z"/>
<path d="M41.2,55.1c0.4,0,0.9-0.1,1.2-0.4C52.6,46.9,57.3,30.7,57.3,19c0-1.1-0.9-2-2-2h0c-1.1,0-2,0.9-2,2c0,9-3.5,25-13.3,32.5
	c-0.9,0.7-1,1.9-0.4,2.8C40.1,54.8,40.6,55.1,41.2,55.1z"/>
</svg>
