<!-- Generator: Adobe Illustrator 19.0.0, SVG Export Plug-In  -->
<svg version="1.1"
	 xmlns="http://www.w3.org/2000/svg" xmlns:xlink="http://www.w3.org/1999/xlink" xmlns:a="http://ns.adobe.com/AdobeSVGViewerExtensions/3.0/"
	 x="0px" y="0px" width="122.8px" height="179.8px" viewBox="0 0 122.8 179.8" style="enable-background:new 0 0 122.8 179.8;"
	 xml:space="preserve">
<defs>
</defs>
<polygon points="0,105.3 5.7,99.2 24.1,86.7 26.7,81.8 35,78.7 35,77.2 23.1,76.2 14.7,72.4 9.8,67.1 7.1,58.4 11.5,66.1 16.3,70
	21,71.7 23.7,72.1 22.8,67.7 20.6,63.6 17.8,58.9 13.5,56.8 19.6,58.2 23.8,62.3 27,67.2 30.1,70.9 33.7,72 39.1,71.6 53.8,62.8
	60.2,53.9 61.3,36.2 65.4,24.9 74.6,13.6 68.2,27.2 67.4,37.5 72.2,50.4 74.1,51.4 84.1,44.6 91.9,32.5 94,17.9 91.9,8.4 87.6,0
	93.6,7.3 98,18.5 98.8,33.9 91.5,48.5 83.3,56.4 70.9,64.7 58.3,70.6 46.4,74.5 45.2,76.9 59.8,73.8 77.1,73.3 64,85.3 67.9,85.7
	83.1,102.8 78.7,101.1 97,124.3 87.2,119.7 122.8,154.5 110.3,151.1 79.6,146.2 94.5,158.8 78.3,153.8 64.9,154.1 55.9,158.8
	50,174.5 49.7,164.1 38,179.8 36.6,146.3 33.3,152 31.5,127.7 33,120.7 45.7,117.6 55.9,113.9 60.2,104.9 57.3,97.1 58.6,104.5
	54.3,111.7 44.8,114.6 31.6,117.1 20.3,116.7 15.2,119.6 10.6,119.9 3.9,115.2 2.7,108.5 "/>
</svg>
