<?xml version="1.0" encoding="UTF-8"?>
<!-- Generator: Adobe Illustrator 19.0.0, SVG Export Plug-In  -->
<svg xmlns="http://www.w3.org/2000/svg" xmlns:xlink="http://www.w3.org/1999/xlink" xmlns:a="http://ns.adobe.com/AdobeSVGViewerExtensions/3.0/" x="0px" y="0px" width="100px" height="73.7px" viewBox="0 0 100 73.7" style="enable-background:new 0 0 100 73.7;" xml:space="preserve">
<defs>
</defs>
<path d="M12,39.6c0,4.2,3.4,7.6,7.6,7.6c4.2,0,7.6-3.4,7.6-7.6S23.8,32,19.6,32C15.4,32,12,35.4,12,39.6z M23.2,39.6  c0,2-1.6,3.6-3.6,3.6S16,41.6,16,39.6s1.6-3.6,3.6-3.6C21.6,36,23.2,37.6,23.2,39.6z"></path>
<path d="M99,26.9c-0.6-0.4-1.4-0.3-2,0.1L88,32.8C80.5,16.3,66.3,4.7,48.6,1C44.4,0.1,40.2-0.2,36,0.1c-1.1,0.1-1.9,1-1.9,2.1  s1,2,2.1,1.9c3.8-0.2,7.7,0.1,11.5,0.9C64.9,8.5,78.6,20,85.2,36.5c0.2,0.6,0.7,1,1.3,1.2c0.6,0.2,1.2,0.1,1.7-0.2l7.8-5.1v13.9  l-7.9-4.6c-0.5-0.3-1.1-0.3-1.7-0.2c-0.5,0.2-1,0.6-1.2,1.1c-6.6,16.4-22.3,27-40,27c-18.7,0-35.5-12.4-41.1-30.1  c3.7-11.5,12.4-20.2,25.4-25.2c6.3,6.9,9.8,15.8,9.8,25.2c0,6.7-1.8,13.3-5.2,19c-0.6,0.9-0.3,2.2,0.7,2.7c1,0.6,2.2,0.3,2.7-0.7  c3.8-6.3,5.8-13.6,5.8-21.1c0-10.9-4.2-21.1-11.8-28.9c-0.5-0.6-1.4-0.7-2.1-0.5C14.3,15.6,4.1,25.6,0.1,39c-0.1,0.4-0.1,0.8,0,1.2  C6,59.9,24.6,73.7,45.2,73.7C63.8,73.7,80.3,63,88,46.3l9,5.2c0.6,0.4,1.4,0.4,2,0s1-1,1-1.7V28.7C100,27.9,99.6,27.3,99,26.9z"></path>
</svg>
