<svg xmlns="http://www.w3.org/2000/svg">
    <symbol id="emblem-baptism" viewBox="0 0 45.3 45.3">
      <circle id="XMLID_26_" class="st0" cx="22.6" cy="22.6" r="22.1"/><g id="XMLID_21_"><g id="XMLID_22_"><path id="XMLID_23_" class="st1" d="M25.3 19.6v-3.3h1.3l-3.3-6.2V8.8h.8V8h-.8v-.8h-1V8h-.8v.9h.8v1.3l-3.4 6.2h1.5v3.2l-6.1 7h1.6v8.7l4.8.1s-.5-4.5 1.9-4.5c2.5 0 1.9 4.4 1.9 4.4h5v-8.8H31l-5.7-6.9zm-1.5-.3H22v-2.4h1.7v2.4z"/></g></g>
    </symbol>
    <symbol id="emblem-christmas" viewBox="0 0 180.1 158.1">
      <path class="st0" d="M97.6 92.9c.3 5.9 0 12.9-1.9 20.7-.2.8-.4 1.5-.7 2.3 4.2 8.6 13.5 14.1 19.4 17.5 1.5.9 2.8 1.6 3.7 2.3 1.8 1.2 5 3.7 8.1 6.2-.3-4.1-.7-8.2-.8-10.4 0-.7-.1-1.6-.1-2.8-.1-6-.3-17.3-5.5-25.8-1.2-.2-2.4-.5-3.6-.9-7.5-2.4-13.7-5.8-18.6-9.1zM97.9 65.3c1.3-.9 2.7-1.7 4.2-2.6 4.6-2.6 9.5-4.6 14.5-6.1 1.2-.3 2.3-.6 3.5-.8 5.1-7.9 5.2-18.4 5.2-25.1 0-1.7 0-3.2.1-4.4.1-2.2.7-6.2 1.3-10.1-3.4 2.3-6.7 4.7-8.6 5.9-.6.4-1.4.9-2.4 1.5-5.3 3.2-15.6 9.4-20.1 18.7.3.9.5 1.7.7 2.6 1.8 7.7 2.1 14.6 1.6 20.4zM70.1 81c1.2-.7 2.5-1.3 3.7-1.9-5.2-2.6-11-6.4-16.7-11.8-.9-.8-1.6-1.7-2.4-2.6-7.7-.2-15.2 3.3-21.9 7l-3.4 1.9c-.9.5-1.6.9-2.3 1.2-2 1-5.7 2.5-9.4 3.9 3.7 1.7 7.4 3.5 9.4 4.5.6.3 1.5.8 2.5 1.3 5.2 2.9 15.1 8.4 25.1 8.1l2.1-2.1c4-3.6 8.5-6.8 13.3-9.5z"/><path d="M167.6 70.7c-5.5-2.6-10.8-5.3-16.2-8.1-6.3-3.2-13-5.9-20-6.9 2.2-5.3 3.2-11 3.6-16.7.3-4.6 0-9.2.5-13.8.5-4.4 1.3-8.8 2-13.2.6-3.3 2.3-8.1-1-10.5-3.1-2.3-6-.1-8.5 1.6-4.8 3.3-9.5 6.6-14.3 9.8-3.6 2.4-7.4 4.5-10.9 7-4.7 3.4-9.1 7.3-12.6 12-6-7.9-14.3-12.4-22.5-17.6-3.3-2-13-10.2-14.7-11.6-1.5-1.3-3.5-3-5.6-2.7-4.6.7-4.5 5.1-4.2 8.7.4 5.6.9 11.2 1.3 16.7.8 10.2.5 20 4.5 29.7-9.1 1.3-16.9 5.6-21 7.9l-3.5 2c-6.5 3.6-13.9 5.7-20.9 8.4-3.6 1.4-5.2 6.4-1.7 8.7 2.8 1.9 6 3.2 9.1 4.6 4.2 2 8.5 3.8 12.5 6 7.9 4.3 16 8.4 25.1 9.6-2.2 5.3-3.2 11-3.6 16.7-.3 4.6 0 9.2-.5 13.8-.5 4.4-1.3 8.8-2 13.2-.5 3.3-2.3 8.1 1 10.5 3.1 2.3 6 .1 8.5-1.6 4.8-3.3 9.5-6.6 14.3-9.8 3.6-2.4 7.4-4.5 10.9-7 4.7-3.4 9.1-7.3 12.6-12 6 7.9 14.3 12.4 22.5 17.6 3.5 2.2 6.7 5 9.9 7.6l5.1 4.2c1.5 1.2 3.4 3 5.6 2.7 4.6-.6 4.5-5.1 4.3-8.7-.4-5.6-.9-11.2-1.3-16.7-.8-10.1-.5-20-4.5-29.7 9.1-1.3 16.9-5.6 21-7.9l3.4-1.9c4.2-2.4 8.9-3.9 13.4-5.6 2.3-.9 9.7-3.8 10.5-5.3.9-1.7 1-4.3-.6-5.7-3.3-2.8-7.8-4.3-11.5-6-3.9-1.8 12.4 5.9 0 0zm-51.8-47.1c3.8-2.3 7.4-4.9 11-7.4-.6 3.5-1.2 7.1-1.4 10.6-.2 3.2-.1 6.4-.2 9.5-.3 6.7-1.4 13.7-5.1 19.5-5.7 1-11.3 3.4-16.4 6 .2-1.3.5-3.4-.6-4.4-1.4-1.4-3.9.5-5.1 1.4-.1-5.5-.7-11.3-2.4-16.6 4.7-9.2 14.9-15.4 20.2-18.6 1-.6-5.3 3.2 0 0zM96.8 75c3.8 0 3.8 5.9 0 5.9-3.9 0-3.9-5.9 0-5.9zM61.9 22.5c6.6 4.5 13.7 7.8 19.1 14 6.5 7.4 7.6 17.7 7 27.2-1.2-1.4-8.6-10.1-10.3-5.5-1.4 3.8 1 9.3 2.3 12.8-5-2.3-9.6-5.3-13.8-8.9-4.7-4.1-7.8-8.9-9.5-14.9-1.4-4.9-1.9-10-2-15.1-.2-5.3-.5-10.5-1-15.7 3.2 2.4 6.3 4.9 8.2 6.1.9.7-1.9-1.2 0 0zm24.4 55.4c0 3.8-5.9 3.8-5.9 0-.1-3.8 5.9-3.8 5.9 0zm-56.8 6.7c-3.9-2.1-7.9-3.9-11.9-5.8 4-1.5 8-3 11.7-5.1l3.4-1.9c6.7-3.7 14.2-7.2 21.9-7 3.7 4.4 8.5 8 13.3 11.1-1.2.5-3.1 1.5-3.1 3 0 1.7 2.1 2.7 3.4 3.2-4.9 2.9-9.8 6.4-13.6 10.7-9.9.2-19.8-5.3-25.1-8.2-1-.5 5.3 2.9 0 0zm56.6 26.6c-1.9 7.9-8.1 14-14.5 18.6-5.9 4.3-12.3 7.9-18.3 12.1.8-5.3 1.4-10.5 1.5-15.9.1-4.8.3-9.7 1.4-14.4 1.3-5.4 3.7-10.3 7.9-14.1 4.6-4.1 9.8-7.5 15.4-10.1-.8 2.1-1.4 4.2-1.9 6.3-.4 1.7-1 4.3 0 6 2.1 3.6 8.9-4.2 10.2-5.6.1 4.9-.2 10.7-1.7 17.1-.4 1.6 1.5-6.4 0 0zm-.3-22.1c-3.8 0-3.8-5.9 0-5.9s3.8 5.9 0 5.9zM87.1 72c0-3.8 5.9-3.8 5.9 0s-5.9 3.8-5.9 0zm7.2 17.1c-3.8 0-3.8-5.9 0-5.9s3.8 5.9 0 5.9zm23.9 46.5c-8.5-5.7-18.4-10.1-23.1-19.8 1.8-5.4 2.5-11.3 2.6-17 1.1.9 3.2 2.6 4.7 1.7 1.3-.7 1.2-2.8 1.1-4.1 5.1 2.8 10.7 5.3 16.4 6.4 3.6 5.9 4.9 13 5.3 19.8.4 6.4.6 12.8 1.1 19.2-3.1-2.5-6.2-5-8.1-6.2-1-.6 1.9 1.2 0 0zM153 83.2c-.7.3-1.4.7-2.3 1.2l-3.4 1.9c-7.1 4-15.1 7.7-23.4 6.9-7.3-.7-14.9-4.7-20.8-8.9 2.6-.4 5.2-1 7.7-1.8 1.7-.6 4.6-1.4 5.2-3.3 1.3-4-9.4-5.7-11.7-6.2 4.7-3 9.8-5.3 15.1-6.8 5.5-1.6 11.5-.9 16.9.8 4.6 1.4 8.9 3.5 13.1 5.8 4.3 2.3 8.6 4.4 13 6.5-3.7 1.5-7.4 2.9-9.4 3.9-.7.3 2-1 0 0z"/>
    </symbol>
    <symbol id="emblem-company" viewBox="0 0 45.3 45.3">
      <circle id="XMLID_52_" class="st0" cx="22.6" cy="22.6" r="22.1"/><g id="XMLID_34_"><path id="XMLID_49_" class="st1" d="M22.6 16.3c1.5 0 2.8-1.3 2.8-2.8s-1.3-2.8-2.8-2.8-2.8 1.3-2.8 2.8 1.3 2.8 2.8 2.8zm0-4.9c1.2 0 2.1.9 2.1 2.1s-.9 2.1-2.1 2.1c-1.2 0-2.1-.9-2.1-2.1s.9-2.1 2.1-2.1z"/><path id="XMLID_46_" class="st1" d="M29.2 18c1.2 0 2.1-.9 2.1-2.1s-.9-2.1-2.1-2.1-2.1.9-2.1 2.1 1 2.1 2.1 2.1zm0-3.5c.8 0 1.4.6 1.4 1.4s-.6 1.4-1.4 1.4c-.8 0-1.4-.6-1.4-1.4 0-.8.6-1.4 1.4-1.4z"/><path id="XMLID_38_" class="st1" d="M31.2 18.1l-1 2-.2-.8h.3v-.7h-2.1v.7h.3l-.2.9-1-2.1-.3.2c-.6-1.3-2-1.9-2-1.9L23.7 19l-.3-1.3h.3V17h-2.1v.7h.3l-.4 1.3-1.3-2.5s-1.4.5-1.9 1.9l-.3-.2-1 2-.2-.8h.2v-.7h-2.1v.7h.3l-.2.8-1-2.1s-1.9.6-1.9 2.5v4.7h1v5.2h5.6V25h.7v6.3h6.3V25h.7v5.6H32v-5.2h1.1v-4.7c0-1.8-1.9-2.6-1.9-2.6zM16 19.3l.5 1.8-.5.9-.4-.9.4-1.8zm2.1 10.6h-1.7V26h-.7v3.8H14v-5.2h-1v-4c0-.6.3-1.2.9-1.6l2.3 4.5 2.1-4.1-.2 10.5zm4.4-12.2h.2l.6 2.3-.6 1.3-.7-1.4.5-2.2zm3.9 6.6H25v6.3h-2.1v-4.9h-.7v4.9h-2.1v-6.3h-1.4v-4.9c0-.8.4-1.6 1.1-2.1l2.7 5.4 2.7-5.4c.7.4 1.1 1.2 1.1 2.1l.1 4.9zm2.8-5l.5 1.8-.5 1-.4-.9.4-1.9zm3.2 5.3h-1.1v5.2h-1.7V26h-.7v3.8h-1.7V19.4l2.1 4.1 2.3-4.5c.5.4.9 1 .9 1.6v4h-.1z"/><path id="XMLID_35_" class="st1" d="M16 18c1.2 0 2.1-.9 2.1-2.1s-.9-2.1-2.1-2.1-2.1.9-2.1 2.1.9 2.1 2.1 2.1zm0-3.5c.8 0 1.4.6 1.4 1.4s-.6 1.4-1.4 1.4-1.4-.6-1.4-1.4c0-.8.6-1.4 1.4-1.4z"/></g>
    </symbol>
    <symbol id="emblem-priest" viewBox="0 0 45.3 45.3">
      <circle id="XMLID_50_" class="st0" cx="22.6" cy="22.6" r="22.1"/><g id="XMLID_33_"><path id="XMLID_43_" class="st1" d="M33.8 25.8l-6.6-4.5v-3.7h.2v-.8h-.7v-1.2h.3v-.4h-.9l-.6-3.1h-.1v-1.4h1.1v-.3h-1.1v-1h-.3v1H24v.3h1.1v1.4H25l-.6 3.1h-.9v.4h.3v1.2h-.7v.8h.2v3.7L20.8 23c0 .5.1 1.1.1 1.7 0 .6 0 1.1-.1 1.8 0 .7-.6 1.2-1.3 1.2h-.1c-.1 0-.2 0-.3-.1 0 1.1 0 2.2.1 3.2h14.5v-.4h-1.4v-4.7l1.5.1zm-8.6-2.9c.4 0 .8.4.8.8s-.4.8-.8.8-.8-.4-.8-.8.4-.8.8-.8zM24 20.8v-2.5h2.5v2.5H24zm-2.1 8.7v-3.2h1.4v3.2h-1.4zm2.7 0v-3.2H26v3.2h-1.4zm4 0h-1.4v-3.2h1.4v3.2z"/><path id="XMLID_42_" class="st1" d="M19.5 27.2c.4 0 .7-.3.8-.7v-.3c-.4.1-1.2.1-1.5.1v.1c0 .5.3.8.7.8z"/><path id="XMLID_39_" class="st1" d="M12.5 26.1v-1.3c0-1.8.2-3 .5-3.7-.1 2.8-.4 9.8-.3 13.3.2 0 .6.1 1 .1.6.1 1.4.2 2 .2.6 0 1.4-.1 2-.2.4 0 .8-.1 1-.1.1-3.5-.1-10.4-.3-13.3.3.7.5 1.9.5 3.7v1.3h.6c.3 0 .7 0 .9-.1v-1.3c0-2.7-.4-4.3-1-5.2-.3-.5-.6-.7-1-.9-.2-.1-.4-.2-.5-.2-.2.4-.9 2-1.5 2.8l-.1-.1c.3-.5.7-1.2 1-1.8.2-.4.4-.8.5-.9h-3.6-.1c.1.2.3.5.5.9.3.6.7 1.3 1 1.8l-.1.1c-.6-.9-1.4-2.5-1.5-2.8-.2 0-.3.1-.5.2-.5.2-1 .8-1.4 1.7-.4.9-.6 2.3-.6 4.4V26c.2 0 .6.1.9.1h.1zm2.4-4.5h.6v-.5h.3v.5h.6v.3h-.6v1.5h-.3v-1.5h-.6v-.3z"/><path id="XMLID_38_" class="st1" d="M12.5 26.5v-.1c-.3 0-1 0-1.5-.1v.3c0 .4.3.7.7.7.1 0 .3-.1.4-.1.3-.2.5-.5.4-.7z"/><path id="XMLID_37_" class="st1" d="M15.4 34.8c-.7 0-1.5-.1-2.1-.2.1.2.2.4.4.6.2.2.4.3.7.3.2 0 .4 0 .5-.1.2-.2.4-.4.5-.6z"/><path id="XMLID_36_" class="st1" d="M18.1 34.6c-.6.1-1.4.2-2.1.2.1.2.3.4.5.5.2.1.3.1.5.1.3 0 .5-.1.7-.3.2 0 .3-.2.4-.5z"/><circle id="XMLID_35_" class="st1" cx="15.7" cy="16" r="2"/><path id="XMLID_34_" class="st1" d="M15.6 34.8h.1-.1z"/></g>
    </symbol>
    <symbol id="emblem-wedding" viewBox="-8.4 -3.6 60 60">
      <path class="st0" d="M34.6 30.9h-.7v-3.6c0-.4-.3-.7-.7-.7s-.7.3-.7.7v3.6H31V20.1c0-.4-.3-.7-.7-.7h-.7v-3.6c0-.4-.3-.7-.7-.7-.4 0-.7.3-.7.7v3.6h-1.4v-7.9c0-.4-.3-.7-.7-.7h-3.6V7.2c0-.4-.3-.7-.7-.7s-.7.3-.7.7v3.6h-3.6c-.4 0-.7.3-.7.7v7.9h-1.4v-3.6c0-.4-.3-.7-.7-.7s-.7.3-.7.7v3.6h-1c-.4 0-.7.3-.7.7v10.8h-1.4v-3.6c0-.4-.3-.7-.7-.7-.4 0-.7.3-.7.7v3.6h-.8c-.4 0-.7.3-.7.7v12.9c0 .4.3.7.7.7h25.9c.4 0 .7-.3.7-.7V31.6c0-.4-.3-.7-.7-.7zm-9.4-18.7v1.4c-.2-.1-.5-.2-1-.2-.6 0-1 .2-1.2.4-.2.1-.3.2-.5.2s-.3 0-.5-.2c-.3-.2-.6-.4-1.2-.4s-1 .2-1.2.4c-.2.1-.3.2-.5.2s-.3 0-.5-.2c-.1-.1-.3-.2-.5-.2v-1.3h7.1zm-7.1 2.9c.2.1.5.2 1 .2.6 0 1-.2 1.2-.4.2-.1.3-.2.5-.2s.3 0 .5.2c.3.2.6.4 1.2.4s1-.2 1.2-.4c.2-.1.3-.2.5-.2s.3 0 .5.2c.1.1.3.2.5.2v4.2H18v-4.2zm11.5 5.7v3.1c-.1 0-.1-.1-.2-.1-.3-.2-.8-.4-1.6-.4s-1.2.2-1.6.4c-.2.1-.4.2-.9.2-.4 0-.6-.1-.9-.3-.3-.2-.8-.4-1.6-.4s-1.2.2-1.6.4c-.2.2-.4.3-.8.3s-.6-.1-.9-.3c-.3-.2-.8-.4-1.6-.4s-1.2.2-1.6.4c-.3.2-.5.3-.9.3s-.6-.1-.9-.3c-.2-.1-.5-.3-.9-.4v-2.6h16zM13.7 25c.1 0 .1.1.2.1.3.2.8.4 1.6.4s1.2-.2 1.6-.4c.3-.2.5-.3.9-.3s.6.1.9.3c.3.2.8.4 1.6.4s1.2-.2 1.6-.4c.3-.2.5-.3.9-.3s.6.1.9.3c.3.2.8.4 1.6.4s1.2-.2 1.6-.4c.3-.2.5-.3.9-.3s.6.1.9.3c.2.1.5.3.9.4V31H13.7v-6zm20.2 7.3v3.1c-.2 0-.3-.1-.5-.1-.4-.1-.8-.3-1.7-.3s-1.3.2-1.7.3c-.3.1-.6.2-1.2.2s-.9-.1-1.2-.2c-.4-.1-.8-.3-1.7-.3-.8 0-1.3.2-1.7.3-.3.1-.6.2-1.2.2s-.9-.1-1.2-.2c-.4-.1-.8-.3-1.7-.3s-1.3.2-1.7.3c-.3.1-.6.2-1.2.2s-.9-.1-1.2-.2c-.4-.1-.8-.3-1.7-.3s-1.3.2-1.7.3c-.3.1-.6.2-1.2.2s-.9-.1-1.2-.2c-.3-.1-.6-.2-1-.3v-2.7h24.7zM9.4 43.8v-7.4c.2 0 .3.1.5.1.4.1.8.3 1.7.3s1.3-.2 1.7-.3c.3-.1.6-.2 1.2-.2s.9.1 1.2.2c.4.1.8.3 1.7.3.8 0 1.3-.2 1.7-.3.3-.1.6-.2 1.2-.2s.9.1 1.2.2c.4.1.8.3 1.7.3.8 0 1.3-.2 1.7-.3.3-.1.6-.2 1.2-.2s.9.1 1.2.2c.4.1.8.3 1.7.3.8 0 1.3-.2 1.7-.3.3-.1.6-.2 1.2-.2s.9.1 1.2.2c.3.1.6.2 1 .3v7H9.4z"/>
    </symbol>
    <symbol id="icon-allergen-celery" viewBox="0 0 213.1 214.1">
      <path d="M213.1 65c-.5-9.1-6.1-17-14-20.9.7-2.4 1-5 .9-7.7-.3-6-2.9-11.7-7.3-16.1-4.7-4.7-11-7.3-17.3-7.3-2.2 0-4.4.3-6.5.9C165 6 157.1.4 148-.1c-6.5-.3-12.5 2-16.8 6.5-1.4 1.5-2.6 3.2-3.5 5.1-2.7-1-5.4-1.5-8.3-1.5-5.8 0-11.2 2.2-15.2 6.2-6.2 6.2-7.7 15.3-4.7 23.4-2.2 1.1-4.1 2.5-5.8 4.3-4 4.2-6.1 9.9-5.8 16 .3 5.7 2.6 10.9 6.2 15l-83.1 76c-.1.1-.2.2-.3.2-14.4 14.4-14.4 37.8 0 52.2 7.2 7.2 16.6 10.8 26.1 10.8s18.9-3.6 26.1-10.8c.1-.1.2-.2.2-.3l75.9-83.4c3.9 3.1 8.7 5 13.9 5.3h1.2c6 0 11.5-2.3 15.5-6.6 1.4-1.5 2.6-3.2 3.5-5.1 2.6 1 5.4 1.5 8.3 1.5 5.8 0 11.2-2.2 15.2-6.2 6.2-6.2 7.7-15.3 4.7-23.4 2.2-1.1 4.1-2.5 5.8-4.3 4.2-4 6.3-9.7 6-15.8zM52 194.2c-8.8 8.7-23.1 8.7-31.9-.1-8.8-8.8-8.8-23-.1-31.9L102.5 87c.3 3.7 1.4 7.3 3.2 10.5l-71 71c-3 3-3 7.9 0 10.9 1.5 1.5 3.5 2.3 5.5 2.3s4-.8 5.5-2.3l71.4-71.4c3.4 1.7 7.1 2.5 10.8 2.5h.2L52 194.2zM199.7 71.3c-1.2 1.3-3 2-4.9 2h-.5c-.5 0-1.1-.1-1.7-.3-3.7-.9-7.5 1-9.1 4.4-1.6 3.5-.5 7.6 2.7 9.8l1.5 1.2c3.6 3.6 4.2 9 1.2 11.9-1.6 1.6-3.5 1.9-4.8 1.9-2.5 0-5.1-1.1-7.1-3.1-.4-.4-.9-.9-1.2-1.5-2.2-3.1-6.3-4.2-9.8-2.7-3.5 1.6-5.3 5.4-4.4 9.1.1.6.2 1.1.3 1.7.1 2-.5 3.9-1.8 5.2-1.3 1.4-3.2 2.1-5.4 2-3.5-.2-6.7-2.4-8.4-5.5 0-.1-.1-.2-.1-.2-.7-1.2-1.1-2.6-1.1-4 0-.5 0-1.1.1-1.6.5-3.7-1.6-7.3-5.1-8.6-.9-.3-1.8-.5-2.8-.5-2.6 0-5.2 1.3-6.7 3.6-.2.4-.5.7-.8 1-1.6 1.6-3.5 1.9-4.8 1.9-2.5 0-5.1-1.1-7.1-3.1-1.9-1.9-3-4.2-3.1-6.6-.1-1.2.1-3.5 1.9-5.3.3-.3.6-.6 1-.8 3.1-2 4.4-6 3.1-9.4-1.3-3.5-4.9-5.6-8.5-5.1-.5.1-1.1.1-1.6.1-5-.3-9.4-4.7-9.7-9.7-.1-2 .5-3.9 1.8-5.2 1.3-1.4 3.2-2.1 5.4-2 .5 0 1.1.1 1.7.3 3.7.9 7.5-1 9.1-4.4 1.6-3.5.5-7.6-2.7-9.8l-1.5-1.2c-3.6-3.6-4.2-9-1.2-11.9 1.6-1.6 3.5-1.9 4.8-1.9 2.5 0 5.1 1.1 7.1 3.1.4.4.9.9 1.2 1.5 2.2 3.1 6.3 4.3 9.8 2.7 3.5-1.6 5.3-5.4 4.4-9.1-.1-.6-.2-1.2-.3-1.7-.1-2 .5-3.9 1.8-5.2 1.3-1.4 3.3-2.1 5.4-2 5 .3 9.4 4.7 9.7 9.7 0 .5 0 1-.1 1.6-.5 3.7 1.6 7.3 5.1 8.6 3.5 1.3 7.4 0 9.5-3.1.2-.4.5-.7.8-1 1.6-1.6 3.5-1.9 4.8-1.9 2.5 0 5.1 1.1 7.1 3.1 1.9 1.9 3 4.2 3.1 6.6.1 1.2-.1 3.5-1.9 5.3-.3.3-.6.6-1 .8-3.1 2-4.4 6-3.1 9.5 1.3 3.5 4.9 5.6 8.6 5.1.5-.1 1-.1 1.6-.1 5 .3 9.4 4.7 9.7 9.7-.1 1.9-.7 3.7-2 5.1z"/>
    </symbol>
    <symbol id="icon-allergen-citrus" viewBox="0 0 197 143.3">
      <path d="M182 15.2s-.1 0 0 0c-.2-.2-.2-.3-.3-.4C173.8 4.8 161-.5 145.8 0c-27.5 1-55.8 21-67 46.3-6.1-3.3-13.3-4.9-21.6-4.8-2.1-.1-4.1 0-5.9.4-1 .1-1.9.2-2.9.3-.7-3-1.6-11.3 8-17.4 1.4-.9 1.8-2.7.9-4.1-.9-1.4-2.8-1.8-4.1-.9-3.7 2.4-6.3 5.1-8 7.9-5.5-7.9-11.7-12.5-18.5-13.9-9-1.8-15.6 3.1-15.9 3.3-1.2.9-1.5 2.5-.9 3.8 5.1 9.8 11.5 15.7 19 17.6 1.8.5 3.6.6 5.2.6 3.1 0 5.8-.7 7.9-1.4-.1 1.4 0 2.7.2 3.9-15.1-.8-24.6 4.2-30.1 8.9C4.4 57.1 0 67.3 0 78.5 0 95 7.7 107.3 21.7 113c2 21.4 29.9 26.7 34.1 27.3 4.7 2.2 9.4 3 13.8 3 10.8 0 19.6-5 22.6-7 2.8.3 9.2.2 16.6-5.6 7.3-5.6 7.9-11.7 7.6-14.9 5.8 1.7 11.7 2.6 17.5 2.6 13.7 0 27.1-4.6 38.6-13.6 13.9-10.8 22.2-25.2 24.1-41.5 2-16.6-3.4-34.1-14.6-48.1zM30.4 32.6c-5.2-1.3-9.8-5.3-13.7-12 2-.8 5.1-1.7 8.8-1 5.4 1.1 10.6 5.1 15.3 12.1-2.4 1-6.2 2-10.4.9zM146 6c13.3-.5 24.3 4 31 12.6 6.6 8.4 8.3 19.9 4.8 32.3-7.3 26.2-35.2 48.3-62.7 50-.1-1.8-.3-3.6-.7-5.2.9-.4 1.8-.9 2.6-1.5 1.3 1.3 3.1 2 5.1 2 .5 0 1.1-.1 1.7-.2 7.1-1.3 14.4-4.1 21.1-8.1 2.5-1.5 4.4-4 5-6.6 2.7 0 5.5-1.2 7.6-3.3 5.5-5.5 10-11.8 12.9-18.4 1.1-2.4 1-5-.2-7 2.2-1.7 3.7-4.2 4-6.7.8-6.7-.3-13.2-2.9-18.6-.9-1.8-2.5-3.1-4.6-3.6-.3-.1-.5-.1-.8-.1 0-.2.1-.5.1-.7 0-2.1-.8-4-2.4-5.3-4.7-3.9-10.8-6.3-17.6-7.2-2.6-.3-5.4.6-7.6 2.3-1.7-1.6-4.1-2.3-6.8-1.8-7.1 1.3-14.4 4.1-21.1 8.1-2.5 1.5-4.4 4-5 6.6-2.7 0-5.5 1.2-7.6 3.3-5.5 5.5-10 11.8-12.9 18.4-1.1 2.4-1 5 .2 7-2.2 1.7-3.7 4.2-4 6.7-.4 3.9-.3 7.7.5 11.3-2.1-.2-4-.2-5.6-.2-.5-5.1 0-10.4 1.6-16C89.1 29.5 117.9 7 146 6zM31.1 96.7c.8-3 3.3-5.8 6.9-7.9 7-4 14.9-4.6 16.6-3 .4.3.5 1.7.5 2.9.2 3.3.6 8.9 7.8 11.7 1.9.7 3.7 1.3 5.4 1.9 6.8 2.3 9.4 3.4 9.7 6.4.1 1.2-.2 1.8-.6 2.1-2.8 3-14.3 3.4-22.7 3.4-17 0-21.9-8.9-22.2-9.3 0 0 0-.1-.1-.1-1.5-2.9-2-5.6-1.3-8.1zm39.2-.2c-1.6-.6-3.4-1.1-5.2-1.8-3.4-1.3-3.8-3.2-4-5.9 1.4 1.1 3.1 1.9 4.8 2.3 8.1 2.1 11.4 5.4 13.4 9.3-2.4-1.7-5.6-2.7-9-3.9zm5.8-18.2h.1c.1 0 1.4-.1 3.5-.1 6.3 0 19.7.8 26.3 7.3 4.3 4.2 4.5 8.5 3.8 11.3-1 4.2-4.4 7.9-8.4 9.2-8.1 2.6-13.4-.5-15-4.6-2.4-6-6-12.8-18.9-16-2.5-.6-4.4-2.6-4.3-3.5.1-.9 2.6-3.3 12.9-3.6zm39.2-51c.2-.9.9-2.2 2.4-3.1 6-3.7 12.6-6.2 19-7.3.7-.1 1.4 0 1.6.3.2.3.3.7.1 1.3l-7.6 27.1c-.1.4-.6.7-.9.8l-14.5-18.1c-.2-.3-.2-.7-.1-1zm1.2 62.8c-1.8-4-4-6.4-4.5-7-.5-.7-1.1-1.3-1.8-1.9-1.4-1.3-3-2.5-4.7-3.5l20.8-16.2-7.1 25.5c-.4 1.2-1.5 2.4-2.7 3.1zm15.9-35.4c-.8.2-1.5.4-2.1.8-.2-.1-.5-.3-.7-.4 0-.3-.1-.5-.2-.8.5-.6 1-1.2 1.3-1.9v-.1h.2c.8-.2 1.5-.4 2.1-.8.2.1.5.3.8.4 0 .3.1.5.2.8-.5.6-1 1.2-1.3 1.9v.1h-.3zm-7.5 33.9l7.6-27.2c.1-.4.6-.7.9-.8l14.4 18.1c.2.3.2.7.1 1-.2.9-.9 2.2-2.4 3.1-6 3.7-12.6 6.2-19 7.3-.7.1-1.4 0-1.6-.3-.1-.1-.1-.6 0-1.2zm28.7-13.2c-.3 0-.8-.1-1-.4l-14.4-18.1c.2-.3.6-.6 1-.6l28.5-1c.6 0 1.1.1 1.3.4.2.3.2.9-.1 1.5-2.6 5.9-6.7 11.6-11.7 16.6-1 1.1-2.4 1.7-3.6 1.6zm18.7-30.1c-.2 1.9-2.7 3.9-4.8 4l-26.7.9 24.9-19.4c1.1-.8 2.2-1.2 3.1-1.2.2 0 .4 0 .6.1.5.1.5.3.6.4 2.1 4.4 2.9 9.7 2.3 15.2zm-10.2-19.2l-25 19.5 7.2-25.5c.6-2 3.2-3.9 5.1-3.6 5.6.7 10.7 2.7 14.5 5.9.1.1.2.2.2.6-.1.8-.7 2.1-2 3.1zm-52.4 5.6c.3 0 .8.1 1 .4l14.4 18.1c-.2.3-.6.6-1 .6l-28.5 1c-.6 0-1.1-.1-1.3-.4-.2-.3-.2-.9.1-1.5 2.6-5.9 6.7-11.6 11.7-16.6 1-1.1 2.5-1.7 3.6-1.6zM91 61.8c.2-1.9 2.7-3.9 4.8-4l26.7-.9L99.3 75c-2.4-.8-4.9-1.4-7.4-1.8-1-3.5-1.3-7.4-.9-11.4zm-4.6 53.6c2.6 3.6 5.1 8.1 4.9 11.7-.1 1.6-.6 2.8-1.8 3.8-.9.6-8.2 5.5-17.5 6.3 3.8-1.8 7-4.2 9.3-7.4 3.6-4.6 4.8-9.9 5.1-14.4zm16.8-3.7c3.9-1.3 7.4-4 9.7-7.4-.2 2.4-.8 4.9-2 7.6-3.7.7-6.8.7-9.5.3.6-.1 1.2-.3 1.8-.5zM6 78.5C6 68.9 9.6 60.6 16.1 55c6-5.2 14.3-7.7 24.2-7.5-.2.8 0 1.7.5 2.4.6.8 1.5 1.3 2.4 1.3.6 0 1.2-.2 1.7-.6 0 0 3.1-2.1 7.7-2.9 9.6-.9 17.7.5 24 4.2-.3.9-.6 1.8-.8 2.7-1.8 6.1-2.4 12.1-1.8 17.8-12.2.7-15.9 4.5-16.6 8-5.2-3-15-1-22.3 3.2-3.4 1.9-6.1 4.4-7.8 7.3l-.1.1c-.2.3-4.4 6.7-5.4 15.5C8.8 100 6 87.8 6 78.5zM27.7 112c-.1-1.3-.1-2.6 0-3.8 1.6 2.6 8.7 11.9 27.1 11.9 14.1 0 21.5-1.1 25.5-3.9-.4 3.2-1.4 6.8-3.7 10-3.8 5.1-10.5 7.8-19.8 8.2-2.9-.5-27.9-5.1-29.1-22.4zm77.3 14c-3.2 2.5-6 3.6-8.2 4.1.3-.9.4-1.8.5-2.8.1-3.7-1.3-7.5-3.2-10.9 2.9 1.2 6.5 2.1 10.9 2.1 1.7 0 3.4-.1 5.3-.4-.2 2-1.4 4.9-5.3 7.9zm85.7-63.3c-1.7 14.7-9.3 27.6-21.9 37.4-15.1 11.8-33.1 15.3-50.9 10 .3-1 .5-2.1.7-3.1 30.1-1.6 60.9-25.8 68.9-54.4.9-3.2 1.5-6.4 1.8-9.5 1.6 6.5 2.1 13.1 1.4 19.6z"/><path d="M30.7 59c.8 0 1.5-.3 2.1-.9.6-.6.9-1.3.9-2.1s-.3-1.6-.9-2.1c-1.1-1.1-3.1-1.1-4.2 0-.6.6-.9 1.3-.9 2.1s.3 1.5.9 2.1c.6.6 1.3.9 2.1.9zM19.5 66.6c.3-.3.5-.6.6-1 .2-.4.2-.8.2-1.1 0-.2 0-.4-.1-.6 0-.2-.1-.4-.2-.6-.1-.2-.2-.4-.3-.5-.1-.2-.2-.3-.4-.5-.1-.1-.3-.3-.5-.4-.2-.1-.3-.2-.5-.3s-.4-.1-.6-.2c-1-.2-2 .1-2.7.8-.1.1-.3.3-.4.5-.1.2-.2.3-.3.5-.1.2-.1.4-.2.6 0 .2-.1.4-.1.6 0 .4.1.8.2 1.1.2.4.4.7.7 1 .6.6 1.3.9 2.1.9.4 0 .8-.1 1.1-.2.8-.1 1.1-.3 1.4-.6zM27.2 69c.4.1.7.2 1.1.2.4 0 .8-.1 1.2-.2.4-.2.7-.4 1-.7.3-.3.5-.6.7-1 .2-.4.2-.7.2-1.1 0-.8-.3-1.6-.9-2.1-.7-.7-1.7-1-2.7-.8-.2 0-.4.1-.6.2-.2.1-.4.2-.5.3-.2.1-.3.2-.5.4-.6.6-.9 1.3-.9 2.1s.3 1.6.9 2.1c.3.2.6.4 1 .6zM40.2 66.1c.4 0 .8-.1 1.1-.2.4-.2.7-.4 1-.7.6-.6.9-1.3.9-2.1 0-.2 0-.4-.1-.6 0-.2-.1-.4-.2-.6-.1-.2-.2-.4-.3-.5-.1-.2-.2-.3-.4-.5-1.1-1.1-3.1-1.1-4.2 0-.1.1-.3.3-.4.5-.1.2-.2.3-.3.5-.1.2-.1.4-.2.6 0 .2-.1.4-.1.6 0 .8.3 1.6.9 2.1.7.6 1.5.9 2.3.9zM22.2 79.2c.4-.1.7-.4 1-.7.3-.3.5-.6.7-1 .1-.4.2-.8.2-1.1 0-.2 0-.4-.1-.6 0-.2-.1-.4-.2-.6-.1-.2-.2-.4-.3-.5-.1-.2-.2-.3-.4-.5-.7-.7-1.7-1-2.7-.8-.2 0-.4.1-.6.2s-.4.2-.5.3c-.2.1-.3.2-.5.4-.1.1-.3.3-.4.5-.1.2-.2.3-.3.5-.1.2-.1.4-.2.6 0 .2-.1.4-.1.6 0 .4.1.8.2 1.1.2.4.4.7.7 1 .6.6 1.3.9 2.1.9.6 0 1-.1 1.4-.3z"/>
    </symbol>
    <symbol id="icon-allergen-egg" viewBox="0 0 86 86">
      <path d="M17.7 40.2C17.7 53 28.2 63.4 41 63.4S64.3 53 64.3 40.2 53.8 17.1 41 17.1 17.7 27.5 17.7 40.2zM41 21.1c10.6 0 19.3 8.6 19.3 19.1S51.6 59.4 41 59.4s-19.3-8.6-19.3-19.1S30.4 21.1 41 21.1zM33.1 10.7c.2 0 .5 0 .7-.1l.5-.2c1-.4 1.6-1.5 1.2-2.6S34 6.2 32.9 6.6l-.4.2c-1 .4-1.6 1.5-1.2 2.6.2.8 1 1.3 1.8 1.3z"/><path d="M79.8 28.6C73.5 24.3 65.6 15 62.5 8.4c-1.8-3.9-5-6.7-8.9-7.8-3.9-1.1-8.1-.5-11.8 1.9-.9.6-1.2 1.8-.6 2.8s1.8 1.2 2.8.6c2.7-1.7 5.7-2.2 8.5-1.4 2.8.8 5.1 2.8 6.4 5.7 3.4 7.3 11.8 17.1 18.7 21.8 2.6 1.8 4.2 4.4 4.4 7.2.2 3-1 5.9-3.5 8.3-6.3 6-12.1 18.1-12.9 27.1-.3 2.9-1.5 5.2-3.7 6.4-3 1.7-7.3 1.4-11.7-.8-9.5-4.7-25.3-7.3-35.1-7.2-3.9 0-7.1-1.4-9.2-4.1-1.9-2.6-2.4-6-1.4-9.3 2.7-8.7 3.2-22.7 1.2-31.2-.8-3.4-.2-6.7 1.7-9.3 1.9-2.5 4.8-4.1 8.3-4.3 3.7-.3 8.4-1.2 13.1-2.5 1.1-.3 1.7-1.4 1.4-2.5S28.8 8 27.7 8.3c-4.4 1.3-8.8 2.1-12.3 2.4-4.7.3-8.7 2.4-11.3 5.9-2.6 3.5-3.5 8-2.4 12.6C3.5 37.1 3 50.4.6 58.3c-1.4 4.6-.7 9.3 2 12.9C5.5 75 10 77 15.1 76.9c9.3-.2 24.2 2.3 33.2 6.8 3.1 1.5 6.2 2.3 9 2.3 2.4 0 4.5-.5 6.4-1.6 3.3-1.9 5.4-5.3 5.8-9.5.7-8 6-19.3 11.6-24.6 3.4-3.2 5.1-7.3 4.8-11.5-.3-4-2.4-7.6-6.1-10.2z"/>
    </symbol>
    <symbol id="icon-allergen-fisk" viewBox="0 0 100 73.7">
      <path d="M12 39.6c0 4.2 3.4 7.6 7.6 7.6 4.2 0 7.6-3.4 7.6-7.6S23.8 32 19.6 32c-4.2 0-7.6 3.4-7.6 7.6zm11.2 0c0 2-1.6 3.6-3.6 3.6S16 41.6 16 39.6s1.6-3.6 3.6-3.6 3.6 1.6 3.6 3.6z"/><path d="M99 26.9c-.6-.4-1.4-.3-2 .1l-9 5.8C80.5 16.3 66.3 4.7 48.6 1 44.4.1 40.2-.2 36 .1c-1.1.1-1.9 1-1.9 2.1s1 2 2.1 1.9c3.8-.2 7.7.1 11.5.9 17.2 3.5 30.9 15 37.5 31.5.2.6.7 1 1.3 1.2.6.2 1.2.1 1.7-.2l7.8-5.1v13.9l-7.9-4.6c-.5-.3-1.1-.3-1.7-.2-.5.2-1 .6-1.2 1.1-6.6 16.4-22.3 27-40 27-18.7 0-35.5-12.4-41.1-30.1C7.8 28 16.5 19.3 29.5 14.3c6.3 6.9 9.8 15.8 9.8 25.2 0 6.7-1.8 13.3-5.2 19-.6.9-.3 2.2.7 2.7 1 .6 2.2.3 2.7-.7 3.8-6.3 5.8-13.6 5.8-21.1 0-10.9-4.2-21.1-11.8-28.9-.5-.6-1.4-.7-2.1-.5C14.3 15.6 4.1 25.6.1 39c-.1.4-.1.8 0 1.2C6 59.9 24.6 73.7 45.2 73.7 63.8 73.7 80.3 63 88 46.3l9 5.2c.6.4 1.4.4 2 0s1-1 1-1.7V28.7c0-.8-.4-1.4-1-1.8z"/>
    </symbol>
    <symbol id="icon-allergen-hvete" viewBox="0 0 90 90">
      <path d="M60.7 53.4L51 50c-1-.4-2.2.2-2.5 1.2-.4 1 .2 2.2 1.2 2.5l6.5 2.3-3.4 3c-1 .9-3.6 1.4-5.6.7L36.8 56l5-5c.8-.8.8-2 0-2.8s-2-.8-2.8 0l-5 5-3.8-10.4c-.7-1.8-.3-4.4.7-5.6l3-3.4 2.2 6.4c.4 1 1.5 1.6 2.5 1.2 1-.4 1.6-1.5 1.2-2.5l-3.3-9.6c-.2-.7-.8-1.2-1.5-1.3-.7-.1-1.4.1-1.9.6l-5.3 6c-2 2.3-2.6 6.4-1.5 9.6l4.9 13.3v.1c0 .1.1.2.2.3v.1l.3.3s.1 0 .1.1c.1.1.2.1.3.2 0 0 .1 0 .1.1 0 0 .1 0 .1.1l13.3 4.9c1.1.4 2.3.6 3.5.6 2.3 0 4.6-.7 6.1-2.1l6-5.3c.5-.5.8-1.2.6-1.9.1-.8-.4-1.4-1.1-1.6z"/><path d="M43.9 67l-5.2 4.6c-.8.7-3.1 1.1-4.8.4l-9.4-3.7 4.8-4.8c.8-.8.8-2 0-2.8-.8-.8-2-.8-2.8 0l-4.8 4.8-3.7-9.4c-.7-1.7-.3-3.9.4-4.8l4.6-5.2c.7-.8.7-2.1-.2-2.8-.8-.7-2.1-.7-2.8.2l-4.6 5.2c-1.8 2.1-2.3 5.9-1.1 8.9l4.8 12.2c.1.1.1.3.2.4l.1.1c.1.1.2.2.2.3l.1.1c.1.1.2.1.3.2l.1.1h.1l12.2 4.8c1.1.4 2.3.6 3.5.6 2.1 0 4.1-.6 5.4-1.8l5.2-4.6c.8-.7.9-2 .2-2.8-.8-.8-2-.9-2.8-.2z"/><path d="M30.8 78.6l-4.6 4.1c-.7.6-2.6.8-4.1.2l-8.5-3.6 4.1-4.1c.8-.8.8-2 0-2.8-.8-.8-2-.8-2.8 0l-4.1 4.1L7.2 68c-.6-1.5-.4-3.4.2-4.1l4.1-4.6c.7-.8.7-2.1-.2-2.8-.8-.7-2.1-.7-2.8.2l-4.1 4.6c-1.7 1.9-2.1 5.5-.9 8.3l4.2 10.1-7.2 7.1c-.8.8-.8 2 0 2.8.5.2 1 .4 1.5.4s1-.2 1.4-.6l7.1-7.1 10.1 4.2c1.1.5 2.3.7 3.5.7 1.8 0 3.6-.5 4.8-1.6l4.6-4.1c.8-.7.9-2 .2-2.8-.8-.8-2-.9-2.9-.1zM52.7 28.5c-4.8.2-8.8 4.4-8.9 9.2l-.1 6.7c0 .5.2 1.1.6 1.5.4.4.9.6 1.4.6l6.7-.1c4.8-.1 9-4.1 9.2-8.9l.4-7.1c0-.6-.2-1.1-.6-1.5s-1-.6-1.5-.6l-7.2.2zm4.8 8.6c-.1 2.8-2.5 5.1-5.3 5.1l-4.6.1.1-4.6c0-2.8 2.4-5.1 5.1-5.3l4.9-.3-.2 5zM39.9 26.1c.6 0 1.1-.2 1.5-.7L61 3.3c.7-.8.7-2.1-.2-2.8-.8-.7-2.1-.7-2.8.2L38.4 22.8c-.7.8-.7 2.1.2 2.8.3.3.8.5 1.3.5zM52.7 23.9c.4.4.9.5 1.4.5.5 0 1.1-.2 1.5-.6l12.2-13c.8-.8.7-2.1-.1-2.8s-2.1-.7-2.8.1l-12.2 13c-.8.8-.8 2 0 2.8zM65.8 24.2c.4.4.9.6 1.4.6.5 0 1-.2 1.4-.6l6.5-6.5c.8-.8.8-2 0-2.8-.8-.8-2-.8-2.8 0l-6.5 6.5c-.7.7-.7 2 0 2.8zM66.1 37.3c.4.4.9.6 1.5.6.5 0 1-.2 1.4-.5l13-12.2c.8-.8.8-2 .1-2.8-.8-.8-2-.8-2.8-.1l-13 12.2c-.9.7-.9 2-.2 2.8zM89.5 29.2c-.7-.8-2-.9-2.8-.2L64.6 48.6c-.8.7-.9 2-.2 2.8.4.4.9.7 1.5.7.5 0 .9-.2 1.3-.5L89.3 32c.9-.7.9-2 .2-2.8z"/>
    </symbol>
    <symbol id="icon-allergen-lupin" viewBox="0 0 282.7 283.6">
      <path d="M153.7 152.8c-15.9 0-22.1-11.1-17.2-28.8 21.5 0 22.9 15.1 22.9 28.8h-5.7zm-6.7-39.4h-12.7c-12.6 0-21.7 10.2-21.7 22.6v14.9c0 13 9.1 23.2 21.7 23.2h13.5c11.9 0 21.2-9.7 21.2-22.8V136c-.1-12.4-9.6-22.6-22-22.6zm6.7-33.9c-15.9 0-22.1-11.1-17.2-28.8 21.5 0 22.9 15.1 22.9 28.8h-5.7zM147 40.1h-12.7c-12.6 0-21.7 10.2-21.7 22.6v14.9c0 13 9.1 23.2 21.7 23.2h13.5c11.9 0 21.2-9.7 21.2-22.8V62.7c-.1-12.5-9.6-22.6-22-22.6zm6.7 185.9c-15.9 0-22.1-11.1-17.2-28.8 21.5 0 22.9 15.1 22.9 28.8h-5.7zm-6.7-39.4h-12.7c-12.6 0-21.7 10.2-21.7 22.6v14.9c0 13 9.1 23.2 21.7 23.2h13.5c11.9 0 21.2-9.7 21.2-22.8v-15.3c-.1-12.4-9.6-22.6-22-22.6zM31.5 0h220.2c20.8 0 31 11.1 31 32.4v220.4c0 20.8-10.2 30.8-30.7 30.8H30.3C10.2 283.6 0 272.9 0 252.8V32.4C0 10.7 11.4 0 31.5 0z"/>
    </symbol>
    <symbol id="icon-allergen-melk" viewBox="0 0 52.8 90">
      <path d="M43.7 13c2.5-1 4.3-3.4 4.3-6.3C48 3 45 0 41.3 0H26.8c-1.1 0-2 .9-2 2s.9 2 2 2h14.5C42.8 4 44 5.2 44 6.8s-1.2 2.8-2.8 2.8H11.5c-1.5 0-2.8-1.2-2.8-2.8S10 4 11.5 4h.9c1.1 0 2-.9 2-2s-.9-2-2-2h-.9C7.8 0 4.8 3 4.8 6.8c0 2.9 1.8 5.3 4.3 6.3C9 19.3 7 23.9 4.9 28.7 2.5 34.2 0 39.9 0 48.4v32.8C0 86.1 3.9 90 8.8 90H44c4.8 0 8.8-3.9 8.8-8.8V48.4c0-8.6-2.5-14.2-4.9-19.7-2.1-4.8-4.1-9.4-4.2-15.7zm5.1 68.2c0 2.6-2.1 4.8-4.8 4.8H8.8C6.1 86 4 83.9 4 81.2V48.4c0-7.7 2.2-12.8 4.6-18.1 2.1-4.9 4.3-9.9 4.5-16.8h26.7c.2 6.9 2.4 11.9 4.5 16.8.1.3.3.6.4.9-4 4.7-8.8 3.3-14.4 1.7-5.7-1.7-12.1-3.5-17.4 2.3-.7.8-.7 2.1.1 2.8.4.3.9.5 1.3.5.5 0 1.1-.2 1.5-.7 3.4-3.8 7.3-2.9 13.3-1.1 5.3 1.5 11.7 3.4 17.1-1.5 1.4 3.8 2.5 7.8 2.5 13.2v32.8z"/><path d="M20.8 4h.2c1.1 0 2-.9 2-2s-.9-2-2-2h-.3c-1.1 0-2 .9-2 2s1 2 2.1 2z"/>
    </symbol>
    <symbol id="icon-allergen-nuts" viewBox="0 0 90 81.6">
      <path d="M65.9 36.9c1.6-5.4 2.5-11 2.6-16.7.1-5.2-1.8-10.2-5.4-14-3.6-3.8-8.5-6-13.7-6.1-5.2-.1-10.2 1.8-14.1 5.4-3.8 3.6-6 8.5-6.1 13.7-.3 9.5-5.5 18.3-13.7 23-1 .6-1.3 1.8-.7 2.7s1.8 1.3 2.7.7c9.4-5.4 15.4-15.5 15.7-26.4.1-4.2 1.9-8.1 4.9-10.9 3-2.9 7-4.4 11.2-4.3 4.2.1 8.1 1.9 10.9 4.9 2.9 3 4.4 7 4.3 11.2-.7 24.8-16 46.9-38.9 56.3-8 3.3-17.2-.5-20.5-8.5-.8-2-1.2-4.2-1.2-6.4.1-4.9 2.6-9.5 6.6-12.4.9-.6 1.1-1.9.5-2.8-.6-.9-1.9-1.1-2.8-.5-5 3.5-8.1 9.4-8.3 15.5-.1 2.8.4 5.5 1.5 8C4.6 77 12 81.6 19.7 81.6c2.5 0 5-.5 7.5-1.5 7-2.9 13.3-6.9 18.8-11.8 4.3 5 13 11.2 24.4 11.2 4.1 0 8.5-.8 13.2-2.8 1-.4 1.5-1.6 1.1-2.6-.4-1-1.6-1.5-2.6-1.1-15.7 6.6-28.1-1.5-33.2-7.4 1.4-1.4 2.7-2.8 3.9-4.3 4.1 3.8 13.1 8.5 21 8.8h.1c1.1 0 2-.8 2-1.9 0-1.1-.8-2-1.9-2.1-7.3-.3-15.6-4.9-18.6-7.9 3.9-5.3 7.1-11.2 9.3-17.5C85.7 46.4 86 65.1 86 65.9c0 1.1.9 2 2 2s2-.9 2-2c0-.2-.3-22.4-24.1-29z"/><path d="M41.2 55.1c.4 0 .9-.1 1.2-.4 10.2-7.8 14.9-24 14.9-35.7 0-1.1-.9-2-2-2s-2 .9-2 2c0 9-3.5 25-13.3 32.5-.9.7-1 1.9-.4 2.8.5.5 1 .8 1.6.8z"/>
    </symbol>
    <symbol id="icon-allergen-peanuts" viewBox="0 0 89.8 82.3">
      <path d="M53 44.2c-1-.4-2-.7-2.8-1.1h-.1c-4.1-1.5-9.4-7-10.6-11.1v-.1c-.3-.9-.6-1.9-.9-2.9-1-3.1-2.1-6.7-4.3-9.6-1.7-2.2-3.5-4.3-5.5-6.1-.8-.8-2.1-.7-2.8.1s-.7 2.1.1 2.8c1.8 1.7 3.5 3.5 5 5.6 1.8 2.4 2.8 5.5 3.7 8.4.3 1 .6 2 1 3 1.6 5.4 7.7 11.8 13.1 13.7 1 .4 1.9.7 3 1.1 2.9 1.1 5.9 2.1 8.2 4.1.4.3.8.5 1.3.5.6 0 1.1-.3 1.5-.7.7-.9.6-2.1-.3-2.8-3.1-2.5-6.5-3.8-9.6-4.9zM24.2 9.6c-.2-.2-.5-.3-.7-.5-.9-.6-2.2-.3-2.8.6-.6.9-.3 2.2.6 2.8.2.1.4.3.6.4.3.2.7.4 1.1.4.6 0 1.3-.3 1.6-.9.7-1 .5-2.2-.4-2.8z"/><path d="M88.9 37.5c-.9-.6-2.2-.3-2.8.6-2.6 4.1-7.7 6.9-13.6 7.5-1.2-1.5-2.6-2.8-4.1-4-3.3-2.6-7.6-3.4-11.4-4.2-.5-.1-1.1-.2-1.6-.3-.8-.2-1.6-.5-2.4-.8-1.9-3.4-2.2-7-.7-10.8 1.6-4 4.4-6.6 8.5-7.7 3.7-1 8.1-.6 12.3 1.1.3.1.6.3 1 .4 4.9 2.2 9 6.6 10.9 11.7.4 1 1.5 1.6 2.6 1.2s1.6-1.5 1.2-2.6c-2.1-5.5-6.4-10.4-11.6-13.2.5-3 .3-5.9-.6-8.5-.1-.2-.2-.5-.4-.7C70-.3 57.2-2.1 47.7 3c-3.9 2.2-7.1 5.1-9.3 8.4C33.2 6 26 3.1 18.3 3.1c-3.3 0-6.6.6-9.8 1.7-.2 0-.5.2-.7.4C-2 14.3-2.7 30.4 6.4 41.8c3.6 4.6 9.3 6.7 13.5 8.3 3.8 1.7 10.7 7.5 12.4 12.4 1.5 4.2 3.6 9.9 8.3 13.5 5.2 4.1 11.6 6.3 18 6.3 7.3 0 14.1-2.8 18.7-7.8.2-.2.3-.4.4-.7 3-8.3 1.9-17.3-2.4-24.6 6.1-1.1 11.4-4.4 14.3-9 .5-.9.2-2.1-.7-2.7zm-39.2-31c7.6-4.2 18.2-2.8 23.2 2.9.5 1.7.6 3.5.4 5.3-4.7-1.6-9.4-1.9-13.6-.8-5.3 1.4-9.2 4.9-11.2 10.1-1 2.5-1.3 5-1.2 7.4-1.1-1.5-1.8-3.1-2.1-4.5-.1-.5-.2-1-.3-1.6-.7-3.6-1.5-7.6-3.7-10.8 1.7-3.1 4.7-6 8.5-8zm24.2 65.6c-3.8 4-9.4 6.2-15.5 6.2-5.5 0-11-1.9-15.5-5.5-3.8-2.9-5.6-8-7-11.7C33.8 55 26 48.4 21.3 46.4h-.1c-3.7-1.4-8.8-3.3-11.8-7-7.6-9.7-7.3-23.2.8-31 2.6-.9 5.3-1.3 8-1.3 7.6 0 14.7 3.4 19.4 9.3 2 2.5 2.7 6.2 3.4 9.7.1.5.2 1.1.3 1.6.9 4.2 4.3 9.1 9.2 11.7 0 0 .1 0 .1.1 1.2.6 2.5 1.1 3.9 1.4.5.1 1.1.2 1.6.3 3.5.7 7.2 1.4 9.7 3.4 1.5 1.2 2.9 2.6 4.1 4.1v.1c5.2 6.5 6.8 15.2 4 23.3z"/>
    </symbol>
    <symbol id="icon-allergen-sennep" viewBox="0 0 40 65.7">
      <path d="M34.5 0h-29C3.9 0 2.6 1.3 2.6 2.9v2.4c0 1.6 1.3 2.9 2.9 2.9h29c1.6 0 2.9-1.3 2.9-2.9V2.9c.1-1.6-1.3-2.9-2.9-2.9zM33.3 14.4v-4.2H6.7v4.2c-3.7 0-6.7 3-6.7 6.7V59c0 3.7 3 6.7 6.7 6.7h26.6c3.7 0 6.7-3 6.7-6.7V21.1c0-3.7-3-6.7-6.7-6.7zM36 59c0 1.5-1.2 2.7-2.7 2.7H6.7C5.2 61.7 4 60.5 4 59V37h32v22z"/>
    </symbol>
    <symbol id="icon-allergen-sesame" viewBox="0 0 35.3 14.5">
      <path d="M4.9 1.7C4.8 4.3 4.3 5 3.5 5.8c-.8.8-2.2.9-3 .2-.8-.8-.6-2.2.2-3 .8-.8 1.5-1.3 4.2-1.3zM9.6 12.3c-.3 1-1.5 1.9-2.5 1.5-1-.3-1.5-1.7-1.2-2.7.3-1.1.7-1.8 3-3.1 1.2 2.4 1 3.3.7 4.3zM20 3.9c0 1.1-.9 2.2-2 2.2S16 5 16 3.9s.1-2 2-3.9c1.9 2 2 2.8 2 3.9zM28.8 14.4c-1 .4-2.2-.4-2.6-1.4-.4-1.1-.6-1.9.4-4.3 2.4 1.1 2.8 1.8 3.2 2.9.4 1 0 2.4-1 2.8zM34.9 5.3c-.7.8-2.1.8-3 .1-.9-.7-1.4-1.4-1.7-4 2.6-.2 3.3.2 4.2 1 .9.7 1.2 2.1.5 2.9z"/>
    </symbol>
    <symbol id="icon-allergen-skalldyr" viewBox="0 0 90 67.7">
      <path d="M56.6 39c1.1 0 2-.9 2-2V18.9c0-1.1-.9-2-2-2H32.8c-1.1 0-2 .9-2 2s.9 2 2 2h21.8V35H44.1c-4.3 0-8.6-3.1-12.7-6-4.1-3-8.1-5.8-12.2-5.8l-2.9 2 2.9 2c2.9 0 6.3 2.5 9.9 5 4.2 3 8.9 6.4 14 6.8l-10 10c-.8.8-.8 2 0 2.8.4.4.9.6 1.4.6s1-.2 1.4-.6L48.8 39h7.8z"/><path d="M25.2 16.9c-1.1 0-2 .9-2 2s.9 2 2 2h.2c1.1 0 2-.9 2-2s-.9-2-2-2h-.2zM14.2 16.9c-1.1 0-2 .9-2 2s.9 2 2 2h3.7c1.1 0 2-.9 2-2s-.9-2-2-2h-3.7zM64.6 16.9c-1.1 0-2 .9-2 2s.9 2 2 2c11.8 0 21.4 9.6 21.4 21.4 0 11.8-9.6 21.4-21.4 21.4H39c-1.1 0-2 .9-2 2s.9 2 2 2h25.6c14 0 25.4-11.4 25.4-25.4 0-14-11.4-25.4-25.4-25.4z"/><path d="M13.4 27.1h.2c.9 0 1.7-.6 1.9-1.5.1-.2.1-.4.1-.6s0-.4-.1-.6c-.2-.8-1-1.5-1.9-1.5-5.3 0-9.6-4.3-9.6-9.6S8.3 4 13.6 4H85c1.1 0 2-.9 2-2s-.9-2-2-2H13.6C6.1 0 0 6.1 0 13.6 0 21 6 27 13.4 27.1zM28.6 36.5L16.7 48.4H5.6c-1.1 0-2 .9-2 2s.9 2 2 2h11.9c.5 0 1-.2 1.4-.6l12.5-12.5c.8-.8.8-2 0-2.8s-2-.8-2.8 0zM64.6 57.5H48.1c-1.1 0-2 .9-2 2s.9 2 2 2h16.5c7.3 0 13.3-5.9 13.3-13.3 0-7.2-6-13.2-13.3-13.2-.2 0-.4 0-.6.1-.3.1-.6.3-.8.5L49.8 49c-.8.8-.8 2 0 2.8s2 .8 2.8 0L65.4 39c4.7.4 8.5 4.4 8.5 9.2 0 5.2-4.2 9.3-9.3 9.3z"/>
    </symbol>
    <symbol id="icon-allergen-softshell" viewBox="0 0 90 74.7">
      <path d="M49.8 70.7h-19l3.2-5.5c.4-.6.4-1.4 0-2-.2-.4-.5-.6-.9-.8L4.2 33.5c.9-4.2 2.6-8.2 5.1-11.8.6-.9.4-2.2-.5-2.8-.9-.6-2.2-.4-2.8.5-3 4.5-5 9.3-6 14.4-.1.6.1 1.3.6 1.8l29.1 29.1-4.1 7c-.4.6-.4 1.4 0 2 .4.6 1 1 1.7 1h22.5c1.1 0 2-.9 2-2s-.9-2-2-2zM19.8 11.2c.4 0 .7-.1 1.1-.3l.3-.2c.9-.6 1.2-1.8.7-2.8-.7-.9-1.9-1.2-2.8-.6l-.3.2c-.9.6-1.2 1.8-.6 2.8.3.5.9.9 1.6.9zM73.4 8.9C65.2 3.2 55.2 0 45 0c-6.9 0-13.9 1.5-20.3 4.3-1 .4-1.5 1.6-1 2.6.4 1 1.6 1.5 2.6 1C32.2 5.4 38.6 4 45 4c22.6 0 37.5 14.7 40.8 29.6L56.9 62.5c-.4.2-.7.4-.9.8-.4.6-.4 1.4 0 2l4.9 8.5c.4.6 1 1 1.7 1 .3 0 .7-.1 1-.3 1-.6 1.3-1.8.7-2.7l-4.1-7 29.1-29.1c.5-.5.7-1.1.6-1.8-1.8-10.1-7.6-18.8-16.5-25z"/><path d="M36.5 59c.7 0 1.4-.4 1.7-1l5.7-9.9 1.3 2.3c.5 1 1.8 1.3 2.7.8 1-.5 1.3-1.8.8-2.7l-3-5.4c-.4-.6-1-1-1.7-1s-1.4.4-1.7 1L34.8 56c-.5 1-.2 2.2.7 2.7.4.2.7.3 1 .3z"/>
    </symbol>
    <symbol id="icon-allergen-soya" viewBox="0 0 81.8 90">
      <path d="M73.1 8.8c-.2-.7-.8-1.2-1.4-1.4-.7-.2-1.4 0-1.9.6-2.8 3-6.2 5.1-9.4 7.2-2.7 1.7-5.2 3.4-7.3 5.4-.5-3.9-2.3-7.6-6-10.3C43.4 7.6 40 4.2 37.6.8c-.4-.6-1.1-.9-1.8-.8-.7.1-1.3.5-1.6 1.2-1.5 3.3-3.7 6.1-5.7 8.7-1.8 2.4-3.6 4.6-4.7 7-2.4 5-2.4 10.7-.1 15.3-.1 2.1-.7 4.1-1.8 5.9-1.2 1.4-2.2 2.9-3 4.5-.8 1.6-1.4 3.4-1.7 5.1-.7 1.9-1.9 3.7-3.5 5-5 1-9.4 4.6-11.8 9.6-.9 1.6-1.4 3.6-1.9 6-.2 1.1.5 2.1 1.6 2.3h.3c1 0 1.8-.7 2-1.7.4-2.1.8-3.7 1.4-4.8 1.9-4.1 5.5-6.9 9.4-7.5.3-.1.7-.2.9-.4 2.4-1.9 4.1-4.4 5.2-7.3 0-.1.1-.2.1-.3.3-1.5.7-2.9 1.4-4.3s1.5-2.6 2.5-3.8c.1-.1.1-.2.2-.3 1.6-2.6 2.4-5.5 2.4-8.6 0-.3-.1-.7-.3-1-2-3.5-2-8 0-12.1 1-2.1 2.6-4.1 4.3-6.3 1.6-2 3.3-4.2 4.8-6.7 2.4 2.8 5.3 5.5 8.4 7.8 4.6 3.4 5.1 8.7 4 13.1-.5 1.1-.9 2.2-1.2 3.4v.2c-.6 2.2-.7 4.5-.4 6.7-.9 2.2-2.3 4.2-4.2 5.8-1.7 1-3.4 2.3-4.8 3.7-1.4 1.4-2.7 3.1-3.7 4.8-1.5 1.9-3.5 3.3-5.8 4.2-.8-.1-1.5-.2-2.3-.2-5 0-10 2.2-13.7 5.9-2.8 2.8-5 7.4-6.9 11.4C4.3 75 2.9 78 1.9 78.8c-.5.4-.8 1.1-.7 1.8.1.7.6 1.3 1.2 1.6 2.7 1.1 7.8 3.8 10.5 5.2.9.5 1.6.8 1.9 1 2.1 1 4.4 1.6 6.9 1.6 5 0 10-2.2 13.7-5.9.5-.5 1.1-1.1 1.6-1.8 1.7-2 3.8-3.4 6.3-4.3 1.6.4 3.3.7 5 .7 5.6 0 11.1-2.4 15.4-6.6 5.6-5.6 7.9-13.5 5.9-20.3.8-2.4 2.3-4.6 4.2-6.2.7-.6 1.3-1.1 1.9-1.6 6.2-6.2 7.9-15.2 4-21.3-3.3-5.3-5.4-9.8-6.6-13.9zm-.3 32.3c-.4.4-.9.8-1.6 1.4-2.7 2.3-4.7 5.3-5.7 8.7-.1.4-.1.8 0 1.2 1.8 5.6-.1 12.2-4.8 16.9-3.5 3.5-8 5.4-12.5 5.4-1.5 0-3-.2-4.4-.7-.4-.1-.8-.1-1.2 0-3.4 1-6.4 3-8.8 5.7-.5.6-.9 1.1-1.3 1.5-3 3-7 4.7-10.9 4.7-1.9 0-3.6-.4-5.2-1.2-.3-.1-1-.5-1.9-.9-2-1-5.5-2.8-8.2-4.1.9-1.5 1.8-3.4 2.9-5.5 1.8-3.7 3.8-8 6.1-10.3 3-3 7-4.7 10.9-4.7.7 0 1.5.1 2.2.2.3.1.7 0 1-.1 3.2-1.1 6-3.1 8.1-5.7.1-.1.1-.2.2-.3.9-1.5 1.9-2.9 3.1-4.1 1.2-1.2 2.6-2.3 4.1-3.1.1-.1.2-.1.3-.2 2.6-2.1 4.6-4.9 5.7-8.1.1-.3.1-.7.1-1-.3-1.8-.2-3.7.2-5.6.5-1 .8-2 1.2-3.1.8-1.6 1.8-3.1 3.2-4.4 1.8-1.8 4.3-3.4 7-5.1 2.5-1.6 5.2-3.4 7.8-5.6 1.4 3.6 3.4 7.4 6.1 11.7 2.6 4.5 1.2 11.5-3.7 16.4z"/><path d="M66.4 22.2c-3.1 0-6.2 1.4-8.6 3.8-2.2 2.2-3.6 5.1-3.8 7.9-.1 1.5 0 4.3 2.2 6.5 1.8 1.8 4.1 2.2 5.7 2.2 3.1 0 6.2-1.4 8.6-3.8 2-2 3.3-4.6 3.7-7.2.4-2.8-.4-5.4-2.1-7.1-1.8-1.9-4.1-2.3-5.7-2.3zm3.9 8.8c-.2 1.7-1.2 3.5-2.6 4.9-1.7 1.7-3.8 2.6-5.8 2.6-.8 0-2-.2-2.9-1.1-1-1-1.1-2.5-1-3.3.1-1.9 1.1-3.8 2.6-5.3 1.7-1.7 3.8-2.6 5.8-2.6.8 0 2 .2 2.9 1.1.8.8 1.2 2.1 1 3.7zM53.3 47c-3.6 0-7.4 1.6-10.2 4.5-2.6 2.6-4.2 6-4.5 9.4-.2 3.1.7 5.9 2.7 7.9 2.3 2.3 5 2.7 7 2.7 3.6 0 7.4-1.6 10.2-4.5 2.6-2.6 4.2-6 4.5-9.4.2-3.1-.7-5.9-2.7-7.9-2.3-2.3-5-2.7-7-2.7zM59 57.3c-.2 2.4-1.4 4.9-3.3 6.8-2.1 2.1-4.8 3.3-7.4 3.3-1.2 0-2.9-.3-4.2-1.6-1.1-1.1-1.7-2.8-1.5-4.8.2-2.4 1.4-4.9 3.3-6.8 2.1-2.1 4.8-3.3 7.4-3.3 1.2 0 2.9.3 4.2 1.6 1.1 1.2 1.6 2.8 1.5 4.8zM26.2 62.4c-3.1 0-6.2 1.4-8.6 3.8-2 2-3.3 4.6-3.7 7.2-.4 2.8.4 5.4 2.1 7.1 1.8 1.8 4.1 2.2 5.7 2.2 3.1 0 6.2-1.4 8.6-3.8 2-2 3.3-4.6 3.7-7.2.4-2.8-.4-5.4-2.1-7.1-1.8-1.8-4.1-2.2-5.7-2.2zm3.9 8.8c-.2 1.7-1.2 3.5-2.6 4.9-1.7 1.7-3.8 2.6-5.8 2.6-.8 0-2-.2-2.9-1.1-.9-.9-1.2-2.2-1-3.8.2-1.7 1.2-3.5 2.6-4.9 1.7-1.7 3.8-2.6 5.8-2.6.8 0 2 .2 2.9 1.1.8.9 1.2 2.2 1 3.8z"/>
    </symbol>
    <symbol id="icon-allergen-sulfit" viewBox="0 0 100 91.8">
      <path d="M30.7 73c6.1 5 13.8 8.1 22.3 8.1M53 83.1c-8.6 0-17-3-23.6-8.5-.8-.7-1-2-.3-2.8s2-1 2.8-.3c5.9 4.9 13.4 7.6 21.1 7.6 1.1 0 2 .9 2 2s-.9 2-2 2zM37.6 51.4c0 10.4-8.4 18.8-18.8 18.8S0 61.8 0 51.4s8.4-18.8 18.8-18.8c10.4.1 18.8 8.5 18.8 18.8zM94.3 74.2c0 9.7-7.9 17.6-17.6 17.6-9.7 0-17.6-7.9-17.6-17.6 0-9.7 7.9-17.6 17.6-17.6 9.7 0 17.6 7.9 17.6 17.6zM100 35.2c0-7.3-5.9-13.2-13.2-13.2-1.7 0-3.2.3-4.7.9C76 15.3 67 10.1 56.7 9.1 54.4 3.7 49.1 0 43 0c-8.3 0-15 6.7-15 15 0 1.1.1 2.2.4 3.2-2.8 2.5-5.2 5.4-7.2 8.7-.7 1.1-.3 2.6.8 3.3 1.1.7 2.6.3 3.3-.8 6-9.8 16.3-15.7 27.8-15.7 17.9 0 32.5 14.6 32.5 32.5 0 2.2-.2 4.4-.7 6.6-.3 1.3.6 2.6 1.9 2.8h.5c1.1 0 2.1-.8 2.3-1.9.4-1.9.6-3.8.7-5.8 5.6-1.5 9.7-6.6 9.7-12.7z"/>
    </symbol>
    <symbol id="icon-arrow_left" viewBox="0 0 53.7 97.7">
      <path class="st0" d="M48.8 88c2.7 0 4.9 2.2 4.9 4.8 0 2.7-2.2 4.8-4.9 4.8S44 95.5 44 92.8c0-2.7 2.2-4.8 4.8-4.8zM53.7 78.2c0 2.7-2.2 4.8-4.9 4.8S44 80.8 44 78.2c0-2.7 2.2-4.9 4.8-4.9 2.7 0 4.9 2.2 4.9 4.9zM39 78.2c0 2.7-2.2 4.8-4.9 4.8s-4.8-2.2-4.8-4.8c0-2.7 2.2-4.9 4.8-4.9 2.7 0 4.9 2.2 4.9 4.9zM39 63.5c0 2.7-2.2 4.9-4.9 4.9s-4.8-2.2-4.8-4.9 2.2-4.8 4.8-4.8c2.7-.1 4.9 2.1 4.9 4.8zM39 34.2c0 2.7-2.2 4.8-4.9 4.8s-4.8-2.2-4.8-4.8c0-2.7 2.2-4.9 4.8-4.9 2.7 0 4.9 2.2 4.9 4.9zM19.5 58.6c2.7 0 4.8 2.2 4.8 4.8 0 2.7-2.2 4.9-4.8 4.9-2.7 0-4.9-2.2-4.9-4.9.1-2.6 2.2-4.8 4.9-4.8zM19.5 44c2.7 0 4.8 2.2 4.8 4.8s-2.2 4.9-4.8 4.9c-2.7 0-4.9-2.2-4.9-4.9s2.2-4.8 4.9-4.8zM4.8 44c2.7 0 4.8 2.2 4.8 4.8 0 2.7-2.2 4.9-4.8 4.9S0 51.5 0 48.8 2.2 44 4.8 44zM19.5 29.3c2.7 0 4.8 2.2 4.8 4.9S22.1 39 19.5 39c-2.7 0-4.9-2.2-4.9-4.8.1-2.7 2.2-4.9 4.9-4.9zM53.7 19.5c0 2.7-2.2 4.9-4.9 4.9S44 22.2 44 19.5s2.2-4.8 4.8-4.8c2.7 0 4.9 2.1 4.9 4.8zM39 19.5c0 2.7-2.2 4.9-4.9 4.9s-4.8-2.2-4.8-4.9 2.2-4.8 4.8-4.8c2.7 0 4.9 2.1 4.9 4.8zM53.7 4.8c0 2.7-2.2 4.9-4.9 4.9S44 7.5 44 4.8C44 2.2 46.2 0 48.8 0c2.7 0 4.9 2.2 4.9 4.8z"/>
    </symbol>
    <symbol id="icon-arrow_right" viewBox="0 0 53.7 97.7">
      <path class="st0" d="M4.9 9.7C2.2 9.7 0 7.5 0 4.9 0 2.2 2.2 0 4.9 0s4.8 2.2 4.8 4.8c0 2.7-2.2 4.9-4.8 4.9zM0 19.5c0-2.7 2.2-4.8 4.9-4.8s4.8 2.2 4.8 4.8c0 2.7-2.2 4.9-4.8 4.9S0 22.2 0 19.5zM14.7 19.5c0-2.7 2.2-4.8 4.9-4.8s4.8 2.2 4.8 4.8c0 2.7-2.2 4.9-4.8 4.9-2.8 0-4.9-2.2-4.9-4.9zM14.7 34.2c0-2.7 2.2-4.9 4.9-4.9s4.8 2.2 4.8 4.9-2.2 4.8-4.8 4.8c-2.8 0-4.9-2.1-4.9-4.8zM14.7 63.5c0-2.7 2.2-4.8 4.9-4.8s4.8 2.2 4.8 4.8c0 2.7-2.2 4.9-4.8 4.9-2.8-.1-4.9-2.2-4.9-4.9zM34.2 39c-2.7 0-4.8-2.2-4.8-4.8 0-2.7 2.2-4.9 4.8-4.9 2.7 0 4.9 2.2 4.9 4.9-.1 2.7-2.3 4.8-4.9 4.8zM34.2 53.7c-2.7 0-4.8-2.2-4.8-4.8s2.2-4.9 4.8-4.9c2.7 0 4.9 2.2 4.9 4.9s-2.3 4.8-4.9 4.8zM48.8 53.7c-2.7 0-4.8-2.2-4.8-4.8s2.2-4.9 4.8-4.9 4.8 2.2 4.8 4.9-2.1 4.8-4.8 4.8zM34.2 68.3c-2.7 0-4.8-2.2-4.8-4.9s2.2-4.8 4.8-4.8c2.7 0 4.9 2.2 4.9 4.8-.1 2.8-2.3 4.9-4.9 4.9zM0 78.2c0-2.7 2.2-4.9 4.9-4.9s4.8 2.2 4.8 4.9S7.5 83 4.9 83 0 80.8 0 78.2zM14.7 78.2c0-2.7 2.2-4.9 4.9-4.9s4.8 2.2 4.8 4.9-2.2 4.8-4.8 4.8c-2.8 0-4.9-2.2-4.9-4.8zM0 92.8C0 90.1 2.2 88 4.9 88s4.8 2.2 4.8 4.9-2.2 4.8-4.8 4.8S0 95.5 0 92.8z"/>
    </symbol>
    <symbol id="icon-booking" viewBox="0 0 88 50.1">
      <path d="M4 50.1c-1.9 0-2.9-.9-3.4-1.6-1.1-1.6-.4-3.4-.3-3.8L11.5 7.1c.3-.9 1-1.5 1.9-1.6 5.9-.7 10.4-1.8 13.2-3.2 3-1.5 6.2-2.3 9-2.3 3.7 0 6.7 1.3 8.5 3.5 2-2.2 5-3.5 8.6-3.5 2.9 0 6 .8 9.1 2.4C64.6 3.8 69 4.8 75 5.5c.9.1 1.6.7 1.9 1.6l10.8 36.3c.1.5.8 3.1-.6 4.9-1 1.3-2.4 1.9-4.7 1.5-5.2-.9-10.5-2.1-14.4-4-3.8-1.9-7.7-2.9-11-2.9s-5.8 1-7.1 2.9c-.4.7-1.2 1.1-2 1l-7.5-.2c-.7 0-1.3-.4-1.7-.9-2.7-3.6-8.4-3.5-18.7.3-4.4 1.6-9.6 3-14.6 3.9-.5.1-1 .2-1.4.2zm53.1-11.7c4 0 8.5 1.2 13 3.4 3.3 1.7 8.3 2.7 13.1 3.6h.3c0-.2 0-.5-.1-.8L73 9.8C67.2 9 62.8 7.9 59.8 6.4c-2.5-1.2-4.9-1.9-7.1-1.9-3.9 0-6.3 2-6.3 5.4 0 1.2-1 2.3-2.3 2.3s-2.3-1-2.3-2.3c0-3.4-2.4-5.4-6.3-5.4-2.2 0-4.6.7-7.1 1.9-3 1.5-7.4 2.7-13.2 3.4L4.8 45.5c4.7-.9 9.6-2.2 13.8-3.7 5.8-2.1 10.4-3.1 14-3.1 3.9 0 6.9 1.2 9.1 3.5l5.3.2c2.2-2.6 5.7-4 10.1-4z"/><path d="M81 49.6c-.3 0-.6-.1-.9-.2-6.2-2.6-11.3-5-15.9-7.5l-.9-.5c-4.2-2.3-8.2-4.5-12.7-4.3-.8.1-3.9.5-4.9.9-.4.4-1 .6-1.6.6-1.2 0-2.3-1-2.3-2.3V9.9c0-1.2 1-2.3 2.3-2.3s2.3 1 2.3 2.3v23.2c1.1-.2 2.4-.4 4-.5 5.7-.3 10.7 2.4 15.1 4.8l.9.5c4.5 2.4 9.4 4.8 15.4 7.3 1.1.5 1.7 1.8 1.2 2.9-.3 1-1.1 1.5-2 1.5z"/><path d="M13.1 41.5c-1 0-2-.7-2.2-1.8-.2-1.2.6-2.4 1.8-2.6 2.2-.4 3.4-.9 5.4-1.7 1.4-.6 3.2-1.3 5.8-2.2 12.8-4.3 21.3 1.1 21.6 1.3 1 .7 1.3 2.1.7 3.1-.7 1-2.1 1.3-3.1.7-.3-.2-7.1-4.4-17.7-.8-2.5.8-4.2 1.5-5.6 2.1-2 .8-3.6 1.5-6.2 2-.2-.1-.4-.1-.5-.1z"/>
    </symbol>
    <symbol id="icon-buffet" viewBox="0 0 282.2 227.8">
      <path d="M171.6 75.5c-1.2-1.6-3.2-2.7-5.4-2.7-1.7 0-3.3.7-4.5 1.7-1.3-2.9-4.2-5-7.6-5-1.5 0-2.9.4-4.1 1.1-1.7-5.1-6.6-8.8-12.3-8.8-5.6 0-10.4 3.6-12.2 8.6-1.1-.5-2.3-.8-3.7-.8-3.8 0-7 2.5-8 6 0-.1 57.8-.1 57.8-.1zM103.2 102.7c0-1.9-13.3-2.8-25.6-2.7v9.1h2.7c12.6.1 22.9-2.8 22.9-6.4zM75.3 26.9c2.3-2.1 5.1-4.3 8.3-6.6C82.5 8.9 72.9 0 61.2 0 48.8 0 38.7 10.1 38.7 22.5c0 6.7 2.9 12.7 7.6 16.9h18c2.2-3.2 5.8-7.7 11-12.5zM100.7 68.2L171.2 53c-5.5-14.6-22.9-23-41-19.1-18.1 3.9-30.5 18.8-29.5 34.3zM126.1 25.2l-3.6.6c0 .1 0 .3.1.4.7 3.1 3.8 5.1 6.9 4.5 3.1-.7 5.2-3.8 4.5-6.9-.2-.9-.6-1.7-1.2-2.4-1.6 2-3.9 3.4-6.7 3.8z"/><path d="M21.5 215.5c0 6.8 5.5 12.4 12.4 12.4 6.8 0 12.4-5.5 12.4-12.4v-90.3h4.6v90.3c0 6.8 5.5 12.4 12.4 12.4 6.8 0 12.4-5.5 12.4-12.4V54.9c.5-.6 1-1.2 1.4-1.9.3-.6 3.7-6.8 11.2-13.4 7.8-6.8 19.7-14 37.7-16.4 4.4-.6 7.5-4.6 6.9-9-.6-4.4-4.6-7.5-9-6.9-22.1 2.9-37.5 12.3-47.1 21.1-5.5 5-9.1 9.7-11.4 12.9H29.2c-.4 0-.7 0-1.1.1-1.6-.2-3.2.1-4.7.9-.8.4-1.5.8-2.2 1.2-6.5 3.7-11.4 7.5-15 11.7C2.2 59.9 0 65.4 0 70.8c0 6.8 3.2 12.3 6.9 16.6 3.7 4.3 8.2 7.7 12.6 10.5.7.4 1.3.8 2 1.2v116.4zm-2-138c-.3-.3-.6-.7-.9-1-2-2.4-2.6-4.3-2.6-5.7 0-1.2.3-2.6 2.4-5.2.3-.4.7-.8 1.1-1.2.6-.6 1.2-1.2 2-1.8v16.9c-.7-.7-1.4-1.3-2-2z"/><path d="M93.5 118.9h188.7v8.3H93.5zM239 46.5c-18.5 0-33.7 11.9-36 27.3h72c-2.2-15.4-17.5-27.3-36-27.3zM196.7 77.5v5.6h6.5c.9 4.4 2.8 8.5 5.5 12v19.6h6.5v-13.3c6.4 4.8 14.7 7.6 23.8 7.6 9.1 0 17.4-2.9 23.7-7.6v13.3h6.5V95.1c2.8-3.6 4.7-7.6 5.5-12h6.5v-5.6h-84.5z"/><circle cx="239" cy="37.3" r="5.8"/><path d="M167.2 114.8h6.5V95.1c2.8-3.6 4.7-7.6 5.5-12h6.5v-5.6H101v5.6h6.5c.9 4.4 2.8 8.5 5.5 12v19.6h6.5v-13.3c6.4 4.8 14.7 7.6 23.8 7.6 9.1 0 17.4-2.9 23.8-7.6v13.4z"/>
    </symbol>
    <symbol id="icon-checkmark" viewBox="0 0 52.1 39.9">
      <path d="M49.7.038c-.4.1-.8.3-1.2.6-10.2 10.3-20.5 20.5-30.7 30.7l-14.5-12.1c-.8-.8-2.1-.7-2.8.1s-.7 2.1.1 2.8l.2.2 16.2 17.2c.8.7 2.3.4 3.4-.9 10.7-10.7 20.4-24.4 31.1-35.1.8-.8.8-2 .1-2.8-.6-.6-1.2-.8-1.9-.7z"/>
    </symbol>
    <symbol id="icon-christmasrose" viewBox="0 0 100 100">
      <g fill="none"><path d="M53.801 56.904a35.279 35.279 0 0 1-.934 10.327c-.093.388-.212.761-.332 1.133 2.094 4.289 6.729 7.026 9.681 8.761.741.436 1.382.815 1.873 1.143.917.613 2.485 1.847 4.039 3.105a351.16 351.16 0 0 1-.404-5.199 35.818 35.818 0 0 1-.043-1.397c-.054-2.984-.166-8.649-2.767-12.905a15.263 15.263 0 0 1-1.783-.435 35.158 35.158 0 0 1-9.33-4.533zM53.946 43.139a34.396 34.396 0 0 1 2.094-1.278 35.533 35.533 0 0 1 7.245-3.05c.585-.173 1.17-.298 1.755-.399 2.541-3.939 2.594-9.202 2.621-12.571.007-.86.014-1.604.053-2.195.073-1.1.358-3.075.67-5.05a334.665 334.665 0 0 1-4.301 2.95c-.291.193-.696.439-1.189.735-2.654 1.597-7.779 4.689-10.054 9.348.134.426.257.861.356 1.31.846 3.811.963 7.291.75 10.2zM40.034 50.96c.623-.348 1.23-.655 1.827-.944a35.251 35.251 0 0 1-8.338-5.897 15.69 15.69 0 0 1-1.191-1.279c-3.828-.098-7.621 1.655-10.948 3.512l-1.716.968c-.426.237-.809.444-1.147.611-.989.488-2.842 1.228-4.708 1.945 1.846.873 3.706 1.754 4.706 2.25.313.155.728.384 1.23.662 2.61 1.444 7.566 4.177 12.549 4.057.328-.364.677-.718 1.05-1.06a35.48 35.48 0 0 1 6.686-4.825z"/></g><path d="M88.805 45.834c-2.739-1.294-5.413-2.663-8.1-4.054-3.136-1.624-6.484-2.944-10-3.431 1.109-2.649 1.62-5.508 1.824-8.361.164-2.292-.006-4.613.26-6.895.257-2.211.639-4.41 1.006-6.606.275-1.651 1.163-4.058-.5-5.228-1.527-1.156-2.999-.052-4.271.819-2.385 1.632-4.745 3.3-7.138 4.92-1.784 1.208-3.676 2.239-5.429 3.498-2.363 1.697-4.565 3.667-6.304 6.011-2.992-3.937-7.163-6.189-11.237-8.786-1.741-1.11-6.605-5.208-7.454-5.897-.769-.625-1.725-1.497-2.802-1.34-2.311.338-2.249 2.53-2.11 4.335.214 2.792.467 5.58.673 8.373.375 5.077.245 10.025 2.234 14.843-4.569.649-8.452 2.803-10.508 3.95l-1.716.967c-3.261 1.82-6.959 2.868-10.426 4.221-1.801.703-2.596 3.188-.86 4.352 1.398.938 3.022 1.588 4.537 2.305 2.09.989 4.239 1.906 6.271 3.013 3.966 2.16 8.01 4.182 12.542 4.809-1.108 2.649-1.62 5.508-1.824 8.36-.164 2.292.006 4.613-.26 6.894-.257 2.211-.639 4.41-1.006 6.606-.275 1.651-1.163 4.058.5 5.228 1.528 1.157 2.999.052 4.271-.818 2.385-1.632 4.745-3.3 7.138-4.92 1.784-1.208 3.676-2.239 5.43-3.498 2.363-1.697 4.565-3.667 6.304-6.011 2.992 3.937 7.164 6.188 11.237 8.786 1.744 1.112 3.33 2.514 4.928 3.821.846.692 1.685 1.393 2.533 2.082.763.62 1.709 1.481 2.776 1.334 2.313-.318 2.267-2.541 2.128-4.344-.213-2.79-.466-5.578-.672-8.368-.375-5.075-.246-10.022-2.234-14.838 4.569-.649 8.452-2.803 10.507-3.95l1.716-.968c2.114-1.18 4.449-1.97 6.708-2.823 1.14-.431 4.828-1.884 5.235-2.633.451-.83.496-2.161-.275-2.829-1.541-1.335-3.82-2.073-5.632-2.929-1.964-.928 6.155 2.908 0 0zm-25.91-23.553c1.889-1.135 3.679-2.431 5.49-3.685-.277 1.756-.598 3.534-.684 5.312-.077 1.587-.027 3.177-.102 4.764-.158 3.354-.704 6.867-2.557 9.74-2.85.496-5.627 1.682-8.177 3.02.093-.659.238-1.695-.301-2.218-.714-.694-1.965.269-2.534.708-.053-2.766-.354-5.644-1.188-8.291 2.273-4.661 7.399-7.753 10.053-9.35.492-.296-2.654 1.597 0 0zm-9.526 25.66c1.917 0 1.917 2.972 0 2.972s-1.917-2.972 0-2.972zM35.911 21.732c3.319 2.219 6.893 3.904 9.573 6.971 3.244 3.711 3.776 8.86 3.503 13.616-.615-.714-4.323-5.048-5.164-2.737-.683 1.879.526 4.633 1.168 6.39a29.923 29.923 0 0 1-6.905-4.464c-2.353-2.026-3.884-4.46-4.727-7.45-.693-2.46-.936-5.022-1.012-7.569-.079-2.631-.259-5.238-.475-7.863 1.555 1.259 3.123 2.493 4.039 3.106.492.329-.916-.613 0 0zm12.206 27.695c0 1.917-2.972 1.917-2.972 0 0-1.916 2.972-1.916 2.972 0zm-28.368 3.359c-1.927-1.068-3.945-1.97-5.936-2.912 1.988-.764 3.991-1.515 5.855-2.556l1.716-.968c3.327-1.856 7.12-3.609 10.948-3.512 1.85 2.199 4.247 4.016 6.666 5.545-.596.271-1.563.741-1.571 1.519-.008.825 1.061 1.326 1.685 1.606-2.448 1.464-4.896 3.204-6.813 5.333-4.984.122-9.941-2.61-12.55-4.055-.502-.278 2.609 1.445 0 0zM48.006 66.06c-.954 3.958-4.064 7.007-7.262 9.309-2.956 2.128-6.131 3.962-9.129 6.038.422-2.67.698-5.258.73-7.959.028-2.41.155-4.835.711-7.189.633-2.682 1.857-5.17 3.932-7.026a30.394 30.394 0 0 1 7.719-5.033c-.381 1.036-.724 2.091-.966 3.169-.196.87-.519 2.158-.024 2.989 1.061 1.779 4.453-2.108 5.104-2.822a30.253 30.253 0 0 1-.815 8.524c-.195.811.773-3.204 0 0zm-.131-11.029c-1.917 0-1.917-2.972 0-2.972s1.917 2.972 0 2.972zm.639-8.576c0-1.917 2.972-1.917 2.972 0s-2.972 1.917-2.972 0zm3.611 8.576c-1.917 0-1.917-2.972 0-2.972s1.917 2.972 0 2.972zM64.089 78.27c-4.258-2.847-9.179-5.04-11.554-9.905.878-2.721 1.232-5.66 1.307-8.511.542.441 1.584 1.304 2.344.873.649-.368.58-1.412.525-2.033 2.544 1.399 5.338 2.639 8.203 3.18 1.805 2.954 2.434 6.493 2.657 9.9.21 3.202.293 6.398.556 9.601-1.554-1.258-3.121-2.492-4.038-3.105-.492-.329.917.613 0 0zm17.39-26.198c-.338.166-.722.373-1.147.611l-1.716.968c-3.545 1.978-7.54 3.838-11.706 3.468-3.664-.326-7.428-2.358-10.408-4.427 1.301-.216 2.603-.485 3.857-.897.843-.277 2.285-.713 2.602-1.673.658-1.987-4.707-2.868-5.832-3.092a30.488 30.488 0 0 1 7.572-3.424c2.756-.813 5.729-.442 8.433.391 2.287.704 4.445 1.752 6.538 2.9 2.13 1.167 4.321 2.194 6.517 3.231-1.868.716-3.721 1.456-4.71 1.944-.338.166.989-.488 0 0z"/>
    </symbol>
    <symbol id="icon-clock" viewBox="0 0 59.3 59.3">
      <path class="st0" d="M54.8 14.1c-.1-.2-.2-.3-.3-.5-.4-.5-1-.8-1.6-.8-1.2 0-2.1.9-2.1 2.1v.1c0 .3.1.6.2.9 0 .1.1.1.1.2 0-.1-.1-.1-.1-.2l.1.1c.1.2.3.4.4.6 0 .1.1.1.1.2.2.4.5.8.7 1.3 0 0 0 .1.1.1l.3.6c.1.1.1.2.2.4s.2.4.2.6c.1.2.2.4.2.6.1.2.2.5.3.7.1.2.1.4.2.6.1.2.1.3.2.5s.1.5.2.7c0 .1.1.3.1.4.1.3.2.6.2 1 0 .1.1.3.1.4 0 .3.1.5.1.8 0 .1 0 .2.1.3.1.4.1.7.1 1.1v.3c0 .3.1.6.1.9v1.5C55 43.6 43.6 55 29.6 55c-14 0-25.4-11.4-25.4-25.4 0-6.8 2.6-13.2 7.4-18 4.8-4.8 11.2-7.4 18-7.4h1.6c.3 0 .5 0 .8.1h.4c.3 0 .5.1.8.1.1 0 .3 0 .4.1.3 0 .6.1.9.2h.2c.4.1.8.2 1.1.3.1 0 .2.1.3.1.3.1.5.1.8.2.1 0 .3.1.4.1.2.1.5.2.7.2.1 0 .3.1.4.1l.8.4c.1 0 .2.1.3.1.3.1.7.3 1 .5.1 0 .2.1.2.1.3.1.5.3.8.4.1.1.2.1.4.2s.4.2.6.4c.2.1.3.1.5.2s.4.3.6.4c.1.1.2.2.4.2.2.2.5.3.7.5.1 0 .1.1.2.1s.1.1.2.2h.1c-.1 0-.2-.1-.3-.2.1.1.2.1.3.2.1 0 .1.1.2.1s.1 0 .2.1H46.2c1.2 0 2.1-.9 2.1-2.1 0-.6-.2-1.1-.6-1.5-.2-.1-.3-.2-.5-.3-5-3.6-11-5.7-17.6-5.7C13.3 0 0 13.3 0 29.6 0 46 13.3 59.3 29.6 59.3 46 59.3 59.3 46 59.3 29.6c0-5.7-1.7-11-4.5-15.5zM33.5 41.5c-.1.1-.1.1 0 0z"/><path class="st0" d="M46.1 27.5H31.4v-.1-8.6c0-2.5-3.8-2.5-3.8 0V29.6c0 .6.2 1 .5 1.3.3.3.8.5 1.3.5h16.7c2.5 0 2.5-3.9 0-3.9z"/>
    </symbol>
    <symbol id="icon-deer" viewBox="0 0 122.8 179.8">
      <path d="M0 105.3l5.7-6.1 18.4-12.5 2.6-4.9 8.3-3.1v-1.5l-11.9-1-8.4-3.8-4.9-5.3-2.7-8.7 4.4 7.7 4.8 3.9 4.7 1.7 2.7.4-.9-4.4-2.2-4.1-2.8-4.7-4.3-2.1 6.1 1.4 4.2 4.1 3.2 4.9 3.1 3.7 3.6 1.1 5.4-.4 14.7-8.8 6.4-8.9 1.1-17.7 4.1-11.3 9.2-11.3-6.4 13.6-.8 10.3 4.8 12.9 1.9 1 10-6.8 7.8-12.1L94 17.9l-2.1-9.5L87.6 0l6 7.3L98 18.5l.8 15.4-7.3 14.6-8.2 7.9-12.4 8.3-12.6 5.9-11.9 3.9-1.2 2.4 14.6-3.1 17.3-.5-13.1 12 3.9.4 15.2 17.1-4.4-1.7L97 124.3l-9.8-4.6 35.6 34.8-12.5-3.4-30.7-4.9 14.9 12.6-16.2-5-13.4.3-9 4.7-5.9 15.7-.3-10.4L38 179.8l-1.4-33.5-3.3 5.7-1.8-24.3 1.5-7 12.7-3.1 10.2-3.7 4.3-9-2.9-7.8 1.3 7.4-4.3 7.2-9.5 2.9-13.2 2.5-11.3-.4-5.1 2.9-4.6.3-6.7-4.7-1.2-6.7z"/>
    </symbol>
    <symbol id="icon-kommandantemblem" viewBox="0 0 142.6 191">
      <path id="XMLID_2_" class="st0" d="M0 86.2V120l71.1 71 71.5-71V86.2l-71.5 71.6z"/><path id="XMLID_1_" class="st1" d="M0 18.6v57.5l71.1 71.1 71.1-71.1V18.6C121.5 7.1 97.3 0 71.1 0 45.4 0 21.2 7.1 0 18.6m71.1 95.3l-68.6-69C22.2 31.3 45.8 23.7 71 23.7c25.7 0 49.4 8.1 68.5 21.2l-68.4 69z"/><path class="st2" d="M51.1 45.4h36M51.4 56h36M51.1 66.7h36"/>
    </symbol>
    <symbol id="icon-menu-close" viewBox="0 0 97 94">
      <path d="M0 0v94h97V0H0zm90 87H7V7h83v80z"/><path d="M64.763 68.214L27.287 30.737l4.95-4.95 37.476 37.477z"/><path d="M69.714 30.737L32.237 68.213l-4.95-4.95 37.477-37.476z"/>
    </symbol>
    <symbol id="icon-menu-open" viewBox="0 0 97 94">
      <path d="M0 0v94h97V0H0zm90 87H7V7h83v80z"/><path d="M22 63h53v7H22zM22 43h53v7H22zM22 23h53v7H22z"/>
    </symbol>
    <symbol id="icon-pdf" viewBox="0 0 168.292 195">
      <path d="M5.96 106.693c2.82-.479 6.78-.84 12.359-.84 5.64 0 9.66 1.08 12.359 3.239 2.58 2.04 4.32 5.399 4.32 9.358 0 3.961-1.32 7.32-3.72 9.601-3.12 2.94-7.74 4.261-13.14 4.261-1.2 0-2.28-.061-3.12-.181v14.459H5.96v-39.897zm9.06 18.359c.78.181 1.74.239 3.06.239 4.86 0 7.86-2.459 7.86-6.6 0-3.719-2.58-5.938-7.14-5.938-1.86 0-3.12.181-3.78.358v11.941zM40.82 106.693c3.36-.541 7.74-.84 12.359-.84 7.68 0 12.66 1.379 16.561 4.319 4.2 3.118 6.839 8.101 6.839 15.239 0 7.738-2.82 13.078-6.72 16.379-4.26 3.539-10.739 5.22-18.659 5.22-4.74 0-8.1-.3-10.379-.601v-39.716zM50 139.691c.78.18 2.04.18 3.18.18 8.28.062 13.68-4.5 13.68-14.158.06-8.398-4.86-12.84-12.72-12.84-2.04 0-3.36.182-4.14.359v26.459zM82.58 106.152h24.718v7.5H91.759v9.24h14.519v7.439H91.759v16.259h-9.18l.001-40.438zM113.36 44.452h29.142c-8.744-12.276-25.854-31.729-35.533-40.235v32.901c-.001 4.044 2.866 7.334 6.391 7.334z"/><path d="M147.98 79.933V54.878h-34.62c-8.532 0-15.478-7.967-15.478-17.76V0H13.115C7.075 0 2.18 5.617 2.18 12.549v38.624h.023v36.759h159.378v75.286H2.204v18.887c.24 6.686 5.025 12.025 10.912 12.025h123.932c6.039 0 10.934-5.619 10.934-12.549v-10.363h21.602V79.933H147.98z"/>
    </symbol>
    <symbol id="icon-print" viewBox="0 0 64.2 65.6">
      <path d="M61.7 20.4h-8.2v-7.1-.2c0-.7-.3-1.3-.7-1.8l-.2-.2L41.6.6h-.1c-.1-.1-.3-.2-.5-.3 0 0-.1 0-.1-.1-.2-.1-.4-.2-.6-.2H13.8c-1.4 0-2.5 1.1-2.5 2.5v17.9H2.5c-1.4 0-2.5 1.1-2.5 2.5v23.5c0 1.4 1.1 2.5 2.5 2.5h8.7v14.3c0 1.4 1.1 2.5 2.5 2.5H51c1.4 0 2.5-1.1 2.5-2.5V48.9h8.2c1.4 0 2.5-1.1 2.5-2.5V22.9c0-1.4-1.1-2.5-2.5-2.5zM42.3 8.3l2.5 2.3h-2.5V8.3zM16.2 5h21v8.1c0 1.4 1.1 2.5 2.5 2.5h8.7v4.8H16.2V5zm32.3 55.6H16.2V41.2h32.3v19.4zm10.7-16.7h-5.7v-5.2c0-1.4-1.1-2.5-2.5-2.5H13.7c-1.4 0-2.5 1.1-2.5 2.5v5.2H5V25.4h54.2v18.5z"/><path d="M22.9 57.4h18.9c1.4 0 2.5-1.1 2.5-2.5s-1.1-2.5-2.5-2.5H22.9c-1.4 0-2.5 1.1-2.5 2.5s1.1 2.5 2.5 2.5zM22.9 49.4h18.9c1.4 0 2.5-1.1 2.5-2.5s-1.1-2.5-2.5-2.5H22.9c-1.4 0-2.5 1.1-2.5 2.5s1.1 2.5 2.5 2.5z"/>
    </symbol>
    <symbol id="icon-sandwich" viewBox="0 0 72.9 59.2">
      <path d="M72.7 36.2c0-.2 0-.2-.1-.3v-.1c0-.1-.1-.2-.1-.3L61.2 20c-.5-1.1-3.2-6.2-10.6-7.7.6-2.1.2-4.6-1.4-6.6-.9-1.1-2-1.9-3.2-2.5V1.5c0-.8-.7-1.5-1.5-1.5S43 .7 43 1.5v1.1c-1.2.1-2.2.4-3.1 1.1-2.5 1.9-2.8 5.6-1 8.6C25 14.2 5.4 19.6 4.4 19.8c0 0-.1 0-.1.1h-.1c-.1 0-.2.1-.2.1-.1.1-.2.1-.2.2l-.1.1c0 .1-.1.1-.1.2v.1c0 .1 0 .1-.1.2V28.4c-1.7.9-3.6 2.2-3.5 3.8 0 .5.3 1.5 1.7 2 .1 0 .2.1.3.1.2.2.5.4.8.4v6.8c0 .7.5 1.3 1.1 1.5l65.4 16.2h.4c.3 0 .6-.1.8-.3.4-.2.6-.6.6-1l1.1-8.7v-.1-.2V48.6l-.7-2.7c.2-.2.3-.5.3-.7l1.1-8.9v-.2c-.2.2-.2.1-.2.1zM49.6 46.8c-.3.2-.5.5-.7.7-.2.3-.4.4-.5.5l-.3-.6c-.1-.2-.1-.4-.3-.6 0 0-.1-.2-.3-.4-.4-.5-1.3-1.6-2.2-2.6-.6-.7-1.2-1.3-1.7-1.9-.5-.5-1.3-1.5-2.5-1.2-.8.2-1.1.8-1.3 1.2-.1.1-.1.3-.1.4-.6.3-1.2.5-2.3.2-.2-.2-.3-.6-.4-1.3-.1-.6-.1-1.4 0-2.1l5.8 1.1 4.1 1-.2 1.5c0 .2 0 .5.1.7.2.5.6.9 1.2 1h.2c.5 0 .9-.2 1.2-.6l.3-.6.2-1.2 6.9 1.7c-1.1.1-2.2.4-3.2.9-1.6.4-2.9 1.2-4 2.2zM27 41.3c-.3.2-.6.3-.8.3h-.3c-.1 0-.1-.1-.2-.1-.3-.1-.7-.4-1-.8-.2-.2-.4-.5-.5-.8-.4-.9-1.2-1.7-2-2.4-1.3-1.1-2.9-1.8-4-1.8-.4 0-.9.1-1.4.4-.3.2-.6.6-.7 1.2 0 .2-.1.3-.7.6-.2.1-.3.1-.3.1-.3-.2-.7-1.3-.9-1.8l-.1-.2c-.1-.3-.2-.5-.4-.7-.9-1.5-2.4-2.6-4.7-3.1-1.1-.2-2.3-.4-3.7-.4H3.5c.3-.2.7-.4 1-.6.2-.1.4-.3.5-.4l17.9 4.4 4.1 1h-.6l5.4 1.5c-.6.4-1.3 1-2.1 1.6-.7.5-1.4 1.1-2.1 1.5-.2.2-.4.3-.6.5zm38.1 4.9c-.7-.3-1.1-.6-1.6-.9-.1-.1-.3-.1-.4-.2l4 1c0 .2 0 .4-.1.6 0 .2-.1.5-.1.6l-.1-.1c-.3-.2-.7-.5-1.2-.8-.2 0-.4-.1-.5-.2zm3.8-3.3l-.1.6-1.4-.4-4.8-1.2-.7-.1-14-3.4L6.2 28v-4.7L41 32.2h.1l13.5 2.2 3.3.5c.8.1 1.5-.4 1.7-1.1v-.1c.1-.8-.4-1.6-1.2-1.7l-7.7-1.3-9-1.5-30.9-7.9c7.6-1.9 21.2-5.2 30.8-6.2.5.3 1 .6 1.5.7v4.7c0 .8.7 1.5 1.5 1.5s1.5-.7 1.5-1.5v-4.4c1-.1 1.9-.5 2.7-1.1 0 0 .1 0 .1-.1 7.5 1.1 9.6 6 9.7 6.3 0 .1.1.2.2.3l4.4 6.1 2.5 3.4.6.9 1.5 2.1-1.1-.2-1.6-.3-1.4-.3c-.7-.2-1.4.3-1.7.9V34.4c-.2.8.4 1.6 1.2 1.8l2.7.5 1.6.3 1.6.3.5.1-.1 1.2-.6 4.3zM41.7 11.4c-1.4-1.8-1.4-4.2-.1-5.2.4-.3.8-.4 1.3-.5v.4c0 .8.7 1.5 1.5 1.5.6 0 1.2-.4 1.4-.9h.1c.3.2.6.5.8.8 1.1 1.4 1.3 3.2.7 4.4-.2.3-.4.6-.7.8-.2.2-.5.3-.8.4-.2.1-.5.1-.8.1-.7 0-1.5-.3-2.2-.7-.2-.1-.4-.3-.6-.5l-.6-.6zm26.4 44.8L5.5 40.7v-4.5l3.8 1c.6 1.1 1.8 2.1 3.8 2.8.3.3.7.6 1.1.8.5.2 1.1.3 1.9 0 .5.1 1.1.2 1.7.2 1.5.2 2.8.2 3.8.2.8 1.6 2.1 2.8 3.5 3.2.4.1.7.2 1.1.2.8 0 1.6-.2 2.4-.7.5-.3 1-.7 1.6-1.1 3 1.8 7.3 3.4 13.5 4 .7.8 1.2 1.5 1.5 1.8.3.7.9 2.2 2.4 2.5.2 0 .4.1.6.1 1 0 1.9-.5 2.8-1.6.7-.8 1.7-1.5 2.7-2l10.7 1.8c.2.1.3.2.5.3.7.5 1.9 1.4 3.5.3.2-.1.3-.3.4-.4l-.7 6.6z"/>
    </symbol>
    <symbol id="icon-search" viewBox="0 0 63 63">
      <path d="M43 37l-1.6 1.6-2.5-2.5C42.1 32.3 44 27.3 44 22 44 9.9 34.1 0 22 0S0 9.9 0 22s9.9 22 22 22c5.3 0 10.3-1.9 14.1-5.1l2.5 2.5-1.8 1.8L57 63l6-6-20-20zm-21 3c-9.9 0-18-8.1-18-18S12.1 4 22 4s18 8.1 18 18-8.1 18-18 18z"/>
    </symbol>
    <symbol id="icon-silhouette" viewBox="0 0 121.8 319.8">
      <path d="M31 313.6s-6.7-.7-7 2c-.2 2.7 1 4.2 3.5 4.2s29.8-1.5 29.8-1.5l9-1.7s-1-8.3 0-14.7c1-6.5 3.2-.5 3.5-12.4s-.5-48.7-3.5-62.2 3.5-40 3.5-40 8.2-20.4-7.3-46.5c0 0-3.2-.5-3-4.2 0 0 3.5-2.2 3-5s-1.2-7-.2-12.9c1-6 5.7-13.2 4.5-23.6s-9-17.4-9-17.4-2.5-2.2 2-7.2 37.5-45 41-46.7c3.5-1.7 6-6.7 6-6.7l14.9-13.2s0-4-1.7-3.7-2.7-.5-5 2.7c-2.2 3.1-16.1 14.8-22.1 20-6 5.2-23.1 21.9-23.1 21.9s-.7 4.7-6.7 1C57.1 42 35.2 25.6 24 27.1c0 0-5.9-1.2-2.5 7.5s-1.1 6.2-1.1 6.2v5.6s-.7 1.8-4.4 1.8 6.8-.2 6.8 2.7c0 2.8-3.8 3.5-3.3 6.8s2.3 12.8 3.6 13.6c1.3.8 5 .2 5 .2s4.8 1 2.2 4.5c-2.7 3.5-4.8 4.1-5.5 5.5-.7 1.3-2.2 2.5-5 3.8s-7.1 7-7 11.8 1.3 19.6-4.8 18.6c-6-1.2-8-1.1-8 1.3 0 2.3.7 8 .7 8s2 4.3 4.1 5.8c2.2 1.5 1.8 3.5 1.8 3.5s4-.7 5.3 0c1.3.7 11.1 11.3 10.9 13.6-.2 2.3-.5 45.1 0 48.4.5 3.3 8.1 30.5 10.3 35.3 2.2 4.8 2.7 18.4 2.7 18.4s1.8 4 1.8 5.1c0 1.2 2.7 21.9 3.8 25.4 1.2 3.5.5 4.6-.2 6.3s-1.7 4.8-.2 7 2.3 6.5.8 8.8c-1.5 2.3-.8 3.5-2.2 4.3-1.1.7-5 6.7-8.6 6.7z"/>
    </symbol>
    <symbol id="icon-soup" viewBox="0 0 79 89.1">
      <path d="M39.6.038c-.6 0-1.2.2-1.7.6-1.4 1-2.5 2.4-3.2 3.9-.7 1.6-1 3.3-.8 5 .3 3.3 2 5.7 3.4 7.8 1.3 2 2.3 3.7 2.5 5.2.1.8-.1 1.6-.4 2.2-.3.7-.8 1.3-1.4 1.8-1.2.9-1.5 2.6-.7 3.8.9 1.2 2.6 1.5 3.8.7 0 0 .1 0 .1-.1 1.4-1 2.5-2.4 3.2-3.9.7-1.6 1-3.3.8-5-.3-3.3-2-5.7-3.4-7.8-1.3-2-2.3-3.7-2.5-5.2-.1-.8.1-1.6.4-2.2.3-.7.8-1.3 1.4-1.8 1.2-.9 1.5-2.6.7-3.8-.5-.8-1.3-1.2-2.2-1.2zm-17 6.3c-.4 0-.9.1-1.2.3-1.4.8-2.6 1.8-3.4 3.1-.8 1.3-1.2 2.9-1 4.5.4 3 2.3 4.9 3.7 6.4 1.3 1.5 2.2 2.8 2.3 3.4 0 .3 0 .6-.2 1s-.7.8-1.3 1.2c-1.3.7-1.9 2.4-1.2 3.7.7 1.3 2.4 1.9 3.7 1.2h.1c1.4-.8 2.6-1.8 3.4-3.1.8-1.3 1.2-2.9 1-4.5-.4-3-2.3-4.9-3.7-6.4-1.3-1.5-2.2-2.8-2.3-3.4 0-.3 0-.6.2-1s.7-.8 1.3-1.2c1.3-.7 1.9-2.4 1.2-3.7-.5-.9-1.5-1.5-2.6-1.5zm33.6 0c-.4 0-.9.1-1.2.3-1.4.8-2.6 1.8-3.4 3.1-.8 1.3-1.2 2.9-1 4.5.4 3 2.3 4.9 3.7 6.4 1.3 1.5 2.2 2.8 2.3 3.4 0 .3 0 .6-.2 1s-.7.8-1.3 1.2c-1.3.7-1.9 2.4-1.2 3.7.7 1.3 2.4 1.9 3.7 1.2h.1c1.4-.8 2.6-1.8 3.4-3.1.8-1.3 1.2-2.9 1-4.5-.4-3-2.3-4.9-3.7-6.4-1.3-1.5-2.2-2.8-2.3-3.4 0-.3 0-.6.2-1s.7-.8 1.3-1.2c1.3-.7 1.9-2.4 1.2-3.7-.5-.9-1.5-1.5-2.6-1.5zm-16.7 27.3c-10.7 0-20.3 1.9-27.5 5.1-3.6 1.6-6.5 3.5-8.6 5.7-2.1 2.2-3.4 4.8-3.4 7.6 0 .3 0 .7.1 1 .2 2.6 1.1 10 5.2 17.4 5.1 9.2 15.2 18.6 34.3 18.6 19.1 0 29.2-9.3 34.3-18.6 4.1-7.4 5-14.8 5.2-17.4 0-.3.1-.6.1-1 0-2.8-1.3-5.4-3.4-7.6-2.1-2.2-5.1-4.1-8.6-5.7-7.4-3.2-17-5.1-27.7-5.1zm0 3.1c9.4 0 17.9 1.7 24.1 4.4 3.1 1.4 5.6 3 7.4 4.9 1.8 1.8 2.8 4 2.8 6.2v.9c-.2 1.9-1.2 3.7-2.7 5.3-1.8 1.9-4.3 3.5-7.4 4.9-6.2 2.8-14.7 4.4-24.1 4.4s-17.9-1.7-24.1-4.4c-3.1-1.4-5.6-3-7.4-4.9-1.5-1.6-2.5-3.4-2.7-5.3v-.1-.8-.1c0-2.2 1-4.3 2.8-6.2 1.8-1.9 4.3-3.5 7.4-4.9 6-2.7 14.5-4.3 23.9-4.3zm0 3.7c-8.9 0-17 1.7-22.6 4.1-2.8 1.2-4.9 2.7-6.2 4.1-1.3 1.4-1.8 2.5-1.8 3.6v.5c.1 1 .6 2 1.7 3.2.5.6 1.2 1.1 2 1.7 0-1.8.9-3.6 2.2-5.1 1.4-1.6 3.4-2.9 5.8-4.1 4.9-2.3 11.4-3.7 18.7-3.7 7.3 0 13.9 1.4 18.7 3.7 2.4 1.1 4.4 2.5 5.8 4.1 1.4 1.5 2.2 3.3 2.2 5.1.8-.6 1.5-1.2 2-1.7 1.1-1.2 1.6-2.2 1.7-3.2v-.4-.1c0-1.1-.5-2.2-1.8-3.6s-3.4-2.8-6.2-4.1c-5.2-2.5-13.3-4.1-22.2-4.1zm0 8c-6.8 0-13 1.3-17.1 3.3-2.1 1-3.7 2.1-4.6 3.2-1 1.1-1.3 1.9-1.3 2.7v.4c.1.6.4 1.3 1 2.1 5.5 2.3 13.4 3.9 22 3.9 8.7 0 16.5-1.5 22-3.9.7-.8.9-1.5 1-2.1v-.3-.1c0-.8-.3-1.7-1.3-2.7-1-1.1-2.6-2.2-4.6-3.2-4.1-2-10.3-3.3-17.1-3.3z"/>
    </symbol>
    <symbol id="icon-tapas" viewBox="0 0 140 105">
      <path d="M137.1 87.5H2.9c-1.6 0-2.9 1.4-2.9 2.9 0 1.6 1.3 2.9 2.9 2.9h134.2c1.6 0 2.9-1.4 2.9-2.9 0-1.6-1.3-2.9-2.9-2.9z"/><path d="M49.6 84.6C49.6 76.5 43.1 70 35 70s-14.6 6.5-14.6 14.6c0 2.7.7 5.2 2.1 7.5l5-3c-.8-1.3-1.2-2.9-1.2-4.5 0-4.8 3.9-8.8 8.8-8.8s8.8 3.9 8.8 8.8c0 1.6-.4 3-1.2 4.4l5.1 2.9c1.1-2.2 1.8-4.7 1.8-7.3z"/><path d="M72.9 84.6c0-8.1-6.5-14.6-14.6-14.6s-14.6 6.5-14.6 14.6c0 2.7.7 5.2 2.1 7.5l5-3c-.8-1.3-1.2-2.9-1.2-4.5 0-4.8 3.9-8.8 8.8-8.8s8.8 3.9 8.8 8.8c0 1.6-.4 3-1.2 4.4l5.1 2.9c1.1-2.2 1.8-4.7 1.8-7.3z"/><path d="M96.3 84.6c0-8.1-6.5-14.6-14.6-14.6s-14.6 6.5-14.6 14.6c0 2.7.7 5.2 2.1 7.5l5-3c-.8-1.3-1.2-2.9-1.2-4.5 0-4.8 3.9-8.8 8.8-8.8 4.8 0 8.8 3.9 8.8 8.8 0 1.6-.4 3-1.2 4.4l5.1 2.9c1.1-2.2 1.8-4.7 1.8-7.3z"/><path d="M119.6 84.6c0-8.1-6.5-14.6-14.6-14.6s-14.6 6.5-14.6 14.6c0 2.7.7 5.2 2.1 7.5l5-3c-.8-1.3-1.2-2.9-1.2-4.5 0-4.8 3.9-8.8 8.8-8.8s8.8 3.9 8.8 8.8c0 1.6-.4 3-1.2 4.4l5.1 2.9c1.1-2.2 1.8-4.7 1.8-7.3z"/><path d="M107.9 67.1c0-8.1-6.5-14.6-14.6-14.6S78.8 59 78.8 67.1c0 2.7.7 5.2 2.1 7.5l5-3c-.8-1.3-1.2-2.9-1.2-4.5 0-4.8 3.9-8.8 8.8-8.8 4.8 0 8.8 3.9 8.8 8.8 0 1.6-.4 3-1.2 4.4l5.1 2.9c1-2.2 1.7-4.7 1.7-7.3z"/><path d="M84.6 67.1c0-8.1-6.5-14.6-14.6-14.6S55.4 59 55.4 67.1c0 2.7.7 5.2 2.1 7.5l5-3c-.8-1.3-1.2-2.9-1.2-4.5 0-4.8 3.9-8.8 8.8-8.8s8.8 3.9 8.8 8.8c0 1.6-.4 3-1.2 4.4l5.1 2.9c1.1-2.2 1.8-4.7 1.8-7.3z"/><path d="M61.3 67.1c0-8.1-6.5-14.6-14.6-14.6S32.1 59 32.1 67.1c0 2.7.7 5.2 2.1 7.5l5-3c-.8-1.3-1.2-2.9-1.2-4.5 0-4.8 3.9-8.8 8.8-8.8s8.8 3.9 8.8 8.8c0 1.6-.4 3-1.2 4.4l5.1 2.9c1.1-2.2 1.8-4.7 1.8-7.3zM21.7 98.7c7 4.7 10.6 6.3 16.2 6.3h64.2c5.6 0 9.2-1.6 16.2-6.3 6.1-4.1 8.9-5.3 13-5.3h2.9v-5.8h-2.9c-5.6 0-9.2 1.6-16.2 6.3-6.1 4.1-8.9 5.3-13 5.3H37.9c-4.1 0-6.9-1.3-13-5.3-7-4.7-10.6-6.3-16.2-6.3H5.8v5.8h2.9c4.1-.1 6.9 1.2 13 5.3zM70.1 6.5c1.8 2.4 1.8 5.2-1.6 9.1-5.3 6-5.3 11.9-1.9 16.5.9 1.1 1.7 1.9 2.4 2.4 1.3.9 3.1.6 4.1-.7.9-1.3.6-3.1-.7-4.1-.2-.2-.7-.6-1.1-1.2-1.8-2.4-1.8-5.2 1.6-9.1 5.3-6 5.3-11.9 1.9-16.5C73.9 1.8 73 1 72.3.5c-1.3-.9-3.1-.6-4.1.7-.9 1.3-.6 3.1.7 4.1.2.1.7.6 1.2 1.2zM52.6 18.1c1.8 2.4 1.8 5.2-1.6 9.1-5.3 6-5.3 11.9-1.9 16.5.9 1.1 1.7 1.9 2.4 2.4 1.3.9 3.1.6 4.1-.7.9-1.3.6-3.1-.7-4.1-.2-.2-.7-.6-1.1-1.2-1.8-2.4-1.8-5.2 1.6-9.1 5.3-6 5.3-11.9 1.9-16.5-.9-1.1-1.7-1.9-2.4-2.4-1.3-.9-3.1-.6-4.1.7-.9 1.3-.6 3.1.7 4.1.1.2.6.6 1.1 1.2zM87.6 18.1c1.8 2.4 1.8 5.2-1.6 9.1-5.3 6-5.3 11.9-1.9 16.5.9 1.1 1.7 1.9 2.4 2.4 1.3.9 3.1.6 4.1-.7.9-1.3.6-3.1-.7-4.1-.2-.2-.7-.6-1.1-1.2-1.8-2.4-1.8-5.2 1.6-9.1 5.3-6 5.3-11.9 1.9-16.5-.9-1.1-1.7-1.9-2.4-2.4-1.3-.9-3.1-.6-4.1.7-.9 1.3-.6 3.1.7 4.1.1.2.6.6 1.1 1.2z"/>
    </symbol>
    <symbol id="icon-wineglass" viewBox="0 0 98.8 180">
      <path d="M87.2 177c0 1.7-1.3 3-3 3H14.6c-1.7 0-3-1.3-3-3s1.3-3 3-3h31.8v-54.4C.5 117.7 0 70.8 0 70.3v-.4L9.3 2.6C9.5.9 11-.2 12.7 0c1.6.2 2.8 1.7 2.6 3.4L6 70.5c.1 3.5 1.6 43.2 43.4 43.2 41.9 0 43.4-39.6 43.4-43.2L83.5 3.4c-.2-1.7.9-3.2 2.6-3.4 1.6-.2 3.2.9 3.4 2.6l9.3 67.7c0 .5-.5 47.4-46.4 49.3V174h31.8c1.7 0 3 1.3 3 3zM65.5 106.7c-.1 0-.1 0 0 0z"/><path d="M86.9 59h-75v.2l-.3 2.5-.8 5.3-.3 2.5-.2 1.2v.2c0 1.1.1 2.8.5 5 .1 1.1.3 2.2.6 3.5 2.5 11.7 10.8 30.1 38 30.1 6.3 0 11.6-1 16-2.7h.1c2.1-.8 4.1-1.8 5.9-2.9.6-.4 1.1-.7 1.7-1.1 1.2-.8 2.3-1.8 3.3-2.7.5-.5 1-.9 1.4-1.4 1-1.1 1.9-2.2 2.7-3.3.4-.5.8-1.1 1.2-1.7.8-1.3 1.6-2.6 2.2-3.9.3-.6.6-1.3.9-1.9.7-1.5 1.2-3 1.6-4.4.2-.8.4-1.5.6-2.2.5-1.8.8-3.5 1-5 .2-.9.3-1.8.3-2.5.1-1.2.2-2.1.2-2.6V71l-1.6-12zM17.4 85.3L35.1 103c-9.8-3.6-15-10.9-17.7-17.7zm21.8 19L15.9 81c-.8-2.9-1.2-5.5-1.4-7.4l31.7 31.7c-2.5-.2-4.9-.5-7-1zm10.2 1.1h-.5l.1-.1-34.7-34.7.7-5.3 39.8 39.8c-1.6.2-3.5.3-5.4.3zm8-.7L15.6 63h6.1l40.5 40.5c-1.5.5-3.1.9-4.8 1.2zm7-1.9L24.6 63h6l37.8 37.8c-1.2.8-2.6 1.4-4 2zm5.8-3.1L33.4 63h6l34.1 34.1c-1 .9-2.1 1.8-3.3 2.6zm4.7-4L42.2 63h6l29.4 29.4c-.8 1.1-1.7 2.2-2.7 3.3zm3.9-5L51.1 63h6.1l23.6 23.6c-.5 1.4-1.2 2.7-2 4.1zm2.9-6.1L60.1 63h6l17 17c-.3 1.5-.8 3-1.4 4.6zm2.7-12.2c-.1 1.4-.3 3.2-.8 5.3L69 63h14.5l.9 6.5.2 1.4c-.1.4-.1 1-.2 1.5z"/><path d="M84.5 70.9c0 .4 0 .9-.1 1.5L75 63h2.8l6.5 6.5.2 1.4z"/>
    </symbol>
    <symbol id="icon_arrowdown" viewBox="0 0 175.1 95.1">
      <path class="st7" d="M6.9 1.538c-3.3.4-5.7 3.3-5.3 6.6.1 1.4.8 2.7 1.8 3.6l58.1 58.2c2.3 2.3 6.2 2.3 8.5 0s2.3-6.2 0-8.5l-58.1-58.1c-1.4-1.3-3.2-2-5-1.8zm160 0c-1.4.2-2.6.8-3.6 1.8l-75.8 75.8-3.6-3.6c-2.3-2.3-6.2-2.3-8.5 0s-2.3 6.2 0 8.5l7.8 7.8c2.3 2.3 6.1 2.4 8.5 0l80-80c2.4-2.3 2.4-6.1.1-8.5-1.2-1.4-3.1-2-4.9-1.8z"/>
    </symbol>
    <symbol id="icon_warm" viewBox="0 0 100 100">
      <path d="M18.9 80h62.2c5.25 0 7.85-2.5 8.9-7.5H10c1.05 5 3.65 7.5 8.9 7.5zm61-12.5c.5-5.75-3.5-9.85-9.05-10.4-.85-4.65-4.95-8.25-9.85-8.25-.9 0-1.75.1-2.55.35A9.889 9.889 0 0 0 50 44.5c-3.55 0-6.7 1.85-8.45 4.7-.8-.25-1.65-.35-2.55-.35-4.9 0-9.05 3.6-9.85 8.25-5.55.6-9.5 4.7-9 10.4zM50.05 40c-1.65 0-2.9-1.35-2.9-3.2 0-1.5 1.05-3.95 1.45-6.95-2.3 1.85-3.9 3.95-5.1 4.65-1.65 1.05-3.5.55-4.3-.75-.85-1.4-.25-3.2 1.45-4.2 1.2-.7 3.8-1.05 6.5-2.1-2.7-1.1-5.35-1.35-6.6-2.1-1.6-1-2.15-2.7-1.35-4.1.75-1.4 2.6-1.75 4.15-.9 1.3.7 2.9 2.9 5.25 4.75-.45-2.9-1.45-5.3-1.45-6.75 0-1.9 1.25-3.35 2.9-3.35 1.55 0 2.85 1.45 2.85 3.35 0 1.45-1 3.8-1.45 6.65 2.3-1.8 3.85-3.95 5.2-4.65 1.55-.8 3.3-.55 4.15.9.8 1.3.2 3.1-1.35 4.05-1.3.8-3.95 1.05-6.65 2.15 2.65 1.05 5.35 1.4 6.55 2.15 1.7 1 2.3 2.75 1.45 4.15-.85 1.4-2.65 1.7-4.35.75-1.25-.7-2.75-2.75-5.05-4.55.45 2.9 1.5 5.4 1.5 6.85 0 1.85-1.3 3.2-2.85 3.2zm0 0" stroke-linecap="inherit" stroke-linejoin="inherit"/>
    </symbol>
    <symbol id="logo-bg" viewBox="0 0 917.8 459.5">
      <path class="st0" d="M304.3 163.3c11.5-16 19.2-22.8 33.7-49.1 11.7-21.4 19.9-41.6 18.3-65.5-2.7-39.6-43.7-54.2-78.9-45.8-54 12.9-102.7 64.6-104 121.4-.6 26.1 4.1 49.5 20.6 56.6 10 4.3 45.3 3.3 39.8-11.6-10.8 1.6-26.1 8.9-38.5 3.3-16.4-7.3-17.1-45.5-13.5-64.4 4.5-23.6 20.9-48 34.3-61.5C233.6 28.9 267.4 8 300 9.3c20.7.8 44.6 13.2 48.5 38.1 4.1 26.3-7.7 43.9-18.8 67.8-14.2 30.7-52.6 66-69.5 82.5 8.7-39.6 19.9-86.4 27.7-126.1.9-4.5 4.8-13.2-2.3-15.5-4.8 11.1-6.2 24.2-9 37.4-5.6 26-10 52-15.5 77.2-5.9 27-11.9 46.2-31.1 58.1-4.7-8.1-8.7-17.5-18.1-18.1-12.1-.7-19.5 11.7-27.2 17.7-9.5-5.5-22.3-8.3-37.3-6.6-43.3 5-81.1 30.7-104.4 56.4-23.6 25.8-46.8 68.9-41.8 116 1.6 15.3 6.5 35.5 19.3 46 18.5 15.2 48.4 3.8 67.2-6.3 62.4-44.5 109.6-102.9 147.1-170.2 2.9 55.4-4.3 114.6-5.5 172.9-.2 7.3-2.2 17.5 5.1 22 2.4-31.7 2.3-64.6 3.9-97.2 1.6-32.4 7.3-63.9 4.1-93.9-.5-5.1-.6-9.9 1-14.8 3.8-11.6 9.3-25.5 10.7-37.5 9.2-7.8 13.8-12.9 26.4-25.8 7.9-8.2 16-15.2 23.8-26.1M191 242.7c3.6-1.6-.2-6.2-.4-9 7.2-12.9 29.3-20.1 33.7.1-13.9 9.6-41 32.3-45.9 26.8-3.8-4.9 4.5-14.6 6.7-20.2 3.2-.5 1.9 3.8 5.9 2.3m-74.4 158.7c-16.3 14-33.3 28.9-53.5 36.1-45.4 16.1-60.5-26.9-55.7-69.1 7.8-69.1 69-126.6 138.6-137.7 9.6-1.5 23-.6 33.1 4.3-3.7 8.9-13.1 20.8-6.8 31.5 13.2 7.5 38.6-16.6 56.4-25.5.7 4.1 2.6 7 3.8 10.5-25.7 55.4-68.3 109.1-115.9 149.9m120.5-159.1c-5.9-5.4.3-12.5 5.9-14.3-2.1 4.6-3.7 9.8-5.9 14.3"/><path class="st0" d="M612 264.3c7.1-14.9 14.9-29.8 22.7-44.6 7.4-14.2 18-30.1 15.1-48.4-1.4.1-2.7.1-4.1.2-11.4 35-27.5 65.6-44.3 95.7-7.4.7-12.2 2-16.5-1.7-1.6 2.4-2.5 5.6-2.9 9.2 1.8 2.9 4.9 4.4 8.5 5.4-8.4 9.1-18.4 16.8-31.1 21.9 2.5-5.7 8.8-12.7 3.3-19.1-11.6-.9-14.7 10.2-20.9 11.6.5-6.9-1.2-11.3-5.5-12.9-7.3 6.2-11.6 15.1-21.4 19 1.9-6.8 1.2-13.9-4.1-17.1-10.4 1.2-26.2 4.4-36.6 8.2 1-4.3 1.1-11.1-4.6-10.5-7.9 9.3-15.6 18.8-29.4 22.7.7-9.1 11.7-14.3 6.3-24.1-6.1-1.8-6.4 4.7-8.7 7.8-6.5 8.7-16.4 15-26.4 17.6 1.8-10.6 19.7-22.4 8.4-32.4-9 14.1-21 25.4-38.9 31.3 1.7-6.9 6.4-10.9 8.3-17.6-2.1-4.3-5.4-7.4-7.9-11.2-10.5 2.8-23.5 3.6-33.5 4.8 4.5-12.3 19-39.8 20.6-54.4 1.1-9.8.4-16.8-6.5-17.8-4.8 30-12.4 57.4-32.1 73.8-1.6.1-3.3.2-4.9.2-1.2 4.4-1.2 9.9-6.1 11-.6-8.9-6.3-13.8-12.9-13.4-16.4 1-22.1 28.8-38.1 31.3-.8-4.1.9-6 1.2-9.1 7.9-4.8 25.5-16.9 26-26.6.4-8.2-5.2-12.2-11.9-9.3-9.5 4-15 18.3-19.4 27.2-2.8-.2-9 1.2-10.2 4.6 4.3 7.2 4 20.2 13.1 22.4 2.5.6 5.4 0 8.2-1.2 12.1-5.2 19-29.8 34.9-29.5 7.8 17-19.9 22.8-17.3 33.1 2.3-.8 3 3.2 4.9 2.8 11.1-10.1 23.6-23 34-31.1-3.5 8.4-11.8 16.5-8.6 28.3 1.9-.1 3.8-.2 5.8-.3 2.9-12.6 7.6-23.5 15-31.9 7.7.9 13.5-3.8 18.8-2.5-5.6 6.6-16.1 15.5-11.1 26.8 10.3 2.7 14.6-5.7 21.8-8.4 4.6 19.2 21-.7 30.3-3-.4 4-.9 7 .5 10.7 11 6.8 18.1-5.8 27.6-7.8 1.8 16 17.8 4 24.7.6 5.8 18.2 18.4-12.2 30-10.4-3.8 4.9-8.7 8.9-7.4 18.4 10.2 6.7 17.6-6 25.1-9.3-.5 5.4 2.8 6.7 5.3 8.8 8.6-1.8 15.5-9.4 20-12.4-1.4 3.7-4.1 6.2-3.6 11.7 6.1 6.4 8.5-1 12.1-4.6 5.2-5.2 13.5-11.6 16.6-14.7-3.4 6.1-9.1 10-8.2 20.1 1.9.2 3.6.7 4.2 2.3 18.9-6.4 33.7-20.6 45.5-30.8-1.6 5.2-4.1 12.5-6.6 19.2-2 5.5-9 15.2.8 17.2 8.4-13.6 9.9-33.4 18.5-46.9 2.7-.1 138.4-28.2 214.4-30.9 74.6-2.7 66.6 2.9 68.2 2.7 14-1.9 28.6-10.1 19.6-12.4-1.6-.4-11.5.5-81.8 2.3-76.7 1.9-214.2 27.6-216.8 27.4M284.3 273c9.9-3.4-2.5 13.3-6.2 11.1-5.4-2 4.6-8.1 6.2-11.1m77.7 30.4c0-6 8.6-19.6 14.2-14.6 6 3.3-12.2 15.7-14.2 14.6m126.7 3.9c0-6.1 6.3-16 14.2-14.6 12.9 1-14.2 14.6-14.2 14.6M289.1 349.2c.2-.1.3-.1.5-.1.4 0 .8.1 1.1.4.3.3.4.6.4 1 0 .8-.5 1.4-1.5 1.7-.8.2-1.5.4-2.3.6-4.8 1.4-12 3.6-21.6 6.5 4.7 1.4 9.6 3 14.8 4.6 2.2.6 5.5 1.6 9.9 3 .2 0 .3.2.5.5s.2.5.2.6c-.1 1-.6 1.6-1.5 1.6-.4 0-1-.1-1.6-.4-.5-.2-.9-.3-1.4-.5-5.4-1.6-13.6-4.1-24.5-7.4v6.9c-.1.8-.6 1.2-1.4 1.2-.7 0-1.2-.3-1.5-1v-18.2c.3-.7.8-1 1.5-1 .8 0 1.2.4 1.4 1.3v6.8c1-.3 2.8-.8 5.5-1.5 7.5-2.3 14.7-4.4 21.5-6.6M348.1 359.3c0 1-.1 1.8-.3 2.3-.2.6-.6 1.3-1.2 2.1-1.5 2.1-3.8 3.6-6.9 4.6-2.3.7-4.8 1.1-7.6 1.1-2.5 0-4.6-.2-6.3-.7-6.5-1.9-9.7-5-9.7-9.5 0-1.7.5-3.2 1.5-4.4 3.1-3.8 7.9-5.8 14.5-5.8 1.4 0 2.5.1 3.3.1 3.5.4 6.4 1.5 8.8 3.2 2.6 2.1 3.9 4.3 3.9 7m-2.9 0c0-2.1-1.4-3.8-4.1-5.3-2-1.1-4-1.7-5.9-1.9-1.3-.1-2.3-.1-3-.1-2.3 0-4.1.2-5.5.7-.7.2-1.8.6-3 1-3.1 1.5-4.6 3.3-4.6 5.6 0 2.4 1.6 4.3 4.9 5.7 2.6 1 5.3 1.6 8.2 1.6 3 0 5.6-.5 7.8-1.4 3.4-1.4 5.2-3.4 5.2-5.9M405 367.8c-.1.8-.6 1.3-1.5 1.3s-1.4-.4-1.5-1.3v-15.1c-2.5 1.6-6.8 4.2-12.8 7.6-.2.1-.9-.2-2.3-1.1-2.4-1.4-6.1-3.6-11-6.6v15.1c-.1.8-.6 1.2-1.5 1.2-.7 0-1.1-.3-1.4-1v-18.3c.2-.6.7-.9 1.3-.9.4 0 .9.2 1.4.5 1.7 1.1 3.8 2.4 6.5 4 4.1 2.3 6.3 3.7 6.7 3.9 3-1.8 7.4-4.5 13.3-8 .2-.1.5-.3.9-.5.1-.1.3-.1.4-.1.4 0 .7.1 1 .4.3.3.4.6.4.8v18.1zM461.9 367.8c-.1.8-.6 1.3-1.5 1.3s-1.4-.4-1.5-1.3v-15.1c-2.6 1.6-6.8 4.2-12.8 7.6-.2.1-1-.2-2.3-1.1-2.4-1.4-6.1-3.6-11-6.6v15.1c-.1.8-.6 1.2-1.5 1.2-.7 0-1.2-.3-1.4-1v-18.3c.2-.6.6-.9 1.3-.9.4 0 .9.2 1.4.5 1.7 1.1 3.8 2.4 6.5 4 4.1 2.3 6.3 3.7 6.7 3.9 3-1.8 7.4-4.5 13.3-8 .2-.1.5-.3.9-.5.1-.1.3-.1.4-.1.4 0 .7.1 1 .4.3.3.4.6.4.8v18.1zM502 349.2c.1-.1.4-.2.7-.2.4 0 .6.1.9.3.2.2 1.2 1.3 2.9 3.4 3.3 3.8 7.4 8.8 12.2 14.9.2.3.2.7-.1 1.1-.3.5-.7.7-1.1.7-.5 0-1.1-.4-1.7-1.1-.5-.6-.9-1.2-1.4-1.7h-23.2c-.5.6-.9 1.2-1.4 1.8-.6.7-1.2 1.1-1.7 1.1-.4 0-.8-.2-1.1-.7-.1-.2-.2-.4-.2-.6 0-.5.3-1 .9-1.7.4-.4.8-.9 1.2-1.4 1.8-2.2 4-4.8 6.3-7.6 1.2-1.8 3.5-4.5 6.8-8.3m9.9 14.5l-9.3-11-9.1 11h18.4zM575.8 368c-.3.9-.7 1.3-1.4 1.3-.5 0-1.1-.2-1.8-.7-.5-.3-1-.7-1.5-1-3.2-1.8-7.2-4.2-12.2-7.2-6.9-4.2-11-6.6-12.2-7.4v15.1c-.1.8-.6 1.2-1.5 1.2-.7 0-1.1-.3-1.4-1V350c.4-.7.8-1 1.4-1 .5 0 1.1.3 1.8.8.6.4 1.1.8 1.7 1.2 3.3 1.8 7.3 4.2 12.1 7.2 4 2.5 8 4.9 12 7.3v-15.1c.2-.8.7-1.2 1.5-1.2.7 0 1.2.4 1.5 1V368zM632.7 359.3c0 1.6-.5 3.4-1.5 5.4-.6 1.1-1.5 2.1-2.9 3.1-1 .7-2.3 1.3-3.7 1.5-.6.1-.8.2-.6.2h-21.9c-.2 0-.5-.2-.9-.5s-.5-.6-.5-.9v-17.5c0-.3.2-.7.6-1 .4-.3.7-.5 1-.5h21.5c1.2 0 2.5.5 4.2 1.6 1.6 1.1 2.7 2.1 3.2 3.2.1.1.2.4.4.7.7 1.3 1.1 2.9 1.1 4.7m-2.9 0c0-1.4-.4-2.8-1.1-4-.9-1.5-2.2-2.5-3.8-2.9-.8-.3-1.3-.4-1.4-.4h-19.9v14.5h19.9c.2 0 .7-.1 1.4-.3 1.6-.6 2.9-1.5 3.7-2.9.8-1.1 1.2-2.5 1.2-4M672.8 349.2c.1-.1.4-.2.7-.2.4 0 .7.1.9.3.2.2 1.2 1.3 2.9 3.4 3.3 3.8 7.4 8.8 12.2 14.9.2.3.2.7-.1 1.1-.3.5-.7.7-1.1.7-.5 0-1.1-.4-1.7-1.1-.5-.6-.9-1.2-1.4-1.7H662c-.5.6-1 1.2-1.4 1.8-.6.7-1.2 1.1-1.7 1.1-.4 0-.8-.2-1.1-.7-.1-.2-.2-.4-.2-.6 0-.5.3-1 .9-1.7.4-.4.8-.9 1.2-1.4 1.8-2.2 4-4.8 6.3-7.6 1.2-1.8 3.5-4.5 6.8-8.3m9.9 14.5l-9.3-11-9 11h18.3zM746.5 368c-.2.9-.7 1.3-1.4 1.3-.5 0-1.1-.2-1.8-.7-.5-.3-1-.7-1.5-1-3.2-1.8-7.2-4.2-12.2-7.2-6.9-4.2-11-6.6-12.2-7.4v15.1c-.1.8-.6 1.2-1.5 1.2-.7 0-1.1-.3-1.4-1V350c.4-.7.8-1 1.4-1 .5 0 1.1.3 1.8.8.6.4 1.1.8 1.7 1.2 3.3 1.8 7.3 4.2 12.1 7.2 4 2.5 8 4.9 12 7.3v-15.1c.2-.8.7-1.2 1.5-1.2.7 0 1.2.4 1.5 1V368zM802.3 352h-13.4v16.4c-.3.7-.8 1-1.4 1-.7 0-1.2-.3-1.5-1V352h-13.5c-.7-.3-1.1-.8-1.1-1.4 0-.8.4-1.3 1.2-1.5H802c.8.2 1.3.7 1.3 1.5.1.6-.3 1.1-1 1.4M859.2 369.5h-29.5c-.2 0-.5-.2-.9-.5s-.5-.6-.5-.9v-17.5c0-.3.2-.7.6-1 .4-.3.7-.5 1-.5h29c.8.2 1.3.7 1.3 1.5 0 .7-.3 1.2-1 1.4h-28v5.8h28c.7.3 1 .8 1 1.4 0 .6-.3 1.1-1 1.5h-28v5.8h28c.7.3 1 .8 1 1.4 0 .7-.3 1.2-1 1.6M917.3 368c-.3.9-.7 1.3-1.4 1.3-.5 0-1.1-.2-1.8-.7-.5-.3-1-.7-1.5-1-3.2-1.8-7.2-4.2-12.2-7.2-6.9-4.2-11-6.6-12.2-7.4v15.1c-.1.8-.6 1.2-1.5 1.2-.7 0-1.1-.3-1.4-1V350c.4-.7.8-1 1.4-1 .5 0 1.1.3 1.8.8.6.4 1.1.8 1.7 1.2 3.3 1.8 7.3 4.2 12.1 7.2 4 2.5 8 4.9 12 7.3v-15.1c.2-.8.7-1.2 1.5-1.2.7 0 1.2.4 1.5 1V368z"/>
    </symbol>
    <symbol id="logo_silhouette" viewBox="0 0 1046.9 458.2">
      <path d="M303.8 162.8c11.5-16 19.2-22.8 33.7-49.1 11.7-21.4 19.9-41.6 18.3-65.5C353.1 8.6 312.1-6 276.9 2.4c-54 12.9-102.7 64.6-104 121.4-.6 26.1 4.1 49.5 20.6 56.6 10 4.3 45.3 3.3 39.8-11.6-10.8 1.6-26.1 8.9-38.5 3.3-16.4-7.3-17.1-45.5-13.5-64.4 4.5-23.6 20.9-48 34.3-61.5C233 28.4 266.8 7.4 299.4 8.7c20.7.8 44.6 13.2 48.5 38.1 4.1 26.3-7.7 43.9-18.8 67.8-14.2 30.7-52.6 66-69.5 82.5 8.7-39.6 19.9-86.4 27.7-126.1.9-4.5 4.8-13.2-2.3-15.5-4.8 11.1-6.2 24.2-9 37.4-5.6 26-10 52-15.5 77.2-5.9 27-11.9 46.2-31.1 58.1-4.7-8.1-8.7-17.5-18.1-18.1-12.1-.7-19.5 11.7-27.2 17.7-9.5-5.5-22.3-8.3-37.3-6.6-43.3 5-81.1 30.7-104.4 56.4-23.5 26-46.7 69.1-41.7 116.2 1.6 15.3 6.5 35.5 19.3 46 18.5 15.2 48.4 3.8 67.2-6.3 62.4-44.5 109.6-102.9 147.1-170.2 2.9 55.4-4.3 114.6-5.5 172.9-.2 7.3-2.2 17.5 5.1 22 2.4-31.7 2.3-64.6 3.9-97.2 1.6-32.4 7.3-63.9 4.1-93.9-.5-5.1-.6-9.9 1-14.8 3.8-11.6 9.3-25.5 10.7-37.5 9.2-7.8 13.8-12.9 26.4-25.8 7.9-8.3 16-15.3 23.8-26.2m-113.3 79.4c3.6-1.6-.2-6.2-.4-9 7.2-12.9 29.3-20.1 33.7.1-13.9 9.6-41 32.3-45.9 26.8-3.8-4.9 4.5-14.6 6.7-20.2 3.2-.5 1.9 3.8 5.9 2.3m-74.4 158.7c-16.3 14-33.3 28.9-53.5 36.1C17.2 453.1 2.2 410.1 7 367.9c7.8-69.1 69-126.6 138.6-137.7 9.6-1.5 23-.6 33.1 4.3-3.7 8.9-13.1 20.8-6.8 31.5 13.2 7.5 38.6-16.6 56.4-25.5.7 4.1 2.6 7 3.8 10.5-25.8 55.4-68.4 109.1-116 149.9m120.5-159.1c-5.9-5.4.3-12.5 5.9-14.3-2.1 4.6-3.7 9.8-5.9 14.3"/><path d="M611.5 263.8c7.1-14.9 14.9-29.8 22.7-44.6 7.4-14.2 18-30.1 15.1-48.4-1.4.1-2.7.1-4.1.2-11.4 35-27.5 65.6-44.3 95.7-7.4.7-12.2 2-16.5-1.7-1.6 2.4-2.5 5.6-2.9 9.2 1.8 2.9 4.9 4.4 8.5 5.4-8.4 9.1-18.4 16.8-31.1 21.9 2.5-5.7 8.8-12.7 3.3-19.1-11.6-.9-14.7 10.2-20.9 11.6.5-6.9-1.2-11.3-5.5-12.9-7.3 6.2-11.6 15.1-21.4 19 1.9-6.8 1.2-13.9-4.1-17.1-10.4 1.2-26.2 4.4-36.6 8.2 1-4.3 1.1-11.1-4.6-10.5-7.9 9.3-15.6 18.8-29.4 22.7.7-9.1 11.7-14.3 6.3-24.1-6.1-1.8-6.4 4.7-8.7 7.8-6.5 8.7-16.4 15-26.4 17.6 1.8-10.6 19.7-22.4 8.4-32.4-9 14.1-21 25.4-38.9 31.3 1.7-6.9 6.4-10.9 8.3-17.6-2.1-4.3-5.4-7.4-7.9-11.2-10.5 2.8-23.5 3.6-33.5 4.8 4.5-12.3 19-39.8 20.6-54.4 1.1-9.8.4-16.8-6.5-17.8-4.8 30-12.4 57.4-32.1 73.8-1.6.1-3.3.2-4.9.2-1.2 4.4-1.2 9.9-6.1 11-.6-8.9-6.3-13.8-12.9-13.4-16.4 1-22.1 28.8-38.1 31.3-.8-4.1.9-6 1.2-9.1 7.9-4.8 25.5-16.9 26-26.6.4-8.2-5.2-12.2-11.9-9.3-9.5 4-15 18.3-19.4 27.2-2.8-.2-9 1.2-10.2 4.6 4.3 7.2 4 20.2 13.1 22.4 2.5.6 5.4 0 8.2-1.2 12.1-5.2 19-29.8 34.9-29.5 7.8 17-19.9 22.8-17.3 33.1 2.3-.8 3 3.2 4.9 2.8 11.1-10.1 23.6-23 34-31.1-3.5 8.4-11.8 16.5-8.6 28.3 1.9-.1 3.8-.2 5.8-.3 2.9-12.6 7.6-23.5 15-31.9 7.7.9 13.5-3.8 18.8-2.5-5.6 6.6-16.1 15.5-11.1 26.8 10.3 2.7 14.6-5.7 21.8-8.4 4.6 19.2 21-.7 30.3-3-.4 4-.9 7 .5 10.7 11 6.8 18.1-5.8 27.6-7.8 1.8 16 17.8 4 24.7.6 5.8 18.2 18.4-12.2 30-10.4-3.8 4.9-8.7 8.9-7.4 18.4 10.2 6.7 17.6-6 25.1-9.3-.5 5.4 2.8 6.7 5.3 8.8 8.6-1.8 15.5-9.4 20-12.4-1.4 3.7-4.1 6.2-3.6 11.7 6.1 6.4 8.5-1 12.1-4.6 5.2-5.2 13.5-11.6 16.6-14.7-3.4 6.1-9.1 10-8.2 20.1 1.9.2 3.6.7 4.2 2.3 18.9-6.4 33.7-20.6 45.5-30.8-1.6 5.2-4.1 12.5-6.6 19.2-2 5.5-9 15.2.8 17.2 8.4-13.6 9.9-33.4 18.5-46.9 2.7-.1 138.4-28.2 214.4-30.9 74.6-2.7 66.6 2.9 68.2 2.7 14-1.9 28.6-10.1 19.6-12.4-1.6-.4-11.5.5-81.8 2.3-76.7 1.9-214.2 27.6-216.8 27.4m-327.7 8.7c9.9-3.4-2.5 13.3-6.2 11.1-5.4-2 4.6-8.1 6.2-11.1m77.7 30.4c0-6 8.6-19.6 14.2-14.6 6 3.3-12.2 15.7-14.2 14.6m126.7 3.9c0-6.1 6.3-16 14.2-14.6 12.9 1-14.2 14.6-14.2 14.6"/><path class="st0" d="M288.6 348.7c.2-.1.3-.1.5-.1.4 0 .8.1 1.1.4.3.3.4.6.4 1 0 .8-.5 1.4-1.5 1.7-.8.2-1.5.4-2.3.6-4.8 1.4-12 3.6-21.6 6.5 4.7 1.4 9.6 3 14.8 4.6 2.2.6 5.5 1.6 9.9 3 .2 0 .3.2.5.5s.2.5.2.6c-.1 1-.6 1.6-1.5 1.6-.4 0-1-.1-1.6-.4-.5-.2-.9-.3-1.4-.5-5.4-1.6-13.6-4.1-24.5-7.4v6.9c-.1.8-.6 1.2-1.4 1.2-.7 0-1.2-.3-1.5-1v-18.2c.3-.7.8-1 1.5-1 .8 0 1.2.4 1.4 1.3v6.8c1-.3 2.8-.8 5.5-1.5 7.5-2.3 14.7-4.4 21.5-6.6M347.6 358.8c0 1-.1 1.8-.3 2.3-.2.6-.6 1.3-1.2 2.1-1.5 2.1-3.8 3.6-6.9 4.6-2.3.7-4.8 1.1-7.6 1.1-2.5 0-4.6-.2-6.3-.7-6.5-1.9-9.7-5-9.7-9.5 0-1.7.5-3.2 1.5-4.4 3.1-3.8 7.9-5.8 14.5-5.8 1.4 0 2.5.1 3.3.1 3.5.4 6.4 1.5 8.8 3.2 2.6 2.1 3.9 4.3 3.9 7m-2.9 0c0-2.1-1.4-3.8-4.1-5.3-2-1.1-4-1.7-5.9-1.9-1.3-.1-2.3-.1-3-.1-2.3 0-4.1.2-5.5.7-.7.2-1.8.6-3 1-3.1 1.5-4.6 3.3-4.6 5.6 0 2.4 1.6 4.3 4.9 5.7 2.6 1 5.3 1.6 8.2 1.6 3 0 5.6-.5 7.8-1.4 3.4-1.4 5.2-3.4 5.2-5.9M404.5 367.3c-.1.8-.6 1.3-1.5 1.3s-1.4-.4-1.5-1.3v-15.1c-2.5 1.6-6.8 4.2-12.8 7.6-.2.1-.9-.2-2.3-1.1-2.4-1.4-6.1-3.6-11-6.6v15.1c-.1.8-.6 1.2-1.5 1.2-.7 0-1.1-.3-1.4-1v-18.3c.2-.6.7-.9 1.3-.9.4 0 .9.2 1.4.5 1.7 1.1 3.8 2.4 6.5 4 4.1 2.3 6.3 3.7 6.7 3.9 3-1.8 7.4-4.5 13.3-8 .2-.1.5-.3.9-.5.1-.1.3-.1.4-.1.4 0 .7.1 1 .4.3.3.4.6.4.8v18.1zM461.4 367.3c-.1.8-.6 1.3-1.5 1.3s-1.4-.4-1.5-1.3v-15.1c-2.6 1.6-6.8 4.2-12.8 7.6-.2.1-1-.2-2.3-1.1-2.4-1.4-6.1-3.6-11-6.6v15.1c-.1.8-.6 1.2-1.5 1.2-.7 0-1.2-.3-1.4-1v-18.3c.2-.6.6-.9 1.3-.9.4 0 .9.2 1.4.5 1.7 1.1 3.8 2.4 6.5 4 4.1 2.3 6.3 3.7 6.7 3.9 3-1.8 7.4-4.5 13.3-8 .2-.1.5-.3.9-.5.1-.1.3-.1.4-.1.4 0 .7.1 1 .4.3.3.4.6.4.8v18.1zM501.5 348.7c.1-.1.4-.2.7-.2.4 0 .6.1.9.3.2.2 1.2 1.3 2.9 3.4 3.3 3.8 7.4 8.8 12.2 14.9.2.3.2.7-.1 1.1-.3.5-.7.7-1.1.7-.5 0-1.1-.4-1.7-1.1-.5-.6-.9-1.2-1.4-1.7h-23.2c-.5.6-.9 1.2-1.4 1.8-.6.7-1.2 1.1-1.7 1.1-.4 0-.8-.2-1.1-.7-.1-.2-.2-.4-.2-.6 0-.5.3-1 .9-1.7.4-.4.8-.9 1.2-1.4 1.8-2.2 4-4.8 6.3-7.6 1.2-1.8 3.5-4.5 6.8-8.3m9.9 14.5l-9.3-11-9.1 11h18.4zM575.3 367.5c-.3.9-.7 1.3-1.4 1.3-.5 0-1.1-.2-1.8-.7-.5-.3-1-.7-1.5-1-3.2-1.8-7.2-4.2-12.2-7.2-6.9-4.2-11-6.6-12.2-7.4v15.1c-.1.8-.6 1.2-1.5 1.2-.7 0-1.1-.3-1.4-1v-18.3c.4-.7.8-1 1.4-1 .5 0 1.1.3 1.8.8.6.4 1.1.8 1.7 1.2 3.3 1.8 7.3 4.2 12.1 7.2 4 2.5 8 4.9 12 7.3v-15.1c.2-.8.7-1.2 1.5-1.2.7 0 1.2.4 1.5 1v17.8zM632.2 358.8c0 1.6-.5 3.4-1.5 5.4-.6 1.1-1.5 2.1-2.9 3.1-1 .7-2.3 1.3-3.7 1.5-.6.1-.8.2-.6.2h-21.9c-.2 0-.5-.2-.9-.5s-.5-.6-.5-.9V350c0-.3.2-.7.6-1 .4-.3.7-.5 1-.5h21.5c1.2 0 2.5.5 4.2 1.6 1.6 1.1 2.7 2.1 3.2 3.2.1.1.2.4.4.7.7 1.4 1.1 3 1.1 4.8m-2.9 0c0-1.4-.4-2.8-1.1-4-.9-1.5-2.2-2.5-3.8-2.9-.8-.3-1.3-.4-1.4-.4h-19.9V366H623c.2 0 .7-.1 1.4-.3 1.6-.6 2.9-1.5 3.7-2.9.8-1.1 1.2-2.5 1.2-4M672.3 348.7c.1-.1.4-.2.7-.2.4 0 .7.1.9.3.2.2 1.2 1.3 2.9 3.4 3.3 3.8 7.4 8.8 12.2 14.9.2.3.2.7-.1 1.1-.3.5-.7.7-1.1.7-.5 0-1.1-.4-1.7-1.1-.5-.6-.9-1.2-1.4-1.7h-23.1c-.5.6-1 1.2-1.4 1.8-.6.7-1.2 1.1-1.7 1.1-.4 0-.8-.2-1.1-.7-.1-.2-.2-.4-.2-.6 0-.5.3-1 .9-1.7.4-.4.8-.9 1.2-1.4 1.8-2.2 4-4.8 6.3-7.6 1.1-1.8 3.4-4.5 6.7-8.3m9.9 14.5l-9.3-11-9 11h18.3zM746 367.5c-.2.9-.7 1.3-1.4 1.3-.5 0-1.1-.2-1.8-.7-.5-.3-1-.7-1.5-1-3.2-1.8-7.2-4.2-12.2-7.2-6.9-4.2-11-6.6-12.2-7.4v15.1c-.1.8-.6 1.2-1.5 1.2-.7 0-1.1-.3-1.4-1v-18.3c.4-.7.8-1 1.4-1 .5 0 1.1.3 1.8.8.6.4 1.1.8 1.7 1.2 3.3 1.8 7.3 4.2 12.1 7.2 4 2.5 8 4.9 12 7.3v-15.1c.2-.8.7-1.2 1.5-1.2.7 0 1.2.4 1.5 1v17.8zM801.8 351.5h-13.4v16.4c-.3.7-.8 1-1.4 1-.7 0-1.2-.3-1.5-1v-16.4H772c-.7-.3-1.1-.8-1.1-1.4 0-.8.4-1.3 1.2-1.5h29.4c.8.2 1.3.7 1.3 1.5.1.6-.3 1.1-1 1.4M858.7 369h-29.5c-.2 0-.5-.2-.9-.5s-.5-.6-.5-.9V350c0-.3.2-.7.6-1 .4-.3.7-.5 1-.5h29c.8.2 1.3.7 1.3 1.5 0 .7-.3 1.2-1 1.4h-28v5.8h28c.7.3 1 .8 1 1.4 0 .6-.3 1.1-1 1.5h-28v5.8h28c.7.3 1 .8 1 1.4 0 .8-.3 1.3-1 1.7M916.8 367.5c-.3.9-.7 1.3-1.4 1.3-.5 0-1.1-.2-1.8-.7-.5-.3-1-.7-1.5-1-3.2-1.8-7.2-4.2-12.2-7.2-6.9-4.2-11-6.6-12.2-7.4v15.1c-.1.8-.6 1.2-1.5 1.2-.7 0-1.1-.3-1.4-1v-18.3c.4-.7.8-1 1.4-1 .5 0 1.1.3 1.8.8.6.4 1.1.8 1.7 1.2 3.3 1.8 7.3 4.2 12.1 7.2 4 2.5 8 4.9 12 7.3v-15.1c.2-.8.7-1.2 1.5-1.2.7 0 1.2.4 1.5 1v17.8z"/><path d="M956.2 359.9s-6.7-.7-7 2c-.2 2.7 1 4.2 3.5 4.2s29.8-1.5 29.8-1.5l9-1.7s-1-8.3 0-14.7 3.2-.5 3.5-12.4c.2-11.9-.5-48.7-3.5-62.2s3.5-40 3.5-40 8.2-20.4-7.3-46.5c0 0-3.2-.5-3-4.2 0 0 3.5-2.2 3-5-.5-2.7-1.2-7-.2-12.9s5.7-13.2 4.5-23.6-9-17.4-9-17.4-2.5-2.2 2-7.2 37.5-45 41-46.7c3.5-1.7 6-6.7 6-6.7l14.9-13.2s0-4-1.7-3.7c-1.7.2-2.7-.5-5 2.7s-16.2 14.9-22.1 20.1c-6 5.2-23.1 21.9-23.1 21.9s-.7 4.7-6.7 1-27.9-20.1-39.1-18.6c0 0-5.9-1.2-2.5 7.5 3.5 8.7-1.1 6.2-1.1 6.2v5.6s-.7 1.8-4.4 1.8 6.8-.2 6.8 2.7-3.8 3.5-3.3 6.8 2.3 12.8 3.6 13.6c1.3.8 5 .2 5 .2s4.8 1 2.2 4.5c-2.7 3.5-4.8 4.1-5.5 5.5s-2.2 2.5-5 3.8c-2.8 1.3-7.1 7-7 11.8.2 4.8 1.3 19.6-4.8 18.6s-8.1-.8-8.1 1.5.7 8 .7 8 2 4.3 4.1 5.8c2.2 1.5 1.8 3.5 1.8 3.5s4-.7 5.3 0 11.1 11.3 10.9 13.6c-.2 2.3-.5 45.1 0 48.4s8.1 30.5 10.3 35.3c2.2 4.8 2.7 18.4 2.7 18.4s1.8 4 1.8 5.1 2.7 21.9 3.8 25.4c1.2 3.5.5 4.6-.2 6.3s-1.7 4.8-.2 7 2.3 6.5.8 8.8c-1.5 2.3-.8 3.5-2.2 4.3s-4.9 6.3-8.5 6.3z"/>
    </symbol></svg>