<svg xmlns="http://www.w3.org/2000/svg">
    <symbol id="icon-booking" viewBox="0 0 88 50.1">
      <path d="M4 50.1c-1.9 0-2.9-.9-3.4-1.6-1.1-1.6-.4-3.4-.3-3.8L11.5 7.1c.3-.9 1-1.5 1.9-1.6 5.9-.7 10.4-1.8 13.2-3.2 3-1.5 6.2-2.3 9-2.3 3.7 0 6.7 1.3 8.5 3.5 2-2.2 5-3.5 8.6-3.5 2.9 0 6 .8 9.1 2.4C64.6 3.8 69 4.8 75 5.5c.9.1 1.6.7 1.9 1.6l10.8 36.3c.1.5.8 3.1-.6 4.9-1 1.3-2.4 1.9-4.7 1.5-5.2-.9-10.5-2.1-14.4-4-3.8-1.9-7.7-2.9-11-2.9s-5.8 1-7.1 2.9c-.4.7-1.2 1.1-2 1l-7.5-.2c-.7 0-1.3-.4-1.7-.9-2.7-3.6-8.4-3.5-18.7.3-4.4 1.6-9.6 3-14.6 3.9-.5.1-1 .2-1.4.2zm53.1-11.7c4 0 8.5 1.2 13 3.4 3.3 1.7 8.3 2.7 13.1 3.6h.3c0-.2 0-.5-.1-.8L73 9.8C67.2 9 62.8 7.9 59.8 6.4c-2.5-1.2-4.9-1.9-7.1-1.9-3.9 0-6.3 2-6.3 5.4 0 1.2-1 2.3-2.3 2.3s-2.3-1-2.3-2.3c0-3.4-2.4-5.4-6.3-5.4-2.2 0-4.6.7-7.1 1.9-3 1.5-7.4 2.7-13.2 3.4L4.8 45.5c4.7-.9 9.6-2.2 13.8-3.7 5.8-2.1 10.4-3.1 14-3.1 3.9 0 6.9 1.2 9.1 3.5l5.3.2c2.2-2.6 5.7-4 10.1-4z"/><path d="M81 49.6c-.3 0-.6-.1-.9-.2-6.2-2.6-11.3-5-15.9-7.5l-.9-.5c-4.2-2.3-8.2-4.5-12.7-4.3-.8.1-3.9.5-4.9.9-.4.4-1 .6-1.6.6-1.2 0-2.3-1-2.3-2.3V9.9c0-1.2 1-2.3 2.3-2.3s2.3 1 2.3 2.3v23.2c1.1-.2 2.4-.4 4-.5 5.7-.3 10.7 2.4 15.1 4.8l.9.5c4.5 2.4 9.4 4.8 15.4 7.3 1.1.5 1.7 1.8 1.2 2.9-.3 1-1.1 1.5-2 1.5z"/><path d="M13.1 41.5c-1 0-2-.7-2.2-1.8-.2-1.2.6-2.4 1.8-2.6 2.2-.4 3.4-.9 5.4-1.7 1.4-.6 3.2-1.3 5.8-2.2 12.8-4.3 21.3 1.1 21.6 1.3 1 .7 1.3 2.1.7 3.1-.7 1-2.1 1.3-3.1.7-.3-.2-7.1-4.4-17.7-.8-2.5.8-4.2 1.5-5.6 2.1-2 .8-3.6 1.5-6.2 2-.2-.1-.4-.1-.5-.1z"/>
    </symbol>
    <symbol id="icon-clock" viewBox="0 0 59.3 59.3">
      <path class="st0" d="M54.8 14.1c-.1-.2-.2-.3-.3-.5-.4-.5-1-.8-1.6-.8-1.2 0-2.1.9-2.1 2.1v.1c0 .3.1.6.2.9 0 .1.1.1.1.2 0-.1-.1-.1-.1-.2l.1.1c.1.2.3.4.4.6 0 .1.1.1.1.2.2.4.5.8.7 1.3 0 0 0 .1.1.1l.3.6c.1.1.1.2.2.4s.2.4.2.6c.1.2.2.4.2.6.1.2.2.5.3.7.1.2.1.4.2.6.1.2.1.3.2.5s.1.5.2.7c0 .1.1.3.1.4.1.3.2.6.2 1 0 .1.1.3.1.4 0 .3.1.5.1.8 0 .1 0 .2.1.3.1.4.1.7.1 1.1v.3c0 .3.1.6.1.9v1.5C55 43.6 43.6 55 29.6 55c-14 0-25.4-11.4-25.4-25.4 0-6.8 2.6-13.2 7.4-18 4.8-4.8 11.2-7.4 18-7.4h1.6c.3 0 .5 0 .8.1h.4c.3 0 .5.1.8.1.1 0 .3 0 .4.1.3 0 .6.1.9.2h.2c.4.1.8.2 1.1.3.1 0 .2.1.3.1.3.1.5.1.8.2.1 0 .3.1.4.1.2.1.5.2.7.2.1 0 .3.1.4.1l.8.4c.1 0 .2.1.3.1.3.1.7.3 1 .5.1 0 .2.1.2.1.3.1.5.3.8.4.1.1.2.1.4.2s.4.2.6.4c.2.1.3.1.5.2s.4.3.6.4c.1.1.2.2.4.2.2.2.5.3.7.5.1 0 .1.1.2.1s.1.1.2.2h.1c-.1 0-.2-.1-.3-.2.1.1.2.1.3.2.1 0 .1.1.2.1s.1 0 .2.1H46.2c1.2 0 2.1-.9 2.1-2.1 0-.6-.2-1.1-.6-1.5-.2-.1-.3-.2-.5-.3-5-3.6-11-5.7-17.6-5.7C13.3 0 0 13.3 0 29.6 0 46 13.3 59.3 29.6 59.3 46 59.3 59.3 46 59.3 29.6c0-5.7-1.7-11-4.5-15.5zM33.5 41.5c-.1.1-.1.1 0 0z"/><path class="st0" d="M46.1 27.5H31.4v-.1-8.6c0-2.5-3.8-2.5-3.8 0V29.6c0 .6.2 1 .5 1.3.3.3.8.5 1.3.5h16.7c2.5 0 2.5-3.9 0-3.9z"/>
    </symbol>
    <symbol id="icon-search" viewBox="0 0 63 63">
      <path d="M43 37l-1.6 1.6-2.5-2.5C42.1 32.3 44 27.3 44 22 44 9.9 34.1 0 22 0S0 9.9 0 22s9.9 22 22 22c5.3 0 10.3-1.9 14.1-5.1l2.5 2.5-1.8 1.8L57 63l6-6-20-20zm-21 3c-9.9 0-18-8.1-18-18S12.1 4 22 4s18 8.1 18 18-8.1 18-18 18z"/>
    </symbol>
    <symbol id="icon-silhouette" viewBox="0 0 121.8 319.8">
      <path d="M31 313.6s-6.7-.7-7 2c-.2 2.7 1 4.2 3.5 4.2s29.8-1.5 29.8-1.5l9-1.7s-1-8.3 0-14.7c1-6.5 3.2-.5 3.5-12.4s-.5-48.7-3.5-62.2 3.5-40 3.5-40 8.2-20.4-7.3-46.5c0 0-3.2-.5-3-4.2 0 0 3.5-2.2 3-5s-1.2-7-.2-12.9c1-6 5.7-13.2 4.5-23.6s-9-17.4-9-17.4-2.5-2.2 2-7.2 37.5-45 41-46.7c3.5-1.7 6-6.7 6-6.7l14.9-13.2s0-4-1.7-3.7-2.7-.5-5 2.7c-2.2 3.1-16.1 14.8-22.1 20-6 5.2-23.1 21.9-23.1 21.9s-.7 4.7-6.7 1C57.1 42 35.2 25.6 24 27.1c0 0-5.9-1.2-2.5 7.5s-1.1 6.2-1.1 6.2v5.6s-.7 1.8-4.4 1.8 6.8-.2 6.8 2.7c0 2.8-3.8 3.5-3.3 6.8s2.3 12.8 3.6 13.6c1.3.8 5 .2 5 .2s4.8 1 2.2 4.5c-2.7 3.5-4.8 4.1-5.5 5.5-.7 1.3-2.2 2.5-5 3.8s-7.1 7-7 11.8 1.3 19.6-4.8 18.6c-6-1.2-8-1.1-8 1.3 0 2.3.7 8 .7 8s2 4.3 4.1 5.8c2.2 1.5 1.8 3.5 1.8 3.5s4-.7 5.3 0c1.3.7 11.1 11.3 10.9 13.6-.2 2.3-.5 45.1 0 48.4.5 3.3 8.1 30.5 10.3 35.3 2.2 4.8 2.7 18.4 2.7 18.4s1.8 4 1.8 5.1c0 1.2 2.7 21.9 3.8 25.4 1.2 3.5.5 4.6-.2 6.3s-1.7 4.8-.2 7 2.3 6.5.8 8.8c-1.5 2.3-.8 3.5-2.2 4.3-1.1.7-5 6.7-8.6 6.7z"/>
    </symbol>
    <symbol id="icon-soup" viewBox="0 0 79 89.1">
      <path d="M39.6.038c-.6 0-1.2.2-1.7.6-1.4 1-2.5 2.4-3.2 3.9-.7 1.6-1 3.3-.8 5 .3 3.3 2 5.7 3.4 7.8 1.3 2 2.3 3.7 2.5 5.2.1.8-.1 1.6-.4 2.2-.3.7-.8 1.3-1.4 1.8-1.2.9-1.5 2.6-.7 3.8.9 1.2 2.6 1.5 3.8.7 0 0 .1 0 .1-.1 1.4-1 2.5-2.4 3.2-3.9.7-1.6 1-3.3.8-5-.3-3.3-2-5.7-3.4-7.8-1.3-2-2.3-3.7-2.5-5.2-.1-.8.1-1.6.4-2.2.3-.7.8-1.3 1.4-1.8 1.2-.9 1.5-2.6.7-3.8-.5-.8-1.3-1.2-2.2-1.2zm-17 6.3c-.4 0-.9.1-1.2.3-1.4.8-2.6 1.8-3.4 3.1-.8 1.3-1.2 2.9-1 4.5.4 3 2.3 4.9 3.7 6.4 1.3 1.5 2.2 2.8 2.3 3.4 0 .3 0 .6-.2 1s-.7.8-1.3 1.2c-1.3.7-1.9 2.4-1.2 3.7.7 1.3 2.4 1.9 3.7 1.2h.1c1.4-.8 2.6-1.8 3.4-3.1.8-1.3 1.2-2.9 1-4.5-.4-3-2.3-4.9-3.7-6.4-1.3-1.5-2.2-2.8-2.3-3.4 0-.3 0-.6.2-1s.7-.8 1.3-1.2c1.3-.7 1.9-2.4 1.2-3.7-.5-.9-1.5-1.5-2.6-1.5zm33.6 0c-.4 0-.9.1-1.2.3-1.4.8-2.6 1.8-3.4 3.1-.8 1.3-1.2 2.9-1 4.5.4 3 2.3 4.9 3.7 6.4 1.3 1.5 2.2 2.8 2.3 3.4 0 .3 0 .6-.2 1s-.7.8-1.3 1.2c-1.3.7-1.9 2.4-1.2 3.7.7 1.3 2.4 1.9 3.7 1.2h.1c1.4-.8 2.6-1.8 3.4-3.1.8-1.3 1.2-2.9 1-4.5-.4-3-2.3-4.9-3.7-6.4-1.3-1.5-2.2-2.8-2.3-3.4 0-.3 0-.6.2-1s.7-.8 1.3-1.2c1.3-.7 1.9-2.4 1.2-3.7-.5-.9-1.5-1.5-2.6-1.5zm-16.7 27.3c-10.7 0-20.3 1.9-27.5 5.1-3.6 1.6-6.5 3.5-8.6 5.7-2.1 2.2-3.4 4.8-3.4 7.6 0 .3 0 .7.1 1 .2 2.6 1.1 10 5.2 17.4 5.1 9.2 15.2 18.6 34.3 18.6 19.1 0 29.2-9.3 34.3-18.6 4.1-7.4 5-14.8 5.2-17.4 0-.3.1-.6.1-1 0-2.8-1.3-5.4-3.4-7.6-2.1-2.2-5.1-4.1-8.6-5.7-7.4-3.2-17-5.1-27.7-5.1zm0 3.1c9.4 0 17.9 1.7 24.1 4.4 3.1 1.4 5.6 3 7.4 4.9 1.8 1.8 2.8 4 2.8 6.2v.9c-.2 1.9-1.2 3.7-2.7 5.3-1.8 1.9-4.3 3.5-7.4 4.9-6.2 2.8-14.7 4.4-24.1 4.4s-17.9-1.7-24.1-4.4c-3.1-1.4-5.6-3-7.4-4.9-1.5-1.6-2.5-3.4-2.7-5.3v-.1-.8-.1c0-2.2 1-4.3 2.8-6.2 1.8-1.9 4.3-3.5 7.4-4.9 6-2.7 14.5-4.3 23.9-4.3zm0 3.7c-8.9 0-17 1.7-22.6 4.1-2.8 1.2-4.9 2.7-6.2 4.1-1.3 1.4-1.8 2.5-1.8 3.6v.5c.1 1 .6 2 1.7 3.2.5.6 1.2 1.1 2 1.7 0-1.8.9-3.6 2.2-5.1 1.4-1.6 3.4-2.9 5.8-4.1 4.9-2.3 11.4-3.7 18.7-3.7 7.3 0 13.9 1.4 18.7 3.7 2.4 1.1 4.4 2.5 5.8 4.1 1.4 1.5 2.2 3.3 2.2 5.1.8-.6 1.5-1.2 2-1.7 1.1-1.2 1.6-2.2 1.7-3.2v-.4-.1c0-1.1-.5-2.2-1.8-3.6s-3.4-2.8-6.2-4.1c-5.2-2.5-13.3-4.1-22.2-4.1zm0 8c-6.8 0-13 1.3-17.1 3.3-2.1 1-3.7 2.1-4.6 3.2-1 1.1-1.3 1.9-1.3 2.7v.4c.1.6.4 1.3 1 2.1 5.5 2.3 13.4 3.9 22 3.9 8.7 0 16.5-1.5 22-3.9.7-.8.9-1.5 1-2.1v-.3-.1c0-.8-.3-1.7-1.3-2.7-1-1.1-2.6-2.2-4.6-3.2-4.1-2-10.3-3.3-17.1-3.3z"/>
    </symbol>
    <symbol id="logo-bg" viewBox="0 0 917.8 459.5">
      <path class="st0" d="M304.3 163.3c11.5-16 19.2-22.8 33.7-49.1 11.7-21.4 19.9-41.6 18.3-65.5-2.7-39.6-43.7-54.2-78.9-45.8-54 12.9-102.7 64.6-104 121.4-.6 26.1 4.1 49.5 20.6 56.6 10 4.3 45.3 3.3 39.8-11.6-10.8 1.6-26.1 8.9-38.5 3.3-16.4-7.3-17.1-45.5-13.5-64.4 4.5-23.6 20.9-48 34.3-61.5C233.6 28.9 267.4 8 300 9.3c20.7.8 44.6 13.2 48.5 38.1 4.1 26.3-7.7 43.9-18.8 67.8-14.2 30.7-52.6 66-69.5 82.5 8.7-39.6 19.9-86.4 27.7-126.1.9-4.5 4.8-13.2-2.3-15.5-4.8 11.1-6.2 24.2-9 37.4-5.6 26-10 52-15.5 77.2-5.9 27-11.9 46.2-31.1 58.1-4.7-8.1-8.7-17.5-18.1-18.1-12.1-.7-19.5 11.7-27.2 17.7-9.5-5.5-22.3-8.3-37.3-6.6-43.3 5-81.1 30.7-104.4 56.4-23.6 25.8-46.8 68.9-41.8 116 1.6 15.3 6.5 35.5 19.3 46 18.5 15.2 48.4 3.8 67.2-6.3 62.4-44.5 109.6-102.9 147.1-170.2 2.9 55.4-4.3 114.6-5.5 172.9-.2 7.3-2.2 17.5 5.1 22 2.4-31.7 2.3-64.6 3.9-97.2 1.6-32.4 7.3-63.9 4.1-93.9-.5-5.1-.6-9.9 1-14.8 3.8-11.6 9.3-25.5 10.7-37.5 9.2-7.8 13.8-12.9 26.4-25.8 7.9-8.2 16-15.2 23.8-26.1M191 242.7c3.6-1.6-.2-6.2-.4-9 7.2-12.9 29.3-20.1 33.7.1-13.9 9.6-41 32.3-45.9 26.8-3.8-4.9 4.5-14.6 6.7-20.2 3.2-.5 1.9 3.8 5.9 2.3m-74.4 158.7c-16.3 14-33.3 28.9-53.5 36.1-45.4 16.1-60.5-26.9-55.7-69.1 7.8-69.1 69-126.6 138.6-137.7 9.6-1.5 23-.6 33.1 4.3-3.7 8.9-13.1 20.8-6.8 31.5 13.2 7.5 38.6-16.6 56.4-25.5.7 4.1 2.6 7 3.8 10.5-25.7 55.4-68.3 109.1-115.9 149.9m120.5-159.1c-5.9-5.4.3-12.5 5.9-14.3-2.1 4.6-3.7 9.8-5.9 14.3"/><path class="st0" d="M612 264.3c7.1-14.9 14.9-29.8 22.7-44.6 7.4-14.2 18-30.1 15.1-48.4-1.4.1-2.7.1-4.1.2-11.4 35-27.5 65.6-44.3 95.7-7.4.7-12.2 2-16.5-1.7-1.6 2.4-2.5 5.6-2.9 9.2 1.8 2.9 4.9 4.4 8.5 5.4-8.4 9.1-18.4 16.8-31.1 21.9 2.5-5.7 8.8-12.7 3.3-19.1-11.6-.9-14.7 10.2-20.9 11.6.5-6.9-1.2-11.3-5.5-12.9-7.3 6.2-11.6 15.1-21.4 19 1.9-6.8 1.2-13.9-4.1-17.1-10.4 1.2-26.2 4.4-36.6 8.2 1-4.3 1.1-11.1-4.6-10.5-7.9 9.3-15.6 18.8-29.4 22.7.7-9.1 11.7-14.3 6.3-24.1-6.1-1.8-6.4 4.7-8.7 7.8-6.5 8.7-16.4 15-26.4 17.6 1.8-10.6 19.7-22.4 8.4-32.4-9 14.1-21 25.4-38.9 31.3 1.7-6.9 6.4-10.9 8.3-17.6-2.1-4.3-5.4-7.4-7.9-11.2-10.5 2.8-23.5 3.6-33.5 4.8 4.5-12.3 19-39.8 20.6-54.4 1.1-9.8.4-16.8-6.5-17.8-4.8 30-12.4 57.4-32.1 73.8-1.6.1-3.3.2-4.9.2-1.2 4.4-1.2 9.9-6.1 11-.6-8.9-6.3-13.8-12.9-13.4-16.4 1-22.1 28.8-38.1 31.3-.8-4.1.9-6 1.2-9.1 7.9-4.8 25.5-16.9 26-26.6.4-8.2-5.2-12.2-11.9-9.3-9.5 4-15 18.3-19.4 27.2-2.8-.2-9 1.2-10.2 4.6 4.3 7.2 4 20.2 13.1 22.4 2.5.6 5.4 0 8.2-1.2 12.1-5.2 19-29.8 34.9-29.5 7.8 17-19.9 22.8-17.3 33.1 2.3-.8 3 3.2 4.9 2.8 11.1-10.1 23.6-23 34-31.1-3.5 8.4-11.8 16.5-8.6 28.3 1.9-.1 3.8-.2 5.8-.3 2.9-12.6 7.6-23.5 15-31.9 7.7.9 13.5-3.8 18.8-2.5-5.6 6.6-16.1 15.5-11.1 26.8 10.3 2.7 14.6-5.7 21.8-8.4 4.6 19.2 21-.7 30.3-3-.4 4-.9 7 .5 10.7 11 6.8 18.1-5.8 27.6-7.8 1.8 16 17.8 4 24.7.6 5.8 18.2 18.4-12.2 30-10.4-3.8 4.9-8.7 8.9-7.4 18.4 10.2 6.7 17.6-6 25.1-9.3-.5 5.4 2.8 6.7 5.3 8.8 8.6-1.8 15.5-9.4 20-12.4-1.4 3.7-4.1 6.2-3.6 11.7 6.1 6.4 8.5-1 12.1-4.6 5.2-5.2 13.5-11.6 16.6-14.7-3.4 6.1-9.1 10-8.2 20.1 1.9.2 3.6.7 4.2 2.3 18.9-6.4 33.7-20.6 45.5-30.8-1.6 5.2-4.1 12.5-6.6 19.2-2 5.5-9 15.2.8 17.2 8.4-13.6 9.9-33.4 18.5-46.9 2.7-.1 138.4-28.2 214.4-30.9 74.6-2.7 66.6 2.9 68.2 2.7 14-1.9 28.6-10.1 19.6-12.4-1.6-.4-11.5.5-81.8 2.3-76.7 1.9-214.2 27.6-216.8 27.4M284.3 273c9.9-3.4-2.5 13.3-6.2 11.1-5.4-2 4.6-8.1 6.2-11.1m77.7 30.4c0-6 8.6-19.6 14.2-14.6 6 3.3-12.2 15.7-14.2 14.6m126.7 3.9c0-6.1 6.3-16 14.2-14.6 12.9 1-14.2 14.6-14.2 14.6M289.1 349.2c.2-.1.3-.1.5-.1.4 0 .8.1 1.1.4.3.3.4.6.4 1 0 .8-.5 1.4-1.5 1.7-.8.2-1.5.4-2.3.6-4.8 1.4-12 3.6-21.6 6.5 4.7 1.4 9.6 3 14.8 4.6 2.2.6 5.5 1.6 9.9 3 .2 0 .3.2.5.5s.2.5.2.6c-.1 1-.6 1.6-1.5 1.6-.4 0-1-.1-1.6-.4-.5-.2-.9-.3-1.4-.5-5.4-1.6-13.6-4.1-24.5-7.4v6.9c-.1.8-.6 1.2-1.4 1.2-.7 0-1.2-.3-1.5-1v-18.2c.3-.7.8-1 1.5-1 .8 0 1.2.4 1.4 1.3v6.8c1-.3 2.8-.8 5.5-1.5 7.5-2.3 14.7-4.4 21.5-6.6M348.1 359.3c0 1-.1 1.8-.3 2.3-.2.6-.6 1.3-1.2 2.1-1.5 2.1-3.8 3.6-6.9 4.6-2.3.7-4.8 1.1-7.6 1.1-2.5 0-4.6-.2-6.3-.7-6.5-1.9-9.7-5-9.7-9.5 0-1.7.5-3.2 1.5-4.4 3.1-3.8 7.9-5.8 14.5-5.8 1.4 0 2.5.1 3.3.1 3.5.4 6.4 1.5 8.8 3.2 2.6 2.1 3.9 4.3 3.9 7m-2.9 0c0-2.1-1.4-3.8-4.1-5.3-2-1.1-4-1.7-5.9-1.9-1.3-.1-2.3-.1-3-.1-2.3 0-4.1.2-5.5.7-.7.2-1.8.6-3 1-3.1 1.5-4.6 3.3-4.6 5.6 0 2.4 1.6 4.3 4.9 5.7 2.6 1 5.3 1.6 8.2 1.6 3 0 5.6-.5 7.8-1.4 3.4-1.4 5.2-3.4 5.2-5.9M405 367.8c-.1.8-.6 1.3-1.5 1.3s-1.4-.4-1.5-1.3v-15.1c-2.5 1.6-6.8 4.2-12.8 7.6-.2.1-.9-.2-2.3-1.1-2.4-1.4-6.1-3.6-11-6.6v15.1c-.1.8-.6 1.2-1.5 1.2-.7 0-1.1-.3-1.4-1v-18.3c.2-.6.7-.9 1.3-.9.4 0 .9.2 1.4.5 1.7 1.1 3.8 2.4 6.5 4 4.1 2.3 6.3 3.7 6.7 3.9 3-1.8 7.4-4.5 13.3-8 .2-.1.5-.3.9-.5.1-.1.3-.1.4-.1.4 0 .7.1 1 .4.3.3.4.6.4.8v18.1zM461.9 367.8c-.1.8-.6 1.3-1.5 1.3s-1.4-.4-1.5-1.3v-15.1c-2.6 1.6-6.8 4.2-12.8 7.6-.2.1-1-.2-2.3-1.1-2.4-1.4-6.1-3.6-11-6.6v15.1c-.1.8-.6 1.2-1.5 1.2-.7 0-1.2-.3-1.4-1v-18.3c.2-.6.6-.9 1.3-.9.4 0 .9.2 1.4.5 1.7 1.1 3.8 2.4 6.5 4 4.1 2.3 6.3 3.7 6.7 3.9 3-1.8 7.4-4.5 13.3-8 .2-.1.5-.3.9-.5.1-.1.3-.1.4-.1.4 0 .7.1 1 .4.3.3.4.6.4.8v18.1zM502 349.2c.1-.1.4-.2.7-.2.4 0 .6.1.9.3.2.2 1.2 1.3 2.9 3.4 3.3 3.8 7.4 8.8 12.2 14.9.2.3.2.7-.1 1.1-.3.5-.7.7-1.1.7-.5 0-1.1-.4-1.7-1.1-.5-.6-.9-1.2-1.4-1.7h-23.2c-.5.6-.9 1.2-1.4 1.8-.6.7-1.2 1.1-1.7 1.1-.4 0-.8-.2-1.1-.7-.1-.2-.2-.4-.2-.6 0-.5.3-1 .9-1.7.4-.4.8-.9 1.2-1.4 1.8-2.2 4-4.8 6.3-7.6 1.2-1.8 3.5-4.5 6.8-8.3m9.9 14.5l-9.3-11-9.1 11h18.4zM575.8 368c-.3.9-.7 1.3-1.4 1.3-.5 0-1.1-.2-1.8-.7-.5-.3-1-.7-1.5-1-3.2-1.8-7.2-4.2-12.2-7.2-6.9-4.2-11-6.6-12.2-7.4v15.1c-.1.8-.6 1.2-1.5 1.2-.7 0-1.1-.3-1.4-1V350c.4-.7.8-1 1.4-1 .5 0 1.1.3 1.8.8.6.4 1.1.8 1.7 1.2 3.3 1.8 7.3 4.2 12.1 7.2 4 2.5 8 4.9 12 7.3v-15.1c.2-.8.7-1.2 1.5-1.2.7 0 1.2.4 1.5 1V368zM632.7 359.3c0 1.6-.5 3.4-1.5 5.4-.6 1.1-1.5 2.1-2.9 3.1-1 .7-2.3 1.3-3.7 1.5-.6.1-.8.2-.6.2h-21.9c-.2 0-.5-.2-.9-.5s-.5-.6-.5-.9v-17.5c0-.3.2-.7.6-1 .4-.3.7-.5 1-.5h21.5c1.2 0 2.5.5 4.2 1.6 1.6 1.1 2.7 2.1 3.2 3.2.1.1.2.4.4.7.7 1.3 1.1 2.9 1.1 4.7m-2.9 0c0-1.4-.4-2.8-1.1-4-.9-1.5-2.2-2.5-3.8-2.9-.8-.3-1.3-.4-1.4-.4h-19.9v14.5h19.9c.2 0 .7-.1 1.4-.3 1.6-.6 2.9-1.5 3.7-2.9.8-1.1 1.2-2.5 1.2-4M672.8 349.2c.1-.1.4-.2.7-.2.4 0 .7.1.9.3.2.2 1.2 1.3 2.9 3.4 3.3 3.8 7.4 8.8 12.2 14.9.2.3.2.7-.1 1.1-.3.5-.7.7-1.1.7-.5 0-1.1-.4-1.7-1.1-.5-.6-.9-1.2-1.4-1.7H662c-.5.6-1 1.2-1.4 1.8-.6.7-1.2 1.1-1.7 1.1-.4 0-.8-.2-1.1-.7-.1-.2-.2-.4-.2-.6 0-.5.3-1 .9-1.7.4-.4.8-.9 1.2-1.4 1.8-2.2 4-4.8 6.3-7.6 1.2-1.8 3.5-4.5 6.8-8.3m9.9 14.5l-9.3-11-9 11h18.3zM746.5 368c-.2.9-.7 1.3-1.4 1.3-.5 0-1.1-.2-1.8-.7-.5-.3-1-.7-1.5-1-3.2-1.8-7.2-4.2-12.2-7.2-6.9-4.2-11-6.6-12.2-7.4v15.1c-.1.8-.6 1.2-1.5 1.2-.7 0-1.1-.3-1.4-1V350c.4-.7.8-1 1.4-1 .5 0 1.1.3 1.8.8.6.4 1.1.8 1.7 1.2 3.3 1.8 7.3 4.2 12.1 7.2 4 2.5 8 4.9 12 7.3v-15.1c.2-.8.7-1.2 1.5-1.2.7 0 1.2.4 1.5 1V368zM802.3 352h-13.4v16.4c-.3.7-.8 1-1.4 1-.7 0-1.2-.3-1.5-1V352h-13.5c-.7-.3-1.1-.8-1.1-1.4 0-.8.4-1.3 1.2-1.5H802c.8.2 1.3.7 1.3 1.5.1.6-.3 1.1-1 1.4M859.2 369.5h-29.5c-.2 0-.5-.2-.9-.5s-.5-.6-.5-.9v-17.5c0-.3.2-.7.6-1 .4-.3.7-.5 1-.5h29c.8.2 1.3.7 1.3 1.5 0 .7-.3 1.2-1 1.4h-28v5.8h28c.7.3 1 .8 1 1.4 0 .6-.3 1.1-1 1.5h-28v5.8h28c.7.3 1 .8 1 1.4 0 .7-.3 1.2-1 1.6M917.3 368c-.3.9-.7 1.3-1.4 1.3-.5 0-1.1-.2-1.8-.7-.5-.3-1-.7-1.5-1-3.2-1.8-7.2-4.2-12.2-7.2-6.9-4.2-11-6.6-12.2-7.4v15.1c-.1.8-.6 1.2-1.5 1.2-.7 0-1.1-.3-1.4-1V350c.4-.7.8-1 1.4-1 .5 0 1.1.3 1.8.8.6.4 1.1.8 1.7 1.2 3.3 1.8 7.3 4.2 12.1 7.2 4 2.5 8 4.9 12 7.3v-15.1c.2-.8.7-1.2 1.5-1.2.7 0 1.2.4 1.5 1V368z"/>
    </symbol></svg>