<svg xmlns="http://www.w3.org/2000/svg">
    <symbol id="emblem-baptism" viewBox="0 0 45.3 45.3">
      <circle id="XMLID_26_" class="st0" cx="22.6" cy="22.6" r="22.1"/><g id="XMLID_21_"><g id="XMLID_22_"><path id="XMLID_23_" class="st1" d="M25.3 19.6v-3.3h1.3l-3.3-6.2V8.8h.8V8h-.8v-.8h-1V8h-.8v.9h.8v1.3l-3.4 6.2h1.5v3.2l-6.1 7h1.6v8.7l4.8.1s-.5-4.5 1.9-4.5c2.5 0 1.9 4.4 1.9 4.4h5v-8.8H31l-5.7-6.9zm-1.5-.3H22v-2.4h1.7v2.4z"/></g></g>
    </symbol>
    <symbol id="emblem-christmas" viewBox="0 0 45.3 45.3">
      <circle id="XMLID_54_" class="st0" cx="22.6" cy="22.6" r="22.1"/><path id="XMLID_35_" class="st1" d="M35.7 21.1c-.5-.6-1.7-1.9-1.5-2.5.1-.2.4-.3.7-.4.2 0 .3-.2.3-.3 0-.2-.1-.3-.2-.4-.2-.1-.4-.1-.8-.2-.7-.2-2.3-.6-2.4-1.1-.1-.2.1-.4.3-.6.1-.1.1-.3 0-.5-.1-.1-.3-.2-.4-.1-.3.1-.5.2-.7.3-.6.3-1.2.5-1.8.5h-.4c-.9 0-1.2-.2-1.2-.3v-.1c0-.2 0-.3-.2-.4-.2-.1-.3 0-.5.1l-.1.1c-.8.9-1.5 1.7-2.6 1.7h-.1c-.3-.4-.8-.7-1.4-.7-.4 0-.7.1-1 .4-.3-.4-.4-1-.4-1.5 0-.1 0-.3-.1-.3-.1-.1-.3-.1-.4 0-.4.2-.7.1-1-.2-.3-.4-.4-1-.4-1.4 0-.2 0-.3-.2-.4-.2-.1-.3 0-.5.1-.1.2-.5.5-1.1.5-.5 0-1-.2-1.5-.7-.1-.1-.4-.1-.5 0-.1.1-.1.4 0 .5.5.6.7 1.1.6 1.5-.1.4-.6.5-1 .6-.2 0-.3.2-.3.4s.2.3.4.3h.2c.9 0 1.5.2 1.8.7.2.3.2.7.2.8v.1c-.3-.3-.6-.6-.8-.9l-.1-.1c-.1-.1-.3-.2-.4-.1-.2.1-.2.2-.2.4.1.5-.1 1.2-.5 1.5-.2.1-.4.1-.7.1-.9 0-2-.4-2.7-.9-.2-.1-.4 0-.5.1-.1.1-.1.3 0 .5.7.8 1 1.5.9 2-.1.7-1 1.1-1.7 1.4l-.6.3c-.2 0-.2.2-.2.3 0 .2.2.3.3.3.4.1.8.1 1.2.1.8 0 1.5 0 1.9.5.3.4.4 1 .3 1.9 0 .2.1.3.3.4h.1c.1 0 .3-.1.3-.2.3-.7.9-1.5 1.7-1.5-.5 1.2-.8 1.8-2.5 2.6-.3.2-.5.4-.5.8s.4.9.9 1.4c-.4.8-.4 1.6.1 1.9.2.1.3.2.5.2.5 0 1-.3 1.4-.7.4.2.9.4 1.3.6 1.1.4 2.1.6 2.9.6 1.7 0 2.5-.8 2.5-.9.1-.1.1-.3.1-.4-1-2-.6-3 0-4.2 0-.1.1-.2.1-.3 0 .1.1.2.1.2.7 1.6 1 2.3.2 4.4-.2.3-.3.7-.1.9.2.4.6.6 1.4.6.4 0 .8 0 1.2-.1.3.3.6.4.9.4.1 0 .2 0 .3-.1.3-.1.6-.4.6-.8.6-.2 1.2-.4 1.8-.7 2.7-1.2 5.3-2.9 4.8-4.1-.1-.2-.3-.4-.7-.5-1.8-.6-2.4-1.5-2.8-2.5v-.1c0-.1-.1-.2-.1-.4.1.2.2.3.4.5.1.1.2.1.3.1.2 0 .4-.2.4-.4v-.1c-.1-.4 0-.8.2-1.1.1-.2.4-.4.7-.4h.1c.5 0 1.5.3 2.1.5.5.1.7.2.8.2.2 0 .4-.2.4-.4-.1-.1-.1-.2-.2-.3zm-10-1.2h.2c.2.1.8 1.3.9 1.8 0 .1.1.2.2.3h.3c.2-.2.5-.4.7-.6.3-.3.6-.6.9-.6.3.6.5 1.2.7 1.7 0 .1.1.2.1.3-.8.2-1.6.5-2.5.9-1.3.6-2.5 1.2-3.3 1.9 0-.1-.1-.2-.1-.2-.2-.5-.5-1.1-.7-1.8-.4-1.1-.1-2 .3-2.5.2.1.4.1.6.1.8-.1 1.5-.6 1.7-1.3zm-1.5 6.4c.8-.7 2-1.4 3.3-1.9.8-.4 1.7-.7 2.5-.9.1.2.2.3.2.5-.8.2-1.7.5-2.5.9-1.3.6-2.5 1.2-3.3 1.9-.1-.2-.1-.4-.2-.5zm-3.6-6.4c0-.5.4-1 1-1 .5 0 1 .4 1 1s-.4 1-1 1c-.6-.1-1-.5-1-1zm3.4.4c-.3 0-.6-.1-.7-.3v-.2c0-.3-.1-.6-.2-.8.1-.4.5-.7.9-.7.5 0 1 .4 1 1s-.4 1-1 1zm-1.3-3.4c.4 0 .8.3.9.7v.1c-.4.1-.7.4-1 .7-.2-.1-.5-.3-.7-.3 0-.1-.1-.2-.1-.3 0-.5.4-.9.9-.9zm-6.1-1.6c.1-.1.2-.3.3-.5.1-.3.1-.6 0-.9.2.1.5.1.7.1.4 0 .7-.1 1-.3.1.4.2.8.5 1.2.4.4.8.7 1.4.6.1.6.3 1.2.6 1.7-.1.2-.1.4-.1.7v.2c-.3-.2-.5-.5-.7-.9-.1-.1-.2-.2-.4-.2s-.3.1-.3.3c0 .1-.1.1-.1.2-.3-.3-.7-.5-1.1-.5h-.3c-.1-.2-.1-.4-.3-.7-.1-.4-.5-.8-1.2-1zm1.3 2.5c.1 0 .2 0 .2-.1.1-.1.2-.1.3-.1.2 0 .4.1.5.3-.2.1-.4.2-.6.2-.1 0-.3-.1-.4-.3-.1 0 0 0 0 0zm-3.4 6.1c-.1-.5-.2-.9-.5-1.3-.5-.6-1.3-.7-2.2-.7.6-.3 1.3-.8 1.4-1.5.1-.4 0-.9-.2-1.5.6.2 1.2.4 1.8.4.4 0 .7-.1 1-.2.5-.2.8-.7.9-1.2.5.5 1 1 1.6 1 .5 0 1.2-.3 1.6-.8.2.2.3.4.5.5-.4.3-.6.8-.6 1.3v.3l-.2.2c-.3.3-.4.7-.5 1.1-.2 0-.4-.1-.6-.1-1.2 0-1.6 1.1-1.7 1.9-.3-.1-.6-.2-.9-.2-.4-.1-.9.2-1.4.8zm6.9 3.5h.2v.4c-2.8.3-4.2-.5-5.7-2.1.1-.1.2-.3.4-.4 1.4 1.5 2.5 2.1 5.1 2.1zm-6.7 2.5h-.1c-.1-.1-.1-.4 0-.9.2.2.5.3.8.5-.2.3-.5.4-.7.4zm5.7.5c-.8 0-1.7-.2-2.7-.6-2.2-.8-3.8-2.2-3.8-2.7l.1-.1c.6-.3 1-.5 1.4-.8 1.4 1.4 2.9 2.4 5.3 2.4.3 0 .7 0 1.1-.1.1.4.2.9.5 1.4-.4.2-1 .5-1.9.5zm1.8-5c-.2.4-.4.8-.5 1.2-2.9.1-3.8-.6-5.1-2 .1-.2.2-.4.2-.6.1 0 .2.1.3.2.1.1.3.1.4 0 .1-.1.2-.2.2-.3.1-1.5.5-1.8 1-1.8.2 0 .5.1.8.2.1 0 .3 0 .4-.1.1-.1.1-.2.1-.3-.1-.4 0-.7.2-.9.3.4.8.7 1.4.7.3 0 .6-.1.8-.2-.3.8-.3 1.6 0 2.4.1.2.2.4.2.6-.1.3-.2.6-.4.9zm1.7 5.3c-.1-.2.3-.6 1.1-1.3 0 .3.1.7.2 1 0 .1.1.2.2.4-.3 0-.5.1-.7.1-.7 0-.8-.2-.8-.2zm2.8.4c-.3 0-.7-.3-.9-.9-.1-.3-.2-.7-.1-.9 0-.2.1-.3.2-.4h.1c.2 0 .6.3.8.9.2.7.1 1.3-.1 1.3zm2.4-1.5l-1.5.6c0-.2-.1-.4-.2-.6-.2-.5-.5-1-.9-1.2.5-.3 1-.5 1.6-.8 1.8-.8 3.5-1.3 4.6-1.3.5 0 .7.1.7.2.2.3-1.1 1.7-4.3 3.1zm2.8-3.9c-1.1.2-2.5.6-3.9 1.2-1.3.6-2.6 1.3-3.5 2 .1-.5.1-.9.1-1.3.8-.7 2.1-1.4 3.5-2 .9-.4 1.8-.7 2.6-.9.3.3.6.6 1.2 1zm.4-5.4c-.5.1-1 .3-1.3.7l-.3.6c-.3-.5-.7-1-1.2-1.3-.2-.1-.4-.2-.6-.2-.5 0-1 .4-1.4.8l-.2.2c-.2-.7-.7-1.6-1.2-1.8-.1 0-.2-.1-.4-.1-.1-.8-.7-1.4-1.4-1.5 1.2 0 2-.8 2.7-1.6 0 0 .1 0 .1.1.3.3.9.5 1.7.5h.4c.7 0 1.3-.3 1.9-.5v.4c.3.9 1.6 1.3 2.7 1.6-.1.1-.2.2-.2.4-.3.7.2 1.5.8 2.4-.7-.5-1.6-.8-2.1-.7z"/>
    </symbol>
    <symbol id="emblem-company" viewBox="0 0 45.3 45.3">
      <circle id="XMLID_52_" class="st0" cx="22.6" cy="22.6" r="22.1"/><g id="XMLID_34_"><path id="XMLID_49_" class="st1" d="M22.6 16.3c1.5 0 2.8-1.3 2.8-2.8s-1.3-2.8-2.8-2.8-2.8 1.3-2.8 2.8 1.3 2.8 2.8 2.8zm0-4.9c1.2 0 2.1.9 2.1 2.1s-.9 2.1-2.1 2.1c-1.2 0-2.1-.9-2.1-2.1s.9-2.1 2.1-2.1z"/><path id="XMLID_46_" class="st1" d="M29.2 18c1.2 0 2.1-.9 2.1-2.1s-.9-2.1-2.1-2.1-2.1.9-2.1 2.1 1 2.1 2.1 2.1zm0-3.5c.8 0 1.4.6 1.4 1.4s-.6 1.4-1.4 1.4c-.8 0-1.4-.6-1.4-1.4 0-.8.6-1.4 1.4-1.4z"/><path id="XMLID_38_" class="st1" d="M31.2 18.1l-1 2-.2-.8h.3v-.7h-2.1v.7h.3l-.2.9-1-2.1-.3.2c-.6-1.3-2-1.9-2-1.9L23.7 19l-.3-1.3h.3V17h-2.1v.7h.3l-.4 1.3-1.3-2.5s-1.4.5-1.9 1.9l-.3-.2-1 2-.2-.8h.2v-.7h-2.1v.7h.3l-.2.8-1-2.1s-1.9.6-1.9 2.5v4.7h1v5.2h5.6V25h.7v6.3h6.3V25h.7v5.6H32v-5.2h1.1v-4.7c0-1.8-1.9-2.6-1.9-2.6zM16 19.3l.5 1.8-.5.9-.4-.9.4-1.8zm2.1 10.6h-1.7V26h-.7v3.8H14v-5.2h-1v-4c0-.6.3-1.2.9-1.6l2.3 4.5 2.1-4.1-.2 10.5zm4.4-12.2h.2l.6 2.3-.6 1.3-.7-1.4.5-2.2zm3.9 6.6H25v6.3h-2.1v-4.9h-.7v4.9h-2.1v-6.3h-1.4v-4.9c0-.8.4-1.6 1.1-2.1l2.7 5.4 2.7-5.4c.7.4 1.1 1.2 1.1 2.1l.1 4.9zm2.8-5l.5 1.8-.5 1-.4-.9.4-1.9zm3.2 5.3h-1.1v5.2h-1.7V26h-.7v3.8h-1.7V19.4l2.1 4.1 2.3-4.5c.5.4.9 1 .9 1.6v4h-.1z"/><path id="XMLID_35_" class="st1" d="M16 18c1.2 0 2.1-.9 2.1-2.1s-.9-2.1-2.1-2.1-2.1.9-2.1 2.1.9 2.1 2.1 2.1zm0-3.5c.8 0 1.4.6 1.4 1.4s-.6 1.4-1.4 1.4-1.4-.6-1.4-1.4c0-.8.6-1.4 1.4-1.4z"/></g>
    </symbol>
    <symbol id="emblem-priest" viewBox="0 0 45.3 45.3">
      <circle id="XMLID_50_" class="st0" cx="22.6" cy="22.6" r="22.1"/><g id="XMLID_33_"><path id="XMLID_43_" class="st1" d="M33.8 25.8l-6.6-4.5v-3.7h.2v-.8h-.7v-1.2h.3v-.4h-.9l-.6-3.1h-.1v-1.4h1.1v-.3h-1.1v-1h-.3v1H24v.3h1.1v1.4H25l-.6 3.1h-.9v.4h.3v1.2h-.7v.8h.2v3.7L20.8 23c0 .5.1 1.1.1 1.7 0 .6 0 1.1-.1 1.8 0 .7-.6 1.2-1.3 1.2h-.1c-.1 0-.2 0-.3-.1 0 1.1 0 2.2.1 3.2h14.5v-.4h-1.4v-4.7l1.5.1zm-8.6-2.9c.4 0 .8.4.8.8s-.4.8-.8.8-.8-.4-.8-.8.4-.8.8-.8zM24 20.8v-2.5h2.5v2.5H24zm-2.1 8.7v-3.2h1.4v3.2h-1.4zm2.7 0v-3.2H26v3.2h-1.4zm4 0h-1.4v-3.2h1.4v3.2z"/><path id="XMLID_42_" class="st1" d="M19.5 27.2c.4 0 .7-.3.8-.7v-.3c-.4.1-1.2.1-1.5.1v.1c0 .5.3.8.7.8z"/><path id="XMLID_39_" class="st1" d="M12.5 26.1v-1.3c0-1.8.2-3 .5-3.7-.1 2.8-.4 9.8-.3 13.3.2 0 .6.1 1 .1.6.1 1.4.2 2 .2.6 0 1.4-.1 2-.2.4 0 .8-.1 1-.1.1-3.5-.1-10.4-.3-13.3.3.7.5 1.9.5 3.7v1.3h.6c.3 0 .7 0 .9-.1v-1.3c0-2.7-.4-4.3-1-5.2-.3-.5-.6-.7-1-.9-.2-.1-.4-.2-.5-.2-.2.4-.9 2-1.5 2.8l-.1-.1c.3-.5.7-1.2 1-1.8.2-.4.4-.8.5-.9h-3.6-.1c.1.2.3.5.5.9.3.6.7 1.3 1 1.8l-.1.1c-.6-.9-1.4-2.5-1.5-2.8-.2 0-.3.1-.5.2-.5.2-1 .8-1.4 1.7-.4.9-.6 2.3-.6 4.4V26c.2 0 .6.1.9.1h.1zm2.4-4.5h.6v-.5h.3v.5h.6v.3h-.6v1.5h-.3v-1.5h-.6v-.3z"/><path id="XMLID_38_" class="st1" d="M12.5 26.5v-.1c-.3 0-1 0-1.5-.1v.3c0 .4.3.7.7.7.1 0 .3-.1.4-.1.3-.2.5-.5.4-.7z"/><path id="XMLID_37_" class="st1" d="M15.4 34.8c-.7 0-1.5-.1-2.1-.2.1.2.2.4.4.6.2.2.4.3.7.3.2 0 .4 0 .5-.1.2-.2.4-.4.5-.6z"/><path id="XMLID_36_" class="st1" d="M18.1 34.6c-.6.1-1.4.2-2.1.2.1.2.3.4.5.5.2.1.3.1.5.1.3 0 .5-.1.7-.3.2 0 .3-.2.4-.5z"/><circle id="XMLID_35_" class="st1" cx="15.7" cy="16" r="2"/><path id="XMLID_34_" class="st1" d="M15.6 34.8h.1-.1z"/></g>
    </symbol>
    <symbol id="emblem-wedding" viewBox="0 0 45.3 45.3">
      <circle id="XMLID_34_" class="st0" cx="22.6" cy="22.6" r="22.1"/><g id="XMLID_25_"><path id="XMLID_26_" class="st1" d="M30.8 24.2h-.5V22c0-.3-.2-.5-.5-.5s-.5.2-.5.5v2.3h-.9v-6.8c0-.2-.2-.5-.5-.5h-.5v-2.3c0-.2-.2-.5-.5-.5s-.5.2-.5.5V17h-.9v-5c0-.2-.2-.5-.5-.5h-2.3V9.3c0-.2-.2-.5-.5-.5-.2 0-.5.2-.5.5v2.3h-2.3c-.2 0-.5.2-.5.5v5H18v-2.3c0-.2-.2-.5-.5-.5s-.5.2-.5.5V17h-.5c-.2 0-.5.2-.5.5v6.8h-.9V22c0-.3-.2-.5-.5-.5s-.5.2-.5.5v2.3h-.5c-.2 0-.5.2-.5.5v8.1c0 .3.2.5.5.5h16.3c.3 0 .5-.2.5-.5v-8.1c.8-.3.6-.6.4-.6zm-5.9-11.7v.9c-.1-.1-.3-.1-.6-.1-.4 0-.6.1-.8.2-.1.1-.2.1-.3.1-.1 0-.2 0-.3-.1-.2-.1-.4-.2-.8-.2s-.6.1-.8.2c-.1.1-.2.1-.3.1-.1 0-.2 0-.3-.1-.1-.1-.2-.1-.3-.2v-.8h4.5zm-4.5 1.8c.1.1.3.1.6.1.4 0 .6-.1.8-.2.1-.1.2-.1.3-.1.1 0 .2 0 .3.1.2.1.4.2.8.2s.6-.1.8-.2c.1-.1.2-.1.3-.1s.2 0 .3.1c.1.1.2.1.3.2V17h-4.5v-2.7zm7.2 3.6v1.9s-.1 0-.1-.1c-.2-.1-.5-.3-1-.3s-.8.2-1 .3c-.2.1-.3.2-.6.2s-.4-.1-.6-.2c-.2-.1-.5-.3-1-.3s-.8.2-1 .3c-.2.1-.3.2-.6.2s-.4-.1-.6-.2c-.2-.1-.5-.3-1-.3s-.8.2-1 .3c-.2.1-.3.2-.6.2s-.4-.1-.6-.2c-.1-.1-.3-.2-.5-.2v-1.6h10.2zm-9.9 2.6s.1 0 .1.1c.2.1.5.3 1 .3s.8-.2 1-.3c.2-.1.3-.2.6-.2s.4.1.6.2c.2.1.5.3 1 .3s.8-.2 1-.3c.2-.1.3-.2.6-.2s.4.1.6.2c.2.1.5.3 1 .3s.8-.2 1-.3c.2-.1.3-.2.6-.2s.4.1.6.2c.1.1.3.2.5.2v3.5h-10v-3.8zm12.6 4.7v1.9c-.1 0-.2-.1-.3-.1-.2-.1-.5-.2-1.1-.2-.5 0-.8.1-1.1.2-.2.1-.4.1-.8.1s-.5-.1-.8-.1c-.2-.1-.5-.2-1.1-.2-.5 0-.8.1-1.1.2-.2.1-.4.1-.8.1s-.2 0-.4-.1-.5-.2-1.1-.2c-.5 0-.8.1-1.1.2-.2.1-.4.1-.8.1s-.5-.1-.8-.1c-.2-.1-.5-.2-1.1-.2s-.6.1-.9.2c-.2.1-.4.1-.8.1s-.5-.1-.8-.1c-.2-.1-.3-.1-.6-.2v-1.7h15.5zm-15.4 7.2v-4.6c.1 0 .2.1.3.1.2.1.5.2 1.1.2.5 0 .8-.1 1.1-.2.2-.1.4-.1.8-.1s.5.1.8.1c.2.1.5.2 1.1.2.5 0 .8-.1 1.1-.2.2-.1.4-.1.8-.1s.5.1.8.1c.2.1.5.2 1.1.2.5 0 .8-.1 1.1-.2.2-.1.4-.1.8-.1s.5.1.8.1c.2.1.5.2 1.1.2.5 0 .8-.1 1.1-.2.2-.1.4-.1.8-.1s.5.1.8.1c.2.1.3.1.6.2v4.4H14.9z"/></g>
    </symbol>
    <symbol id="icon-allergen-celery" viewBox="0 0 213.1 214.1">
      <path d="M213.1 65c-.5-9.1-6.1-17-14-20.9.7-2.4 1-5 .9-7.7-.3-6-2.9-11.7-7.3-16.1-4.7-4.7-11-7.3-17.3-7.3-2.2 0-4.4.3-6.5.9C165 6 157.1.4 148-.1c-6.5-.3-12.5 2-16.8 6.5-1.4 1.5-2.6 3.2-3.5 5.1-2.7-1-5.4-1.5-8.3-1.5-5.8 0-11.2 2.2-15.2 6.2-6.2 6.2-7.7 15.3-4.7 23.4-2.2 1.1-4.1 2.5-5.8 4.3-4 4.2-6.1 9.9-5.8 16 .3 5.7 2.6 10.9 6.2 15l-83.1 76c-.1.1-.2.2-.3.2-14.4 14.4-14.4 37.8 0 52.2 7.2 7.2 16.6 10.8 26.1 10.8s18.9-3.6 26.1-10.8c.1-.1.2-.2.2-.3l75.9-83.4c3.9 3.1 8.7 5 13.9 5.3h1.2c6 0 11.5-2.3 15.5-6.6 1.4-1.5 2.6-3.2 3.5-5.1 2.6 1 5.4 1.5 8.3 1.5 5.8 0 11.2-2.2 15.2-6.2 6.2-6.2 7.7-15.3 4.7-23.4 2.2-1.1 4.1-2.5 5.8-4.3 4.2-4 6.3-9.7 6-15.8zM52 194.2c-8.8 8.7-23.1 8.7-31.9-.1-8.8-8.8-8.8-23-.1-31.9L102.5 87c.3 3.7 1.4 7.3 3.2 10.5l-71 71c-3 3-3 7.9 0 10.9 1.5 1.5 3.5 2.3 5.5 2.3s4-.8 5.5-2.3l71.4-71.4c3.4 1.7 7.1 2.5 10.8 2.5h.2L52 194.2zM199.7 71.3c-1.2 1.3-3 2-4.9 2h-.5c-.5 0-1.1-.1-1.7-.3-3.7-.9-7.5 1-9.1 4.4-1.6 3.5-.5 7.6 2.7 9.8l1.5 1.2c3.6 3.6 4.2 9 1.2 11.9-1.6 1.6-3.5 1.9-4.8 1.9-2.5 0-5.1-1.1-7.1-3.1-.4-.4-.9-.9-1.2-1.5-2.2-3.1-6.3-4.2-9.8-2.7-3.5 1.6-5.3 5.4-4.4 9.1.1.6.2 1.1.3 1.7.1 2-.5 3.9-1.8 5.2-1.3 1.4-3.2 2.1-5.4 2-3.5-.2-6.7-2.4-8.4-5.5 0-.1-.1-.2-.1-.2-.7-1.2-1.1-2.6-1.1-4 0-.5 0-1.1.1-1.6.5-3.7-1.6-7.3-5.1-8.6-.9-.3-1.8-.5-2.8-.5-2.6 0-5.2 1.3-6.7 3.6-.2.4-.5.7-.8 1-1.6 1.6-3.5 1.9-4.8 1.9-2.5 0-5.1-1.1-7.1-3.1-1.9-1.9-3-4.2-3.1-6.6-.1-1.2.1-3.5 1.9-5.3.3-.3.6-.6 1-.8 3.1-2 4.4-6 3.1-9.4-1.3-3.5-4.9-5.6-8.5-5.1-.5.1-1.1.1-1.6.1-5-.3-9.4-4.7-9.7-9.7-.1-2 .5-3.9 1.8-5.2 1.3-1.4 3.2-2.1 5.4-2 .5 0 1.1.1 1.7.3 3.7.9 7.5-1 9.1-4.4 1.6-3.5.5-7.6-2.7-9.8l-1.5-1.2c-3.6-3.6-4.2-9-1.2-11.9 1.6-1.6 3.5-1.9 4.8-1.9 2.5 0 5.1 1.1 7.1 3.1.4.4.9.9 1.2 1.5 2.2 3.1 6.3 4.3 9.8 2.7 3.5-1.6 5.3-5.4 4.4-9.1-.1-.6-.2-1.2-.3-1.7-.1-2 .5-3.9 1.8-5.2 1.3-1.4 3.3-2.1 5.4-2 5 .3 9.4 4.7 9.7 9.7 0 .5 0 1-.1 1.6-.5 3.7 1.6 7.3 5.1 8.6 3.5 1.3 7.4 0 9.5-3.1.2-.4.5-.7.8-1 1.6-1.6 3.5-1.9 4.8-1.9 2.5 0 5.1 1.1 7.1 3.1 1.9 1.9 3 4.2 3.1 6.6.1 1.2-.1 3.5-1.9 5.3-.3.3-.6.6-1 .8-3.1 2-4.4 6-3.1 9.5 1.3 3.5 4.9 5.6 8.6 5.1.5-.1 1-.1 1.6-.1 5 .3 9.4 4.7 9.7 9.7-.1 1.9-.7 3.7-2 5.1z"/>
    </symbol>
    <symbol id="icon-allergen-egg" viewBox="0 0 86 86">
      <path d="M17.7 40.2C17.7 53 28.2 63.4 41 63.4S64.3 53 64.3 40.2 53.8 17.1 41 17.1 17.7 27.5 17.7 40.2zM41 21.1c10.6 0 19.3 8.6 19.3 19.1S51.6 59.4 41 59.4s-19.3-8.6-19.3-19.1S30.4 21.1 41 21.1zM33.1 10.7c.2 0 .5 0 .7-.1l.5-.2c1-.4 1.6-1.5 1.2-2.6S34 6.2 32.9 6.6l-.4.2c-1 .4-1.6 1.5-1.2 2.6.2.8 1 1.3 1.8 1.3z"/><path d="M79.8 28.6C73.5 24.3 65.6 15 62.5 8.4c-1.8-3.9-5-6.7-8.9-7.8-3.9-1.1-8.1-.5-11.8 1.9-.9.6-1.2 1.8-.6 2.8s1.8 1.2 2.8.6c2.7-1.7 5.7-2.2 8.5-1.4 2.8.8 5.1 2.8 6.4 5.7 3.4 7.3 11.8 17.1 18.7 21.8 2.6 1.8 4.2 4.4 4.4 7.2.2 3-1 5.9-3.5 8.3-6.3 6-12.1 18.1-12.9 27.1-.3 2.9-1.5 5.2-3.7 6.4-3 1.7-7.3 1.4-11.7-.8-9.5-4.7-25.3-7.3-35.1-7.2-3.9 0-7.1-1.4-9.2-4.1-1.9-2.6-2.4-6-1.4-9.3 2.7-8.7 3.2-22.7 1.2-31.2-.8-3.4-.2-6.7 1.7-9.3 1.9-2.5 4.8-4.1 8.3-4.3 3.7-.3 8.4-1.2 13.1-2.5 1.1-.3 1.7-1.4 1.4-2.5S28.8 8 27.7 8.3c-4.4 1.3-8.8 2.1-12.3 2.4-4.7.3-8.7 2.4-11.3 5.9-2.6 3.5-3.5 8-2.4 12.6C3.5 37.1 3 50.4.6 58.3c-1.4 4.6-.7 9.3 2 12.9C5.5 75 10 77 15.1 76.9c9.3-.2 24.2 2.3 33.2 6.8 3.1 1.5 6.2 2.3 9 2.3 2.4 0 4.5-.5 6.4-1.6 3.3-1.9 5.4-5.3 5.8-9.5.7-8 6-19.3 11.6-24.6 3.4-3.2 5.1-7.3 4.8-11.5-.3-4-2.4-7.6-6.1-10.2z"/>
    </symbol>
    <symbol id="icon-allergen-fisk" viewBox="0 0 100 73.7">
      <path d="M12 39.6c0 4.2 3.4 7.6 7.6 7.6 4.2 0 7.6-3.4 7.6-7.6S23.8 32 19.6 32c-4.2 0-7.6 3.4-7.6 7.6zm11.2 0c0 2-1.6 3.6-3.6 3.6S16 41.6 16 39.6s1.6-3.6 3.6-3.6 3.6 1.6 3.6 3.6z"/><path d="M99 26.9c-.6-.4-1.4-.3-2 .1l-9 5.8C80.5 16.3 66.3 4.7 48.6 1 44.4.1 40.2-.2 36 .1c-1.1.1-1.9 1-1.9 2.1s1 2 2.1 1.9c3.8-.2 7.7.1 11.5.9 17.2 3.5 30.9 15 37.5 31.5.2.6.7 1 1.3 1.2.6.2 1.2.1 1.7-.2l7.8-5.1v13.9l-7.9-4.6c-.5-.3-1.1-.3-1.7-.2-.5.2-1 .6-1.2 1.1-6.6 16.4-22.3 27-40 27-18.7 0-35.5-12.4-41.1-30.1C7.8 28 16.5 19.3 29.5 14.3c6.3 6.9 9.8 15.8 9.8 25.2 0 6.7-1.8 13.3-5.2 19-.6.9-.3 2.2.7 2.7 1 .6 2.2.3 2.7-.7 3.8-6.3 5.8-13.6 5.8-21.1 0-10.9-4.2-21.1-11.8-28.9-.5-.6-1.4-.7-2.1-.5C14.3 15.6 4.1 25.6.1 39c-.1.4-.1.8 0 1.2C6 59.9 24.6 73.7 45.2 73.7 63.8 73.7 80.3 63 88 46.3l9 5.2c.6.4 1.4.4 2 0s1-1 1-1.7V28.7c0-.8-.4-1.4-1-1.8z"/>
    </symbol>
    <symbol id="icon-allergen-hvete" viewBox="0 0 90 90">
      <path d="M60.7 53.4L51 50c-1-.4-2.2.2-2.5 1.2-.4 1 .2 2.2 1.2 2.5l6.5 2.3-3.4 3c-1 .9-3.6 1.4-5.6.7L36.8 56l5-5c.8-.8.8-2 0-2.8s-2-.8-2.8 0l-5 5-3.8-10.4c-.7-1.8-.3-4.4.7-5.6l3-3.4 2.2 6.4c.4 1 1.5 1.6 2.5 1.2 1-.4 1.6-1.5 1.2-2.5l-3.3-9.6c-.2-.7-.8-1.2-1.5-1.3-.7-.1-1.4.1-1.9.6l-5.3 6c-2 2.3-2.6 6.4-1.5 9.6l4.9 13.3v.1c0 .1.1.2.2.3v.1l.3.3s.1 0 .1.1c.1.1.2.1.3.2 0 0 .1 0 .1.1 0 0 .1 0 .1.1l13.3 4.9c1.1.4 2.3.6 3.5.6 2.3 0 4.6-.7 6.1-2.1l6-5.3c.5-.5.8-1.2.6-1.9.1-.8-.4-1.4-1.1-1.6z"/><path d="M43.9 67l-5.2 4.6c-.8.7-3.1 1.1-4.8.4l-9.4-3.7 4.8-4.8c.8-.8.8-2 0-2.8-.8-.8-2-.8-2.8 0l-4.8 4.8-3.7-9.4c-.7-1.7-.3-3.9.4-4.8l4.6-5.2c.7-.8.7-2.1-.2-2.8-.8-.7-2.1-.7-2.8.2l-4.6 5.2c-1.8 2.1-2.3 5.9-1.1 8.9l4.8 12.2c.1.1.1.3.2.4l.1.1c.1.1.2.2.2.3l.1.1c.1.1.2.1.3.2l.1.1h.1l12.2 4.8c1.1.4 2.3.6 3.5.6 2.1 0 4.1-.6 5.4-1.8l5.2-4.6c.8-.7.9-2 .2-2.8-.8-.8-2-.9-2.8-.2z"/><path d="M30.8 78.6l-4.6 4.1c-.7.6-2.6.8-4.1.2l-8.5-3.6 4.1-4.1c.8-.8.8-2 0-2.8-.8-.8-2-.8-2.8 0l-4.1 4.1L7.2 68c-.6-1.5-.4-3.4.2-4.1l4.1-4.6c.7-.8.7-2.1-.2-2.8-.8-.7-2.1-.7-2.8.2l-4.1 4.6c-1.7 1.9-2.1 5.5-.9 8.3l4.2 10.1-7.2 7.1c-.8.8-.8 2 0 2.8.5.2 1 .4 1.5.4s1-.2 1.4-.6l7.1-7.1 10.1 4.2c1.1.5 2.3.7 3.5.7 1.8 0 3.6-.5 4.8-1.6l4.6-4.1c.8-.7.9-2 .2-2.8-.8-.8-2-.9-2.9-.1zM52.7 28.5c-4.8.2-8.8 4.4-8.9 9.2l-.1 6.7c0 .5.2 1.1.6 1.5.4.4.9.6 1.4.6l6.7-.1c4.8-.1 9-4.1 9.2-8.9l.4-7.1c0-.6-.2-1.1-.6-1.5s-1-.6-1.5-.6l-7.2.2zm4.8 8.6c-.1 2.8-2.5 5.1-5.3 5.1l-4.6.1.1-4.6c0-2.8 2.4-5.1 5.1-5.3l4.9-.3-.2 5zM39.9 26.1c.6 0 1.1-.2 1.5-.7L61 3.3c.7-.8.7-2.1-.2-2.8-.8-.7-2.1-.7-2.8.2L38.4 22.8c-.7.8-.7 2.1.2 2.8.3.3.8.5 1.3.5zM52.7 23.9c.4.4.9.5 1.4.5.5 0 1.1-.2 1.5-.6l12.2-13c.8-.8.7-2.1-.1-2.8s-2.1-.7-2.8.1l-12.2 13c-.8.8-.8 2 0 2.8zM65.8 24.2c.4.4.9.6 1.4.6.5 0 1-.2 1.4-.6l6.5-6.5c.8-.8.8-2 0-2.8-.8-.8-2-.8-2.8 0l-6.5 6.5c-.7.7-.7 2 0 2.8zM66.1 37.3c.4.4.9.6 1.5.6.5 0 1-.2 1.4-.5l13-12.2c.8-.8.8-2 .1-2.8-.8-.8-2-.8-2.8-.1l-13 12.2c-.9.7-.9 2-.2 2.8zM89.5 29.2c-.7-.8-2-.9-2.8-.2L64.6 48.6c-.8.7-.9 2-.2 2.8.4.4.9.7 1.5.7.5 0 .9-.2 1.3-.5L89.3 32c.9-.7.9-2 .2-2.8z"/>
    </symbol>
    <symbol id="icon-allergen-lupin" viewBox="0 0 282.7 283.6">
      <path d="M153.7 152.8c-15.9 0-22.1-11.1-17.2-28.8 21.5 0 22.9 15.1 22.9 28.8h-5.7zm-6.7-39.4h-12.7c-12.6 0-21.7 10.2-21.7 22.6v14.9c0 13 9.1 23.2 21.7 23.2h13.5c11.9 0 21.2-9.7 21.2-22.8V136c-.1-12.4-9.6-22.6-22-22.6zm6.7-33.9c-15.9 0-22.1-11.1-17.2-28.8 21.5 0 22.9 15.1 22.9 28.8h-5.7zM147 40.1h-12.7c-12.6 0-21.7 10.2-21.7 22.6v14.9c0 13 9.1 23.2 21.7 23.2h13.5c11.9 0 21.2-9.7 21.2-22.8V62.7c-.1-12.5-9.6-22.6-22-22.6zm6.7 185.9c-15.9 0-22.1-11.1-17.2-28.8 21.5 0 22.9 15.1 22.9 28.8h-5.7zm-6.7-39.4h-12.7c-12.6 0-21.7 10.2-21.7 22.6v14.9c0 13 9.1 23.2 21.7 23.2h13.5c11.9 0 21.2-9.7 21.2-22.8v-15.3c-.1-12.4-9.6-22.6-22-22.6zM31.5 0h220.2c20.8 0 31 11.1 31 32.4v220.4c0 20.8-10.2 30.8-30.7 30.8H30.3C10.2 283.6 0 272.9 0 252.8V32.4C0 10.7 11.4 0 31.5 0z"/>
    </symbol>
    <symbol id="icon-allergen-melk" viewBox="0 0 52.8 90">
      <path d="M43.7 13c2.5-1 4.3-3.4 4.3-6.3C48 3 45 0 41.3 0H26.8c-1.1 0-2 .9-2 2s.9 2 2 2h14.5C42.8 4 44 5.2 44 6.8s-1.2 2.8-2.8 2.8H11.5c-1.5 0-2.8-1.2-2.8-2.8S10 4 11.5 4h.9c1.1 0 2-.9 2-2s-.9-2-2-2h-.9C7.8 0 4.8 3 4.8 6.8c0 2.9 1.8 5.3 4.3 6.3C9 19.3 7 23.9 4.9 28.7 2.5 34.2 0 39.9 0 48.4v32.8C0 86.1 3.9 90 8.8 90H44c4.8 0 8.8-3.9 8.8-8.8V48.4c0-8.6-2.5-14.2-4.9-19.7-2.1-4.8-4.1-9.4-4.2-15.7zm5.1 68.2c0 2.6-2.1 4.8-4.8 4.8H8.8C6.1 86 4 83.9 4 81.2V48.4c0-7.7 2.2-12.8 4.6-18.1 2.1-4.9 4.3-9.9 4.5-16.8h26.7c.2 6.9 2.4 11.9 4.5 16.8.1.3.3.6.4.9-4 4.7-8.8 3.3-14.4 1.7-5.7-1.7-12.1-3.5-17.4 2.3-.7.8-.7 2.1.1 2.8.4.3.9.5 1.3.5.5 0 1.1-.2 1.5-.7 3.4-3.8 7.3-2.9 13.3-1.1 5.3 1.5 11.7 3.4 17.1-1.5 1.4 3.8 2.5 7.8 2.5 13.2v32.8z"/><path d="M20.8 4h.2c1.1 0 2-.9 2-2s-.9-2-2-2h-.3c-1.1 0-2 .9-2 2s1 2 2.1 2z"/>
    </symbol>
    <symbol id="icon-allergen-nuts" viewBox="0 0 90 81.6">
      <path d="M65.9 36.9c1.6-5.4 2.5-11 2.6-16.7.1-5.2-1.8-10.2-5.4-14-3.6-3.8-8.5-6-13.7-6.1-5.2-.1-10.2 1.8-14.1 5.4-3.8 3.6-6 8.5-6.1 13.7-.3 9.5-5.5 18.3-13.7 23-1 .6-1.3 1.8-.7 2.7s1.8 1.3 2.7.7c9.4-5.4 15.4-15.5 15.7-26.4.1-4.2 1.9-8.1 4.9-10.9 3-2.9 7-4.4 11.2-4.3 4.2.1 8.1 1.9 10.9 4.9 2.9 3 4.4 7 4.3 11.2-.7 24.8-16 46.9-38.9 56.3-8 3.3-17.2-.5-20.5-8.5-.8-2-1.2-4.2-1.2-6.4.1-4.9 2.6-9.5 6.6-12.4.9-.6 1.1-1.9.5-2.8-.6-.9-1.9-1.1-2.8-.5-5 3.5-8.1 9.4-8.3 15.5-.1 2.8.4 5.5 1.5 8C4.6 77 12 81.6 19.7 81.6c2.5 0 5-.5 7.5-1.5 7-2.9 13.3-6.9 18.8-11.8 4.3 5 13 11.2 24.4 11.2 4.1 0 8.5-.8 13.2-2.8 1-.4 1.5-1.6 1.1-2.6-.4-1-1.6-1.5-2.6-1.1-15.7 6.6-28.1-1.5-33.2-7.4 1.4-1.4 2.7-2.8 3.9-4.3 4.1 3.8 13.1 8.5 21 8.8h.1c1.1 0 2-.8 2-1.9 0-1.1-.8-2-1.9-2.1-7.3-.3-15.6-4.9-18.6-7.9 3.9-5.3 7.1-11.2 9.3-17.5C85.7 46.4 86 65.1 86 65.9c0 1.1.9 2 2 2s2-.9 2-2c0-.2-.3-22.4-24.1-29z"/><path d="M41.2 55.1c.4 0 .9-.1 1.2-.4 10.2-7.8 14.9-24 14.9-35.7 0-1.1-.9-2-2-2s-2 .9-2 2c0 9-3.5 25-13.3 32.5-.9.7-1 1.9-.4 2.8.5.5 1 .8 1.6.8z"/>
    </symbol>
    <symbol id="icon-allergen-peanuts" viewBox="0 0 89.8 82.3">
      <path d="M53 44.2c-1-.4-2-.7-2.8-1.1h-.1c-4.1-1.5-9.4-7-10.6-11.1v-.1c-.3-.9-.6-1.9-.9-2.9-1-3.1-2.1-6.7-4.3-9.6-1.7-2.2-3.5-4.3-5.5-6.1-.8-.8-2.1-.7-2.8.1s-.7 2.1.1 2.8c1.8 1.7 3.5 3.5 5 5.6 1.8 2.4 2.8 5.5 3.7 8.4.3 1 .6 2 1 3 1.6 5.4 7.7 11.8 13.1 13.7 1 .4 1.9.7 3 1.1 2.9 1.1 5.9 2.1 8.2 4.1.4.3.8.5 1.3.5.6 0 1.1-.3 1.5-.7.7-.9.6-2.1-.3-2.8-3.1-2.5-6.5-3.8-9.6-4.9zM24.2 9.6c-.2-.2-.5-.3-.7-.5-.9-.6-2.2-.3-2.8.6-.6.9-.3 2.2.6 2.8.2.1.4.3.6.4.3.2.7.4 1.1.4.6 0 1.3-.3 1.6-.9.7-1 .5-2.2-.4-2.8z"/><path d="M88.9 37.5c-.9-.6-2.2-.3-2.8.6-2.6 4.1-7.7 6.9-13.6 7.5-1.2-1.5-2.6-2.8-4.1-4-3.3-2.6-7.6-3.4-11.4-4.2-.5-.1-1.1-.2-1.6-.3-.8-.2-1.6-.5-2.4-.8-1.9-3.4-2.2-7-.7-10.8 1.6-4 4.4-6.6 8.5-7.7 3.7-1 8.1-.6 12.3 1.1.3.1.6.3 1 .4 4.9 2.2 9 6.6 10.9 11.7.4 1 1.5 1.6 2.6 1.2s1.6-1.5 1.2-2.6c-2.1-5.5-6.4-10.4-11.6-13.2.5-3 .3-5.9-.6-8.5-.1-.2-.2-.5-.4-.7C70-.3 57.2-2.1 47.7 3c-3.9 2.2-7.1 5.1-9.3 8.4C33.2 6 26 3.1 18.3 3.1c-3.3 0-6.6.6-9.8 1.7-.2 0-.5.2-.7.4C-2 14.3-2.7 30.4 6.4 41.8c3.6 4.6 9.3 6.7 13.5 8.3 3.8 1.7 10.7 7.5 12.4 12.4 1.5 4.2 3.6 9.9 8.3 13.5 5.2 4.1 11.6 6.3 18 6.3 7.3 0 14.1-2.8 18.7-7.8.2-.2.3-.4.4-.7 3-8.3 1.9-17.3-2.4-24.6 6.1-1.1 11.4-4.4 14.3-9 .5-.9.2-2.1-.7-2.7zm-39.2-31c7.6-4.2 18.2-2.8 23.2 2.9.5 1.7.6 3.5.4 5.3-4.7-1.6-9.4-1.9-13.6-.8-5.3 1.4-9.2 4.9-11.2 10.1-1 2.5-1.3 5-1.2 7.4-1.1-1.5-1.8-3.1-2.1-4.5-.1-.5-.2-1-.3-1.6-.7-3.6-1.5-7.6-3.7-10.8 1.7-3.1 4.7-6 8.5-8zm24.2 65.6c-3.8 4-9.4 6.2-15.5 6.2-5.5 0-11-1.9-15.5-5.5-3.8-2.9-5.6-8-7-11.7C33.8 55 26 48.4 21.3 46.4h-.1c-3.7-1.4-8.8-3.3-11.8-7-7.6-9.7-7.3-23.2.8-31 2.6-.9 5.3-1.3 8-1.3 7.6 0 14.7 3.4 19.4 9.3 2 2.5 2.7 6.2 3.4 9.7.1.5.2 1.1.3 1.6.9 4.2 4.3 9.1 9.2 11.7 0 0 .1 0 .1.1 1.2.6 2.5 1.1 3.9 1.4.5.1 1.1.2 1.6.3 3.5.7 7.2 1.4 9.7 3.4 1.5 1.2 2.9 2.6 4.1 4.1v.1c5.2 6.5 6.8 15.2 4 23.3z"/>
    </symbol>
    <symbol id="icon-allergen-sennep" viewBox="0 0 40 65.7">
      <path d="M34.5 0h-29C3.9 0 2.6 1.3 2.6 2.9v2.4c0 1.6 1.3 2.9 2.9 2.9h29c1.6 0 2.9-1.3 2.9-2.9V2.9c.1-1.6-1.3-2.9-2.9-2.9zM33.3 14.4v-4.2H6.7v4.2c-3.7 0-6.7 3-6.7 6.7V59c0 3.7 3 6.7 6.7 6.7h26.6c3.7 0 6.7-3 6.7-6.7V21.1c0-3.7-3-6.7-6.7-6.7zM36 59c0 1.5-1.2 2.7-2.7 2.7H6.7C5.2 61.7 4 60.5 4 59V37h32v22z"/>
    </symbol>
    <symbol id="icon-allergen-sesame" viewBox="0 0 35.3 14.5">
      <path d="M4.9 1.7C4.8 4.3 4.3 5 3.5 5.8c-.8.8-2.2.9-3 .2-.8-.8-.6-2.2.2-3 .8-.8 1.5-1.3 4.2-1.3zM9.6 12.3c-.3 1-1.5 1.9-2.5 1.5-1-.3-1.5-1.7-1.2-2.7.3-1.1.7-1.8 3-3.1 1.2 2.4 1 3.3.7 4.3zM20 3.9c0 1.1-.9 2.2-2 2.2S16 5 16 3.9s.1-2 2-3.9c1.9 2 2 2.8 2 3.9zM28.8 14.4c-1 .4-2.2-.4-2.6-1.4-.4-1.1-.6-1.9.4-4.3 2.4 1.1 2.8 1.8 3.2 2.9.4 1 0 2.4-1 2.8zM34.9 5.3c-.7.8-2.1.8-3 .1-.9-.7-1.4-1.4-1.7-4 2.6-.2 3.3.2 4.2 1 .9.7 1.2 2.1.5 2.9z"/>
    </symbol>
    <symbol id="icon-allergen-skalldyr" viewBox="0 0 90 67.7">
      <path d="M56.6 39c1.1 0 2-.9 2-2V18.9c0-1.1-.9-2-2-2H32.8c-1.1 0-2 .9-2 2s.9 2 2 2h21.8V35H44.1c-4.3 0-8.6-3.1-12.7-6-4.1-3-8.1-5.8-12.2-5.8l-2.9 2 2.9 2c2.9 0 6.3 2.5 9.9 5 4.2 3 8.9 6.4 14 6.8l-10 10c-.8.8-.8 2 0 2.8.4.4.9.6 1.4.6s1-.2 1.4-.6L48.8 39h7.8z"/><path d="M25.2 16.9c-1.1 0-2 .9-2 2s.9 2 2 2h.2c1.1 0 2-.9 2-2s-.9-2-2-2h-.2zM14.2 16.9c-1.1 0-2 .9-2 2s.9 2 2 2h3.7c1.1 0 2-.9 2-2s-.9-2-2-2h-3.7zM64.6 16.9c-1.1 0-2 .9-2 2s.9 2 2 2c11.8 0 21.4 9.6 21.4 21.4 0 11.8-9.6 21.4-21.4 21.4H39c-1.1 0-2 .9-2 2s.9 2 2 2h25.6c14 0 25.4-11.4 25.4-25.4 0-14-11.4-25.4-25.4-25.4z"/><path d="M13.4 27.1h.2c.9 0 1.7-.6 1.9-1.5.1-.2.1-.4.1-.6s0-.4-.1-.6c-.2-.8-1-1.5-1.9-1.5-5.3 0-9.6-4.3-9.6-9.6S8.3 4 13.6 4H85c1.1 0 2-.9 2-2s-.9-2-2-2H13.6C6.1 0 0 6.1 0 13.6 0 21 6 27 13.4 27.1zM28.6 36.5L16.7 48.4H5.6c-1.1 0-2 .9-2 2s.9 2 2 2h11.9c.5 0 1-.2 1.4-.6l12.5-12.5c.8-.8.8-2 0-2.8s-2-.8-2.8 0zM64.6 57.5H48.1c-1.1 0-2 .9-2 2s.9 2 2 2h16.5c7.3 0 13.3-5.9 13.3-13.3 0-7.2-6-13.2-13.3-13.2-.2 0-.4 0-.6.1-.3.1-.6.3-.8.5L49.8 49c-.8.8-.8 2 0 2.8s2 .8 2.8 0L65.4 39c4.7.4 8.5 4.4 8.5 9.2 0 5.2-4.2 9.3-9.3 9.3z"/>
    </symbol>
    <symbol id="icon-allergen-softshell" viewBox="0 0 90 74.7">
      <path d="M49.8 70.7h-19l3.2-5.5c.4-.6.4-1.4 0-2-.2-.4-.5-.6-.9-.8L4.2 33.5c.9-4.2 2.6-8.2 5.1-11.8.6-.9.4-2.2-.5-2.8-.9-.6-2.2-.4-2.8.5-3 4.5-5 9.3-6 14.4-.1.6.1 1.3.6 1.8l29.1 29.1-4.1 7c-.4.6-.4 1.4 0 2 .4.6 1 1 1.7 1h22.5c1.1 0 2-.9 2-2s-.9-2-2-2zM19.8 11.2c.4 0 .7-.1 1.1-.3l.3-.2c.9-.6 1.2-1.8.7-2.8-.7-.9-1.9-1.2-2.8-.6l-.3.2c-.9.6-1.2 1.8-.6 2.8.3.5.9.9 1.6.9zM73.4 8.9C65.2 3.2 55.2 0 45 0c-6.9 0-13.9 1.5-20.3 4.3-1 .4-1.5 1.6-1 2.6.4 1 1.6 1.5 2.6 1C32.2 5.4 38.6 4 45 4c22.6 0 37.5 14.7 40.8 29.6L56.9 62.5c-.4.2-.7.4-.9.8-.4.6-.4 1.4 0 2l4.9 8.5c.4.6 1 1 1.7 1 .3 0 .7-.1 1-.3 1-.6 1.3-1.8.7-2.7l-4.1-7 29.1-29.1c.5-.5.7-1.1.6-1.8-1.8-10.1-7.6-18.8-16.5-25z"/><path d="M36.5 59c.7 0 1.4-.4 1.7-1l5.7-9.9 1.3 2.3c.5 1 1.8 1.3 2.7.8 1-.5 1.3-1.8.8-2.7l-3-5.4c-.4-.6-1-1-1.7-1s-1.4.4-1.7 1L34.8 56c-.5 1-.2 2.2.7 2.7.4.2.7.3 1 .3z"/>
    </symbol>
    <symbol id="icon-allergen-soya" viewBox="0 0 81.8 90">
      <path d="M73.1 8.8c-.2-.7-.8-1.2-1.4-1.4-.7-.2-1.4 0-1.9.6-2.8 3-6.2 5.1-9.4 7.2-2.7 1.7-5.2 3.4-7.3 5.4-.5-3.9-2.3-7.6-6-10.3C43.4 7.6 40 4.2 37.6.8c-.4-.6-1.1-.9-1.8-.8-.7.1-1.3.5-1.6 1.2-1.5 3.3-3.7 6.1-5.7 8.7-1.8 2.4-3.6 4.6-4.7 7-2.4 5-2.4 10.7-.1 15.3-.1 2.1-.7 4.1-1.8 5.9-1.2 1.4-2.2 2.9-3 4.5-.8 1.6-1.4 3.4-1.7 5.1-.7 1.9-1.9 3.7-3.5 5-5 1-9.4 4.6-11.8 9.6-.9 1.6-1.4 3.6-1.9 6-.2 1.1.5 2.1 1.6 2.3h.3c1 0 1.8-.7 2-1.7.4-2.1.8-3.7 1.4-4.8 1.9-4.1 5.5-6.9 9.4-7.5.3-.1.7-.2.9-.4 2.4-1.9 4.1-4.4 5.2-7.3 0-.1.1-.2.1-.3.3-1.5.7-2.9 1.4-4.3s1.5-2.6 2.5-3.8c.1-.1.1-.2.2-.3 1.6-2.6 2.4-5.5 2.4-8.6 0-.3-.1-.7-.3-1-2-3.5-2-8 0-12.1 1-2.1 2.6-4.1 4.3-6.3 1.6-2 3.3-4.2 4.8-6.7 2.4 2.8 5.3 5.5 8.4 7.8 4.6 3.4 5.1 8.7 4 13.1-.5 1.1-.9 2.2-1.2 3.4v.2c-.6 2.2-.7 4.5-.4 6.7-.9 2.2-2.3 4.2-4.2 5.8-1.7 1-3.4 2.3-4.8 3.7-1.4 1.4-2.7 3.1-3.7 4.8-1.5 1.9-3.5 3.3-5.8 4.2-.8-.1-1.5-.2-2.3-.2-5 0-10 2.2-13.7 5.9-2.8 2.8-5 7.4-6.9 11.4C4.3 75 2.9 78 1.9 78.8c-.5.4-.8 1.1-.7 1.8.1.7.6 1.3 1.2 1.6 2.7 1.1 7.8 3.8 10.5 5.2.9.5 1.6.8 1.9 1 2.1 1 4.4 1.6 6.9 1.6 5 0 10-2.2 13.7-5.9.5-.5 1.1-1.1 1.6-1.8 1.7-2 3.8-3.4 6.3-4.3 1.6.4 3.3.7 5 .7 5.6 0 11.1-2.4 15.4-6.6 5.6-5.6 7.9-13.5 5.9-20.3.8-2.4 2.3-4.6 4.2-6.2.7-.6 1.3-1.1 1.9-1.6 6.2-6.2 7.9-15.2 4-21.3-3.3-5.3-5.4-9.8-6.6-13.9zm-.3 32.3c-.4.4-.9.8-1.6 1.4-2.7 2.3-4.7 5.3-5.7 8.7-.1.4-.1.8 0 1.2 1.8 5.6-.1 12.2-4.8 16.9-3.5 3.5-8 5.4-12.5 5.4-1.5 0-3-.2-4.4-.7-.4-.1-.8-.1-1.2 0-3.4 1-6.4 3-8.8 5.7-.5.6-.9 1.1-1.3 1.5-3 3-7 4.7-10.9 4.7-1.9 0-3.6-.4-5.2-1.2-.3-.1-1-.5-1.9-.9-2-1-5.5-2.8-8.2-4.1.9-1.5 1.8-3.4 2.9-5.5 1.8-3.7 3.8-8 6.1-10.3 3-3 7-4.7 10.9-4.7.7 0 1.5.1 2.2.2.3.1.7 0 1-.1 3.2-1.1 6-3.1 8.1-5.7.1-.1.1-.2.2-.3.9-1.5 1.9-2.9 3.1-4.1 1.2-1.2 2.6-2.3 4.1-3.1.1-.1.2-.1.3-.2 2.6-2.1 4.6-4.9 5.7-8.1.1-.3.1-.7.1-1-.3-1.8-.2-3.7.2-5.6.5-1 .8-2 1.2-3.1.8-1.6 1.8-3.1 3.2-4.4 1.8-1.8 4.3-3.4 7-5.1 2.5-1.6 5.2-3.4 7.8-5.6 1.4 3.6 3.4 7.4 6.1 11.7 2.6 4.5 1.2 11.5-3.7 16.4z"/><path d="M66.4 22.2c-3.1 0-6.2 1.4-8.6 3.8-2.2 2.2-3.6 5.1-3.8 7.9-.1 1.5 0 4.3 2.2 6.5 1.8 1.8 4.1 2.2 5.7 2.2 3.1 0 6.2-1.4 8.6-3.8 2-2 3.3-4.6 3.7-7.2.4-2.8-.4-5.4-2.1-7.1-1.8-1.9-4.1-2.3-5.7-2.3zm3.9 8.8c-.2 1.7-1.2 3.5-2.6 4.9-1.7 1.7-3.8 2.6-5.8 2.6-.8 0-2-.2-2.9-1.1-1-1-1.1-2.5-1-3.3.1-1.9 1.1-3.8 2.6-5.3 1.7-1.7 3.8-2.6 5.8-2.6.8 0 2 .2 2.9 1.1.8.8 1.2 2.1 1 3.7zM53.3 47c-3.6 0-7.4 1.6-10.2 4.5-2.6 2.6-4.2 6-4.5 9.4-.2 3.1.7 5.9 2.7 7.9 2.3 2.3 5 2.7 7 2.7 3.6 0 7.4-1.6 10.2-4.5 2.6-2.6 4.2-6 4.5-9.4.2-3.1-.7-5.9-2.7-7.9-2.3-2.3-5-2.7-7-2.7zM59 57.3c-.2 2.4-1.4 4.9-3.3 6.8-2.1 2.1-4.8 3.3-7.4 3.3-1.2 0-2.9-.3-4.2-1.6-1.1-1.1-1.7-2.8-1.5-4.8.2-2.4 1.4-4.9 3.3-6.8 2.1-2.1 4.8-3.3 7.4-3.3 1.2 0 2.9.3 4.2 1.6 1.1 1.2 1.6 2.8 1.5 4.8zM26.2 62.4c-3.1 0-6.2 1.4-8.6 3.8-2 2-3.3 4.6-3.7 7.2-.4 2.8.4 5.4 2.1 7.1 1.8 1.8 4.1 2.2 5.7 2.2 3.1 0 6.2-1.4 8.6-3.8 2-2 3.3-4.6 3.7-7.2.4-2.8-.4-5.4-2.1-7.1-1.8-1.8-4.1-2.2-5.7-2.2zm3.9 8.8c-.2 1.7-1.2 3.5-2.6 4.9-1.7 1.7-3.8 2.6-5.8 2.6-.8 0-2-.2-2.9-1.1-.9-.9-1.2-2.2-1-3.8.2-1.7 1.2-3.5 2.6-4.9 1.7-1.7 3.8-2.6 5.8-2.6.8 0 2 .2 2.9 1.1.8.9 1.2 2.2 1 3.8z"/>
    </symbol>
    <symbol id="icon-allergen-sulfit" viewBox="0 0 100 91.8">
      <path d="M30.7 73c6.1 5 13.8 8.1 22.3 8.1M53 83.1c-8.6 0-17-3-23.6-8.5-.8-.7-1-2-.3-2.8s2-1 2.8-.3c5.9 4.9 13.4 7.6 21.1 7.6 1.1 0 2 .9 2 2s-.9 2-2 2zM37.6 51.4c0 10.4-8.4 18.8-18.8 18.8S0 61.8 0 51.4s8.4-18.8 18.8-18.8c10.4.1 18.8 8.5 18.8 18.8zM94.3 74.2c0 9.7-7.9 17.6-17.6 17.6-9.7 0-17.6-7.9-17.6-17.6 0-9.7 7.9-17.6 17.6-17.6 9.7 0 17.6 7.9 17.6 17.6zM100 35.2c0-7.3-5.9-13.2-13.2-13.2-1.7 0-3.2.3-4.7.9C76 15.3 67 10.1 56.7 9.1 54.4 3.7 49.1 0 43 0c-8.3 0-15 6.7-15 15 0 1.1.1 2.2.4 3.2-2.8 2.5-5.2 5.4-7.2 8.7-.7 1.1-.3 2.6.8 3.3 1.1.7 2.6.3 3.3-.8 6-9.8 16.3-15.7 27.8-15.7 17.9 0 32.5 14.6 32.5 32.5 0 2.2-.2 4.4-.7 6.6-.3 1.3.6 2.6 1.9 2.8h.5c1.1 0 2.1-.8 2.3-1.9.4-1.9.6-3.8.7-5.8 5.6-1.5 9.7-6.6 9.7-12.7z"/>
    </symbol>
    <symbol id="icon-booking" viewBox="0 0 88 50.1">
      <path d="M4 50.1c-1.9 0-2.9-.9-3.4-1.6-1.1-1.6-.4-3.4-.3-3.8L11.5 7.1c.3-.9 1-1.5 1.9-1.6 5.9-.7 10.4-1.8 13.2-3.2 3-1.5 6.2-2.3 9-2.3 3.7 0 6.7 1.3 8.5 3.5 2-2.2 5-3.5 8.6-3.5 2.9 0 6 .8 9.1 2.4C64.6 3.8 69 4.8 75 5.5c.9.1 1.6.7 1.9 1.6l10.8 36.3c.1.5.8 3.1-.6 4.9-1 1.3-2.4 1.9-4.7 1.5-5.2-.9-10.5-2.1-14.4-4-3.8-1.9-7.7-2.9-11-2.9s-5.8 1-7.1 2.9c-.4.7-1.2 1.1-2 1l-7.5-.2c-.7 0-1.3-.4-1.7-.9-2.7-3.6-8.4-3.5-18.7.3-4.4 1.6-9.6 3-14.6 3.9-.5.1-1 .2-1.4.2zm53.1-11.7c4 0 8.5 1.2 13 3.4 3.3 1.7 8.3 2.7 13.1 3.6h.3c0-.2 0-.5-.1-.8L73 9.8C67.2 9 62.8 7.9 59.8 6.4c-2.5-1.2-4.9-1.9-7.1-1.9-3.9 0-6.3 2-6.3 5.4 0 1.2-1 2.3-2.3 2.3s-2.3-1-2.3-2.3c0-3.4-2.4-5.4-6.3-5.4-2.2 0-4.6.7-7.1 1.9-3 1.5-7.4 2.7-13.2 3.4L4.8 45.5c4.7-.9 9.6-2.2 13.8-3.7 5.8-2.1 10.4-3.1 14-3.1 3.9 0 6.9 1.2 9.1 3.5l5.3.2c2.2-2.6 5.7-4 10.1-4z"/><path d="M81 49.6c-.3 0-.6-.1-.9-.2-6.2-2.6-11.3-5-15.9-7.5l-.9-.5c-4.2-2.3-8.2-4.5-12.7-4.3-.8.1-3.9.5-4.9.9-.4.4-1 .6-1.6.6-1.2 0-2.3-1-2.3-2.3V9.9c0-1.2 1-2.3 2.3-2.3s2.3 1 2.3 2.3v23.2c1.1-.2 2.4-.4 4-.5 5.7-.3 10.7 2.4 15.1 4.8l.9.5c4.5 2.4 9.4 4.8 15.4 7.3 1.1.5 1.7 1.8 1.2 2.9-.3 1-1.1 1.5-2 1.5z"/><path d="M13.1 41.5c-1 0-2-.7-2.2-1.8-.2-1.2.6-2.4 1.8-2.6 2.2-.4 3.4-.9 5.4-1.7 1.4-.6 3.2-1.3 5.8-2.2 12.8-4.3 21.3 1.1 21.6 1.3 1 .7 1.3 2.1.7 3.1-.7 1-2.1 1.3-3.1.7-.3-.2-7.1-4.4-17.7-.8-2.5.8-4.2 1.5-5.6 2.1-2 .8-3.6 1.5-6.2 2-.2-.1-.4-.1-.5-.1z"/>
    </symbol>
    <symbol id="icon-checkmark" viewBox="0 0 52.1 39.9">
      <path d="M49.7.038c-.4.1-.8.3-1.2.6-10.2 10.3-20.5 20.5-30.7 30.7l-14.5-12.1c-.8-.8-2.1-.7-2.8.1s-.7 2.1.1 2.8l.2.2 16.2 17.2c.8.7 2.3.4 3.4-.9 10.7-10.7 20.4-24.4 31.1-35.1.8-.8.8-2 .1-2.8-.6-.6-1.2-.8-1.9-.7z"/>
    </symbol>
    <symbol id="icon-clock" viewBox="0 0 59.3 59.3">
      <path class="st0" d="M54.8 14.1c-.1-.2-.2-.3-.3-.5-.4-.5-1-.8-1.6-.8-1.2 0-2.1.9-2.1 2.1v.1c0 .3.1.6.2.9 0 .1.1.1.1.2 0-.1-.1-.1-.1-.2l.1.1c.1.2.3.4.4.6 0 .1.1.1.1.2.2.4.5.8.7 1.3 0 0 0 .1.1.1l.3.6c.1.1.1.2.2.4s.2.4.2.6c.1.2.2.4.2.6.1.2.2.5.3.7.1.2.1.4.2.6.1.2.1.3.2.5s.1.5.2.7c0 .1.1.3.1.4.1.3.2.6.2 1 0 .1.1.3.1.4 0 .3.1.5.1.8 0 .1 0 .2.1.3.1.4.1.7.1 1.1v.3c0 .3.1.6.1.9v1.5C55 43.6 43.6 55 29.6 55c-14 0-25.4-11.4-25.4-25.4 0-6.8 2.6-13.2 7.4-18 4.8-4.8 11.2-7.4 18-7.4h1.6c.3 0 .5 0 .8.1h.4c.3 0 .5.1.8.1.1 0 .3 0 .4.1.3 0 .6.1.9.2h.2c.4.1.8.2 1.1.3.1 0 .2.1.3.1.3.1.5.1.8.2.1 0 .3.1.4.1.2.1.5.2.7.2.1 0 .3.1.4.1l.8.4c.1 0 .2.1.3.1.3.1.7.3 1 .5.1 0 .2.1.2.1.3.1.5.3.8.4.1.1.2.1.4.2s.4.2.6.4c.2.1.3.1.5.2s.4.3.6.4c.1.1.2.2.4.2.2.2.5.3.7.5.1 0 .1.1.2.1s.1.1.2.2h.1c-.1 0-.2-.1-.3-.2.1.1.2.1.3.2.1 0 .1.1.2.1s.1 0 .2.1H46.2c1.2 0 2.1-.9 2.1-2.1 0-.6-.2-1.1-.6-1.5-.2-.1-.3-.2-.5-.3-5-3.6-11-5.7-17.6-5.7C13.3 0 0 13.3 0 29.6 0 46 13.3 59.3 29.6 59.3 46 59.3 59.3 46 59.3 29.6c0-5.7-1.7-11-4.5-15.5zM33.5 41.5c-.1.1-.1.1 0 0z"/><path class="st0" d="M46.1 27.5H31.4v-.1-8.6c0-2.5-3.8-2.5-3.8 0V29.6c0 .6.2 1 .5 1.3.3.3.8.5 1.3.5h16.7c2.5 0 2.5-3.9 0-3.9z"/>
    </symbol>
    <symbol id="icon-print" viewBox="0 0 64.2 65.6">
      <path d="M61.7 20.4h-8.2v-7.1-.2c0-.7-.3-1.3-.7-1.8l-.2-.2L41.6.6h-.1c-.1-.1-.3-.2-.5-.3 0 0-.1 0-.1-.1-.2-.1-.4-.2-.6-.2H13.8c-1.4 0-2.5 1.1-2.5 2.5v17.9H2.5c-1.4 0-2.5 1.1-2.5 2.5v23.5c0 1.4 1.1 2.5 2.5 2.5h8.7v14.3c0 1.4 1.1 2.5 2.5 2.5H51c1.4 0 2.5-1.1 2.5-2.5V48.9h8.2c1.4 0 2.5-1.1 2.5-2.5V22.9c0-1.4-1.1-2.5-2.5-2.5zM42.3 8.3l2.5 2.3h-2.5V8.3zM16.2 5h21v8.1c0 1.4 1.1 2.5 2.5 2.5h8.7v4.8H16.2V5zm32.3 55.6H16.2V41.2h32.3v19.4zm10.7-16.7h-5.7v-5.2c0-1.4-1.1-2.5-2.5-2.5H13.7c-1.4 0-2.5 1.1-2.5 2.5v5.2H5V25.4h54.2v18.5z"/><path d="M22.9 57.4h18.9c1.4 0 2.5-1.1 2.5-2.5s-1.1-2.5-2.5-2.5H22.9c-1.4 0-2.5 1.1-2.5 2.5s1.1 2.5 2.5 2.5zM22.9 49.4h18.9c1.4 0 2.5-1.1 2.5-2.5s-1.1-2.5-2.5-2.5H22.9c-1.4 0-2.5 1.1-2.5 2.5s1.1 2.5 2.5 2.5z"/>
    </symbol>
    <symbol id="icon-sandwich" viewBox="0 0 72.9 59.2">
      <path d="M72.7 36.2c0-.2 0-.2-.1-.3v-.1c0-.1-.1-.2-.1-.3L61.2 20c-.5-1.1-3.2-6.2-10.6-7.7.6-2.1.2-4.6-1.4-6.6-.9-1.1-2-1.9-3.2-2.5V1.5c0-.8-.7-1.5-1.5-1.5S43 .7 43 1.5v1.1c-1.2.1-2.2.4-3.1 1.1-2.5 1.9-2.8 5.6-1 8.6C25 14.2 5.4 19.6 4.4 19.8c0 0-.1 0-.1.1h-.1c-.1 0-.2.1-.2.1-.1.1-.2.1-.2.2l-.1.1c0 .1-.1.1-.1.2v.1c0 .1 0 .1-.1.2V28.4c-1.7.9-3.6 2.2-3.5 3.8 0 .5.3 1.5 1.7 2 .1 0 .2.1.3.1.2.2.5.4.8.4v6.8c0 .7.5 1.3 1.1 1.5l65.4 16.2h.4c.3 0 .6-.1.8-.3.4-.2.6-.6.6-1l1.1-8.7v-.1-.2V48.6l-.7-2.7c.2-.2.3-.5.3-.7l1.1-8.9v-.2c-.2.2-.2.1-.2.1zM49.6 46.8c-.3.2-.5.5-.7.7-.2.3-.4.4-.5.5l-.3-.6c-.1-.2-.1-.4-.3-.6 0 0-.1-.2-.3-.4-.4-.5-1.3-1.6-2.2-2.6-.6-.7-1.2-1.3-1.7-1.9-.5-.5-1.3-1.5-2.5-1.2-.8.2-1.1.8-1.3 1.2-.1.1-.1.3-.1.4-.6.3-1.2.5-2.3.2-.2-.2-.3-.6-.4-1.3-.1-.6-.1-1.4 0-2.1l5.8 1.1 4.1 1-.2 1.5c0 .2 0 .5.1.7.2.5.6.9 1.2 1h.2c.5 0 .9-.2 1.2-.6l.3-.6.2-1.2 6.9 1.7c-1.1.1-2.2.4-3.2.9-1.6.4-2.9 1.2-4 2.2zM27 41.3c-.3.2-.6.3-.8.3h-.3c-.1 0-.1-.1-.2-.1-.3-.1-.7-.4-1-.8-.2-.2-.4-.5-.5-.8-.4-.9-1.2-1.7-2-2.4-1.3-1.1-2.9-1.8-4-1.8-.4 0-.9.1-1.4.4-.3.2-.6.6-.7 1.2 0 .2-.1.3-.7.6-.2.1-.3.1-.3.1-.3-.2-.7-1.3-.9-1.8l-.1-.2c-.1-.3-.2-.5-.4-.7-.9-1.5-2.4-2.6-4.7-3.1-1.1-.2-2.3-.4-3.7-.4H3.5c.3-.2.7-.4 1-.6.2-.1.4-.3.5-.4l17.9 4.4 4.1 1h-.6l5.4 1.5c-.6.4-1.3 1-2.1 1.6-.7.5-1.4 1.1-2.1 1.5-.2.2-.4.3-.6.5zm38.1 4.9c-.7-.3-1.1-.6-1.6-.9-.1-.1-.3-.1-.4-.2l4 1c0 .2 0 .4-.1.6 0 .2-.1.5-.1.6l-.1-.1c-.3-.2-.7-.5-1.2-.8-.2 0-.4-.1-.5-.2zm3.8-3.3l-.1.6-1.4-.4-4.8-1.2-.7-.1-14-3.4L6.2 28v-4.7L41 32.2h.1l13.5 2.2 3.3.5c.8.1 1.5-.4 1.7-1.1v-.1c.1-.8-.4-1.6-1.2-1.7l-7.7-1.3-9-1.5-30.9-7.9c7.6-1.9 21.2-5.2 30.8-6.2.5.3 1 .6 1.5.7v4.7c0 .8.7 1.5 1.5 1.5s1.5-.7 1.5-1.5v-4.4c1-.1 1.9-.5 2.7-1.1 0 0 .1 0 .1-.1 7.5 1.1 9.6 6 9.7 6.3 0 .1.1.2.2.3l4.4 6.1 2.5 3.4.6.9 1.5 2.1-1.1-.2-1.6-.3-1.4-.3c-.7-.2-1.4.3-1.7.9V34.4c-.2.8.4 1.6 1.2 1.8l2.7.5 1.6.3 1.6.3.5.1-.1 1.2-.6 4.3zM41.7 11.4c-1.4-1.8-1.4-4.2-.1-5.2.4-.3.8-.4 1.3-.5v.4c0 .8.7 1.5 1.5 1.5.6 0 1.2-.4 1.4-.9h.1c.3.2.6.5.8.8 1.1 1.4 1.3 3.2.7 4.4-.2.3-.4.6-.7.8-.2.2-.5.3-.8.4-.2.1-.5.1-.8.1-.7 0-1.5-.3-2.2-.7-.2-.1-.4-.3-.6-.5l-.6-.6zm26.4 44.8L5.5 40.7v-4.5l3.8 1c.6 1.1 1.8 2.1 3.8 2.8.3.3.7.6 1.1.8.5.2 1.1.3 1.9 0 .5.1 1.1.2 1.7.2 1.5.2 2.8.2 3.8.2.8 1.6 2.1 2.8 3.5 3.2.4.1.7.2 1.1.2.8 0 1.6-.2 2.4-.7.5-.3 1-.7 1.6-1.1 3 1.8 7.3 3.4 13.5 4 .7.8 1.2 1.5 1.5 1.8.3.7.9 2.2 2.4 2.5.2 0 .4.1.6.1 1 0 1.9-.5 2.8-1.6.7-.8 1.7-1.5 2.7-2l10.7 1.8c.2.1.3.2.5.3.7.5 1.9 1.4 3.5.3.2-.1.3-.3.4-.4l-.7 6.6z"/>
    </symbol>
    <symbol id="icon-search" viewBox="0 0 63 63">
      <path d="M43 37l-1.6 1.6-2.5-2.5C42.1 32.3 44 27.3 44 22 44 9.9 34.1 0 22 0S0 9.9 0 22s9.9 22 22 22c5.3 0 10.3-1.9 14.1-5.1l2.5 2.5-1.8 1.8L57 63l6-6-20-20zm-21 3c-9.9 0-18-8.1-18-18S12.1 4 22 4s18 8.1 18 18-8.1 18-18 18z"/>
    </symbol>
    <symbol id="icon-silhouette" viewBox="0 0 121.8 319.8">
      <path d="M31 313.6s-6.7-.7-7 2c-.2 2.7 1 4.2 3.5 4.2s29.8-1.5 29.8-1.5l9-1.7s-1-8.3 0-14.7c1-6.5 3.2-.5 3.5-12.4s-.5-48.7-3.5-62.2 3.5-40 3.5-40 8.2-20.4-7.3-46.5c0 0-3.2-.5-3-4.2 0 0 3.5-2.2 3-5s-1.2-7-.2-12.9c1-6 5.7-13.2 4.5-23.6s-9-17.4-9-17.4-2.5-2.2 2-7.2 37.5-45 41-46.7c3.5-1.7 6-6.7 6-6.7l14.9-13.2s0-4-1.7-3.7-2.7-.5-5 2.7c-2.2 3.1-16.1 14.8-22.1 20-6 5.2-23.1 21.9-23.1 21.9s-.7 4.7-6.7 1C57.1 42 35.2 25.6 24 27.1c0 0-5.9-1.2-2.5 7.5s-1.1 6.2-1.1 6.2v5.6s-.7 1.8-4.4 1.8 6.8-.2 6.8 2.7c0 2.8-3.8 3.5-3.3 6.8s2.3 12.8 3.6 13.6c1.3.8 5 .2 5 .2s4.8 1 2.2 4.5c-2.7 3.5-4.8 4.1-5.5 5.5-.7 1.3-2.2 2.5-5 3.8s-7.1 7-7 11.8 1.3 19.6-4.8 18.6c-6-1.2-8-1.1-8 1.3 0 2.3.7 8 .7 8s2 4.3 4.1 5.8c2.2 1.5 1.8 3.5 1.8 3.5s4-.7 5.3 0c1.3.7 11.1 11.3 10.9 13.6-.2 2.3-.5 45.1 0 48.4.5 3.3 8.1 30.5 10.3 35.3 2.2 4.8 2.7 18.4 2.7 18.4s1.8 4 1.8 5.1c0 1.2 2.7 21.9 3.8 25.4 1.2 3.5.5 4.6-.2 6.3s-1.7 4.8-.2 7 2.3 6.5.8 8.8c-1.5 2.3-.8 3.5-2.2 4.3-1.1.7-5 6.7-8.6 6.7z"/>
    </symbol>
    <symbol id="icon-soup" viewBox="0 0 79 89.1">
      <path d="M39.6.038c-.6 0-1.2.2-1.7.6-1.4 1-2.5 2.4-3.2 3.9-.7 1.6-1 3.3-.8 5 .3 3.3 2 5.7 3.4 7.8 1.3 2 2.3 3.7 2.5 5.2.1.8-.1 1.6-.4 2.2-.3.7-.8 1.3-1.4 1.8-1.2.9-1.5 2.6-.7 3.8.9 1.2 2.6 1.5 3.8.7 0 0 .1 0 .1-.1 1.4-1 2.5-2.4 3.2-3.9.7-1.6 1-3.3.8-5-.3-3.3-2-5.7-3.4-7.8-1.3-2-2.3-3.7-2.5-5.2-.1-.8.1-1.6.4-2.2.3-.7.8-1.3 1.4-1.8 1.2-.9 1.5-2.6.7-3.8-.5-.8-1.3-1.2-2.2-1.2zm-17 6.3c-.4 0-.9.1-1.2.3-1.4.8-2.6 1.8-3.4 3.1-.8 1.3-1.2 2.9-1 4.5.4 3 2.3 4.9 3.7 6.4 1.3 1.5 2.2 2.8 2.3 3.4 0 .3 0 .6-.2 1s-.7.8-1.3 1.2c-1.3.7-1.9 2.4-1.2 3.7.7 1.3 2.4 1.9 3.7 1.2h.1c1.4-.8 2.6-1.8 3.4-3.1.8-1.3 1.2-2.9 1-4.5-.4-3-2.3-4.9-3.7-6.4-1.3-1.5-2.2-2.8-2.3-3.4 0-.3 0-.6.2-1s.7-.8 1.3-1.2c1.3-.7 1.9-2.4 1.2-3.7-.5-.9-1.5-1.5-2.6-1.5zm33.6 0c-.4 0-.9.1-1.2.3-1.4.8-2.6 1.8-3.4 3.1-.8 1.3-1.2 2.9-1 4.5.4 3 2.3 4.9 3.7 6.4 1.3 1.5 2.2 2.8 2.3 3.4 0 .3 0 .6-.2 1s-.7.8-1.3 1.2c-1.3.7-1.9 2.4-1.2 3.7.7 1.3 2.4 1.9 3.7 1.2h.1c1.4-.8 2.6-1.8 3.4-3.1.8-1.3 1.2-2.9 1-4.5-.4-3-2.3-4.9-3.7-6.4-1.3-1.5-2.2-2.8-2.3-3.4 0-.3 0-.6.2-1s.7-.8 1.3-1.2c1.3-.7 1.9-2.4 1.2-3.7-.5-.9-1.5-1.5-2.6-1.5zm-16.7 27.3c-10.7 0-20.3 1.9-27.5 5.1-3.6 1.6-6.5 3.5-8.6 5.7-2.1 2.2-3.4 4.8-3.4 7.6 0 .3 0 .7.1 1 .2 2.6 1.1 10 5.2 17.4 5.1 9.2 15.2 18.6 34.3 18.6 19.1 0 29.2-9.3 34.3-18.6 4.1-7.4 5-14.8 5.2-17.4 0-.3.1-.6.1-1 0-2.8-1.3-5.4-3.4-7.6-2.1-2.2-5.1-4.1-8.6-5.7-7.4-3.2-17-5.1-27.7-5.1zm0 3.1c9.4 0 17.9 1.7 24.1 4.4 3.1 1.4 5.6 3 7.4 4.9 1.8 1.8 2.8 4 2.8 6.2v.9c-.2 1.9-1.2 3.7-2.7 5.3-1.8 1.9-4.3 3.5-7.4 4.9-6.2 2.8-14.7 4.4-24.1 4.4s-17.9-1.7-24.1-4.4c-3.1-1.4-5.6-3-7.4-4.9-1.5-1.6-2.5-3.4-2.7-5.3v-.1-.8-.1c0-2.2 1-4.3 2.8-6.2 1.8-1.9 4.3-3.5 7.4-4.9 6-2.7 14.5-4.3 23.9-4.3zm0 3.7c-8.9 0-17 1.7-22.6 4.1-2.8 1.2-4.9 2.7-6.2 4.1-1.3 1.4-1.8 2.5-1.8 3.6v.5c.1 1 .6 2 1.7 3.2.5.6 1.2 1.1 2 1.7 0-1.8.9-3.6 2.2-5.1 1.4-1.6 3.4-2.9 5.8-4.1 4.9-2.3 11.4-3.7 18.7-3.7 7.3 0 13.9 1.4 18.7 3.7 2.4 1.1 4.4 2.5 5.8 4.1 1.4 1.5 2.2 3.3 2.2 5.1.8-.6 1.5-1.2 2-1.7 1.1-1.2 1.6-2.2 1.7-3.2v-.4-.1c0-1.1-.5-2.2-1.8-3.6s-3.4-2.8-6.2-4.1c-5.2-2.5-13.3-4.1-22.2-4.1zm0 8c-6.8 0-13 1.3-17.1 3.3-2.1 1-3.7 2.1-4.6 3.2-1 1.1-1.3 1.9-1.3 2.7v.4c.1.6.4 1.3 1 2.1 5.5 2.3 13.4 3.9 22 3.9 8.7 0 16.5-1.5 22-3.9.7-.8.9-1.5 1-2.1v-.3-.1c0-.8-.3-1.7-1.3-2.7-1-1.1-2.6-2.2-4.6-3.2-4.1-2-10.3-3.3-17.1-3.3z"/>
    </symbol>
    <symbol id="logo-bg" viewBox="0 0 917.8 459.5">
      <path class="st0" d="M304.3 163.3c11.5-16 19.2-22.8 33.7-49.1 11.7-21.4 19.9-41.6 18.3-65.5-2.7-39.6-43.7-54.2-78.9-45.8-54 12.9-102.7 64.6-104 121.4-.6 26.1 4.1 49.5 20.6 56.6 10 4.3 45.3 3.3 39.8-11.6-10.8 1.6-26.1 8.9-38.5 3.3-16.4-7.3-17.1-45.5-13.5-64.4 4.5-23.6 20.9-48 34.3-61.5C233.6 28.9 267.4 8 300 9.3c20.7.8 44.6 13.2 48.5 38.1 4.1 26.3-7.7 43.9-18.8 67.8-14.2 30.7-52.6 66-69.5 82.5 8.7-39.6 19.9-86.4 27.7-126.1.9-4.5 4.8-13.2-2.3-15.5-4.8 11.1-6.2 24.2-9 37.4-5.6 26-10 52-15.5 77.2-5.9 27-11.9 46.2-31.1 58.1-4.7-8.1-8.7-17.5-18.1-18.1-12.1-.7-19.5 11.7-27.2 17.7-9.5-5.5-22.3-8.3-37.3-6.6-43.3 5-81.1 30.7-104.4 56.4-23.6 25.8-46.8 68.9-41.8 116 1.6 15.3 6.5 35.5 19.3 46 18.5 15.2 48.4 3.8 67.2-6.3 62.4-44.5 109.6-102.9 147.1-170.2 2.9 55.4-4.3 114.6-5.5 172.9-.2 7.3-2.2 17.5 5.1 22 2.4-31.7 2.3-64.6 3.9-97.2 1.6-32.4 7.3-63.9 4.1-93.9-.5-5.1-.6-9.9 1-14.8 3.8-11.6 9.3-25.5 10.7-37.5 9.2-7.8 13.8-12.9 26.4-25.8 7.9-8.2 16-15.2 23.8-26.1M191 242.7c3.6-1.6-.2-6.2-.4-9 7.2-12.9 29.3-20.1 33.7.1-13.9 9.6-41 32.3-45.9 26.8-3.8-4.9 4.5-14.6 6.7-20.2 3.2-.5 1.9 3.8 5.9 2.3m-74.4 158.7c-16.3 14-33.3 28.9-53.5 36.1-45.4 16.1-60.5-26.9-55.7-69.1 7.8-69.1 69-126.6 138.6-137.7 9.6-1.5 23-.6 33.1 4.3-3.7 8.9-13.1 20.8-6.8 31.5 13.2 7.5 38.6-16.6 56.4-25.5.7 4.1 2.6 7 3.8 10.5-25.7 55.4-68.3 109.1-115.9 149.9m120.5-159.1c-5.9-5.4.3-12.5 5.9-14.3-2.1 4.6-3.7 9.8-5.9 14.3"/><path class="st0" d="M612 264.3c7.1-14.9 14.9-29.8 22.7-44.6 7.4-14.2 18-30.1 15.1-48.4-1.4.1-2.7.1-4.1.2-11.4 35-27.5 65.6-44.3 95.7-7.4.7-12.2 2-16.5-1.7-1.6 2.4-2.5 5.6-2.9 9.2 1.8 2.9 4.9 4.4 8.5 5.4-8.4 9.1-18.4 16.8-31.1 21.9 2.5-5.7 8.8-12.7 3.3-19.1-11.6-.9-14.7 10.2-20.9 11.6.5-6.9-1.2-11.3-5.5-12.9-7.3 6.2-11.6 15.1-21.4 19 1.9-6.8 1.2-13.9-4.1-17.1-10.4 1.2-26.2 4.4-36.6 8.2 1-4.3 1.1-11.1-4.6-10.5-7.9 9.3-15.6 18.8-29.4 22.7.7-9.1 11.7-14.3 6.3-24.1-6.1-1.8-6.4 4.7-8.7 7.8-6.5 8.7-16.4 15-26.4 17.6 1.8-10.6 19.7-22.4 8.4-32.4-9 14.1-21 25.4-38.9 31.3 1.7-6.9 6.4-10.9 8.3-17.6-2.1-4.3-5.4-7.4-7.9-11.2-10.5 2.8-23.5 3.6-33.5 4.8 4.5-12.3 19-39.8 20.6-54.4 1.1-9.8.4-16.8-6.5-17.8-4.8 30-12.4 57.4-32.1 73.8-1.6.1-3.3.2-4.9.2-1.2 4.4-1.2 9.9-6.1 11-.6-8.9-6.3-13.8-12.9-13.4-16.4 1-22.1 28.8-38.1 31.3-.8-4.1.9-6 1.2-9.1 7.9-4.8 25.5-16.9 26-26.6.4-8.2-5.2-12.2-11.9-9.3-9.5 4-15 18.3-19.4 27.2-2.8-.2-9 1.2-10.2 4.6 4.3 7.2 4 20.2 13.1 22.4 2.5.6 5.4 0 8.2-1.2 12.1-5.2 19-29.8 34.9-29.5 7.8 17-19.9 22.8-17.3 33.1 2.3-.8 3 3.2 4.9 2.8 11.1-10.1 23.6-23 34-31.1-3.5 8.4-11.8 16.5-8.6 28.3 1.9-.1 3.8-.2 5.8-.3 2.9-12.6 7.6-23.5 15-31.9 7.7.9 13.5-3.8 18.8-2.5-5.6 6.6-16.1 15.5-11.1 26.8 10.3 2.7 14.6-5.7 21.8-8.4 4.6 19.2 21-.7 30.3-3-.4 4-.9 7 .5 10.7 11 6.8 18.1-5.8 27.6-7.8 1.8 16 17.8 4 24.7.6 5.8 18.2 18.4-12.2 30-10.4-3.8 4.9-8.7 8.9-7.4 18.4 10.2 6.7 17.6-6 25.1-9.3-.5 5.4 2.8 6.7 5.3 8.8 8.6-1.8 15.5-9.4 20-12.4-1.4 3.7-4.1 6.2-3.6 11.7 6.1 6.4 8.5-1 12.1-4.6 5.2-5.2 13.5-11.6 16.6-14.7-3.4 6.1-9.1 10-8.2 20.1 1.9.2 3.6.7 4.2 2.3 18.9-6.4 33.7-20.6 45.5-30.8-1.6 5.2-4.1 12.5-6.6 19.2-2 5.5-9 15.2.8 17.2 8.4-13.6 9.9-33.4 18.5-46.9 2.7-.1 138.4-28.2 214.4-30.9 74.6-2.7 66.6 2.9 68.2 2.7 14-1.9 28.6-10.1 19.6-12.4-1.6-.4-11.5.5-81.8 2.3-76.7 1.9-214.2 27.6-216.8 27.4M284.3 273c9.9-3.4-2.5 13.3-6.2 11.1-5.4-2 4.6-8.1 6.2-11.1m77.7 30.4c0-6 8.6-19.6 14.2-14.6 6 3.3-12.2 15.7-14.2 14.6m126.7 3.9c0-6.1 6.3-16 14.2-14.6 12.9 1-14.2 14.6-14.2 14.6M289.1 349.2c.2-.1.3-.1.5-.1.4 0 .8.1 1.1.4.3.3.4.6.4 1 0 .8-.5 1.4-1.5 1.7-.8.2-1.5.4-2.3.6-4.8 1.4-12 3.6-21.6 6.5 4.7 1.4 9.6 3 14.8 4.6 2.2.6 5.5 1.6 9.9 3 .2 0 .3.2.5.5s.2.5.2.6c-.1 1-.6 1.6-1.5 1.6-.4 0-1-.1-1.6-.4-.5-.2-.9-.3-1.4-.5-5.4-1.6-13.6-4.1-24.5-7.4v6.9c-.1.8-.6 1.2-1.4 1.2-.7 0-1.2-.3-1.5-1v-18.2c.3-.7.8-1 1.5-1 .8 0 1.2.4 1.4 1.3v6.8c1-.3 2.8-.8 5.5-1.5 7.5-2.3 14.7-4.4 21.5-6.6M348.1 359.3c0 1-.1 1.8-.3 2.3-.2.6-.6 1.3-1.2 2.1-1.5 2.1-3.8 3.6-6.9 4.6-2.3.7-4.8 1.1-7.6 1.1-2.5 0-4.6-.2-6.3-.7-6.5-1.9-9.7-5-9.7-9.5 0-1.7.5-3.2 1.5-4.4 3.1-3.8 7.9-5.8 14.5-5.8 1.4 0 2.5.1 3.3.1 3.5.4 6.4 1.5 8.8 3.2 2.6 2.1 3.9 4.3 3.9 7m-2.9 0c0-2.1-1.4-3.8-4.1-5.3-2-1.1-4-1.7-5.9-1.9-1.3-.1-2.3-.1-3-.1-2.3 0-4.1.2-5.5.7-.7.2-1.8.6-3 1-3.1 1.5-4.6 3.3-4.6 5.6 0 2.4 1.6 4.3 4.9 5.7 2.6 1 5.3 1.6 8.2 1.6 3 0 5.6-.5 7.8-1.4 3.4-1.4 5.2-3.4 5.2-5.9M405 367.8c-.1.8-.6 1.3-1.5 1.3s-1.4-.4-1.5-1.3v-15.1c-2.5 1.6-6.8 4.2-12.8 7.6-.2.1-.9-.2-2.3-1.1-2.4-1.4-6.1-3.6-11-6.6v15.1c-.1.8-.6 1.2-1.5 1.2-.7 0-1.1-.3-1.4-1v-18.3c.2-.6.7-.9 1.3-.9.4 0 .9.2 1.4.5 1.7 1.1 3.8 2.4 6.5 4 4.1 2.3 6.3 3.7 6.7 3.9 3-1.8 7.4-4.5 13.3-8 .2-.1.5-.3.9-.5.1-.1.3-.1.4-.1.4 0 .7.1 1 .4.3.3.4.6.4.8v18.1zM461.9 367.8c-.1.8-.6 1.3-1.5 1.3s-1.4-.4-1.5-1.3v-15.1c-2.6 1.6-6.8 4.2-12.8 7.6-.2.1-1-.2-2.3-1.1-2.4-1.4-6.1-3.6-11-6.6v15.1c-.1.8-.6 1.2-1.5 1.2-.7 0-1.2-.3-1.4-1v-18.3c.2-.6.6-.9 1.3-.9.4 0 .9.2 1.4.5 1.7 1.1 3.8 2.4 6.5 4 4.1 2.3 6.3 3.7 6.7 3.9 3-1.8 7.4-4.5 13.3-8 .2-.1.5-.3.9-.5.1-.1.3-.1.4-.1.4 0 .7.1 1 .4.3.3.4.6.4.8v18.1zM502 349.2c.1-.1.4-.2.7-.2.4 0 .6.1.9.3.2.2 1.2 1.3 2.9 3.4 3.3 3.8 7.4 8.8 12.2 14.9.2.3.2.7-.1 1.1-.3.5-.7.7-1.1.7-.5 0-1.1-.4-1.7-1.1-.5-.6-.9-1.2-1.4-1.7h-23.2c-.5.6-.9 1.2-1.4 1.8-.6.7-1.2 1.1-1.7 1.1-.4 0-.8-.2-1.1-.7-.1-.2-.2-.4-.2-.6 0-.5.3-1 .9-1.7.4-.4.8-.9 1.2-1.4 1.8-2.2 4-4.8 6.3-7.6 1.2-1.8 3.5-4.5 6.8-8.3m9.9 14.5l-9.3-11-9.1 11h18.4zM575.8 368c-.3.9-.7 1.3-1.4 1.3-.5 0-1.1-.2-1.8-.7-.5-.3-1-.7-1.5-1-3.2-1.8-7.2-4.2-12.2-7.2-6.9-4.2-11-6.6-12.2-7.4v15.1c-.1.8-.6 1.2-1.5 1.2-.7 0-1.1-.3-1.4-1V350c.4-.7.8-1 1.4-1 .5 0 1.1.3 1.8.8.6.4 1.1.8 1.7 1.2 3.3 1.8 7.3 4.2 12.1 7.2 4 2.5 8 4.9 12 7.3v-15.1c.2-.8.7-1.2 1.5-1.2.7 0 1.2.4 1.5 1V368zM632.7 359.3c0 1.6-.5 3.4-1.5 5.4-.6 1.1-1.5 2.1-2.9 3.1-1 .7-2.3 1.3-3.7 1.5-.6.1-.8.2-.6.2h-21.9c-.2 0-.5-.2-.9-.5s-.5-.6-.5-.9v-17.5c0-.3.2-.7.6-1 .4-.3.7-.5 1-.5h21.5c1.2 0 2.5.5 4.2 1.6 1.6 1.1 2.7 2.1 3.2 3.2.1.1.2.4.4.7.7 1.3 1.1 2.9 1.1 4.7m-2.9 0c0-1.4-.4-2.8-1.1-4-.9-1.5-2.2-2.5-3.8-2.9-.8-.3-1.3-.4-1.4-.4h-19.9v14.5h19.9c.2 0 .7-.1 1.4-.3 1.6-.6 2.9-1.5 3.7-2.9.8-1.1 1.2-2.5 1.2-4M672.8 349.2c.1-.1.4-.2.7-.2.4 0 .7.1.9.3.2.2 1.2 1.3 2.9 3.4 3.3 3.8 7.4 8.8 12.2 14.9.2.3.2.7-.1 1.1-.3.5-.7.7-1.1.7-.5 0-1.1-.4-1.7-1.1-.5-.6-.9-1.2-1.4-1.7H662c-.5.6-1 1.2-1.4 1.8-.6.7-1.2 1.1-1.7 1.1-.4 0-.8-.2-1.1-.7-.1-.2-.2-.4-.2-.6 0-.5.3-1 .9-1.7.4-.4.8-.9 1.2-1.4 1.8-2.2 4-4.8 6.3-7.6 1.2-1.8 3.5-4.5 6.8-8.3m9.9 14.5l-9.3-11-9 11h18.3zM746.5 368c-.2.9-.7 1.3-1.4 1.3-.5 0-1.1-.2-1.8-.7-.5-.3-1-.7-1.5-1-3.2-1.8-7.2-4.2-12.2-7.2-6.9-4.2-11-6.6-12.2-7.4v15.1c-.1.8-.6 1.2-1.5 1.2-.7 0-1.1-.3-1.4-1V350c.4-.7.8-1 1.4-1 .5 0 1.1.3 1.8.8.6.4 1.1.8 1.7 1.2 3.3 1.8 7.3 4.2 12.1 7.2 4 2.5 8 4.9 12 7.3v-15.1c.2-.8.7-1.2 1.5-1.2.7 0 1.2.4 1.5 1V368zM802.3 352h-13.4v16.4c-.3.7-.8 1-1.4 1-.7 0-1.2-.3-1.5-1V352h-13.5c-.7-.3-1.1-.8-1.1-1.4 0-.8.4-1.3 1.2-1.5H802c.8.2 1.3.7 1.3 1.5.1.6-.3 1.1-1 1.4M859.2 369.5h-29.5c-.2 0-.5-.2-.9-.5s-.5-.6-.5-.9v-17.5c0-.3.2-.7.6-1 .4-.3.7-.5 1-.5h29c.8.2 1.3.7 1.3 1.5 0 .7-.3 1.2-1 1.4h-28v5.8h28c.7.3 1 .8 1 1.4 0 .6-.3 1.1-1 1.5h-28v5.8h28c.7.3 1 .8 1 1.4 0 .7-.3 1.2-1 1.6M917.3 368c-.3.9-.7 1.3-1.4 1.3-.5 0-1.1-.2-1.8-.7-.5-.3-1-.7-1.5-1-3.2-1.8-7.2-4.2-12.2-7.2-6.9-4.2-11-6.6-12.2-7.4v15.1c-.1.8-.6 1.2-1.5 1.2-.7 0-1.1-.3-1.4-1V350c.4-.7.8-1 1.4-1 .5 0 1.1.3 1.8.8.6.4 1.1.8 1.7 1.2 3.3 1.8 7.3 4.2 12.1 7.2 4 2.5 8 4.9 12 7.3v-15.1c.2-.8.7-1.2 1.5-1.2.7 0 1.2.4 1.5 1V368z"/>
    </symbol>
    <symbol id="logo_silhouette" viewBox="0 0 1046.9 458.2">
      <path d="M303.8 162.8c11.5-16 19.2-22.8 33.7-49.1 11.7-21.4 19.9-41.6 18.3-65.5C353.1 8.6 312.1-6 276.9 2.4c-54 12.9-102.7 64.6-104 121.4-.6 26.1 4.1 49.5 20.6 56.6 10 4.3 45.3 3.3 39.8-11.6-10.8 1.6-26.1 8.9-38.5 3.3-16.4-7.3-17.1-45.5-13.5-64.4 4.5-23.6 20.9-48 34.3-61.5C233 28.4 266.8 7.4 299.4 8.7c20.7.8 44.6 13.2 48.5 38.1 4.1 26.3-7.7 43.9-18.8 67.8-14.2 30.7-52.6 66-69.5 82.5 8.7-39.6 19.9-86.4 27.7-126.1.9-4.5 4.8-13.2-2.3-15.5-4.8 11.1-6.2 24.2-9 37.4-5.6 26-10 52-15.5 77.2-5.9 27-11.9 46.2-31.1 58.1-4.7-8.1-8.7-17.5-18.1-18.1-12.1-.7-19.5 11.7-27.2 17.7-9.5-5.5-22.3-8.3-37.3-6.6-43.3 5-81.1 30.7-104.4 56.4-23.5 26-46.7 69.1-41.7 116.2 1.6 15.3 6.5 35.5 19.3 46 18.5 15.2 48.4 3.8 67.2-6.3 62.4-44.5 109.6-102.9 147.1-170.2 2.9 55.4-4.3 114.6-5.5 172.9-.2 7.3-2.2 17.5 5.1 22 2.4-31.7 2.3-64.6 3.9-97.2 1.6-32.4 7.3-63.9 4.1-93.9-.5-5.1-.6-9.9 1-14.8 3.8-11.6 9.3-25.5 10.7-37.5 9.2-7.8 13.8-12.9 26.4-25.8 7.9-8.3 16-15.3 23.8-26.2m-113.3 79.4c3.6-1.6-.2-6.2-.4-9 7.2-12.9 29.3-20.1 33.7.1-13.9 9.6-41 32.3-45.9 26.8-3.8-4.9 4.5-14.6 6.7-20.2 3.2-.5 1.9 3.8 5.9 2.3m-74.4 158.7c-16.3 14-33.3 28.9-53.5 36.1C17.2 453.1 2.2 410.1 7 367.9c7.8-69.1 69-126.6 138.6-137.7 9.6-1.5 23-.6 33.1 4.3-3.7 8.9-13.1 20.8-6.8 31.5 13.2 7.5 38.6-16.6 56.4-25.5.7 4.1 2.6 7 3.8 10.5-25.8 55.4-68.4 109.1-116 149.9m120.5-159.1c-5.9-5.4.3-12.5 5.9-14.3-2.1 4.6-3.7 9.8-5.9 14.3"/><path d="M611.5 263.8c7.1-14.9 14.9-29.8 22.7-44.6 7.4-14.2 18-30.1 15.1-48.4-1.4.1-2.7.1-4.1.2-11.4 35-27.5 65.6-44.3 95.7-7.4.7-12.2 2-16.5-1.7-1.6 2.4-2.5 5.6-2.9 9.2 1.8 2.9 4.9 4.4 8.5 5.4-8.4 9.1-18.4 16.8-31.1 21.9 2.5-5.7 8.8-12.7 3.3-19.1-11.6-.9-14.7 10.2-20.9 11.6.5-6.9-1.2-11.3-5.5-12.9-7.3 6.2-11.6 15.1-21.4 19 1.9-6.8 1.2-13.9-4.1-17.1-10.4 1.2-26.2 4.4-36.6 8.2 1-4.3 1.1-11.1-4.6-10.5-7.9 9.3-15.6 18.8-29.4 22.7.7-9.1 11.7-14.3 6.3-24.1-6.1-1.8-6.4 4.7-8.7 7.8-6.5 8.7-16.4 15-26.4 17.6 1.8-10.6 19.7-22.4 8.4-32.4-9 14.1-21 25.4-38.9 31.3 1.7-6.9 6.4-10.9 8.3-17.6-2.1-4.3-5.4-7.4-7.9-11.2-10.5 2.8-23.5 3.6-33.5 4.8 4.5-12.3 19-39.8 20.6-54.4 1.1-9.8.4-16.8-6.5-17.8-4.8 30-12.4 57.4-32.1 73.8-1.6.1-3.3.2-4.9.2-1.2 4.4-1.2 9.9-6.1 11-.6-8.9-6.3-13.8-12.9-13.4-16.4 1-22.1 28.8-38.1 31.3-.8-4.1.9-6 1.2-9.1 7.9-4.8 25.5-16.9 26-26.6.4-8.2-5.2-12.2-11.9-9.3-9.5 4-15 18.3-19.4 27.2-2.8-.2-9 1.2-10.2 4.6 4.3 7.2 4 20.2 13.1 22.4 2.5.6 5.4 0 8.2-1.2 12.1-5.2 19-29.8 34.9-29.5 7.8 17-19.9 22.8-17.3 33.1 2.3-.8 3 3.2 4.9 2.8 11.1-10.1 23.6-23 34-31.1-3.5 8.4-11.8 16.5-8.6 28.3 1.9-.1 3.8-.2 5.8-.3 2.9-12.6 7.6-23.5 15-31.9 7.7.9 13.5-3.8 18.8-2.5-5.6 6.6-16.1 15.5-11.1 26.8 10.3 2.7 14.6-5.7 21.8-8.4 4.6 19.2 21-.7 30.3-3-.4 4-.9 7 .5 10.7 11 6.8 18.1-5.8 27.6-7.8 1.8 16 17.8 4 24.7.6 5.8 18.2 18.4-12.2 30-10.4-3.8 4.9-8.7 8.9-7.4 18.4 10.2 6.7 17.6-6 25.1-9.3-.5 5.4 2.8 6.7 5.3 8.8 8.6-1.8 15.5-9.4 20-12.4-1.4 3.7-4.1 6.2-3.6 11.7 6.1 6.4 8.5-1 12.1-4.6 5.2-5.2 13.5-11.6 16.6-14.7-3.4 6.1-9.1 10-8.2 20.1 1.9.2 3.6.7 4.2 2.3 18.9-6.4 33.7-20.6 45.5-30.8-1.6 5.2-4.1 12.5-6.6 19.2-2 5.5-9 15.2.8 17.2 8.4-13.6 9.9-33.4 18.5-46.9 2.7-.1 138.4-28.2 214.4-30.9 74.6-2.7 66.6 2.9 68.2 2.7 14-1.9 28.6-10.1 19.6-12.4-1.6-.4-11.5.5-81.8 2.3-76.7 1.9-214.2 27.6-216.8 27.4m-327.7 8.7c9.9-3.4-2.5 13.3-6.2 11.1-5.4-2 4.6-8.1 6.2-11.1m77.7 30.4c0-6 8.6-19.6 14.2-14.6 6 3.3-12.2 15.7-14.2 14.6m126.7 3.9c0-6.1 6.3-16 14.2-14.6 12.9 1-14.2 14.6-14.2 14.6"/><path class="st0" d="M288.6 348.7c.2-.1.3-.1.5-.1.4 0 .8.1 1.1.4.3.3.4.6.4 1 0 .8-.5 1.4-1.5 1.7-.8.2-1.5.4-2.3.6-4.8 1.4-12 3.6-21.6 6.5 4.7 1.4 9.6 3 14.8 4.6 2.2.6 5.5 1.6 9.9 3 .2 0 .3.2.5.5s.2.5.2.6c-.1 1-.6 1.6-1.5 1.6-.4 0-1-.1-1.6-.4-.5-.2-.9-.3-1.4-.5-5.4-1.6-13.6-4.1-24.5-7.4v6.9c-.1.8-.6 1.2-1.4 1.2-.7 0-1.2-.3-1.5-1v-18.2c.3-.7.8-1 1.5-1 .8 0 1.2.4 1.4 1.3v6.8c1-.3 2.8-.8 5.5-1.5 7.5-2.3 14.7-4.4 21.5-6.6M347.6 358.8c0 1-.1 1.8-.3 2.3-.2.6-.6 1.3-1.2 2.1-1.5 2.1-3.8 3.6-6.9 4.6-2.3.7-4.8 1.1-7.6 1.1-2.5 0-4.6-.2-6.3-.7-6.5-1.9-9.7-5-9.7-9.5 0-1.7.5-3.2 1.5-4.4 3.1-3.8 7.9-5.8 14.5-5.8 1.4 0 2.5.1 3.3.1 3.5.4 6.4 1.5 8.8 3.2 2.6 2.1 3.9 4.3 3.9 7m-2.9 0c0-2.1-1.4-3.8-4.1-5.3-2-1.1-4-1.7-5.9-1.9-1.3-.1-2.3-.1-3-.1-2.3 0-4.1.2-5.5.7-.7.2-1.8.6-3 1-3.1 1.5-4.6 3.3-4.6 5.6 0 2.4 1.6 4.3 4.9 5.7 2.6 1 5.3 1.6 8.2 1.6 3 0 5.6-.5 7.8-1.4 3.4-1.4 5.2-3.4 5.2-5.9M404.5 367.3c-.1.8-.6 1.3-1.5 1.3s-1.4-.4-1.5-1.3v-15.1c-2.5 1.6-6.8 4.2-12.8 7.6-.2.1-.9-.2-2.3-1.1-2.4-1.4-6.1-3.6-11-6.6v15.1c-.1.8-.6 1.2-1.5 1.2-.7 0-1.1-.3-1.4-1v-18.3c.2-.6.7-.9 1.3-.9.4 0 .9.2 1.4.5 1.7 1.1 3.8 2.4 6.5 4 4.1 2.3 6.3 3.7 6.7 3.9 3-1.8 7.4-4.5 13.3-8 .2-.1.5-.3.9-.5.1-.1.3-.1.4-.1.4 0 .7.1 1 .4.3.3.4.6.4.8v18.1zM461.4 367.3c-.1.8-.6 1.3-1.5 1.3s-1.4-.4-1.5-1.3v-15.1c-2.6 1.6-6.8 4.2-12.8 7.6-.2.1-1-.2-2.3-1.1-2.4-1.4-6.1-3.6-11-6.6v15.1c-.1.8-.6 1.2-1.5 1.2-.7 0-1.2-.3-1.4-1v-18.3c.2-.6.6-.9 1.3-.9.4 0 .9.2 1.4.5 1.7 1.1 3.8 2.4 6.5 4 4.1 2.3 6.3 3.7 6.7 3.9 3-1.8 7.4-4.5 13.3-8 .2-.1.5-.3.9-.5.1-.1.3-.1.4-.1.4 0 .7.1 1 .4.3.3.4.6.4.8v18.1zM501.5 348.7c.1-.1.4-.2.7-.2.4 0 .6.1.9.3.2.2 1.2 1.3 2.9 3.4 3.3 3.8 7.4 8.8 12.2 14.9.2.3.2.7-.1 1.1-.3.5-.7.7-1.1.7-.5 0-1.1-.4-1.7-1.1-.5-.6-.9-1.2-1.4-1.7h-23.2c-.5.6-.9 1.2-1.4 1.8-.6.7-1.2 1.1-1.7 1.1-.4 0-.8-.2-1.1-.7-.1-.2-.2-.4-.2-.6 0-.5.3-1 .9-1.7.4-.4.8-.9 1.2-1.4 1.8-2.2 4-4.8 6.3-7.6 1.2-1.8 3.5-4.5 6.8-8.3m9.9 14.5l-9.3-11-9.1 11h18.4zM575.3 367.5c-.3.9-.7 1.3-1.4 1.3-.5 0-1.1-.2-1.8-.7-.5-.3-1-.7-1.5-1-3.2-1.8-7.2-4.2-12.2-7.2-6.9-4.2-11-6.6-12.2-7.4v15.1c-.1.8-.6 1.2-1.5 1.2-.7 0-1.1-.3-1.4-1v-18.3c.4-.7.8-1 1.4-1 .5 0 1.1.3 1.8.8.6.4 1.1.8 1.7 1.2 3.3 1.8 7.3 4.2 12.1 7.2 4 2.5 8 4.9 12 7.3v-15.1c.2-.8.7-1.2 1.5-1.2.7 0 1.2.4 1.5 1v17.8zM632.2 358.8c0 1.6-.5 3.4-1.5 5.4-.6 1.1-1.5 2.1-2.9 3.1-1 .7-2.3 1.3-3.7 1.5-.6.1-.8.2-.6.2h-21.9c-.2 0-.5-.2-.9-.5s-.5-.6-.5-.9V350c0-.3.2-.7.6-1 .4-.3.7-.5 1-.5h21.5c1.2 0 2.5.5 4.2 1.6 1.6 1.1 2.7 2.1 3.2 3.2.1.1.2.4.4.7.7 1.4 1.1 3 1.1 4.8m-2.9 0c0-1.4-.4-2.8-1.1-4-.9-1.5-2.2-2.5-3.8-2.9-.8-.3-1.3-.4-1.4-.4h-19.9V366H623c.2 0 .7-.1 1.4-.3 1.6-.6 2.9-1.5 3.7-2.9.8-1.1 1.2-2.5 1.2-4M672.3 348.7c.1-.1.4-.2.7-.2.4 0 .7.1.9.3.2.2 1.2 1.3 2.9 3.4 3.3 3.8 7.4 8.8 12.2 14.9.2.3.2.7-.1 1.1-.3.5-.7.7-1.1.7-.5 0-1.1-.4-1.7-1.1-.5-.6-.9-1.2-1.4-1.7h-23.1c-.5.6-1 1.2-1.4 1.8-.6.7-1.2 1.1-1.7 1.1-.4 0-.8-.2-1.1-.7-.1-.2-.2-.4-.2-.6 0-.5.3-1 .9-1.7.4-.4.8-.9 1.2-1.4 1.8-2.2 4-4.8 6.3-7.6 1.1-1.8 3.4-4.5 6.7-8.3m9.9 14.5l-9.3-11-9 11h18.3zM746 367.5c-.2.9-.7 1.3-1.4 1.3-.5 0-1.1-.2-1.8-.7-.5-.3-1-.7-1.5-1-3.2-1.8-7.2-4.2-12.2-7.2-6.9-4.2-11-6.6-12.2-7.4v15.1c-.1.8-.6 1.2-1.5 1.2-.7 0-1.1-.3-1.4-1v-18.3c.4-.7.8-1 1.4-1 .5 0 1.1.3 1.8.8.6.4 1.1.8 1.7 1.2 3.3 1.8 7.3 4.2 12.1 7.2 4 2.5 8 4.9 12 7.3v-15.1c.2-.8.7-1.2 1.5-1.2.7 0 1.2.4 1.5 1v17.8zM801.8 351.5h-13.4v16.4c-.3.7-.8 1-1.4 1-.7 0-1.2-.3-1.5-1v-16.4H772c-.7-.3-1.1-.8-1.1-1.4 0-.8.4-1.3 1.2-1.5h29.4c.8.2 1.3.7 1.3 1.5.1.6-.3 1.1-1 1.4M858.7 369h-29.5c-.2 0-.5-.2-.9-.5s-.5-.6-.5-.9V350c0-.3.2-.7.6-1 .4-.3.7-.5 1-.5h29c.8.2 1.3.7 1.3 1.5 0 .7-.3 1.2-1 1.4h-28v5.8h28c.7.3 1 .8 1 1.4 0 .6-.3 1.1-1 1.5h-28v5.8h28c.7.3 1 .8 1 1.4 0 .8-.3 1.3-1 1.7M916.8 367.5c-.3.9-.7 1.3-1.4 1.3-.5 0-1.1-.2-1.8-.7-.5-.3-1-.7-1.5-1-3.2-1.8-7.2-4.2-12.2-7.2-6.9-4.2-11-6.6-12.2-7.4v15.1c-.1.8-.6 1.2-1.5 1.2-.7 0-1.1-.3-1.4-1v-18.3c.4-.7.8-1 1.4-1 .5 0 1.1.3 1.8.8.6.4 1.1.8 1.7 1.2 3.3 1.8 7.3 4.2 12.1 7.2 4 2.5 8 4.9 12 7.3v-15.1c.2-.8.7-1.2 1.5-1.2.7 0 1.2.4 1.5 1v17.8z"/><path d="M956.2 359.9s-6.7-.7-7 2c-.2 2.7 1 4.2 3.5 4.2s29.8-1.5 29.8-1.5l9-1.7s-1-8.3 0-14.7 3.2-.5 3.5-12.4c.2-11.9-.5-48.7-3.5-62.2s3.5-40 3.5-40 8.2-20.4-7.3-46.5c0 0-3.2-.5-3-4.2 0 0 3.5-2.2 3-5-.5-2.7-1.2-7-.2-12.9s5.7-13.2 4.5-23.6-9-17.4-9-17.4-2.5-2.2 2-7.2 37.5-45 41-46.7c3.5-1.7 6-6.7 6-6.7l14.9-13.2s0-4-1.7-3.7c-1.7.2-2.7-.5-5 2.7s-16.2 14.9-22.1 20.1c-6 5.2-23.1 21.9-23.1 21.9s-.7 4.7-6.7 1-27.9-20.1-39.1-18.6c0 0-5.9-1.2-2.5 7.5 3.5 8.7-1.1 6.2-1.1 6.2v5.6s-.7 1.8-4.4 1.8 6.8-.2 6.8 2.7-3.8 3.5-3.3 6.8 2.3 12.8 3.6 13.6c1.3.8 5 .2 5 .2s4.8 1 2.2 4.5c-2.7 3.5-4.8 4.1-5.5 5.5s-2.2 2.5-5 3.8c-2.8 1.3-7.1 7-7 11.8.2 4.8 1.3 19.6-4.8 18.6s-8.1-.8-8.1 1.5.7 8 .7 8 2 4.3 4.1 5.8c2.2 1.5 1.8 3.5 1.8 3.5s4-.7 5.3 0 11.1 11.3 10.9 13.6c-.2 2.3-.5 45.1 0 48.4s8.1 30.5 10.3 35.3c2.2 4.8 2.7 18.4 2.7 18.4s1.8 4 1.8 5.1 2.7 21.9 3.8 25.4c1.2 3.5.5 4.6-.2 6.3s-1.7 4.8-.2 7 2.3 6.5.8 8.8c-1.5 2.3-.8 3.5-2.2 4.3s-4.9 6.3-8.5 6.3z"/>
    </symbol></svg>