<!-- Generator: Adobe Illustrator 19.0.0, SVG Export Plug-In  -->
<svg version="1.1"
	 xmlns="http://www.w3.org/2000/svg" xmlns:xlink="http://www.w3.org/1999/xlink" xmlns:a="http://ns.adobe.com/AdobeSVGViewerExtensions/3.0/"
	 x="0px" y="0px" width="45.3px" height="45.3px" viewBox="0 0 45.3 45.3" style="enable-background:new 0 0 45.3 45.3;"
	 xml:space="preserve">
<style type="text/css">
	.st0{fill:#FFFFFF;stroke:#FFFFFF;stroke-miterlimit:10;}
	.st1{fill:#010101;}
</style>
<defs>
</defs>
<circle id="XMLID_54_" class="st0" cx="22.6" cy="22.6" r="22.1"/>
<path id="XMLID_35_" class="st1" d="M35.7,21.1L35.7,21.1c-0.5-0.6-1.7-1.9-1.5-2.5c0.1-0.2,0.4-0.3,0.7-0.4c0.2,0,0.3-0.2,0.3-0.3
	c0-0.2-0.1-0.3-0.2-0.4c-0.2-0.1-0.4-0.1-0.8-0.2c-0.7-0.2-2.3-0.6-2.4-1.1c-0.1-0.2,0.1-0.4,0.3-0.6c0.1-0.1,0.1-0.3,0-0.5
	c-0.1-0.1-0.3-0.2-0.4-0.1c-0.3,0.1-0.5,0.2-0.7,0.3c-0.6,0.3-1.2,0.5-1.8,0.5c-0.2,0-0.3,0-0.4,0c-0.9,0-1.2-0.2-1.2-0.3
	c0,0,0,0,0,0c0,0,0-0.1,0-0.1c0-0.2,0-0.3-0.2-0.4c-0.2-0.1-0.3,0-0.5,0.1l-0.1,0.1c-0.8,0.9-1.5,1.7-2.6,1.7h0c0,0-0.1,0-0.1,0
	c-0.3-0.4-0.8-0.7-1.4-0.7c-0.4,0-0.7,0.1-1,0.4c-0.3-0.4-0.4-1-0.4-1.5c0-0.1,0-0.3-0.1-0.3c-0.1-0.1-0.3-0.1-0.4,0
	c-0.4,0.2-0.7,0.1-1-0.2c-0.3-0.4-0.4-1-0.4-1.4c0-0.2,0-0.3-0.2-0.4c-0.2-0.1-0.3,0-0.5,0.1c-0.1,0.2-0.5,0.5-1.1,0.5
	c-0.5,0-1-0.2-1.5-0.7c-0.1-0.1-0.4-0.1-0.5,0c-0.1,0.1-0.1,0.4,0,0.5c0.5,0.6,0.7,1.1,0.6,1.5c-0.1,0.4-0.6,0.5-1,0.6
	c-0.2,0-0.3,0.2-0.3,0.4c0,0.2,0.2,0.3,0.4,0.3c0.1,0,0.2,0,0.2,0c0.9,0,1.5,0.2,1.8,0.7c0.2,0.3,0.2,0.7,0.2,0.8c0,0,0,0.1,0,0.1
	c-0.3-0.3-0.6-0.6-0.8-0.9l-0.1-0.1c-0.1-0.1-0.3-0.2-0.4-0.1c-0.2,0.1-0.2,0.2-0.2,0.4c0.1,0.5-0.1,1.2-0.5,1.5
	c-0.2,0.1-0.4,0.1-0.7,0.1c-0.9,0-2-0.4-2.7-0.9c-0.2-0.1-0.4,0-0.5,0.1c-0.1,0.1-0.1,0.3,0,0.5c0.7,0.8,1,1.5,0.9,2
	c-0.1,0.7-1,1.1-1.7,1.4c-0.2,0.1-0.4,0.2-0.6,0.3C10,21.9,10,22.1,10,22.2c0,0.2,0.2,0.3,0.3,0.3c0.4,0.1,0.8,0.1,1.2,0.1
	c0.8,0,1.5,0,1.9,0.5c0.3,0.4,0.4,1,0.3,1.9c0,0.2,0.1,0.3,0.3,0.4c0,0,0.1,0,0.1,0c0.1,0,0.3-0.1,0.3-0.2c0.3-0.7,0.9-1.5,1.7-1.5
	c0,0,0,0,0,0c-0.5,1.2-0.8,1.8-2.5,2.6c-0.3,0.2-0.5,0.4-0.5,0.8c0,0.4,0.4,0.9,0.9,1.4c-0.4,0.8-0.4,1.6,0.1,1.9
	c0.2,0.1,0.3,0.2,0.5,0.2c0.5,0,1-0.3,1.4-0.7c0.4,0.2,0.9,0.4,1.3,0.6c1.1,0.4,2.1,0.6,2.9,0.6c0,0,0,0,0,0c1.7,0,2.5-0.8,2.5-0.9
	c0.1-0.1,0.1-0.3,0.1-0.4c-1-2-0.6-3,0-4.2c0-0.1,0.1-0.2,0.1-0.3c0,0.1,0.1,0.2,0.1,0.2c0.7,1.6,1,2.3,0.2,4.4
	c-0.2,0.3-0.3,0.7-0.1,0.9c0.2,0.4,0.6,0.6,1.4,0.6c0.4,0,0.8,0,1.2-0.1c0.3,0.3,0.6,0.4,0.9,0.4c0.1,0,0.2,0,0.3-0.1
	c0.3-0.1,0.6-0.4,0.6-0.8c0.6-0.2,1.2-0.4,1.8-0.7c2.7-1.2,5.3-2.9,4.8-4.1c-0.1-0.2-0.3-0.4-0.7-0.5C31.6,24.9,31,24,30.6,23
	c0,0,0,0,0,0c0,0,0-0.1,0-0.1c0-0.1-0.1-0.2-0.1-0.4c0.1,0.2,0.2,0.3,0.4,0.5c0.1,0.1,0.2,0.1,0.3,0.1h0c0.2,0,0.4-0.2,0.4-0.4
	c0,0,0-0.1,0-0.1c-0.1-0.4,0-0.8,0.2-1.1c0.1-0.2,0.4-0.4,0.7-0.4c0,0,0.1,0,0.1,0c0.5,0,1.5,0.3,2.1,0.5c0.5,0.1,0.7,0.2,0.8,0.2
	c0,0,0,0,0,0c0,0,0,0,0,0c0.2,0,0.4-0.2,0.4-0.4C35.8,21.3,35.8,21.2,35.7,21.1z M25.7,19.9c0.1,0,0.1,0,0.2,0
	c0.2,0.1,0.8,1.3,0.9,1.8c0,0.1,0.1,0.2,0.2,0.3c0.1,0,0.2,0,0.3,0c0.2-0.2,0.5-0.4,0.7-0.6c0.3-0.3,0.6-0.6,0.9-0.6c0,0,0,0,0,0
	c0.3,0.6,0.5,1.2,0.7,1.7c0,0.1,0.1,0.2,0.1,0.3c-0.8,0.2-1.6,0.5-2.5,0.9c-1.3,0.6-2.5,1.2-3.3,1.9c0-0.1-0.1-0.2-0.1-0.2
	c-0.2-0.5-0.5-1.1-0.7-1.8c-0.4-1.1-0.1-2,0.3-2.5c0,0,0,0,0,0c0.2,0.1,0.4,0.1,0.6,0.1C24.8,21.1,25.5,20.6,25.7,19.9z M24.2,26.3
	c0.8-0.7,2-1.4,3.3-1.9c0.8-0.4,1.7-0.7,2.5-0.9c0.1,0.2,0.2,0.3,0.2,0.5c-0.8,0.2-1.7,0.5-2.5,0.9c-1.3,0.6-2.5,1.2-3.3,1.9
	C24.3,26.6,24.3,26.4,24.2,26.3z M20.6,19.9c0-0.5,0.4-1,1-1c0.5,0,1,0.4,1,1s-0.4,1-1,1C21,20.8,20.6,20.4,20.6,19.9z M24,20.3
	c-0.3,0-0.6-0.1-0.7-0.3c0-0.1,0-0.1,0-0.2c0-0.3-0.1-0.6-0.2-0.8c0.1-0.4,0.5-0.7,0.9-0.7c0.5,0,1,0.4,1,1
	C25,19.9,24.6,20.3,24,20.3z M22.7,16.9c0.4,0,0.8,0.3,0.9,0.7c0,0,0,0.1,0,0.1c-0.4,0.1-0.7,0.4-1,0.7c-0.2-0.1-0.5-0.3-0.7-0.3
	c0-0.1-0.1-0.2-0.1-0.3C21.8,17.3,22.2,16.9,22.7,16.9z M16.6,15.3c0.1-0.1,0.2-0.3,0.3-0.5c0.1-0.3,0.1-0.6,0-0.9
	c0.2,0.1,0.5,0.1,0.7,0.1c0.4,0,0.7-0.1,1-0.3c0.1,0.4,0.2,0.8,0.5,1.2c0.4,0.4,0.8,0.7,1.4,0.6c0.1,0.6,0.3,1.2,0.6,1.7
	c-0.1,0.2-0.1,0.4-0.1,0.7c0,0.1,0,0.1,0,0.2c-0.3-0.2-0.5-0.5-0.7-0.9c-0.1-0.1-0.2-0.2-0.4-0.2c-0.2,0-0.3,0.1-0.3,0.3
	c0,0.1-0.1,0.1-0.1,0.2c-0.3-0.3-0.7-0.5-1.1-0.5c-0.1,0-0.2,0-0.3,0c-0.1-0.2-0.1-0.4-0.3-0.7C17.7,15.9,17.3,15.5,16.6,15.3z
	 M17.9,17.8c0.1,0,0.2,0,0.2-0.1c0.1-0.1,0.2-0.1,0.3-0.1c0.2,0,0.4,0.1,0.5,0.3c-0.2,0.1-0.4,0.2-0.6,0.2
	C18.2,18.1,18,18,17.9,17.8C17.8,17.8,17.9,17.8,17.9,17.8z M14.5,23.9c-0.1-0.5-0.2-0.9-0.5-1.3c-0.5-0.6-1.3-0.7-2.2-0.7
	c0.6-0.3,1.3-0.8,1.4-1.5c0.1-0.4,0-0.9-0.2-1.5c0.6,0.2,1.2,0.4,1.8,0.4c0.4,0,0.7-0.1,1-0.2c0.5-0.2,0.8-0.7,0.9-1.2
	c0.5,0.5,1,1,1.6,1c0.5,0,1.2-0.3,1.6-0.8c0.2,0.2,0.3,0.4,0.5,0.5c-0.4,0.3-0.6,0.8-0.6,1.3c0,0.1,0,0.2,0,0.3
	c-0.1,0.1-0.1,0.1-0.2,0.2c-0.3,0.3-0.4,0.7-0.5,1.1c-0.2,0-0.4-0.1-0.6-0.1c-1.2,0-1.6,1.1-1.7,1.9c-0.3-0.1-0.6-0.2-0.9-0.2
	C15.5,23,15,23.3,14.5,23.9z M21.4,27.4c0.1,0,0.2,0,0.2,0c0,0.1,0,0.3,0,0.4c-2.8,0.3-4.2-0.5-5.7-2.1c0.1-0.1,0.2-0.3,0.4-0.4
	C17.7,26.8,18.8,27.4,21.4,27.4z M14.7,29.9c0,0-0.1,0-0.1,0c-0.1-0.1-0.1-0.4,0-0.9c0.2,0.2,0.5,0.3,0.8,0.5
	C15.2,29.8,14.9,29.9,14.7,29.9z M20.4,30.4L20.4,30.4c-0.8,0-1.7-0.2-2.7-0.6c-2.2-0.8-3.8-2.2-3.8-2.7c0,0,0,0,0.1-0.1
	c0.6-0.3,1-0.5,1.4-0.8c1.4,1.4,2.9,2.4,5.3,2.4c0.3,0,0.7,0,1.1-0.1c0.1,0.4,0.2,0.9,0.5,1.4C21.9,30.1,21.3,30.4,20.4,30.4z
	 M22.2,25.4c-0.2,0.4-0.4,0.8-0.5,1.2c-2.9,0.1-3.8-0.6-5.1-2c0.1-0.2,0.2-0.4,0.2-0.6c0.1,0,0.2,0.1,0.3,0.2c0.1,0.1,0.3,0.1,0.4,0
	c0.1-0.1,0.2-0.2,0.2-0.3c0.1-1.5,0.5-1.8,1-1.8c0.2,0,0.5,0.1,0.8,0.2c0.1,0,0.3,0,0.4-0.1c0.1-0.1,0.1-0.2,0.1-0.3
	c-0.1-0.4,0-0.7,0.2-0.9c0.3,0.4,0.8,0.7,1.4,0.7c0.3,0,0.6-0.1,0.8-0.2c-0.3,0.8-0.3,1.6,0,2.4c0.1,0.2,0.2,0.4,0.2,0.6
	C22.5,24.8,22.4,25.1,22.2,25.4z M23.9,30.7c-0.1-0.2,0.3-0.6,1.1-1.3c0,0.3,0.1,0.7,0.2,1c0,0.1,0.1,0.2,0.2,0.4
	c-0.3,0-0.5,0.1-0.7,0.1C24,30.9,23.9,30.7,23.9,30.7z M26.7,31.1C26.7,31.1,26.7,31.1,26.7,31.1c-0.3,0-0.7-0.3-0.9-0.9
	c-0.1-0.3-0.2-0.7-0.1-0.9c0-0.2,0.1-0.3,0.2-0.4c0,0,0,0,0.1,0c0.2,0,0.6,0.3,0.8,0.9C27,30.5,26.9,31.1,26.7,31.1z M29.1,29.6
	c-0.5,0.2-1,0.4-1.5,0.6c0-0.2-0.1-0.4-0.2-0.6c-0.2-0.5-0.5-1-0.9-1.2c0.5-0.3,1-0.5,1.6-0.8c1.8-0.8,3.5-1.3,4.6-1.3
	c0.5,0,0.7,0.1,0.7,0.2C33.6,26.8,32.3,28.2,29.1,29.6z M31.9,25.7c-1.1,0.2-2.5,0.6-3.9,1.2c-1.3,0.6-2.6,1.3-3.5,2
	c0.1-0.5,0.1-0.9,0.1-1.3c0.8-0.7,2.1-1.4,3.5-2c0.9-0.4,1.8-0.7,2.6-0.9C31,25,31.3,25.3,31.9,25.7z M32.3,20.3
	c-0.5,0.1-1,0.3-1.3,0.7c-0.1,0.2-0.2,0.4-0.3,0.6c-0.3-0.5-0.7-1-1.2-1.3c-0.2-0.1-0.4-0.2-0.6-0.2c-0.5,0-1,0.4-1.4,0.8
	c-0.1,0.1-0.1,0.1-0.2,0.2c-0.2-0.7-0.7-1.6-1.2-1.8c-0.1,0-0.2-0.1-0.4-0.1c-0.1-0.8-0.7-1.4-1.4-1.5c0,0,0,0,0,0
	c1.2,0,2-0.8,2.7-1.6c0,0,0.1,0,0.1,0.1c0.3,0.3,0.9,0.5,1.7,0.5c0.1,0,0.3,0,0.4,0c0.7,0,1.3-0.3,1.9-0.5c0,0.1,0,0.2,0,0.4
	c0.3,0.9,1.6,1.3,2.7,1.6c-0.1,0.1-0.2,0.2-0.2,0.4c-0.3,0.7,0.2,1.5,0.8,2.4C33.7,20.5,32.8,20.2,32.3,20.3z"/>
</svg>
