<!-- Generator: Adobe Illustrator 19.0.0, SVG Export Plug-In  -->
<svg version="1.1"
	 xmlns="http://www.w3.org/2000/svg" xmlns:xlink="http://www.w3.org/1999/xlink" xmlns:a="http://ns.adobe.com/AdobeSVGViewerExtensions/3.0/"
	 x="0px" y="0px" width="45.3px" height="45.3px" viewBox="0 0 45.3 45.3" style="enable-background:new 0 0 45.3 45.3;"
	 xml:space="preserve">
<style type="text/css">
	.st0{fill:#FFFFFF;stroke:#FFFFFF;stroke-miterlimit:10;}
	.st1{fill:#010101;}
</style>
<defs>
</defs>
<circle id="XMLID_34_" class="st0" cx="22.6" cy="22.6" r="22.1"/>
<g id="XMLID_25_">
	<path id="XMLID_26_" class="st1" d="M30.8,24.2h-0.5V22c0-0.3-0.2-0.5-0.5-0.5c-0.3,0-0.5,0.2-0.5,0.5v2.3h-0.9v-6.8
		c0-0.2-0.2-0.5-0.5-0.5h-0.5v-2.3c0-0.2-0.2-0.5-0.5-0.5c-0.3,0-0.5,0.2-0.5,0.5V17h-0.9v-5c0-0.2-0.2-0.5-0.5-0.5h-2.3V9.3
		c0-0.2-0.2-0.5-0.5-0.5c-0.2,0-0.5,0.2-0.5,0.5v2.3h-2.3c-0.2,0-0.5,0.2-0.5,0.5v5h-0.9v-2.3c0-0.2-0.2-0.5-0.5-0.5
		s-0.5,0.2-0.5,0.5V17h-0.5c-0.2,0-0.5,0.2-0.5,0.5v6.8h-0.9V22c0-0.3-0.2-0.5-0.5-0.5s-0.5,0.2-0.5,0.5v2.3h-0.5
		c-0.2,0-0.5,0.2-0.5,0.5v8.1c0,0.3,0.2,0.5,0.5,0.5h16.3c0.3,0,0.5-0.2,0.5-0.5v-8.1C31.2,24.5,31,24.2,30.8,24.2z M24.9,12.5v0.9
		c-0.1-0.1-0.3-0.1-0.6-0.1c-0.4,0-0.6,0.1-0.8,0.2c-0.1,0.1-0.2,0.1-0.3,0.1c-0.1,0-0.2,0-0.3-0.1c-0.2-0.1-0.4-0.2-0.8-0.2
		s-0.6,0.1-0.8,0.2c-0.1,0.1-0.2,0.1-0.3,0.1c-0.1,0-0.2,0-0.3-0.1c-0.1-0.1-0.2-0.1-0.3-0.2v-0.8H24.9z M20.4,14.3
		c0.1,0.1,0.3,0.1,0.6,0.1c0.4,0,0.6-0.1,0.8-0.2c0.1-0.1,0.2-0.1,0.3-0.1c0.1,0,0.2,0,0.3,0.1c0.2,0.1,0.4,0.2,0.8,0.2
		c0.4,0,0.6-0.1,0.8-0.2c0.1-0.1,0.2-0.1,0.3-0.1s0.2,0,0.3,0.1c0.1,0.1,0.2,0.1,0.3,0.2V17h-4.5V14.3z M27.6,17.9v1.9
		c0,0-0.1,0-0.1-0.1c-0.2-0.1-0.5-0.3-1-0.3c-0.5,0-0.8,0.2-1,0.3c-0.2,0.1-0.3,0.2-0.6,0.2c-0.3,0-0.4-0.1-0.6-0.2
		c-0.2-0.1-0.5-0.3-1-0.3c-0.5,0-0.8,0.2-1,0.3c-0.2,0.1-0.3,0.2-0.6,0.2c-0.3,0-0.4-0.1-0.6-0.2c-0.2-0.1-0.5-0.3-1-0.3
		c-0.5,0-0.8,0.2-1,0.3c-0.2,0.1-0.3,0.2-0.6,0.2c-0.3,0-0.4-0.1-0.6-0.2c-0.1-0.1-0.3-0.2-0.5-0.2v-1.6H27.6z M17.7,20.5
		c0,0,0.1,0,0.1,0.1c0.2,0.1,0.5,0.3,1,0.3c0.5,0,0.8-0.2,1-0.3c0.2-0.1,0.3-0.2,0.6-0.2c0.3,0,0.4,0.1,0.6,0.2
		c0.2,0.1,0.5,0.3,1,0.3c0.5,0,0.8-0.2,1-0.3c0.2-0.1,0.3-0.2,0.6-0.2c0.3,0,0.4,0.1,0.6,0.2c0.2,0.1,0.5,0.3,1,0.3
		c0.5,0,0.8-0.2,1-0.3c0.2-0.1,0.3-0.2,0.6-0.2c0.3,0,0.4,0.1,0.6,0.2c0.1,0.1,0.3,0.2,0.5,0.2v3.5h-10V20.5z M30.3,25.2v1.9
		c-0.1,0-0.2-0.1-0.3-0.1c-0.2-0.1-0.5-0.2-1.1-0.2c-0.5,0-0.8,0.1-1.1,0.2c-0.2,0.1-0.4,0.1-0.8,0.1c-0.4,0-0.5-0.1-0.8-0.1
		c-0.2-0.1-0.5-0.2-1.1-0.2c-0.5,0-0.8,0.1-1.1,0.2c-0.2,0.1-0.4,0.1-0.8,0.1S23,27.1,22.8,27c-0.2-0.1-0.5-0.2-1.1-0.2
		c-0.5,0-0.8,0.1-1.1,0.2c-0.2,0.1-0.4,0.1-0.8,0.1s-0.5-0.1-0.8-0.1c-0.2-0.1-0.5-0.2-1.1-0.2S17.3,26.9,17,27
		c-0.2,0.1-0.4,0.1-0.8,0.1c-0.4,0-0.5-0.1-0.8-0.1c-0.2-0.1-0.3-0.1-0.6-0.2v-1.7H30.3z M14.9,32.4v-4.6c0.1,0,0.2,0.1,0.3,0.1
		c0.2,0.1,0.5,0.2,1.1,0.2c0.5,0,0.8-0.1,1.1-0.2c0.2-0.1,0.4-0.1,0.8-0.1s0.5,0.1,0.8,0.1c0.2,0.1,0.5,0.2,1.1,0.2
		c0.5,0,0.8-0.1,1.1-0.2c0.2-0.1,0.4-0.1,0.8-0.1c0.4,0,0.5,0.1,0.8,0.1c0.2,0.1,0.5,0.2,1.1,0.2c0.5,0,0.8-0.1,1.1-0.2
		c0.2-0.1,0.4-0.1,0.8-0.1c0.4,0,0.5,0.1,0.8,0.1c0.2,0.1,0.5,0.2,1.1,0.2c0.5,0,0.8-0.1,1.1-0.2c0.2-0.1,0.4-0.1,0.8-0.1
		s0.5,0.1,0.8,0.1c0.2,0.1,0.3,0.1,0.6,0.2v4.4H14.9z"/>
</g>
</svg>
