<!-- Generator: Adobe Illustrator 19.0.0, SVG Export Plug-In  -->
<svg version="1.1"
	 xmlns="http://www.w3.org/2000/svg" xmlns:xlink="http://www.w3.org/1999/xlink" xmlns:a="http://ns.adobe.com/AdobeSVGViewerExtensions/3.0/"
	 x="0px" y="0px" width="35.3px" height="14.5px" viewBox="0 0 35.3 14.5" style="enable-background:new 0 0 35.3 14.5;"
	 xml:space="preserve">
<defs>
</defs>
<g>
	<path d="M4.9,1.7C4.8,4.3,4.3,5,3.5,5.8C2.7,6.6,1.3,6.7,0.5,6c-0.8-0.8-0.6-2.2,0.2-3C1.5,2.2,2.2,1.7,4.9,1.7z"/>
	<path d="M9.6,12.3c-0.3,1-1.5,1.9-2.5,1.5c-1-0.3-1.5-1.7-1.2-2.7C6.2,10,6.6,9.3,8.9,8C10.1,10.4,9.9,11.3,9.6,12.3z"/>
	<path d="M20,3.9c0,1.1-0.9,2.2-2,2.2S16,5,16,3.9s0.1-2,2-3.9C19.9,2,20,2.8,20,3.9z"/>
	<path d="M28.8,14.4c-1,0.4-2.2-0.4-2.6-1.4c-0.4-1.1-0.6-1.9,0.4-4.3c2.4,1.1,2.8,1.8,3.2,2.9C30.2,12.6,29.8,14,28.8,14.4z"/>
	<path d="M34.9,5.3c-0.7,0.8-2.1,0.8-3,0.1c-0.9-0.7-1.4-1.4-1.7-4c2.6-0.2,3.3,0.2,4.2,1C35.3,3.1,35.6,4.5,34.9,5.3z"/>
</g>
</svg>
