<!-- Generator: Adobe Illustrator 19.0.0, SVG Export Plug-In  -->
<svg version="1.1"
	 xmlns="http://www.w3.org/2000/svg" xmlns:xlink="http://www.w3.org/1999/xlink" xmlns:a="http://ns.adobe.com/AdobeSVGViewerExtensions/3.0/"
	 x="0px" y="0px" width="100px" height="91.8px" viewBox="0 0 100 91.8" style="enable-background:new 0 0 100 91.8;"
	 xml:space="preserve">
<defs>
</defs>
<g>
	<path d="M30.7,73c6.1,5,13.8,8.1,22.3,8.1"/>
	<path d="M53,83.1c-8.6,0-17-3-23.6-8.5c-0.8-0.7-1-2-0.3-2.8s2-1,2.8-0.3c5.9,4.9,13.4,7.6,21.1,7.6c1.1,0,2,0.9,2,2
		S54.1,83.1,53,83.1z"/>
</g>
<path d="M37.6,51.4c0,10.4-8.4,18.8-18.8,18.8C8.4,70.2,0,61.8,0,51.4c0-10.4,8.4-18.8,18.8-18.8C29.2,32.7,37.6,41.1,37.6,51.4z"/>
<path d="M94.3,74.2c0,9.7-7.9,17.6-17.6,17.6c-9.7,0-17.6-7.9-17.6-17.6c0-9.7,7.9-17.6,17.6-17.6C86.4,56.6,94.3,64.5,94.3,74.2z"
	/>
<path d="M100,35.2c0-7.3-5.9-13.2-13.2-13.2c-1.7,0-3.2,0.3-4.7,0.9C76,15.3,67,10.1,56.7,9.1C54.4,3.7,49.1,0,43,0
	c-8.3,0-15,6.7-15,15c0,1.1,0.1,2.2,0.4,3.2c-2.8,2.5-5.2,5.4-7.2,8.7c-0.7,1.1-0.3,2.6,0.8,3.3c1.1,0.7,2.6,0.3,3.3-0.8
	c6-9.8,16.3-15.7,27.8-15.7c17.9,0,32.5,14.6,32.5,32.5c0,2.2-0.2,4.4-0.7,6.6c-0.3,1.3,0.6,2.6,1.9,2.8c0.2,0,0.3,0,0.5,0
	c1.1,0,2.1-0.8,2.3-1.9c0.4-1.9,0.6-3.8,0.7-5.8C95.9,46.4,100,41.3,100,35.2z"/>
</svg>
