<!-- Generator: Adobe Illustrator 19.0.0, SVG Export Plug-In  -->
<svg version="1.1"
	 xmlns="http://www.w3.org/2000/svg" xmlns:xlink="http://www.w3.org/1999/xlink" xmlns:a="http://ns.adobe.com/AdobeSVGViewerExtensions/3.0/"
	 x="0px" y="0px" width="45.3px" height="45.3px" viewBox="0 0 45.3 45.3" style="enable-background:new 0 0 45.3 45.3;"
	 xml:space="preserve">
<style type="text/css">
	.st0{fill:#FFFFFF;stroke:#FFFFFF;stroke-miterlimit:10;}
	.st1{fill:#010101;}
</style>
<defs>
</defs>
<circle id="XMLID_52_" class="st0" cx="22.6" cy="22.6" r="22.1"/>
<g id="XMLID_34_">
	<path id="XMLID_49_" class="st1" d="M22.6,16.3c1.5,0,2.8-1.3,2.8-2.8s-1.3-2.8-2.8-2.8s-2.8,1.3-2.8,2.8S21.1,16.3,22.6,16.3z
		 M22.6,11.4c1.2,0,2.1,0.9,2.1,2.1s-0.9,2.1-2.1,2.1c-1.2,0-2.1-0.9-2.1-2.1S21.4,11.4,22.6,11.4z"/>
	<path id="XMLID_46_" class="st1" d="M29.2,18c1.2,0,2.1-0.9,2.1-2.1s-0.9-2.1-2.1-2.1s-2.1,0.9-2.1,2.1S28.1,18,29.2,18z
		 M29.2,14.5c0.8,0,1.4,0.6,1.4,1.4s-0.6,1.4-1.4,1.4c-0.8,0-1.4-0.6-1.4-1.4C27.8,15.1,28.4,14.5,29.2,14.5z"/>
	<path id="XMLID_38_" class="st1" d="M31.2,18.1l-1,2L30,19.3h0.3v-0.7h-2.1v0.7h0.3l-0.2,0.9l-1-2.1c0,0-0.3,0.2-0.3,0.2
		C26.4,17,25,16.4,25,16.4L23.7,19l-0.3-1.3h0.3V17h-2.1v0.7h0.3L21.5,19l-1.3-2.5c0,0-1.4,0.5-1.9,1.9c0,0-0.3-0.2-0.3-0.2l-1,2
		l-0.2-0.8H17v-0.7h-2.1v0.7h0.3L15,20.2l-1-2.1c0,0-1.9,0.6-1.9,2.5v4.7h1v5.2h5.6V25h0.7v6.3h6.3V25h0.7v5.6H32v-5.2h1.1v-4.7
		C33.1,18.9,31.2,18.1,31.2,18.1z M16,19.3L16,19.3l0.5,1.8L16,22l-0.4-0.9L16,19.3z M18.1,29.9h-1.7V26h-0.7v3.8h-1.7v-5.2h-1v-4
		c0-0.6,0.3-1.2,0.9-1.6l2.3,4.5l2.1-4.1L18.1,29.9z M22.5,17.7h0.2l0.6,2.3l-0.6,1.3L22,19.9L22.5,17.7z M26.4,24.3H25v6.3h-2.1
		v-4.9h-0.7v4.9h-2.1v-6.3h-1.4v-4.9c0-0.8,0.4-1.6,1.1-2.1l2.7,5.4l2.7-5.4c0.7,0.4,1.1,1.2,1.1,2.1L26.4,24.3L26.4,24.3z
		 M29.2,19.3L29.2,19.3l0.5,1.8l-0.5,1l-0.4-0.9L29.2,19.3z M32.4,24.6h-1.1v5.2h-1.7V26h-0.7v3.8h-1.7V19.4l2.1,4.1l2.3-4.5
		c0.5,0.4,0.9,1,0.9,1.6V24.6L32.4,24.6z"/>
	<path id="XMLID_35_" class="st1" d="M16,18c1.2,0,2.1-0.9,2.1-2.1s-0.9-2.1-2.1-2.1s-2.1,0.9-2.1,2.1S14.8,18,16,18z M16,14.5
		c0.8,0,1.4,0.6,1.4,1.4s-0.6,1.4-1.4,1.4s-1.4-0.6-1.4-1.4C14.6,15.1,15.2,14.5,16,14.5z"/>
</g>
</svg>
