<!-- Generator: Adobe Illustrator 19.0.0, SVG Export Plug-In  -->
<svg version="1.1"
	 xmlns="http://www.w3.org/2000/svg" xmlns:xlink="http://www.w3.org/1999/xlink" xmlns:a="http://ns.adobe.com/AdobeSVGViewerExtensions/3.0/"
	 x="0px" y="0px" width="64.2px" height="65.6px" viewBox="0 0 64.2 65.6" style="enable-background:new 0 0 64.2 65.6;"
	 xml:space="preserve">
<defs>
</defs>
<path d="M61.7,20.4h-8.2v-7.1c0-0.1,0-0.1,0-0.2c0-0.7-0.3-1.3-0.7-1.8c0,0,0,0,0,0c-0.1-0.1-0.1-0.1-0.2-0.2l-11-10.5
	c0,0,0,0-0.1,0c-0.1-0.1-0.3-0.2-0.5-0.3c0,0-0.1,0-0.1-0.1c-0.2-0.1-0.4-0.2-0.6-0.2c0,0-0.1,0-0.1,0c-0.1,0-0.2,0-0.4,0h-26
	c-1.4,0-2.5,1.1-2.5,2.5v17.9H2.5c-1.4,0-2.5,1.1-2.5,2.5v23.5c0,1.4,1.1,2.5,2.5,2.5h8.7v14.3c0,1.4,1.1,2.5,2.5,2.5H51
	c1.4,0,2.5-1.1,2.5-2.5V48.9h8.2c1.4,0,2.5-1.1,2.5-2.5V22.9C64.2,21.5,63.1,20.4,61.7,20.4z M42.3,8.3l2.5,2.3h-2.5V8.3z M16.2,5
	h21v8.1c0,1.4,1.1,2.5,2.5,2.5h8.7v4.8H16.2V5z M48.5,60.6H16.2V41.2h32.3V60.6z M59.2,43.9h-5.7v-5.2c0-1.4-1.1-2.5-2.5-2.5H13.7
	c-1.4,0-2.5,1.1-2.5,2.5v5.2H5V25.4h8.7H51h8.2L59.2,43.9z"/>
<path d="M22.9,57.4h18.9c1.4,0,2.5-1.1,2.5-2.5s-1.1-2.5-2.5-2.5H22.9c-1.4,0-2.5,1.1-2.5,2.5S21.5,57.4,22.9,57.4z"/>
<path d="M22.9,49.4h18.9c1.4,0,2.5-1.1,2.5-2.5s-1.1-2.5-2.5-2.5H22.9c-1.4,0-2.5,1.1-2.5,2.5S21.5,49.4,22.9,49.4z"/>
</svg>
