<!-- Generator: Adobe Illustrator 19.0.0, SVG Export Plug-In  -->
<svg version="1.1"
	 xmlns="http://www.w3.org/2000/svg" xmlns:xlink="http://www.w3.org/1999/xlink" xmlns:a="http://ns.adobe.com/AdobeSVGViewerExtensions/3.0/"
	 x="0px" y="0px" width="88px" height="50.1px" viewBox="0 0 88 50.1" style="enable-background:new 0 0 88 50.1;"
	 xml:space="preserve">
<defs>
</defs>
<path d="M4,50.1c-1.9,0-2.9-0.9-3.4-1.6c-1.1-1.6-0.4-3.4-0.3-3.8L11.5,7.1c0.3-0.9,1-1.5,1.9-1.6c5.9-0.7,10.4-1.8,13.2-3.2
	C29.6,0.8,32.8,0,35.6,0c3.7,0,6.7,1.3,8.5,3.5C46.1,1.3,49.1,0,52.7,0c2.9,0,6,0.8,9.1,2.4C64.6,3.8,69,4.8,75,5.5
	c0.9,0.1,1.6,0.7,1.9,1.6l10.8,36.3c0.1,0.5,0.8,3.1-0.6,4.9c-1,1.3-2.4,1.9-4.7,1.5c-5.2-0.9-10.5-2.1-14.4-4
	c-3.8-1.9-7.7-2.9-11-2.9c-3.3,0-5.8,1-7.1,2.9c-0.4,0.7-1.2,1.1-2,1l-7.5-0.2c-0.7,0-1.3-0.4-1.7-0.9c-2.7-3.6-8.4-3.5-18.7,0.3
	c-4.4,1.6-9.6,3-14.6,3.9C4.9,50,4.4,50.1,4,50.1z M57.1,38.4c4,0,8.5,1.2,13,3.4c3.3,1.7,8.3,2.7,13.1,3.6c0.1,0,0.2,0,0.3,0
	c0-0.2,0-0.5-0.1-0.8L73,9.8c-5.8-0.8-10.2-1.9-13.2-3.4c-2.5-1.2-4.9-1.9-7.1-1.9c-3.9,0-6.3,2-6.3,5.4c0,1.2-1,2.3-2.3,2.3
	s-2.3-1-2.3-2.3c0-3.4-2.4-5.4-6.3-5.4c-2.2,0-4.6,0.7-7.1,1.9c-3,1.5-7.4,2.7-13.2,3.4L4.8,45.5c4.7-0.9,9.6-2.2,13.8-3.7
	c5.8-2.1,10.4-3.1,14-3.1c3.9,0,6.9,1.2,9.1,3.5l5.3,0.2C49.2,39.8,52.7,38.4,57.1,38.4z"/>
<path d="M81,49.6c-0.3,0-0.6-0.1-0.9-0.2c-6.2-2.6-11.3-5-15.9-7.5l-0.9-0.5c-4.2-2.3-8.2-4.5-12.7-4.3c-0.8,0.1-3.9,0.5-4.9,0.9
	c-0.4,0.4-1,0.6-1.6,0.6c-1.2,0-2.3-1-2.3-2.3V9.9c0-1.2,1-2.3,2.3-2.3s2.3,1,2.3,2.3v23.2c1.1-0.2,2.4-0.4,4-0.5
	c5.7-0.3,10.7,2.4,15.1,4.8l0.9,0.5c4.5,2.4,9.4,4.8,15.4,7.3c1.1,0.5,1.7,1.8,1.2,2.9C82.7,49.1,81.9,49.6,81,49.6z"/>
<path d="M13.1,41.5c-1,0-2-0.7-2.2-1.8c-0.2-1.2,0.6-2.4,1.8-2.6c2.2-0.4,3.4-0.9,5.4-1.7c1.4-0.6,3.2-1.3,5.8-2.2
	c12.8-4.3,21.3,1.1,21.6,1.3c1,0.7,1.3,2.1,0.7,3.1c-0.7,1-2.1,1.3-3.1,0.7c-0.3-0.2-7.1-4.4-17.7-0.8c-2.5,0.8-4.2,1.5-5.6,2.1
	c-2,0.8-3.6,1.5-6.2,2C13.4,41.5,13.2,41.5,13.1,41.5z"/>
</svg>
