<!-- Generator: Adobe Illustrator 19.0.0, SVG Export Plug-In  -->
<svg version="1.1"
	 xmlns="http://www.w3.org/2000/svg" xmlns:xlink="http://www.w3.org/1999/xlink" xmlns:a="http://ns.adobe.com/AdobeSVGViewerExtensions/3.0/"
	 x="0px" y="0px" width="53.7px" height="97.7px" viewBox="0 0 53.7 97.7" style="enable-background:new 0 0 53.7 97.7;"
	 xml:space="preserve">
<defs>
</defs>
<g>
	<path d="M4.9,9.7C2.2,9.7,0,7.5,0,4.9C0,2.2,2.2,0,4.9,0s4.8,2.2,4.8,4.9C9.7,7.5,7.5,9.7,4.9,9.7L4.9,9.7z"/>
	<path d="M0,19.5c0-2.7,2.2-4.8,4.9-4.8s4.8,2.2,4.8,4.8c0,2.7-2.2,4.9-4.8,4.9S0,22.2,0,19.5L0,19.5z"/>
	<path d="M14.7,19.5c0-2.7,2.2-4.8,4.9-4.8c2.7,0,4.8,2.2,4.8,4.8c0,2.7-2.2,4.9-4.8,4.9C16.8,24.4,14.7,22.2,14.7,19.5L14.7,19.5z"
		/>
	<path d="M14.7,34.2c0-2.7,2.2-4.9,4.9-4.9c2.7,0,4.8,2.2,4.8,4.9c0,2.7-2.2,4.8-4.8,4.8C16.8,39,14.7,36.9,14.7,34.2L14.7,34.2z"/>
	<path d="M14.7,63.5c0-2.7,2.2-4.8,4.9-4.8c2.7,0,4.8,2.2,4.8,4.8c0,2.7-2.2,4.9-4.8,4.9C16.8,68.3,14.7,66.2,14.7,63.5L14.7,63.5z"
		/>
	<path d="M34.2,39c-2.7,0-4.8-2.2-4.8-4.8c0-2.7,2.2-4.9,4.8-4.9c2.7,0,4.9,2.2,4.9,4.9C39,36.9,36.8,39,34.2,39L34.2,39z"/>
	<path d="M34.2,53.7c-2.7,0-4.8-2.2-4.8-4.8s2.2-4.9,4.8-4.9c2.7,0,4.9,2.2,4.9,4.9S36.8,53.7,34.2,53.7L34.2,53.7z"/>
	<path d="M48.8,53.7c-2.7,0-4.8-2.2-4.8-4.8s2.2-4.9,4.8-4.9s4.8,2.2,4.8,4.9S51.5,53.7,48.8,53.7L48.8,53.7z"/>
	<path d="M34.2,68.3c-2.7,0-4.8-2.2-4.8-4.9c0-2.7,2.2-4.8,4.8-4.8c2.7,0,4.9,2.2,4.9,4.8C39,66.2,36.8,68.3,34.2,68.3L34.2,68.3z"
		/>
	<path d="M0,78.2c0-2.7,2.2-4.9,4.9-4.9s4.8,2.2,4.8,4.9c0,2.7-2.2,4.8-4.8,4.8S0,80.8,0,78.2L0,78.2z"/>
	<path d="M14.7,78.2c0-2.7,2.2-4.9,4.9-4.9c2.7,0,4.8,2.2,4.8,4.9c0,2.7-2.2,4.8-4.8,4.8C16.8,83,14.7,80.8,14.7,78.2L14.7,78.2z"/>
	<path d="M0,92.8C0,90.1,2.2,88,4.9,88s4.8,2.2,4.8,4.9c0,2.7-2.2,4.8-4.8,4.8S0,95.5,0,92.8L0,92.8z"/>
</g>
</svg>
