<!-- Generator: Adobe Illustrator 19.0.0, SVG Export Plug-In  -->
<svg version="1.1"
	 xmlns="http://www.w3.org/2000/svg" xmlns:xlink="http://www.w3.org/1999/xlink" xmlns:a="http://ns.adobe.com/AdobeSVGViewerExtensions/3.0/"
	 x="0px" y="0px" width="28.3px" height="58.8px" viewBox="0 0 28.3 58.8" style="enable-background:new 0 0 28.3 58.8;"
	 xml:space="preserve">
<style type="text/css">
	.st0{fill:#010202;}
</style>
<defs>
</defs>
<polygon id="XMLID_28_" class="st0" points="0,38 0,44.7 14.1,58.8 28.3,44.7 28.3,38 14.1,52.2 "/>
<polygon id="XMLID_27_" class="st0" points="0,29.4 0,36 14.1,50.2 28.3,36 28.3,29.4 14.1,43.5 "/>
<path id="XMLID_24_" class="st0" d="M0,16v11.4l14.1,14.1l14.1-14.1V16c-4.2-2.4-9-3.7-14.1-3.7C9,12.3,4.2,13.6,0,16 M14.1,34.8
	L0.5,21.2C4.4,18.5,9.1,17,14.1,17c5.1,0,9.8,1.6,13.6,4.2L14.1,34.8z"/>
<path id="XMLID_23_" class="st0" d="M0,9.1v5.2c4.2-2.3,9-3.5,14.1-3.5c5.1,0,9.9,1.3,14.1,3.5V9.1c-4.3-1.9-9.1-3-14.1-3
	C9.1,6.1,4.3,7.2,0,9.1"/>
<path id="XMLID_22_" class="st0" d="M0,2.5v5.1c4.3-1.8,9.1-2.9,14.1-2.9c5,0,9.8,1,14.1,2.9V2.5C23.9,0.9,19.1,0,14.1,0
	C9.2,0,4.4,0.9,0,2.5"/>
</svg>
