<!-- Generator: Adobe Illustrator 19.0.0, SVG Export Plug-In  -->
<svg version="1.1"
	 xmlns="http://www.w3.org/2000/svg" xmlns:xlink="http://www.w3.org/1999/xlink" xmlns:a="http://ns.adobe.com/AdobeSVGViewerExtensions/3.0/"
	 x="0px" y="0px" width="67px" height="67px" viewBox="0 0 67 67" style="enable-background:new 0 0 67 67;" xml:space="preserve">
<style type="text/css">
	.st0{fill:#FFFFFF;}
</style>
<defs>
</defs>
<g transform="matrix(0, -1, 1, 0, 0, 100)">
	<g>
		<path class="st0" d="M66.5,0C48,0,33,15,33,33.5S48,67,66.5,67S100,52,100,33.5S85,0,66.5,0z M68.5,5.6c0-1.1,0.9-1.9,2-1.8
			c0,0-0.6-0.1,0,0c14.7,2,26,14.5,26,29.7c0,16.6-13.4,30-30,30s-30-13.4-30-30c0-15.2,11.3-27.8,26-29.7c0.7-0.1,0,0,0,0
			c1.1-0.1,2,0.7,2,1.8v36.2c0,0.6-0.3,0.7-0.7,0.3l-9.9-9.9c-1.9-1.9-4.7,0.9-2.8,2.8l13.7,13.8c1,1,2.5,1,3.5,0L81.9,35
			c1.9-1.9-0.9-4.7-2.8-2.8L69.2,42c-0.4,0.4-0.7,0.3-0.7-0.3V5.6z"/>
	</g>
</g>
</svg>
