<!-- Generator: Adobe Illustrator 19.0.0, SVG Export Plug-In  -->
<svg version="1.1"
	 xmlns="http://www.w3.org/2000/svg" xmlns:xlink="http://www.w3.org/1999/xlink" xmlns:a="http://ns.adobe.com/AdobeSVGViewerExtensions/3.0/"
	 x="0px" y="0px" width="121.8px" height="319.8px" viewBox="0 0 121.8 319.8" style="enable-background:new 0 0 121.8 319.8;"
	 xml:space="preserve">
<defs>
</defs>
<path d="M31,313.6c0,0-6.7-0.7-7,2c-0.2,2.7,1,4.2,3.5,4.2s29.8-1.5,29.8-1.5l9-1.7c0,0-1-8.3,0-14.7c1-6.5,3.2-0.5,3.5-12.4
	s-0.5-48.7-3.5-62.2s3.5-40,3.5-40s8.2-20.4-7.3-46.5c0,0-3.2-0.5-3-4.2c0,0,3.5-2.2,3-5s-1.2-7-0.2-12.9c1-6,5.7-13.2,4.5-23.6
	s-9-17.4-9-17.4s-2.5-2.2,2-7.2c4.5-5,37.5-45,41-46.7c3.5-1.7,6-6.7,6-6.7l14.9-13.2c0,0,0-4-1.7-3.7s-2.7-0.5-5,2.7
	C112.8,6,98.9,17.7,92.9,22.9c-6,5.2-23.1,21.9-23.1,21.9s-0.7,4.7-6.7,1C57.1,42,35.2,25.6,24,27.1c0,0-5.9-1.2-2.5,7.5
	s-1.1,6.2-1.1,6.2v5.6c0,0-0.7,1.8-4.4,1.8s6.8-0.2,6.8,2.7c0,2.8-3.8,3.5-3.3,6.8c0.5,3.3,2.3,12.8,3.6,13.6c1.3,0.8,5,0.2,5,0.2
	s4.8,1,2.2,4.5c-2.7,3.5-4.8,4.1-5.5,5.5c-0.7,1.3-2.2,2.5-5,3.8s-7.1,7-7,11.8s1.3,19.6-4.8,18.6C2,114.5,0,114.6,0,117
	c0,2.3,0.7,8,0.7,8s2,4.3,4.1,5.8c2.2,1.5,1.8,3.5,1.8,3.5s4-0.7,5.3,0c1.3,0.7,11.1,11.3,10.9,13.6c-0.2,2.3-0.5,45.1,0,48.4
	c0.5,3.3,8.1,30.5,10.3,35.3c2.2,4.8,2.7,18.4,2.7,18.4s1.8,4,1.8,5.1c0,1.2,2.7,21.9,3.8,25.4c1.2,3.5,0.5,4.6-0.2,6.3
	s-1.7,4.8-0.2,7s2.3,6.5,0.8,8.8c-1.5,2.3-0.8,3.5-2.2,4.3C38.5,307.6,34.6,313.6,31,313.6z"/>
</svg>
