<!-- Generator: Adobe Illustrator 19.0.0, SVG Export Plug-In  -->
<svg version="1.1"
	 xmlns="http://www.w3.org/2000/svg" xmlns:xlink="http://www.w3.org/1999/xlink" xmlns:a="http://ns.adobe.com/AdobeSVGViewerExtensions/3.0/"
	 x="0px" y="0px" width="67px" height="67px" viewBox="0 0 67 67" style="enable-background:new 0 0 67 67;" xml:space="preserve">
<style type="text/css">
	.st0{fill:#FFFFFF;}
</style>
<defs>
</defs>
<g transform="matrix(0, -1, 1, 0, 0, 100)">
	<g>
		<path class="st0" d="M100,33.5C100,15,85,0,66.5,0S33,15,33,33.5S48,67,66.5,67S100,52,100,33.5z M68.5,25.3
			c0-0.6,0.3-0.7,0.7-0.3l9.9,9.9c1.9,1.9,4.7-0.9,2.8-2.8L68.3,18.2c-1-1-2.5-1-3.5,0L51.1,32c-1.9,1.9,0.9,4.7,2.8,2.8l9.9-9.9
			c0.4-0.4,0.7-0.3,0.7,0.3l0,36.2c0,1.1-0.9,1.9-2,1.8c0,0,0.6,0.1,0,0c-14.7-2-26-14.5-26-29.7c0-16.6,13.4-30,30-30
			s30,13.4,30,30c0,15.2-11.3,27.8-26,29.7c-0.7,0.1,0,0,0,0c-1.1,0.1-2-0.7-2-1.8L68.5,25.3z"/>
	</g>
</g>
</svg>
