<!-- Generator: Adobe Illustrator 19.0.0, SVG Export Plug-In  -->
<svg version="1.1"
	 xmlns="http://www.w3.org/2000/svg" xmlns:xlink="http://www.w3.org/1999/xlink" xmlns:a="http://ns.adobe.com/AdobeSVGViewerExtensions/3.0/"
	 x="0px" y="0px" width="52.1px" height="36px" viewBox="0 0 52.1 36" style="enable-background:new 0 0 52.1 36;"
	 xml:space="preserve">
<defs>
</defs>
<g transform="translate(0,-952.36218)">
	<path d="M49.8,952.4c-0.4,0.1-0.8,0.3-1.2,0.6c-10.2,10.3-20.5,20.5-30.7,30.7L3.4,971.6c-0.8-0.8-2.1-0.7-2.8,0.1
		s-0.7,2.1,0.1,2.8c0.1,0.1,0.1,0.1,0.2,0.2l16,13.3c0.8,0.7,2,0.6,2.7-0.1c10.7-10.7,21.3-21.3,32-32c0.8-0.8,0.8-2,0.1-2.8
		C51.1,952.5,50.5,952.3,49.8,952.4z"/>
</g>
</svg>
