<!-- Generator: Adobe Illustrator 19.0.0, SVG Export Plug-In  -->
<svg version="1.1"
	 xmlns="http://www.w3.org/2000/svg" xmlns:xlink="http://www.w3.org/1999/xlink" xmlns:a="http://ns.adobe.com/AdobeSVGViewerExtensions/3.0/"
	 x="0px" y="0px" width="142.6px" height="191px" viewBox="0 0 142.6 191" style="enable-background:new 0 0 142.6 191;"
	 xml:space="preserve">
<style type="text/css">
	.st0{fill:#171C1D;}
	.st1{fill:#010202;}
	.st2{fill:none;stroke:#000000;stroke-width:7.4361;stroke-linecap:round;stroke-miterlimit:10;}
</style>
<defs>
</defs>
<polygon id="XMLID_2_" class="st0" points="0,86.2 0,120 71.1,191 142.6,120 142.6,86.2 71.1,157.8 "/>
<path id="XMLID_1_" class="st1" d="M0,18.6v57.5l71.1,71.1l71.1-71.1V18.6C121.5,7.1,97.3,0,71.1,0C45.4,0,21.2,7.1,0,18.6
	 M71.1,113.9L2.5,44.9c19.7-13.6,43.3-21.2,68.5-21.2c25.7,0,49.4,8.1,68.5,21.2L71.1,113.9z"/>
<line class="st2" x1="51.1" y1="45.4" x2="87.1" y2="45.4"/>
<line class="st2" x1="51.4" y1="56" x2="87.4" y2="56"/>
<line class="st2" x1="51.1" y1="66.7" x2="87.1" y2="66.7"/>
</svg>
