<!-- Generator: Adobe Illustrator 19.0.0, SVG Export Plug-In  -->
<svg version="1.1"
	 xmlns="http://www.w3.org/2000/svg" xmlns:xlink="http://www.w3.org/1999/xlink" xmlns:a="http://ns.adobe.com/AdobeSVGViewerExtensions/3.0/"
	 x="0px" y="0px" width="917.8px" height="459.5px" viewBox="0 0 917.8 459.5" style="enable-background:new 0 0 917.8 459.5;"
	 xml:space="preserve">
<style type="text/css">
	.st0{fill:#EBEBEB;stroke:#EBEBEB;stroke-miterlimit:10;}
</style>
<defs>
</defs>
<g>
	<path class="st0" d="M304.3,163.3c11.5-16,19.2-22.8,33.7-49.1c11.7-21.4,19.9-41.6,18.3-65.5c-2.7-39.6-43.7-54.2-78.9-45.8
		c-54,12.9-102.7,64.6-104,121.4c-0.6,26.1,4.1,49.5,20.6,56.6c10,4.3,45.3,3.3,39.8-11.6c-10.8,1.6-26.1,8.9-38.5,3.3
		c-16.4-7.3-17.1-45.5-13.5-64.4c4.5-23.6,20.9-48,34.3-61.5c17.5-17.8,51.3-38.7,83.9-37.4c20.7,0.8,44.6,13.2,48.5,38.1
		c4.1,26.3-7.7,43.9-18.8,67.8c-14.2,30.7-52.6,66-69.5,82.5c8.7-39.6,19.9-86.4,27.7-126.1c0.9-4.5,4.8-13.2-2.3-15.5
		c-4.8,11.1-6.2,24.2-9,37.4c-5.6,26-10,52-15.5,77.2c-5.9,27-11.9,46.2-31.1,58.1c-4.7-8.1-8.7-17.5-18.1-18.1
		c-12.1-0.7-19.5,11.7-27.2,17.7c-9.5-5.5-22.3-8.3-37.3-6.6c-43.3,5-81.1,30.7-104.4,56.4C19.4,304-3.8,347.1,1.2,394.2
		c1.6,15.3,6.5,35.5,19.3,46c18.5,15.2,48.4,3.8,67.2-6.3c62.4-44.5,109.6-102.9,147.1-170.2c2.9,55.4-4.3,114.6-5.5,172.9
		c-0.2,7.3-2.2,17.5,5.1,22c2.4-31.7,2.3-64.6,3.9-97.2c1.6-32.4,7.3-63.9,4.1-93.9c-0.5-5.1-0.6-9.9,1-14.8
		c3.8-11.6,9.3-25.5,10.7-37.5c9.2-7.8,13.8-12.9,26.4-25.8C288.4,181.2,296.5,174.2,304.3,163.3 M191,242.7c3.6-1.6-0.2-6.2-0.4-9
		c7.2-12.9,29.3-20.1,33.7,0.1c-13.9,9.6-41,32.3-45.9,26.8c-3.8-4.9,4.5-14.6,6.7-20.2C188.3,239.9,187,244.2,191,242.7
		 M116.6,401.4c-16.3,14-33.3,28.9-53.5,36.1c-45.4,16.1-60.5-26.9-55.7-69.1c7.8-69.1,69-126.6,138.6-137.7
		c9.6-1.5,23-0.6,33.1,4.3c-3.7,8.9-13.1,20.8-6.8,31.5c13.2,7.5,38.6-16.6,56.4-25.5c0.7,4.1,2.6,7,3.8,10.5
		C206.8,306.9,164.2,360.6,116.6,401.4 M237.1,242.3c-5.9-5.4,0.3-12.5,5.9-14.3C240.9,232.6,239.3,237.8,237.1,242.3"/>
</g>
<g>
	<path class="st0" d="M612,264.3c7.1-14.9,14.9-29.8,22.7-44.6c7.4-14.2,18-30.1,15.1-48.4c-1.4,0.1-2.7,0.1-4.1,0.2
		c-11.4,35-27.5,65.6-44.3,95.7c-7.4,0.7-12.2,2-16.5-1.7c-1.6,2.4-2.5,5.6-2.9,9.2c1.8,2.9,4.9,4.4,8.5,5.4
		c-8.4,9.1-18.4,16.8-31.1,21.9c2.5-5.7,8.8-12.7,3.3-19.1c-11.6-0.9-14.7,10.2-20.9,11.6c0.5-6.9-1.2-11.3-5.5-12.9
		c-7.3,6.2-11.6,15.1-21.4,19c1.9-6.8,1.2-13.9-4.1-17.1c-10.4,1.2-26.2,4.4-36.6,8.2c1-4.3,1.1-11.1-4.6-10.5
		c-7.9,9.3-15.6,18.8-29.4,22.7c0.7-9.1,11.7-14.3,6.3-24.1c-6.1-1.8-6.4,4.7-8.7,7.8c-6.5,8.7-16.4,15-26.4,17.6
		c1.8-10.6,19.7-22.4,8.4-32.4c-9,14.1-21,25.4-38.9,31.3c1.7-6.9,6.4-10.9,8.3-17.6c-2.1-4.3-5.4-7.4-7.9-11.2
		c-10.5,2.8-23.5,3.6-33.5,4.8c4.5-12.3,19-39.8,20.6-54.4c1.1-9.8,0.4-16.8-6.5-17.8c-4.8,30-12.4,57.4-32.1,73.8
		c-1.6,0.1-3.3,0.2-4.9,0.2c-1.2,4.4-1.2,9.9-6.1,11c-0.6-8.9-6.3-13.8-12.9-13.4c-16.4,1-22.1,28.8-38.1,31.3
		c-0.8-4.1,0.9-6,1.2-9.1c7.9-4.8,25.5-16.9,26-26.6c0.4-8.2-5.2-12.2-11.9-9.3c-9.5,4-15,18.3-19.4,27.2c-2.8-0.2-9,1.2-10.2,4.6
		c4.3,7.2,4,20.2,13.1,22.4c2.5,0.6,5.4,0,8.2-1.2c12.1-5.2,19-29.8,34.9-29.5c7.8,17-19.9,22.8-17.3,33.1c2.3-0.8,3,3.2,4.9,2.8
		c11.1-10.1,23.6-23,34-31.1c-3.5,8.4-11.8,16.5-8.6,28.3c1.9-0.1,3.8-0.2,5.8-0.3c2.9-12.6,7.6-23.5,15-31.9
		c7.7,0.9,13.5-3.8,18.8-2.5c-5.6,6.6-16.1,15.5-11.1,26.8c10.3,2.7,14.6-5.7,21.8-8.4c4.6,19.2,21-0.7,30.3-3
		c-0.4,4-0.9,7,0.5,10.7c11,6.8,18.1-5.8,27.6-7.8c1.8,16,17.8,4,24.7,0.6c5.8,18.2,18.4-12.2,30-10.4c-3.8,4.9-8.7,8.9-7.4,18.4
		c10.2,6.7,17.6-6,25.1-9.3c-0.5,5.4,2.8,6.7,5.3,8.8c8.6-1.8,15.5-9.4,20-12.4c-1.4,3.7-4.1,6.2-3.6,11.7c6.1,6.4,8.5-1,12.1-4.6
		c5.2-5.2,13.5-11.6,16.6-14.7c-3.4,6.1-9.1,10-8.2,20.1c1.9,0.2,3.6,0.7,4.2,2.3c18.9-6.4,33.7-20.6,45.5-30.8
		c-1.6,5.2-4.1,12.5-6.6,19.2c-2,5.5-9,15.2,0.8,17.2c8.4-13.6,9.9-33.4,18.5-46.9c2.7-0.1,138.4-28.2,214.4-30.9
		c74.6-2.7,66.6,2.9,68.2,2.7c14-1.9,28.6-10.1,19.6-12.4c-1.6-0.4-11.5,0.5-81.8,2.3C752.1,238.8,614.6,264.5,612,264.3 M284.3,273
		c9.9-3.4-2.5,13.3-6.2,11.1C272.7,282.1,282.7,276,284.3,273 M362,303.4c0-6,8.6-19.6,14.2-14.6C382.2,292.1,364,304.5,362,303.4
		 M488.7,307.3c0-6.1,6.3-16,14.2-14.6C515.8,293.7,488.7,307.3,488.7,307.3"/>
</g>
<g>
	<path class="st0" d="M289.1,349.2c0.2-0.1,0.3-0.1,0.5-0.1c0.4,0,0.8,0.1,1.1,0.4c0.3,0.3,0.4,0.6,0.4,1c0,0.8-0.5,1.4-1.5,1.7
		c-0.8,0.2-1.5,0.4-2.3,0.6c-4.8,1.4-12,3.6-21.6,6.5c4.7,1.4,9.6,3,14.8,4.6c2.2,0.6,5.5,1.6,9.9,3c0.2,0,0.3,0.2,0.5,0.5
		c0.2,0.3,0.2,0.5,0.2,0.6c-0.1,1-0.6,1.6-1.5,1.6c-0.4,0-1-0.1-1.6-0.4c-0.5-0.2-0.9-0.3-1.4-0.5c-5.4-1.6-13.6-4.1-24.5-7.4v6.9
		c-0.1,0.8-0.6,1.2-1.4,1.2c-0.7,0-1.2-0.3-1.5-1v-18.2c0.3-0.7,0.8-1,1.5-1c0.8,0,1.2,0.4,1.4,1.3v6.8c1-0.3,2.8-0.8,5.5-1.5
		C275.1,353.5,282.3,351.4,289.1,349.2"/>
</g>
<g>
	<path class="st0" d="M348.1,359.3c0,1-0.1,1.8-0.3,2.3c-0.2,0.6-0.6,1.3-1.2,2.1c-1.5,2.1-3.8,3.6-6.9,4.6
		c-2.3,0.7-4.8,1.1-7.6,1.1c-2.5,0-4.6-0.2-6.3-0.7c-6.5-1.9-9.7-5-9.7-9.5c0-1.7,0.5-3.2,1.5-4.4c3.1-3.8,7.9-5.8,14.5-5.8
		c1.4,0,2.5,0.1,3.3,0.1c3.5,0.4,6.4,1.5,8.8,3.2C346.8,354.4,348.1,356.6,348.1,359.3 M345.2,359.3c0-2.1-1.4-3.8-4.1-5.3
		c-2-1.1-4-1.7-5.9-1.9c-1.3-0.1-2.3-0.1-3-0.1c-2.3,0-4.1,0.2-5.5,0.7c-0.7,0.2-1.8,0.6-3,1c-3.1,1.5-4.6,3.3-4.6,5.6
		c0,2.4,1.6,4.3,4.9,5.7c2.6,1,5.3,1.6,8.2,1.6c3,0,5.6-0.5,7.8-1.4C343.4,363.8,345.2,361.8,345.2,359.3"/>
</g>
<g>
	<path class="st0" d="M405,367.8c-0.1,0.8-0.6,1.3-1.5,1.3c-0.9,0-1.4-0.4-1.5-1.3v-15.1c-2.5,1.6-6.8,4.2-12.8,7.6
		c-0.2,0.1-0.9-0.2-2.3-1.1c-2.4-1.4-6.1-3.6-11-6.6v15.1c-0.1,0.8-0.6,1.2-1.5,1.2c-0.7,0-1.1-0.3-1.4-1v-18.3
		c0.2-0.6,0.7-0.9,1.3-0.9c0.4,0,0.9,0.2,1.4,0.5c1.7,1.1,3.8,2.4,6.5,4c4.1,2.3,6.3,3.7,6.7,3.9c3-1.8,7.4-4.5,13.3-8
		c0.2-0.1,0.5-0.3,0.9-0.5c0.1-0.1,0.3-0.1,0.4-0.1c0.4,0,0.7,0.1,1,0.4c0.3,0.3,0.4,0.6,0.4,0.8V367.8z"/>
</g>
<g>
	<path class="st0" d="M461.9,367.8c-0.1,0.8-0.6,1.3-1.5,1.3c-0.9,0-1.4-0.4-1.5-1.3v-15.1c-2.6,1.6-6.8,4.2-12.8,7.6
		c-0.2,0.1-1-0.2-2.3-1.1c-2.4-1.4-6.1-3.6-11-6.6v15.1c-0.1,0.8-0.6,1.2-1.5,1.2c-0.7,0-1.2-0.3-1.4-1v-18.3
		c0.2-0.6,0.6-0.9,1.3-0.9c0.4,0,0.9,0.2,1.4,0.5c1.7,1.1,3.8,2.4,6.5,4c4.1,2.3,6.3,3.7,6.7,3.9c3-1.8,7.4-4.5,13.3-8
		c0.2-0.1,0.5-0.3,0.9-0.5c0.1-0.1,0.3-0.1,0.4-0.1c0.4,0,0.7,0.1,1,0.4c0.3,0.3,0.4,0.6,0.4,0.8V367.8z"/>
</g>
<g>
	<path class="st0" d="M502,349.2c0.1-0.1,0.4-0.2,0.7-0.2c0.4,0,0.6,0.1,0.9,0.3c0.2,0.2,1.2,1.3,2.9,3.4c3.3,3.8,7.4,8.8,12.2,14.9
		c0.2,0.3,0.2,0.7-0.1,1.1c-0.3,0.5-0.7,0.7-1.1,0.7c-0.5,0-1.1-0.4-1.7-1.1c-0.5-0.6-0.9-1.2-1.4-1.7h-23.2
		c-0.5,0.6-0.9,1.2-1.4,1.8c-0.6,0.7-1.2,1.1-1.7,1.1c-0.4,0-0.8-0.2-1.1-0.7c-0.1-0.2-0.2-0.4-0.2-0.6c0-0.5,0.3-1,0.9-1.7
		c0.4-0.4,0.8-0.9,1.2-1.4c1.8-2.2,4-4.8,6.3-7.6C496.4,355.7,498.7,353,502,349.2 M511.9,363.7l-9.3-11l-9.1,11H511.9z"/>
</g>
<g>
	<path class="st0" d="M575.8,368c-0.3,0.9-0.7,1.3-1.4,1.3c-0.5,0-1.1-0.2-1.8-0.7c-0.5-0.3-1-0.7-1.5-1c-3.2-1.8-7.2-4.2-12.2-7.2
		c-6.9-4.2-11-6.6-12.2-7.4v15.1c-0.1,0.8-0.6,1.2-1.5,1.2c-0.7,0-1.1-0.3-1.4-1V350c0.4-0.7,0.8-1,1.4-1c0.5,0,1.1,0.3,1.8,0.8
		c0.6,0.4,1.1,0.8,1.7,1.2c3.3,1.8,7.3,4.2,12.1,7.2c4,2.5,8,4.9,12,7.3v-15.1c0.2-0.8,0.7-1.2,1.5-1.2c0.7,0,1.2,0.4,1.5,1V368z"/>
</g>
<g>
	<path class="st0" d="M632.7,359.3c0,1.6-0.5,3.4-1.5,5.4c-0.6,1.1-1.5,2.1-2.9,3.1c-1,0.7-2.3,1.3-3.7,1.5
		c-0.6,0.1-0.8,0.2-0.6,0.2h-21.9c-0.2,0-0.5-0.2-0.9-0.5c-0.4-0.3-0.5-0.6-0.5-0.9v-17.5c0-0.3,0.2-0.7,0.6-1
		c0.4-0.3,0.7-0.5,1-0.5h21.5c1.2,0,2.5,0.5,4.2,1.6c1.6,1.1,2.7,2.1,3.2,3.2c0.1,0.1,0.2,0.4,0.4,0.7
		C632.3,355.9,632.7,357.5,632.7,359.3 M629.8,359.3c0-1.4-0.4-2.8-1.1-4c-0.9-1.5-2.2-2.5-3.8-2.9c-0.8-0.3-1.3-0.4-1.4-0.4h-19.9
		v14.5h19.9c0.2,0,0.7-0.1,1.4-0.3c1.6-0.6,2.9-1.5,3.7-2.9C629.4,362.2,629.8,360.8,629.8,359.3"/>
</g>
<g>
	<path class="st0" d="M672.8,349.2c0.1-0.1,0.4-0.2,0.7-0.2c0.4,0,0.7,0.1,0.9,0.3c0.2,0.2,1.2,1.3,2.9,3.4
		c3.3,3.8,7.4,8.8,12.2,14.9c0.2,0.3,0.2,0.7-0.1,1.1c-0.3,0.5-0.7,0.7-1.1,0.7c-0.5,0-1.1-0.4-1.7-1.1c-0.5-0.6-0.9-1.2-1.4-1.7
		H662c-0.5,0.6-1,1.2-1.4,1.8c-0.6,0.7-1.2,1.1-1.7,1.1c-0.4,0-0.8-0.2-1.1-0.7c-0.1-0.2-0.2-0.4-0.2-0.6c0-0.5,0.3-1,0.9-1.7
		c0.4-0.4,0.8-0.9,1.2-1.4c1.8-2.2,4-4.8,6.3-7.6C667.2,355.7,669.5,353,672.8,349.2 M682.7,363.7l-9.3-11l-9,11H682.7z"/>
</g>
<g>
	<path class="st0" d="M746.5,368c-0.2,0.9-0.7,1.3-1.4,1.3c-0.5,0-1.1-0.2-1.8-0.7c-0.5-0.3-1-0.7-1.5-1c-3.2-1.8-7.2-4.2-12.2-7.2
		c-6.9-4.2-11-6.6-12.2-7.4v15.1c-0.1,0.8-0.6,1.2-1.5,1.2c-0.7,0-1.1-0.3-1.4-1V350c0.4-0.7,0.8-1,1.4-1c0.5,0,1.1,0.3,1.8,0.8
		c0.6,0.4,1.1,0.8,1.7,1.2c3.3,1.8,7.3,4.2,12.1,7.2c4,2.5,8,4.9,12,7.3v-15.1c0.2-0.8,0.7-1.2,1.5-1.2c0.7,0,1.2,0.4,1.5,1V368z"/>
</g>
<g>
	<path class="st0" d="M802.3,352h-13.4v16.4c-0.3,0.7-0.8,1-1.4,1c-0.7,0-1.2-0.3-1.5-1V352h-13.5c-0.7-0.3-1.1-0.8-1.1-1.4
		c0-0.8,0.4-1.3,1.2-1.5h29.4c0.8,0.2,1.3,0.7,1.3,1.5C803.4,351.2,803,351.7,802.3,352"/>
</g>
<g>
	<path class="st0" d="M859.2,369.5h-29.5c-0.2,0-0.5-0.2-0.9-0.5c-0.4-0.3-0.5-0.6-0.5-0.9v-17.5c0-0.3,0.2-0.7,0.6-1
		c0.4-0.3,0.7-0.5,1-0.5h29c0.8,0.2,1.3,0.7,1.3,1.5c0,0.7-0.3,1.2-1,1.4h-28v5.8h28c0.7,0.3,1,0.8,1,1.4c0,0.6-0.3,1.1-1,1.5h-28
		v5.8h28c0.7,0.3,1,0.8,1,1.4C860.2,368.6,859.9,369.1,859.2,369.5"/>
</g>
<g>
	<path class="st0" d="M917.3,368c-0.3,0.9-0.7,1.3-1.4,1.3c-0.5,0-1.1-0.2-1.8-0.7c-0.5-0.3-1-0.7-1.5-1c-3.2-1.8-7.2-4.2-12.2-7.2
		c-6.9-4.2-11-6.6-12.2-7.4v15.1c-0.1,0.8-0.6,1.2-1.5,1.2c-0.7,0-1.1-0.3-1.4-1V350c0.4-0.7,0.8-1,1.4-1c0.5,0,1.1,0.3,1.8,0.8
		c0.6,0.4,1.1,0.8,1.7,1.2c3.3,1.8,7.3,4.2,12.1,7.2c4,2.5,8,4.9,12,7.3v-15.1c0.2-0.8,0.7-1.2,1.5-1.2c0.7,0,1.2,0.4,1.5,1V368z"/>
</g>
</svg>
